<svg version="1" xmlns="http://www.w3.org/2000/svg" width="682.667" height="682.667" viewBox="0 0 512.000000 512.000000"><path d="M247 22.9c-1.4.5-11 5-21.3 10-10.4 5-19 9.1-19.1 9.1-.2 0-9.7 4.6-21.2 10.1-11.5 5.6-24 11.6-27.9 13.4-3.8 1.8-14 6.6-22.5 10.7s-18.9 9.1-23 11.1c-27 12.7-42.9 20.8-45.3 23-3.7 3.3-7.5 12.6-7.1 17.4.4 5.1 1.3 14.1 1.8 17.6.2 1.5.7 5.5 1.1 9 .4 3.4.9 7.1 1.1 8.2.2 1.1.6 4.9.9 8.6.3 3.6.7 7.5 1 8.7.2 1.1.7 5.2 1 8.9.4 3.7.9 7.7 1.1 8.8.3 1.1.7 4.5.9 7.5.5 5.2.8 7.7 2.1 17.5.3 2.2.7 6 .9 8.5.2 2.5.6 5.6.9 7 .3 1.4.7 5.5 1 9.2.2 3.6.7 7.1 1.1 7.8.4.6.5 1.4.2 1.6-.2.3-.1 2 .3 3.9.5 2.1.3 3.8-.4 4.6-.8.9-.8 1 .3.4s1.3-.3.9 1.3c-.4 1.2-.2 2.5.3 2.8.5.3.7.9.5 1.3-.3.4-.1 2.4.4 4.4.5 2.3.4 3.9-.2 4.3-.7.4-.7.9 0 1.3.6.3 1.3 3.5 1.6 7.1.7 7 1 9.2 2 15.7.5 3.2.4 4.3-.6 4.3s-1 .2-.1.8c.7.4 1.5 2.8 1.8 5.2.2 2.5.7 6.1 1 8 .3 1.9.7 5.9.9 8.7.3 2.9.8 5.8 1.2 6.4.5.8.3 1-.7.4-1.1-.6-1.2-.5-.1.6.6.7 1.2 2.4 1.2 3.7 0 1.6-.4 2.1-1.2 1.6-.7-.4-.6.1.4 1.2 1.1 1.3 1.8 4.7 2.3 10.4.4 4.7.9 8.7 1.1 8.9.2.2-.2 1.1-.9 1.9-.9 1.3-.9 1.4.1.8.8-.5 1.2-.1 1.3 1.1 0 1 .2 2.7.4 3.8.3 1.1.6 4 .8 6.5.3 2.5 1.2 6.2 2 8.3 1.9 4.4 2 5.2.8 5.2-.5 0-1.2.3-1.5.6-.4.3.6.6 2.1.5 1.8-.1 2.7.4 2.6 1.1-.2.7 0 1.2.5 1.1 1.2-.4 6.2 3.4 5.6 4.3-.3.5.1.6.9.3.7-.2 2.6.8 4.2 2.3 1.6 1.5 2.5 2.2 2 1.4-.6-1-.4-1.2.4-.7.7.5 1 1.4.7 2.2-.3.7 0 1.6.6 2 .7.5.8.2.3-.5-.5-.9-.2-1.2 1.1-.9 1.1.2 1.8 1.1 1.6 2-.1.9.7 2.2 1.9 2.8 1.3.8 1.9 1.8 1.6 3-.3 1.2 0 1.7.8 1.4.9-.4 1.1.5.9 3.1l-.2 3.5 1.8-2.2c1.1-1.3 1.9-1.8 2-1.1 0 .6-.5 1.5-1 1.8-1.5.9.7 4.5 2.3 3.9.8-.3 1.4.2 1.4 1.1 0 1.1-.6 1.4-1.6.9-.9-.3-2.2-.7-2.9-.7-.7 0-1.1-.6-.8-1.3.3-.8 0-1.1-1-.7-1.6.6-1.9 2.3-.4 2.3.6 0 1.2-.1 1.3-.3.2-.1 1.1.4 2 1.1.9.8 2.5 1.1 3.7.7 2.7-.9 2.6.3-.2 1.6l-2.3 1 2.2-.5c1.7-.3 2.9.4 4.5 2.7 1.7 2.4 1.9 2.9.5 2.4-1.2-.4-1.4-.2-1 1 .4 1.1.2 1.4-.5.9-.7-.4-1.2-.3-1.2.1 0 .5.9 1.4 1.9 2 1.5 1 2.1 1 2.4 0 .2-.7.8-.8 1.3-.4.5.5 0 1.5-1.1 2.4-1.4 1.1-1.5 1.4-.4 1 1.7-.6 8.5 3 7.5 4-.3.3-1.7-.2-3.1-1.1-1.9-1.3-3-1.4-4.3-.6-1.5 1-1.5 1 .3.6 2.6-.7 5.7 1.7 4.9 3.8-.3.9-.1 1.6.6 1.6.6 0 .9-.4.6-.9-.3-.4.3-1.6 1.4-2.6 2.1-1.9 2.8-.7.8 1.3-.6.6-1 1.3-.7 1.4.2.2 1.7 1.4 3.3 2.8 1.6 1.4 2.6 1.9 2.2 1.3-.4-.7-.3-1.3.2-1.3 1.6 0 2.2 1.3 1.2 2.5-.8.9-.6 1.4.5 1.9.9.3 1.4 1 1.1 1.5-.3.5-.1 2 .4 3.3 1 2.1 1 2 .5-.6-.6-2.6-.4-2.8.9-1.7.9.8 1.6.9 1.6.5 0-.5-.9-1.5-2-2.2-2.4-1.4-2.6-3.2-.5-3.2 1.8 0 2-1.6.4-2.6-.8-.4-.7-.9.2-1.5.7-.4 1-1.1.6-1.6-1.4-1.3-2.7 2-1.4 3.6 1 1.1.9 1.3-.3.9-.8-.3-1.4-1.4-1.2-2.4.2-1 .4-2.4.4-3.1.1-.6.9-1.1 1.9-1 1 .1 1.6.4 1.3.8-.2.4.4.6 1.4.5.9 0 1.7.6 1.7 1.4 0 .9-.8 1.4-1.9 1.3-1.3-.1-1.5.2-.7 1 .7.7 1.5.7 2.5-.2 1.2-1 1.5-.9 1.3.8-.1 1.6-.6 2-2.2 1.6-1.1-.3-1.4-.2-.7.1 1.8.9.4 2.4-1.6 1.7-1-.4-.7.2.8 1.5 2 1.6 2.3 2.3 1.3 3.3-.7.7-1.3 1.7-1.3 2.2 0 .5.9-.1 2-1.5 1.3-1.7 2.9-2.5 5.2-2.6 2.9-.1 3.1.1 1.5 1.2-2 1.5-2.3 2.8-.4 2 2.4-.9 3.9-4.4 2.6-6-.7-.9-.8-1.4-.1-1.4 2.4 0 3.7 4.6 1.5 5.4-.9.4-1.2 1.3-.9 2.4.4 1.2-.1 2.6-1.4 3.7-1.1 1-2 2.3-2 2.9 0 .6.7 0 1.6-1.2 1.5-2.2 1.7-2.2 3-.5.7 1 1.4 1.3 1.4.8 0-.6-.5-1.6-1.2-2.3-.8-.8-.8-1.2-.1-1.2 1.6 0 3.6 2.8 2.8 4.1-.9 1.3 1.4 5.9 2.8 5.9.6 0 .3-.8-.6-1.8-1-1-1.7-2.5-1.7-3.3 0-.8 1.1-.1 2.6 1.6 2.5 2.9 2.6 2.9 1 .2-2-3.2-.4-3.7 1.8-.5.9 1.2 1.6 1.7 1.6 1.1 0-.6-.6-1.8-1.4-2.6-1.2-1.1-1.1-1.5.6-2.6 1.8-1.1 2-1.1 1.5.3-.3.8 0 2.2.8 3 1.7 1.7 2 3 .5 2.1-.5-.3-1-.1-1 .5 0 .7.7.9 1.6.6 1.2-.4 1.5-.2 1 .9-.3.8-.1 1.5.4 1.5.6 0 1-.8 1-1.7 0-1.3.3-1.4 1.2-.5 1.7 1.7-.7 4-4 3.6-2.4-.3-2.4-.3-.4.4 1.3.4 2.3 1.2 2.3 1.7-.1.6.5 1 1.2 1 .6 0 1.2-.9 1.2-1.9 0-1.1.6-2.1 1.3-2.4.8-.2 1 .2.5 1.5-.3 1-.3 1.5.1 1.1.7-.5 1.3-2.7 1.5-5.1.1-.5.6-.5 1.1-.2.6.4.8 1 .5 1.5-.3.5.1 2 1 3.3 1.4 2.2 1.2 3.7-.6 3.7-.5 0-.6-.6-.3-1.4.3-.8.1-1.7-.5-2.1-.7-.4-.8 0-.4 1.1.4 1 .2 1.5-.3 1.1-1.4-.8-4 1-3 2 .5.4 1.1.2 1.3-.4.4-1 1-.9 2.6.2 2.7 1.9 2.9 1.9 5.7-.5 2.8-2.4 3.7-2.5 3.7-.5 0 1-.6 1.4-1.6 1-1.1-.4-1-.1.4 1.5 1.3 1.4 2.5 1.8 3.9 1.4 1.8-.6 1.9-.5.8.8-1 1.3-.9 1.7.5 2.3 1 .5 2.4.7 3.1.6.7-.1 1.2.2 1.1.6-.4 2.4.2 3.4 2 2.8 1.4-.4 1.8-.1 1.7 1.1 0 .9.5 1.8 1.2 2 .7.1.8 0 .2-.3-.5-.2-1-.9-1-1.4 0-.6.5-.7 1-.4.6.3 1 .2 1-.2 0-.5-.9-1.4-2-2.1-1.5-.9-2-.9-2 0 0 1.5-1.3.1-1.6-1.7-.3-1.9.7-1.9 3.2-.1 1.4 1 2.3 1.1 3.2.4 1-.9 1.2-.5.8 1.8-.3 1.6-.1 3.6.4 4.4.5.8 1 1.1 1 .6 0-.4.8.2 1.8 1.4 2.1 2.6 5.3 1.8 4.9-1.2-.1-1.2.5-2.3 1.3-2.6 1.2-.4 1.3-.2.3.9-.8 1-.9 1.9-.2 2.9.8 1.2 1.2 1.2 1.6.2.4-1 .8-.9 1.9.5 1.7 2.3 1.8 3.9.1 2.4-2.1-1.6-8.1-.1-6.3 1.6.4.4 1 .3 1.4-.2 1.2-1.8 3.2-1.6 5.4.5 1.6 1.5 2.4 1.7 2.9.8.5-.7 1.2-.9 1.6-.4.4.4-.1 1.5-1.2 2.3-1.6 1.2-1.6 1.4-.3 1 1-.3 2-.2 2.3.3.3.5-.4 1.1-1.5 1.5-1.1.3-2 1.1-2 1.6s1.1.2 2.5-.7c2.1-1.4 2.3-1.9 1.3-3.2-1.1-1.3-1-1.5.5-.9 1 .4 2.1.7 2.3.7.3 0 .2.6-.3 1.2-.4.7.5.5 2-.5s3.3-1.4 4-1c1.8 1.1 3.7 1.2 3.7.2 0-.6-.7-.9-1.6-.7-1 .2-1.9-.2-2.1-.7-.2-.7 1.2-1 3.4-1 2.1.1 4.9-.5 6.1-1.2 3.4-2.1 3.8-.9.6 1.6-1.7 1.3-2.4 2.6-2 3.6.3.9 1 1.4 1.5 1 .5-.3 1.1.5 1.3 1.7.2 1.5 1 2.2 3 2.2 1.4.1 2.4-.2 2.1-.7-.3-.5-1.4-.7-2.4-.4-1.3.3-1.9-.1-2.1-1.7-.2-1.1-.9-2-1.6-1.9-1.9.4-1.4-1.2 1-3.3 1.9-1.7 2.1-1.7 1.5-.1-.9 2.3.2 4.7 2.1 4.7 1.3 0 1.2-.3-.4-1.4-1.5-1.2-1.7-1.7-.6-2.7 1-1.1 1.2-1 1.2.5 0 1.4.5 1.2 2.5-1 2.3-2.4 2.6-5.2.4-3.9-.5.4-.9.1-.9-.4 0-1.4 2.7-1.4 3.5-.1.4.6 1 .8 1.4.5.5-.2.9.7.9 2 0 1.9-.4 2.3-1.3 1.5-.9-.8-1.4-.6-1.9.6-.8 2.1.1 3.4 2.5 3.4 1.1 0 1.8.4 1.4.9-.6 1.1 3.3 3.6 4.3 2.7.3-.3 0-.6-.7-.6s-.9-.4-.6-1c.3-.6-.1-.7-1-.4-1 .4-1.5.2-1.3-.7.2-.8-.7-1.5-1.9-1.7-1.3-.2-2.3-.8-2.3-1.4 0-.5.6-.8 1.4-.5.8.3 2.2-.3 3.2-1.4 1.6-1.8 2-1.9 3-.5s1.4 1.3 3.8-.9c3.1-2.9 3.6-3 3.6-1 0 .8-.4 1.5-1 1.5-.5 0-1 .4-1 1 0 1.8 1.9 1 2.5-1.1 1-3.1-1.2-4.9-3.1-2.5-.7 1.1-1.6 1.7-1.9 1.4-.3-.3.4-1.6 1.5-2.9l2-2.4 1.9 2.3c1.1 1.2 2.3 2.2 2.8 2.2 1.6 0 3.2-2.2 2.6-3.6-.8-2.2-2.2-1.6-1.8.7.2 1.2 0 1.9-.7 1.7-1.8-.6-2-4.8-.3-4.8.8 0 1.5-.5 1.5-1.1 0-.5-.6-.7-1.2-.3-1 .5-1 .4-.1-.6 1.3-1.4 3.7-.4 2.7 1.2-.5.7-.2.8.6.3 1-.6 1.2-.4.7.8-.4 1.1-.2 1.4.8 1 .8-.3 1.2-.9.9-1.4-.3-.5 0-.9.6-.9s1.3.7 1.6 1.5c.4.8 1.1 1.5 1.6 1.5.6 0 .4-.8-.3-1.7-1.2-1.5-1.2-1.6.6-1 1.9.7 1.9.6.2-.7-.9-.7-2.8-1.2-4.2-1.1-1.4.2-2.7-.1-3.1-.6-.3-.5.1-1 .8-1 .7-.1 2-.2 2.8-.3.8-.1 2.6.4 3.9 1.2 1.3.8 2.1 1 1.7.4-.3-.5.1-1.3 1-1.6.9-.4 1.4-.9 1.1-1.3-.4-.3-1.3 0-2.2.7-.8.7-1.5.8-1.5.2 0-1.7 2.7-3.3 4.6-2.6 1.4.4 1.5.3.6-.4-1.1-.7-1-1 .3-1.6 2.3-.9 2.5-.8 1.9.8-.3.8-.1 1.7.5 2.1.7.3.8 0 .5-.9-.4-1 0-1.3 1.3-1.1 1 .2 2.2.4 2.6.4.5.1.5.5.2 1.1-.3.6.1.7 1 .4 1-.4 1.5-.2 1.3.6-.2.7.3 1.4 1 1.6.7.1.8 0 .2-.3-.5-.2-.8-.9-.4-1.4.3-.5-.6-1.4-2-2-1.4-.7-2.3-1.6-2-2.1.3-.5 2.1.3 4 1.7 2 1.6 3.1 2 2.8 1.1-.3-.8-1.4-1.8-2.3-2.1-2-.6-6.9-5.5-5.6-5.5.5 0 1.6.7 2.6 1.6 1.7 1.5 1.8 1.4 1.4-1.6-.4-2.6-.2-3 .9-2.1.8.7 1.2 2.1.9 3.2-.4 1.2 0 2.5.8 2.9 1.8 1.2 2.9.3 2.9-2.1 0-1.1.4-1.8.9-1.5 1 .7 2.5-2.2 2.2-4.3-.1-.7.2-1 .8-.6.6.3.9 0 .6-.7-.4-.9.4-1.4 2.4-1.4 2.8-.2 3.3.8 1.8 3.3-.5.7-.3 2.1.3 3 1 1.6 1 1.5.5-.4-.3-1.2-.1-2.4.5-2.8.5-.3 1 .2 1 1.1 0 1 .3 1.5.6 1.1.4-.3.3-1.4-.1-2.4-1-2.1-1.2-2.9-1.4-4.4-.1-.8-.6-.8-1.6.1-1.1.9-1.5.9-1.5.1 0-3.6 5.8-1.3 7.2 2.9.2.7 1.2 1.4 2.1 1.6.9.1 1.5-.2 1.1-.7-.3-.5-1-.7-1.5-.4-.5.4-.9-.1-.9-.9s-.7-2.1-1.5-3c-.9-.9-1.1-1.7-.5-2.1.5-.3 1.5.3 2.1 1.4.7 1 1.9 1.7 2.6 1.4.9-.4 1.1 0 .7 1.1-.3.9-.4 1.6-.1 1.6.3 0 .7-.7 1-1.5.4-.9-.4-1.9-2-2.7-1.5-.7-2.9-2-3.1-2.8-.4-1.1.1-.9 1.7.5 1.2 1.1 2.2 1.5 2.1 1-.6-2.6.2-4.1 2-4.2 1.1-.1 1.8.2 1.5.8-.4.5-.1.9.5.9.7 0 .9-.7.6-1.6-.3-.9-.6-1.8-.6-2.1 0-.3-.7.1-1.6.8-1.5 1.2-1.6 1.1-1-.8.4-1.2.2-2.4-.4-2.8-.5-.3-1-1.1-1-1.7 0-.7.4-.7 1.3.1.8.6 1.8.7 2.2.3.5-.4.5.1.2 1.1-.4 1.1-.3 1.6.3 1.2.6-.3 1 0 1 .8s.8 2.1 1.8 2.8c1.4 1.1 1.5 1.1.5-.1-.7-.8-1.3-2-1.3-2.8 0-.9.7-.6 2 .9 1 1.3 1.9 1.8 2 1.1 0-.6-.4-1.2-1-1.2-.5 0-1-.7-1-1.6 0-1.1-.5-1.4-1.6-1-1 .4-1.4.2-1.1-.6.2-.7 1-1.2 1.6-1.1 1 .3 1.5-1 1.2-3-.2-1.3 1.6-.7 4.3 1.4 2.2 1.7 3 1.9 3.9.9.9-1 .8-1.2-.5-.7-.9.3-2.2-.1-3-1-1.1-1.5-1.1-1.6.5-1 1 .4 1.6.3 1.3-.2-.3-.5.1-1.2 1-1.5 1.2-.4 1.5-.2 1 .9-.3.8-.1 1.5.4 1.5.6 0 1-1 1-2.2v-2.2l2.1 2.1c1.2 1.1 1.8 2.6 1.5 3.2-1.1 1.8-2.6 1.3-2-.7.5-1.4.4-1.5-.5-.2-1.9 2.7.8 3.8 3 1.1 1.9-2.4 2.2-2.2 2 1.4l-.1 2 .9-2c.5-1.3.3-2.7-.5-4.1-.8-1.1-1.1-2.4-.8-2.7.4-.4.1-1.3-.6-2.2-.8-.9-.9-1.5-.2-1.5.6 0 1.6.8 2.1 1.7.9 1.6 1 1.6 1.1.1 0-2.1 5.9-7.1 7.6-6.4.7.3 1.6 0 2-.6.4-.6.3-.8-.2-.5-.6.3-1.5-.3-2.2-1.4-.7-1-.8-1.9-.3-1.9.6 0 1.3.4 1.6 1 .3.5 1.1 1 1.7 1 .5 0 0-.9-1.3-2-1.3-1-1.9-1.9-1.3-2 .5 0 1.5.5 2.2 1.2.8.8 1.2.9 1.2.1 0-.6-.5-1.3-1.2-1.5-.6-.2-1.2-1.4-1.3-2.6-.1-1.3.3-2.1.9-1.9.6.2 1 1.1 1 2-.1.9.4 1.8 1.1 2.1.9.3 1.1-.3.8-1.7-.4-1.8-.3-1.9.7-.7.9 1.2 1 1 .4-1-.6-2.4-.6-2.4 1.3-.8 1.6 1.5 2.2 1.6 3.7.5s1.5-1.4.1-3.2c-1.6-2-1.6-2-.6.2.8 1.6.7 2.2-.5 2.7-1.1.4-1.5.2-1.1-.8.4-1 .1-1.3-.9-.9-1.4.5-1.4.3-.3-1.6.8-1.1 1.9-2.1 2.6-2.1.6 0 1.4-.4 1.8-.9.3-.6-.4-.9-1.5-.8-1.1.1-2 .5-2 1 0 .4-.4.5-1 .2-.5-.3-.7 0-.5.7.4.9-.2 1.4-1.5 1.4-2.6 0-2.6-2.6 0-3.3 1.1-.3 2-.8 2-1.2 0-.9 4.2-.8 5.8.2.6.5 1.2.5 1.2 0 0-.4.5-.1 1.1.7.7 1 .9 1.1.7.2-.2-.8-.6-1.2-.9-1-.3.2-1.3-.3-2.2-1-.9-.8-2.2-1-2.8-.6-.8.4-.9.3-.5-.4s1.1-1.2 1.6-1.2c.7 0 10.1-5.8 12.6-7.9 2.1-1.7 8.9-5.8 9.8-5.9.5 0 1.2-.4 1.5-.9.3-.4 3.3-2.6 6.5-4.8 7.5-5.1 9.8-7.3 12-11.9 2.1-4.4 2.4-6.4 4.1-21.3.2-1.7.6-4.9.9-7 .3-2.1.8-6.5 1.2-9.8.3-3.3.8-7.4 1-9 .3-1.7.7-5 .9-7.4.3-2.5.7-6.5 1.1-9 .3-2.5.7-6.6.9-9 .3-2.4.7-6.1 1-8.1.3-2.1.8-5.5 1-7.6.3-2.2.7-5.5 1-7.4.2-1.9.7-6.4 1.1-10 .3-3.6.8-7.4 1-8.5.5-2 .9-5.6 1.8-14.5.3-2.5.9-8.3 1.5-13 .6-4.7 1.3-10.8 1.6-13.5.4-2.8.8-6 1-7.3.2-1.3.7-5.3 1.1-9 .9-8.1 1.2-10.7 1.4-10.7 0 0 .3-2.5.5-5.6.2-3 1.1-10.9 1.9-17.5.9-6.5 1.8-14.4 2.1-17.4.3-3 .8-6.2 1-7 .2-.8.6-4.4 1-8 .3-3.6.8-7.9 1-9.5 2.1-16.3 1.5-20.8-3.8-27.6-1.7-2.3-4.8-5-6.7-6.1-3.2-1.7-32.7-15.9-50-24.1-4.1-1.9-13.8-6.5-21.5-10.2-7.7-3.7-18.5-8.9-24-11.5-5.5-2.6-15.8-7.6-23-11-7.1-3.4-17.5-8.4-23-11-5.5-2.6-15.4-7.3-22-10.5-12-5.8-17.8-7.2-22.5-5.6zM121.3 411c3.4 2.1 8 5.2 10.2 6.7 2.2 1.5 4.3 2.7 4.8 2.5.4-.1.7.3.7.9 0 .5.5.7 1 .4.6-.4 1-.3.9.2-.3 1.9.2 3.3 1.2 3.3.5 0 .7-.5.4-1.1-.4-.6.2-.5 1.3.2 2.4 1.5 1.9 3.2-.7 2.4-1.1-.3-1.8 0-1.8 1 0 .9.8 1.3 2.1 1 1.2-.2 2.1-.4 2.1-.6 0-.1 1-.3 2.2-.4 1.2-.1 2 .2 1.7.6-.3.5.1.9.9.9.7 0 2.3.9 3.4 1.9 1.2 1.1 2.4 1.7 2.7 1.3.4-.3.4.2 0 1.3-.7 1.8-.6 1.8.9.6 1.4-1.1 1.7-1.1 1.7 0 0 1.7 4.5 7.1 5.3 6.3.3-.3.3-1.3 0-2.2-.4-1.2.1-1 1.4.5 1.1 1.3 2.3 1.9 2.7 1.6.4-.4.4.1 0 1.2-.7 1.8-.6 1.8.9.6 1.7-1.3 1.8-1.2 2.1 1.1 0 .6.7 1.3 1.5 1.6.8.3 1.1 0 .7-.7-.4-.6.9-.2 2.8 1 2 1.2 3.3 2.6 2.9 3.2-.4.6 0 .8 1 .4 1.5-.6 2.9.6 3.3 2.5.1.5.2 1.1.3 1.5.1.5.5.2 1-.6.7-1.1 1.5-.9 4 1 1.7 1.2 3.1 2.7 3.1 3.1 0 .5.5.6 1.2.2.7-.5.8-.3.3.6-.6 1-.4 1.2.9.7 1.1-.5 1.5-.3 1 .5-.5.7-.2.9.9.5 2.1-.8 3.5 1.2 3.1 4.3l-.4 2.5 1.5-2.5c.8-1.4 1.4-1.9 1.5-1.2 0 .7.4 1.1.9.7.6-.3 1.4.2 1.9 1 .5.9 1.5 1.7 2.3 1.8 2.6.4 4 1.9 3.4 3.6-.3 1.2 0 1.8 1 1.8s1.4-.6 1-1.5c-.4-1.2-.2-1.2.8-.4.8.7 1.7.9 2 .6.4-.4.5.2.3 1.3-.3 1.1.4 2.4 1.5 3.1 1.9 1.2 2.6.4 1.2-1.4-.5-.5-.1-.2.7.7.9.8 2.1 1.4 2.8 1.1 1.1-.3 1.7 1 1.3 3.1-.1.5.7.6 1.8.2 1.2-.3 2.1 0 2.5 1 .3.9 1.1 1.3 1.7.9.8-.5.9-.3.4.6-.6.9-.4 1.2.7.8 1.2-.5 1.4.1 1.3 2.8-.3 3.9-.4 3.8 2.9 2.3 1.4-.7 2.3-1.7 1.9-2.3-.3-.6.8.2 2.5 1.8 1.8 1.7 3.2 2.6 3.2 2.1 0-.4.9 0 2 1 2.4 2.2 3.7 2.5 10.2 2.8 2.6.2 5.3.9 6 1.6 1.1 1.1 1 1.2-.1.6-1-.5-1.2-.4-.7.4 1.3 2 2.7.1 1.5-2-.9-1.8-.8-1.9.9-1 1.1.6 2.2.7 2.6.4.3-.3.6-.1.6.6 0 .8-.6 1.1-1.6.7-.9-.3-1.2-.2-.9.5.4.5.2 1.6-.5 2.4-.8 1-.8 1.3.2 1.1.7-.1 1.8-.5 2.4-.9.7-.4 1.5 0 1.8.9.7 1.8-1 4.4-2.7 4.4-.7 0-.7-.4.1-1.2 1.8-1.8 1.5-2.7-.8-2.3-1.2.2-2.3-.2-2.6-1-.5-1.2-1-1.2-2.7-.3-1.2.7-2.9 1.1-3.7 1-.8-.1-.4.4 1 1.2 1.4.8 2.9 1.2 3.5.9.5-.3.3.2-.6 1.1-1.5 1.6-5.4 1.3-4.4-.4.8-1.3-1.6-2.3-2.7-1.2-.6.6-1.7.8-2.6.5-.8-.4-1.3-.2-1 .3.4.5-.9 1-2.7 1-1.9 0-3.2-.3-3-.7.3-.4-.2-.9-1-1.3-1.8-.7-1-3.3 1-3.3 1.6 0 2 1.2.8 2-.5.2-.3.2.4.1.7-.2 1.5.1 1.8.6.4.6.1 1-.6 1s-1 .3-.7.6c.4.3 1.6 0 2.8-.6 1.7-.9 1.9-1.4.9-2.6-1.6-2 0-1.8 2.5.4 2 1.6 2 1.6.7-.1-.9-1.1-1-1.7-.2-1.7.6 0 1.1.4 1.1 1 0 .5.4 1 .9 1s.8-.8.7-1.7c-.2-1.4-1.3-1.8-5.2-1.8-2.7 0-5.5-.4-6.3-.9-.9-.6-1.2-.5-.8 0 .3.6-.3 1.1-1.5 1.1-1.9.2-1.9.1.2-1.7 2.2-1.9 1.4-3.5-1-1.9-.8.5-1.1.9-.6.9.5 0 .4.6-.1 1.2-.6.7-.9 2.1-.8 3 .2 1 0 1.8-.4 1.8-1.6 0-2-1.3-1.1-3.1 1.5-2.6-.7-3.5-3.3-1.2-2.1 1.8-2.1 1.8-.7-.1 1-1.3 1-1.7.2-1.2s-1.1.3-1-.6c.2-.7-.2-1.2-.9-1.1-.8.2-1-.4-.6-1.5.4-1.4.3-1.3-1 .3-.8 1.1-1.3 2.3-1.1 2.7 1 1.6-.9.7-2.2-.9-.7-1-1.4-1.3-1.4-.6 0 1.6 4.1 4.4 5.3 3.6.5-.3.7 0 .5.8-.3.8-1.2 1.2-1.9 1-.8-.2-2.2-.3-3.2-.3-1.5.1-1.6-.2-.7-1.3 1-1.2.9-1.6-.4-2.1-.9-.3-1.4-.9-1.1-1.4.2-.4-.3-1.6-1.1-2.6-.9-1-1.2-1.2-.8-.4.7 1.3.5 1.3-.8.2-1.1-.9-1.8-1-2.3-.2-.4.7-1.2.7-2.5 0-1.2-.7-2.1-.7-2.5 0-.4.6-1.5.4-3-.6-1.8-1.1-2.9-1.3-4.3-.5-1.9 1-3.2.6-3.2-1.1 0-.5.5-.6 1-.3.6.3 1 0 1-.7 0-.9.3-.9 1 .2.6 1 1 1.1 1 .2 0-.6.7-1.2 1.6-1.2.8 0 1.2.4.9 1-.3.5-.1 1 .5 1 .7 0 .9-.7.6-1.7-.6-1.6-.6-1.6 1.2 0 1 .9 2.2 1.4 2.5 1 .4-.3.7-.1.7.5 0 .7.5 1.2 1.2 1.2.6 0 .8-.3.5-.7-.4-.3-.1-1.3.6-2.1 1-1.3.9-1.4-.3-.7-1.3.8-1.3.7 0-1.1 1.4-1.8 1.3-1.8-.9.1-1.5 1.2-2.1 1.4-1.6.5.8-1.3.7-1.3-1 0-1.5 1.2-1.7 1.2-1 .1.6-1 .4-1.2-.5-.6s-1.1.4-.5-.4c.6-1 .3-1.1-1.2-.2-1.1.6-2.3.7-2.7.4-.3-.3-.6-.2-.6.3s-1.8 1-3.9 1c-3.2.1-3.9-.3-3.8-1.8.1-1 .5-1.8.9-1.8s.8-.5.8-1.1c0-.5-.5-.7-1-.4-.6.3-1-.1-1-.9s.5-1.8 1.2-2.2c.6-.4.8-.3.4.4-.3.6-.1 1.4.5 1.7.5.4.8 1.3.5 2-.6 1.8 2 4 2.9 2.5.3-.6 1.1-.8 1.6-.5.5.4.9 0 .9-.7 0-.9.2-1 .8-.2.5.8 1.4.3 2.6-1.5l2-2.6-2.4 2c-1.3 1.1-2 1.4-1.5.6.6-1 .4-1.2-.6-.6-1.2.8-1.2.6 0-.8 1.1-1.4.3-2.5-1.1-1.5-.2.1-1.3-.4-2.6-1.1-1.6-.8-2.1-1.8-1.7-2.9.3-.9.3-1.3-.1-.9s-1.9 0-3.3-1c-2.5-1.6-2.6-1.6-1.1.3 1.4 1.8 1.4 1.8-.2.5-1-.7-1.6-1.7-1.3-2.1.3-.4-.2-1.1-1.1-1.4-1.9-.7-7 2.9-5.4 3.9.5.3 1 .1 1-.6 0-.8.4-.8 1.6.2 1.4 1.2 1.4 1.4-.1 2.5-.9.7-1.2 1.5-.6 1.8.5.3 1.2 0 1.5-.6.3-.7.3-.3.1.9-.3 1.2-.1 2.4.4 2.8.7.4.8-.1.4-1.2-.6-1.6-.5-1.7 1.2-.3 1.5 1.2 1.7 1.2 1 .1-.6-1-.4-1.2.5-.6 1 .6.9 1.1-.6 2.1-1 .7-2.4 1.8-3.1 2.4-1.7 1.4-3 1.3-1.6-.1.9-.9.8-1.9-.2-3.9-.8-1.5-1.2-3-.9-3.2.2-.3-.2-1.1-1.1-1.8-1.2-1-1.6-.9-2.1.4-.5 1.4-.8 1.4-2.1.1-.8-.9-1.9-1.3-2.4-1-.5.4-.9.2-.9-.4 0-.5-.7-1.7-1.6-2.5-1-1-1.1-1.6-.3-1.6.9 0 .9-.3-.1-1.4-1-1.3-1.6-1.2-4.2.4-3.1 1.9-3.1 1.9-5-.5-2.4-3.1-2.3-4.6.2-1.6 1.2 1.4 2 1.8 2 1 0-1.1.3-1.1 1.1.1.8 1.2.9 1.1.5-.6-.5-1.5-.2-2.1.9-2.1 1 0 1.4.6 1 1.6-.4 1.2-.1 1.1.9-.2.8-1 2.3-2.5 3.3-3.4 1-.8 1.2-1.2.6-.8-2.2 1.1-5.4 1.4-4.8.5.3-.5.1-1.1-.5-1.5-.6-.4-.8-1-.6-1.4.7-1-4.1-.8-5.1.3-.4.5-.3.6.4.3 1.5-.9 4.4.3 3.7 1.5-.3.5-1.1.5-1.9-.2-1-.8-1.5-.8-2.1.1-.4.7-.3.9.4.5.6-.3 1.3-.2 1.7.4.3.5.3 1-.2 1.1-.4 0-1.8.2-3 .5-1.3.2-2.3-.1-2.3-.7 0-.5.5-.7 1-.4.6.3 1.1.1 1.1-.4.1-.6.2-1.7.3-2.4 0-.6-.6-2.2-1.5-3.5-1.4-1.9-1.8-2-2.8-.8-.8 1-.9 1.6-.1 2.1.5.3 1 1.2 1 1.8 0 .8-.3.8-.8.2-.9-1.2-4.6-2-3.9-.8.3.5-.6.8-2.1.7-3.8-.2-3.9-.3-1.8-1.9 2.6-2 4.5-1.9 2 .1-1.8 1.4-1.8 1.4.5.3 2.4-1.1 2.4-1.2.6-2.5-1.4-1.1-1.5-1.4-.4-1.4.8 0 2.1.6 2.9 1.2 1.2 1.1 1.2 1 .2-.3-.6-.9-.8-1.9-.4-2.3.4-.5 0-.6-.9-.4-.9.1-2.5-.7-3.5-2-1.1-1.3-2.7-2.4-3.7-2.6-2.6-.4-2.1-2.1.7-2.1 1.3 0 2.8-.4 3.3-.9s.2-.6-.6-.1c-.9.5-1.2.4-.8-.2.3-.5-.8-.9-2.9-.8-1.8.1-3.4-.2-3.4-.8 0-.5.7-.6 1.6-.3.9.3 1.2.2.9-.5-.4-.6-1.4-.8-2.2-.5-.9.4-1.2.2-.7-.7.5-.7 0-.6-1.2.3-1.8 1.4-1.8 1.4-.4-.5.9-1.3 1-1.6.1-.8-.7.6-2 .9-2.7.6-1.7-.6-1.9-2.4-.1-2 .6.1 1.1-.4.9-1.1-.1-.8.2-1.1 1-.6.7.4 1 .4.6 0-.3-.4-1-.8-1.5-.8-.4-.1-1.3-.8-2-1.7-1.1-1.4-1.3-1.4-2.7.4-.8 1.1-1.6 1.5-1.6.9 0-.5.6-1.6 1.3-2.3 1-1.1.9-1.2-.2-.6-1 .6-1.2.4-.6-.5s.4-1.1-.5-.5c-.9.6-1.1.4-.5-.5.6-.9.4-1.1-.6-.5-.8.5-.7 0 .4-1.2 2.2-2.5 2.2-3-.4-4.4-1.7-.9-2-.8-1.4.2.6.8.4 1-.5.4s-1.1-.4-.5.5c.5.9.4 1.1-.4.6-.6-.4-.9-1.2-.6-1.7.4-.5 0-.9-.7-.9-1 0-.9-.3.2-1.1 1.3-.9 1.2-1-.3-.5-1.2.4-1.6.2-1.1-.6.5-.7.3-.8-.6-.3-.9.6-1.1.4-.5-.5.6-1 .4-1.1-.6-.4-2.6 1.6-4 1.3-3.4-.6.3-1 .2-2.1-.3-2.3-.4-.3-.7.6-.6 2.1.3 4.5.4 4.8 1.5 3.2.9-1.3 1-1.3.6.2-.3.9.3 2.4 1.4 3.4 1.2 1.1 1.7 2.5 1.3 3.8-.3 1.3-.2 1.6.3.9.5-.7 1.4-.9 2.2-.4 1 .6.9 1-.5 1.5-1 .4-2.4 0-3.3-.9-1-1-1.1-1.5-.3-1.5.7 0 1.2-.5 1.2-1.1 0-.5-.4-.7-1-.4-.5.3-1 .1-1-.5s-.5-.8-1.2-.4c-.6.4-.9.3-.5-.2.3-.5-.1-2-1-3.4-.8-1.4-1.2-1.7-.9-.8.6 2.1-1 3.4-1.8 1.3-.3-.8-.1-1.7.5-2.1.5-.3.7-1.5.4-2.7-.5-1.7-.4-1.9.4-.7 1.2 1.7 1.4 1 .5-1.5-.5-1.2-.9-1.3-1.4-.5-.5.8-1.9 0-4.4-2.4-5.9-6-4.9-6.1 3.7-.6zm-.3 5c0 .5-.4 1-1 1-.5 0-1-.5-1-1 0-.6.5-1 1-1 .6 0 1 .4 1 1zm13.7 7.9c2-2 2.8-.1.9 2-1.5 1.6-1.5 2-.1 3.1.8.7 1.2 1.6.9 2.1-1.1 1.9.8 3 2.5 1.5 1.5-1.4 1.8-1.3 2.9.4.7 1.1.9 2 .5 1.9-2.7-.4-3.3.1-2.1 2 .7 1.1 1.5 1.8 1.9 1.5.4-.2 1 0 1.4.6.4.6 1.2.7 1.8.4.8-.4.7-.2-.1.7-1.1 1.2-1.4 1.2-2.2-.1-.7-1.1-1-1.1-1-.2 0 1-.3 1-1.4 0-.8-.7-1.1-1.8-.8-2.3.3-.6.1-.6-.3-.2-1.2 1-1.6 3.9-.5 3.2.5-.3 1.1-.1 1.5.5.3.5.1 1-.5 1s-.8.6-.5 1.2c.4.7 0 .5-.8-.5-.8-.9-1.9-1.7-2.6-1.7-.6 0-1.1-.5-1.1-1.1 0-.5-.4-.8-.8-.5-.4.2-.8-.7-.9-2.2-.1-4.7-.3-5.3-1.2-4.7-.5.3-1.2.1-1.6-.4-.3-.6.4-1.5 1.5-2.1 2.1-1.1 2-1.2-1.4-4.7-2.1-2.2-3.2-4.2-2.9-5.1.5-1.1 1.2-.8 3.2 1.7 2.1 2.5 2.9 2.9 3.8 2zm228.3 4.3c0-.6.5-1.2 1-1.2.6 0 .5.8-.2 1.9-.9 1.4-1.6 1.7-2.4 1-.9-.7-1.9-.7-3.2 0-1.1.6-2.3.7-2.7.3-.3-.4-.5-.3-.3.3.2.5 0 1-.4 1s-1.4.9-2.3 2c-.9 1.1-1.3 1.3-.9.5.7-1.3.5-1.3-.9-.2-1.4 1.2-1.5 1.6-.2 3.6 1.3 1.9 1.3 2.3.1 2.3-.7 0-1.3-.7-1.2-1.5.1-.8-.6-1.7-1.4-1.9-1.2-.4-1.2-.3-.1.5 1 .7 1.1 1.4.2 2.8-.6 1.1-1.1 1.4-1.1.9 0-.6-.9-1.1-2.1-1.2-1.5-.1-1.9.2-1.5 1.5.5 1.5.4 1.5-.8-.1-1.2-1.6-1.4-1.6-2-.2-.3.9-.2 1.4.2 1.1.5-.3.9.1.9.9s-.5 1.1-1.1.8c-.6-.3-.5 0 .2.8.6.7 1.2 1.7 1.2 2.2 0 .5-.8-.1-1.8-1.4-1.1-1.2-2.7-2.4-3.6-2.5-1.6-.2-1.6-.1.1 1.8 1 1.2 1.2 1.8.4 1.3-.9-.5-1.2-.4-.7.3.4.7-.1.9-1.5.7-1.8-.4-1.9-.2-.7 1.3 1.1 1.5 1.1 1.5-.3.5-1.3-1-1.6-1-1.6.2 0 .8.5 1.1 1 .8.6-.4.7-.1.2.7-.6.9-.4 1.1.6.5.8-.4.6.1-.5 1.1-1.3 1.4-2 1.5-2.3.6-.3-.6-1-.9-1.6-.5-.7.4-.5-.2.3-1.3 1.4-1.7 1.3-1.8-.1-.7-.9.7-1.8 1-2.2.7-.3-.3-1.1.4-1.7 1.6-1 1.8-.9 2.1.1 1.5.8-.6 1-.4.4.4-.6 1-.3 1.1 1.3.2 1.1-.6 2.8-.8 3.7-.4 1.6.5 1.6.7-.1 1.7-2.4 1.3-3.6 1.4-5 .4-.7-.5-1.6-.2-2.3.6-.9 1.1-.8 1.5.4 2 1.7.6 2.1 2.6.4 2.6-.5 0-.7-.6-.3-1.3.5-.7 0-.6-1.1.3-1.7 1.3-1.8 1.3-1.3 0 .3-.9.1-2.3-.6-3.1-1.2-1.6-3.6-1.9-3.5-.4 0 .5.8.8 1.7.7 1.3-.3 1.4-.1.3 1.1-.7.9-2.1 1.4-3.2 1.2-1-.2-1.9.2-1.9.8 0 .7-.4.6-1-.3-.5-.8-1-1-1-.5 0 .6.4 1.5.9 2 .6.6.3 1.6-.7 2.5-1.4 1.3-1.5 1.2-.9-.3.3-.9.2-1.9-.4-2.2-.5-.4-.7-1-.4-1.5.3-.5.1-1.1-.4-1.5-.6-.3-.8.4-.6 1.5.3 1.4 0 1.8-.8 1.3-.7-.4-.5.2.3 1.3 1.4 1.8 1.4 1.8-.3.5-1.6-1.2-1.8-1.2-1.5 0 .2.8-.3 1.3-1 1.1-.8-.1-1.1.2-.6 1 .4.7.4 1-.1.6-.4-.4-1.7-.3-2.8.3-1.5.9-1.8.8-1.2-.2.6-.8.4-1-.5-.4-.9.5-1.1.4-.6-.3.5-.8.1-1-1.1-.6-1 .3-.2-.4 1.7-1.6 1.9-1.3 3.7-2.2 4-2.2.3 0 1.4-.8 2.6-1.9 1.1-1 2.4-1.6 2.7-1.2.4.3.7.1.7-.5 0-.7.5-1.2 1.1-1.2.7 0 1.8-.8 2.5-1.8.9-1.1 1.3-1.3 1.4-.4 0 .7.5 1 1 .7.6-.4.8-1.1.5-1.6-.3-.5.2-.6 1.1-.2 1.2.4 1.5.3 1-.6-.5-.7-.2-1 .6-.9.7.2 1.2-.2 1.1-.9-.2-.7.4-1 1.3-.6.8.3 1.4.2 1.2-.3-.2-.5 0-1 .5-1.1.4-.2 2.8-1.8 5.5-3.6 2.6-1.7 5.9-3.9 7.5-4.6 1.5-.8 2.7-1.8 2.7-2.3 0-.5.9-.7 2-.3 1.6.5 1.9.3 1.4-1.2s-.4-1.6.5-.3c1 1.3 1.5.8 1.2-1.2 0-.4.8-1.2 1.9-1.8 1.1-.6 2-.7 2-.3 0 .4.7-.2 1.5-1.3.8-1 1.5-1.5 1.5-1.1 0 .4 1-.1 2.2-1.3 1.2-1.1 2.8-2 3.5-2 .7 0 1.3-.6 1.3-1.3.1-.6.7-.1 1.5 1.3.8 1.4 1.4 1.9 1.5 1.2zm-4 3.3c0 1.7-2.6 5.5-4.4 6.3-1.1.6-1.5 1.1-.8 1.1.7.1 1 .6.6 1.3-.4.7-.3.8.5.4.6-.4.9-1.2.6-1.7-.4-.5-.2-.9.4-.9 2.1 0 2 2-.1 3.1-1.3.7-2.8 1.9-3.5 2.8-1.4 1.9-7.3 2.2-6.6.4.6-1.4 2.4-1.3 3.6.2.5.6.7.4.5-.4-.6-2.1-3.7-2.2-4.8-.1-.8 1.5-.6 2.1.9 2.9 1.1.6 1.9 2.1 1.9 3.6 0 2-.3 2.3-1.4 1.4-1.7-1.4-1.9-3.3-.2-2.3.7.4.8.3.4-.4-.5-.9-1.8-.7-4.4.7-3.9 2-6.3 1.4-7-1.9-.2-.8 0-1.2.4-.8.4.4 1.3.3 2.1-.3 1.1-1 1.1-1.5.1-2.8-1.2-1.4-1.1-1.4.4-.2 1 .7 1.5 1.7 1.2 2.2-.3.5 0 .9.6.9.7 0 1 .7.6 1.7-.5 1.5-.4 1.5.9-.1.8-1.1 1.3-3 1.1-4.3-.3-1.4 0-2.2.7-2 .7.1 1.1-.4.9-1.1-.2-.9.3-1 1.6-.3 1.1.6 2.4.6 3.2.1.8-.5 1.9-.5 2.6.1 1.8 1.5 1.2-3.3-.6-4.9-.8-.8-1-1.1-.3-.8.6.4 1.5.2 1.8-.4.5-.8 1.2-.7 2.3.2 1.3 1.1 1.4 1.1.8 0-.4-.7-.2-1.9.4-2.7 1.2-1.4 3-2 3-1zm-227 4c-.7.8-1.7 1.5-2.2 1.5-.6 0-.5-.7.2-1.5s1.7-1.5 2.2-1.5c.6 0 .5.7-.2 1.5zm28.8 2c-.3.3-.9-.2-1.2-1.2-.6-1.4-.5-1.5.5-.6.7.7 1 1.5.7 1.8zm-13.4 6c-.8 1.2-1.1 2.5-.7 2.8 1.5 1.5-1.6.6-3.7-1.1-2.9-2.4-2.1-3.7 2.3-3.8 3.4 0 3.5.1 2.1 2.1zm-3 3.8c1.7 1.3 1.7 1.4 0 2.8-1.6 1.2-1.7 1.2-1.1-.3.3-1 .1-2-.5-2.4-.7-.4-.8-.3-.4.4s.3 1.2-.3 1.2c-1.3 0-2.2-1.5-1.4-2.4.9-.9 1.7-.8 3.7.7zm184.1 4.7c.3.5.1 1-.4 1-.6 0-1.1-.5-1.1-1 0-.6.2-1 .4-1 .3 0 .8.4 1.1 1zm8.5 0c0 .5-.4 1-1 1-.5 0-1-.5-1-1 0-.6.5-1 1-1 .6 0 1 .4 1 1zm-165.3 7.5c0 .8-.4 1.2-.9.9-.4-.3-1.1.2-1.4 1-.3.9-1 1.3-1.5 1-.7-.4 2.2-3.8 3.7-4.4 0 0 .1.7.1 1.5zm149.9 1.3c.1 1.5-.1 2.1-.3 1.4-.3-.6-.9-1.2-1.5-1.2-.7 0-.6.5.1 1.4 1.5 1.8-.3 6.1-2 5-1.4-.8-6 1.6-5.3 2.8.3.5.2.8-.3.7-2-.3-3.4.2-2.8 1.1.3.5.1 1-.6 1-.9 0-.9.3 0 1.4 1 1.2.8 1.7-.8 2.6-1.2.6-2.1 2-2.1 3.1s-.5 1.7-1 1.4c-.6-.4-.8-1.5-.5-2.4.3-1-.3-2.5-1.3-3.5-1.7-1.5-2-1.5-3.2-.1-.8 1-.9 1.5-.1 1.5.6 0 1.1.6 1.1 1.2-.1.7-1 .2-2-1.1-1.5-1.7-1.7-2.7-1-3.6.7-.9.5-1.6-.7-2.6-1.7-1.3-1.7-1.3-.3.6s1.4 1.9-.4.5c-1.6-1.2-1.8-1.2-1.1-.1.6 1 .4 1.2-.5.6s-1.1-.4-.5.6c.5.8-.2.5-1.6-.6-1.8-1.5-2-1.6-1-.3.7 1 1 1.8.6 1.8s-.1.8.6 1.7c1.3 1.7 1.3 1.7-.5.3-1.9-1.5-1.9-1.5-.1 1.4 1.5 2.2 1.6 2.8.5 2.4-.8-.2-1.5-1-1.5-1.6 0-.6-.6-1.7-1.4-2.4-.8-.7-1.1-.8-.8-.2.4.7-.6 2-2.1 3-2.6 1.7-2.7 1.7-1.2-.2 1.4-1.8 1.4-1.8-.2-.5-1 .7-1.5 1.7-1.2 2.2.3.5 0 .9-.6.9-.7 0-1-.7-.6-1.5.8-2.2-.2-1.8-1.5.6-.9 1.7-.8 2 .2 1.4.8-.6 1-.4.4.5-.5.9-.4 1.1.3.6.7-.4 2.2-.9 3.4-1.1 2.2-.4 2.2-.4.4 1-1 .8-2.3 1.2-2.7.9-.5-.3-.9.1-.9.8 0 .8-.5.6-1.1-.5-.5-.9-1.5-1.7-2.2-1.7-.7 0-.6.4.3 1 1.2.7 1 .9-.7.7-1.2 0-2-.4-1.7-.9.6-1-3.2-.2-5.3 1.2-1.7 1.1-1.7 1.1 0 .6 1.2-.4 1.6-.2 1.2.7-.4.6 0 .4.8-.6 1-1.2 1.7-1.4 2.2-.7.3.5 1 .8 1.4.6 1.8-1.1.4 4-1.7 6.1-1.5 1.5-2.1 3-1.7 4.1.5 1.4.4 1.5-.6.4-1.7-1.6-2.4-1.5-4.4.4-.9.9-1.9 1.4-2.2 1-.4-.3.2-1.3 1.3-2.2 1-.8 1.3-1.3.7-.9-.9.4-1.1.1-.7-.9.3-.9 1.1-1.3 1.8-.9 2.1 1.3 3.4 1.1 3.1-.6-.1-.9.2-1.9.7-2.2.6-.4.6-.9-.1-1.3-.6-.4-1.1-.2-1.1.4 0 .6-.5.8-1.1.4-.8-.4-.7-.9.2-1.6 1.1-.8 1.1-.9-.1-.5-.8.2-1.5.9-1.5 1.5 0 .5-.4 1.4-.9 1.9s-.6-.2-.3-1.7c.6-2.4.5-2.4-.8-.6-1.2 1.6-1.2 2.2-.2 2.8.6.4.8.8.2.9-.5 0-1.8.2-2.7.4-1 .2-2-.1-2.4-.6-.3-.5-.9-.7-1.4-.4-.5.3-1.1.1-1.5-.5-.3-.5-.1-1 .6-1s2.7-1.1 4.4-2.5c1.8-1.3 3.5-2.2 3.8-1.9.3.3 1-.4 1.7-1.5.6-1.2 1.5-1.9 2-1.6.4.3 1.5-.2 2.3-1 1.2-1.1 1.7-1.2 2-.2.3.7.6.5.6-.6.1-.9.8-1.7 1.7-1.7.9 0 1.2-.5.8-1.3-.4-.6-.3-.9.1-.4.5.4 1.7-.1 2.8-1 1-1 2.2-1.8 2.6-1.8.3 0 .5-.3.4-.7-.2-.4.5-.4 1.4-.1 1.2.5 1.4.3.8-.8-.4-.8-.5-1.1 0-.7.4.4 1.4 0 2.2-.8 1.2-1.2 1.8-1.2 3.1-.2 1.3 1.1 1.5 1 1-.3-.4-.9.2-2.3 1.3-3.3 1.9-1.5 1.9-1.5 1.5.8-.2 1.4.2 3 .9 3.6.8.6 1.1 1.9.9 2.8-.5 1.5-.4 1.5.9-.1 1.4-1.7 1.6-1.6 3.6.9 1.2 1.5 2.1 2.1 2.1 1.5 0-.7.4-1 .8-.7.5.3.8-.5.7-1.7-.1-1.3.6-2.7 1.9-3.4 1.2-.7 1.5-1.2.8-1.3-.7 0-1.1-.4-.7-1 .3-.5 1.2-.7 1.9-.4.8.3 1.6.2 1.9-.3.3-.4-.8-.8-2.3-.8-1.6-.1-2.6.3-2.3.9.4.5 0 .6-.8.1-1.1-.7-1.1-.5.1 1 1.4 1.7 1.3 1.8-.5 1.1-4.2-1.7-5.1-1.9-3.6-.8.9.7 1 1.2.2 1.6-.6.4-1.1.1-1.1-.6-.1-.8-.5-.7-1.4.5-.8 1-1.7 1.4-2 .8-.3-.5-.3-1.1.1-1.4.5-.2.3-.3-.3-.1-.7.1-1-.5-.7-1.7.6-2.1 1.8-2.5 2.8-.9.4.7 1.2.7 2.4 0 1-.5 2.1-.7 2.3-.4.3.2 1.1-.2 1.8-1.1.9-1 1.7-1.2 3-.5 1.4.7 2.3.6 3.4-.6.9-.9 1.4-2 1.1-2.5-.4-.5-.1-1 .4-1 .6-.1 1.5-.2 2.1-.3.5 0 1.5-.7 2.2-1.4.6-.6 1.2-1.2 1.3-1.2 0 0 .1 1.2.1 2.8zm2.7 3.3c-.3 1.2-.9 1.7-1.5 1.1-1-1 0-4.4 1.2-3.7.5.3.6 1.4.3 2.6zm-132.1 5.4c1.1 1.4 2.3 2.3 2.8 2 .5-.3 2 .6 3.4 2 2.7 2.7 3.4 4.1 1.4 2.9-.7-.5-.8-.3-.3.6.6 1 1.1.9 2.2-.6 1.4-1.9 1.4-1.9 1.1.1-.3 2.2-2.8 4.6-4.1 3.8-.4-.2-.5-.9-.2-1.4.4-.5.3-1.5-.2-2.2-.4-.6-.8-1.5-.9-2-.1-.4-.2-1-.3-1.3 0-.4-.7-.2-1.3.3-2.3 1.8-5.8.9-4.5-1.1.1-.2-.6-1.3-1.6-2.3-.9-1.1-1.4-2.3-1-2.6 1-1.1 1.4-.9 3.5 1.8zm114.3 2.6c-.6 3.1-1 3.2-3.1.7-1-1.2-1.4-1.9-.9-1.5.6.3 1.7.2 2.5-.4 2-1.2 1.9-1.2 1.5 1.2zm-9.7 3.4c.1 1.4-.4 2.5-1 2.5-.7 0-.2.7 1 1.6 1.8 1.2 1.9 1.8.9 2.9-.8.8-1.6 1-2.4.3-1.3-1-7.3 1.5-8.5 3.7-.9 1.6-7 1.4-7.6-.3-.2-.7.5-1.1 2-1.1 3.3.2 5.1-.4 6.5-2.1 1.7-2.1 1.6-3.3-.2-2.6-2.3.8-1.8 0 1.1-1.9 1.5-.9 2.4-1.3 2-.7-.7 1.2 2.2 3.8 3.1 2.8 1.2-1.2 1.2-4 0-5.5-.9-1.1-.9-1.3 0-.8.6.4 1.4.3 1.8-.3.9-1.5 1-1.3 1.3 1.5zM180 477c0 .5-.5 1-1.1 1-.5 0-.7-.5-.4-1 .3-.6.8-1 1.1-1 .2 0 .4.4.4 1zm52.6 6.5c.1.8-.2 1.5-.6 1.5-.5 0-.8-.9-.7-2 .1-2.1 1-1.8 1.3.5zm-14 6.9c-.1.6-.5 1.7-.9 2.3-.5.7-.6 1.7-.2 2.2.8 1.4-1.5 2.5-2.7 1.3-.6-.6-.6-1.2.1-1.6.5-.4.8-1.4.5-2.4-.5-1.4-.4-1.5.5-.2.8 1.2 1 1.1.9-.6-.1-1.1-.8-2.1-1.5-2.1-.6 0-1 .4-.7.9.7 1.1-.7 1-2.6-.2-1.4-.9-1.3-1.1.9-1.4.5 0 1.2-.4 1.6-.8.9-.9 4.3 1.2 4.1 2.6zm53.8.7c-.3.5-1 .7-1.5.3-.5-.3-.7-1-.3-1.5.3-.5 1-.7 1.5-.3.5.3.7 1 .3 1.5zm-44.7.4c0 .6-.6 1.2-1.2 1.2s-1.2-.6-1.2-1.2.6-1.2 1.2-1.2 1.2.6 1.2 1.2zm-13.7 1c1.4 1.6 1 1.8-1.4.9-.9-.3-1.6-1-1.6-1.5 0-1.4 1.6-1.1 3 .6zm18.5.3c-1.4.9-1.3 2.8.2 4.3 1.2 1.2 3.7.3 2.8-1.1-.3-.4.2-1.1 1-1.4 1.2-.4 1.3-.2.6 1.3-.7 1.2-.6 2.2.2 3 .8.8.6 1.6-1 3.3-2.1 2-2.3 2-4.7.4-1.4-.9-2.6-2.2-2.6-2.8 0-.6.9-.3 2 .7s2 1.3 2 .8c0-.6-.7-1.4-1.6-1.7-.9-.4-1.4-1.3-1-2.2.3-.8.2-1.2-.4-.9-1.4.9-1.2-1.9.2-3.3.7-.7 1.7-1.2 2.3-1.2.7 0 .7.3 0 .8zm34.4 1.4c-.5 1-.6 2.4-.2 3.1 1.2 2 1.2 3.8 0 3.4-.7-.3-1.1-1-.9-1.6.4-2.1-1.8-5.3-3.2-4.4-.6.4-.4.1.5-.8 2.5-2.3 5.1-2.1 3.8.3zm-23.6 1.1c-.3.5.1 1.3.8 1.8 1 .6 1 .9.2.9-.7 0-1.7-.8-2.2-1.8-.7-1.4-.6-1.9.4-1.9.8 0 1.1.5.8 1zm-15.3 4.3c-.7.7-1.7 1.4-2.3 1.4-.5 0-.2-.9.8-2 1.5-1.7 1.6-2 .3-1.5-.9.4-1.9.1-2.4-.6-.4-.7-.3-1 .4-.5.6.3 1.4.1 1.8-.5.5-.8 1-.6 1.6.5.6 1.1.6 2.2-.2 3.2z"/><path d="M118 410.4c0 .3.9 1 2 1.6 1.1.6 2 .8 2 .6 0-.3-.9-1-2-1.6-1.1-.6-2-.8-2-.6zM137.5 425.9c-.3.5-.2 1.2.3 1.5.5.3.9-.1.9-.9 0-1.7-.3-1.9-1.2-.6zM143.4 429.1c-.3.5-1 .6-1.6.3-.7-.4-.8-.2-.4.4.4.7 1.3 1.2 2.1 1.2 2.1 0 2.4 2.3.6 4.5-1.5 1.8-1.5 1.9.1.6 1.4-1.1 2-1 3.9.8 1.3 1.2 2.6 2.1 3.1 2.1 1.7 0 2.3.2 3.6 1.3 1 .8 1.6.7 2.1-.2.6-1 1-.9 1.4.3.3.8.1 1.8-.5 2.2-.7.5-.8.2-.3-.5.6-1 .2-1-1.6 0-1.3.7-2.8 1.2-3.3 1.1-.4-.2.2 1 1.5 2.6s2.7 2.5 3 2c.3-.5 1.1-.3 1.7.4 1 1.2 1.2 1.9 1.2 3.5 0 .4.5.2 1.1-.4 1.3-1.3 4.2-.6 3.4.7-.8 1.3 1.6 2.4 5 2.5 1.7 0 3 .5 3 1 .1 3.6 3.9 4 4.8.5.3-1.3 0-1.7-.9-1.3-.8.3-1.2.9-.9 1.3.3.5 0 1.2-.6 1.6-.7.4-.9.3-.5-.4.3-.6.2-1.3-.4-1.7-.6-.4-.7-1.1-.4-1.7.4-.7.2-.8-.4-.4-.8.5-1 .1-.5-1.1.6-1.7.5-1.7-1.3-.2-1 .9-2.5 1.4-3.2 1.2-1-.4-.8-.9.5-2 1.7-1.3 1.6-1.3-.4-.3-1.8.8-2.1.8-1.7-.3.5-1.5-2.3-4.4-3.3-3.3-.4.3.2 1.3 1.3 2.2 1.8 1.5 1.8 1.5-.2.5-1.2-.6-2.5-.7-2.9-.3-.4.4-.3-.3.3-1.4 1.4-2.7.3-3.9-1.5-1.6-.8.9-1.1 1.1-.7.3.4-.9.3-1.2-.3-.8-.6.4-1-.3-.9-1.5.1-2.2 2.6-3.9 2.6-1.8 0 1 .3 1 1.4.1 1.1-.9 1.6-.9 2.1 0 .4.6.1 1.5-.6 2-2 1.2-.2 1.1 2.2-.2 1.9-.9 1.9-.9 1 1-1.4 2.6.1 3.6 1.7 1.1.7-1.2.8-2.1.2-2.5-.6-.4-.7-1.2-.3-1.8.4-.8.1-.7-.9.1-1.4 1.1-1.8 1-2.8-.8-.9-1.6-1.5-1.9-2.5-1-1 .9-1.9.3-4-2.4-1.5-2-3.1-3.4-3.5-3.1-.4.2-1.6-.8-2.7-2.3-2.2-3-7.9-5.6-8.9-4.1zm6 3.9c.4 0 .4-.6 0-1.3-.5-.7-.1-.6 1 .2 1.6 1.4 1.6 1.6.2 2.6-.9.7-1.3 1.5-.9 1.8.3.4 1.2.2 1.9-.4 1.6-1.3 2.6.2 1.3 2.1-.6 1.1-.9 1.2-.9.2 0-.7-.4-1.1-.9-.8-.4.3-1.6-.3-2.6-1.4-1-1.1-1.5-2-1.1-2 .4 0 .2-1-.4-2.3-1-2-1-2 .3-.5.8 1 1.7 1.8 2.1 1.8zm7.6 4.8c0 1.3-1.2 2.2-2.2 1.6-1-.6-.1-2.4 1.3-2.4.5 0 .9.4.9.8zm.3 6.6c.3.8.3 1.7 0 2-.9.9-3.4-1.5-2.7-2.5.8-1.3 2.1-1.1 2.7.5z"/><path d="M159 444c0 .5.5 1 1.1 1 .5 0 .7-.5.4-1-.3-.6-.8-1-1.1-1-.2 0-.4.4-.4 1zM171.7 445.7c-.3.5-.2 1.5.2 2.2.5.7 1.1.9 1.4.4.3-.5.2-1.5-.2-2.2-.5-.7-1.1-.9-1.4-.4zM174.3 446.6c.4.4.2 1.3-.4 2-.7.9-.7 1.9 0 3.2.6 1.1.7 2.2.3 2.6-.3.4.1.4 1.1 0 .9-.3 1.7-1.3 1.7-2.2 0-2.9 1.3-.3 1.6 3.3.2 2.7-.3 3.9-1.9 5.1l-2.2 1.5 2.4 1.9c1.2 1.1 2.7 1.7 3.2 1.4 1.6-1 .9.9-.8 2.2-1.7 1.3-1.7 1.4.1.7 1.4-.5 1.7-.3 1.1.7-.5.9-.4 1.1.4.6.6-.4.9-1.1.6-1.6-.8-1.3 2.6-2.2 4-1 .9.7 1.6.6 2.5-.5.7-.8 1.8-1.4 2.4-1.3.6.2 1.2-.1 1.4-.6.1-.6-.4-1.1-1.3-1.2-.8-.1-1.5.2-1.5.8 0 .7-.5.7-1.3-.1-.8-.6-1.8-.7-2.2-.3-.5.4-.5.2-.1-.5.4-.8 0-1.1-1.5-.8-1.2.3-2.9 0-3.8-.6-1.3-.9-1.3-1 .4-.5 2 .6 2 .6.1-.9-1.3-1-1.5-1.5-.6-1.5.7 0 1-.3.7-.6-.3-.4-.2-1.5.4-2.6.7-1.3.7-2.3.1-3.1-.6-.7-1-1.6-.9-2.2.1-.5-.7-1-1.8-1s-1.9-.5-1.8-1.2c.1-.6-.5-1.4-1.5-1.8-.9-.3-1.3-.3-.9.1zm2 5c-.4 1.2-.8 1.3-1.4.3-.9-1.5-.2-3.2 1.1-2.4.5.3.6 1.3.3 2.1zm2.3 9.3c-.3.5.5 1.6 1.9 2.5 1.6 1.1 2.5 1.2 2.5.5 0-.8.4-.8 1.5.1.8.7 1.5.9 1.5.6 0-.4.5-.4 1-.1.6.4.8 1.1.4 1.6-.4.6-1.1.6-1.9-.1-.8-.7-1.9-.9-2.4-.6-.5.4-1.2.2-1.6-.4-.4-.6-1.1-.8-1.6-.5-.5.4-.9.1-.9-.4 0-.6-.3-1-.7-1-2 .3-2.4-.2-1.3-1.6 1.3-1.6 2.5-2.1 1.6-.6zM168.7 448.4c-.4 1-.1 1.3.9.9 1.7-.6 1.8.8.2 2.7-.8 1-.6.9.5-.1 1.1-.9 1.5-2.2 1.1-3.2-.8-2.1-2-2.2-2.7-.3z"/><path d="M183.2 453.7c-1.1 2-.7 3.3 1 3.3.4 0 .8-.5.8-1.1 0-.5-.5-.7-1.2-.3-.7.5-.8.3-.3-.6.6-1 1.1-1 2 .3.7.9 1.5 1.4 1.9 1 .4-.4.4.1 0 1.2-.4 1.1-.4 1.7.1 1.3.4-.4 1.4-.3 2.2.3.7.6 1.3.8 1.3.3-.1-1.3-2.6-4.4-3.5-4.4-.4 0-1.3-.8-2-1.7-1.1-1.5-1.3-1.5-2.3.4z"/><path d="M181.4 458.6c.3 1.8 1 2.5 3.3 2.9 1 .2 1.8.4 1.8.6 0 .1 1 .3 2.3.4 1.2.1 2.2-.2 2.2-.6 0-.5.5-.9 1.1-.9.5 0 .8.4.4.9-.3.5-.1 1.2.5 1.6.6.4.8 1.1.4 1.6-.7 1.3 1.5 4.1 2.7 3.3.5-.3.9-.1.9.3 0 .5 1 .9 2.3 1 2 .2 2 .1.4-.8-1.4-.8-1.6-1.4-.6-2.5 1.6-2 0-1.7-2.4.3-1.2 1.1-1.7 1.2-1.2.4.6-1 .4-1.2-.5-.6-.9.5-1.1.4-.6-.4.4-.6 1.1-.9 1.5-.7.3.3.7-.4.7-1.5 0-1.4-.5-1.8-2.1-1.4-1.6.5-1.6.3.4-.8 1.4-.8 1.9-1.7 1.3-2.1-.6-.3-1.3 0-1.5.6-.4 1-.8 1-1.5-.1-.7-.9-1.1-1-1.7-.2-.5.9-1.1.9-2.2-.1-.9-.7-1.8-1.2-2-1.1-.8.6-2.4.2-2-.5.3-.4-.5-.8-1.8-.8-1.4-.1-2.2.3-2.1 1.2zm7.6 2c0 .8-1.9 1.3-2.4.6-.3-.5.1-.9.9-.9s1.5.2 1.5.3z"/><path d="M199.9 464.3c.7.7.7 1.5-.2 2.6-.9 1.2-.9 1.3.1.7.7-.4 1.2-.2 1.2.4 0 .6.5.8 1 .5.6-.4.7-1.2.3-1.8-.3-.7.3-.4 1.4.6 1.2 1 2.3 1.5 2.5 1 .3-.4.3-.1.1.7-.9 3.1-.7 3.5 1.4 3.4 2.6-.1 2.4 2.7-.4 5.8-1 1.1-1.3 1.9-.8 1.8.6-.2 1.2-.1 1.5 0 1.9.7 4.1.7 4.6-.1 1-1.8 2.4-.9 2 1.3-.3 1.3-.5 2.3-.6 2.3-.1 0-.3.8-.5 1.8-.2 1.1.1 1.5.8 1 2.3-1.4 3.7-1.1 5.2 1 1 1.4 1.5 1.6 1.5.7 0-1 .4-.8 1.4.5 1.3 1.8 1.4 1.8 2.3-.1 1.1-2.1.7-4.4-.8-4.4-.6 0-.8.4-.4.9.3.5 0 1.3-.6 1.7-.8.5-.9.3-.4-.6.6-.9.4-1.1-.5-.5-.9.6-1.1.4-.5-.5.6-.9.4-1.1-.5-.5-.9.6-1.1.4-.5-.5.6-.9.4-1.1-.5-.5-.8.5-1.1.4-.7-.3.9-1.3-.2-4.4-1.3-3.7-.4.2-1.6-.2-2.6-.9-1.2-.9-2.5-1.1-3.4-.6-1.2.6-1.6.3-1.7-1.1-.1-1 .3-1.9.8-1.9.6 0 .7.5.3 1.2-.5.8-.2.9.9.5.9-.3 1.9-.2 2.2.4.4.5 1.1.7 1.6.4.5-.4.9-.1.9.4 0 .8.7.7 1.9-.1 2.4-1.4 1.8-2.8-.9-2.3-1.1.2-2.2 0-2.5-.5-.3-.5-1.2-.7-2-.4-1 .4-1.3 0-1-1.5.3-1.6-.1-2-2.3-1.8-2.3.2-2.7-.2-2.7-2.3 0-1.4-.4-2.5-1-2.5-2.2-.2-5.5-1.7-5.1-2.4.3-.4-.2-.8-1-.8-1 0-1.1.4-.5 1zm9.8 14.2c0 .8-.4 1.2-.9.9-.5-.3-.6-1-.3-1.5.9-1.3 1.2-1.1 1.2.6zm9 3.9c-.3.6.3 2 1.2 3.1 1.5 1.9 1.5 1.9-.4.4-1.1-.9-2.8-1.5-3.8-1.4-1.1.2-1.4-.1-1-.8.4-.7.8-1.5.9-2 .1-.4.2-.9.3-1.2 0-.2.8-.2 1.6.2.9.3 1.4 1.1 1.2 1.7zm5.6 5.1c-.3.9-.8 1.4-1 1.1-.3-.3-.2-.9.2-1.5.9-1.6 1.5-1.3.8.4z"/><path d="M216.3 482.5c0 .8.4 1.2.9.9.5-.3.6-1 .3-1.5-.9-1.3-1.2-1.1-1.2.6zM183 468c0 .5.5 1 1 1 .6 0 1-.5 1-1 0-.6-.4-1-1-1-.5 0-1 .4-1 1zM201.2 470c-2.2 1.8-3.1 3.7-1.2 2.5.6-.3 1-.2 1 .4 0 .5.9.8 2 .6 1.8-.3 2.5.5 2.1 2.8-.1.4.8.2 1.9-.5 1.7-1.1 1.8-2.3.2-2.3-1.6-.1-3.1-1.7-2.6-2.9.9-2.3-.9-2.6-3.4-.6zm2.3 2c.3.6-.1.7-.9.4-1.8-.7-2.1-1.4-.7-1.4.6 0 1.3.4 1.6 1zM220 479c.8.5 1.1 1 .7 1-.4 0-.3.9.3 2s1.7 1.7 2.5 1.4c.9-.4 2.3.9 4 3.6 1.4 2.2 3 3.8 3.6 3.5.5-.4 1.7-.1 2.6.7 1.1.8 1.4.9 1 .1-1.1-1.7 2.9-3.7 4-2.1.4.7.8 1.7.8 2.2 0 1.4 5.4 1.5 6.2.2.3-.6.2-.8-.2-.3-.5.4-1.9-.3-3.2-1.5-1.3-1.2-2.3-1.8-2.3-1.3s-1.1-.2-2.5-1.5c-1.6-1.5-2.5-1.9-2.5-1 0 .7-.3 1-.7.7-.3-.4-1.7 0-3 .8-2.2 1.5-2.9 1-2.4-1.8 0-.4-.4-.7-1-.7-.8 0-.7-.6.2-1.8.7-.9 1-1.4.5-1-.5.4-1.6-.2-2.6-1.4-.9-1.1-3-2.2-4.6-2.4-2.1-.2-2.5-.1-1.4.6zm5 1.5c1.1 1.3 1 1.4-.4.9-.9-.3-1.6-1-1.6-1.5 0-1.3.6-1.1 2 .6zm10.5 7.8c-1.1.6-2.9 1.2-3.9 1.2-1.6.2-1.7 0-.4-.9.9-.7 2.6-1.2 3.9-1.3 2.3-.2 2.3-.1.4 1zm6.4 2c.8 1 .7 1.4-.2 1.4-.8 0-1.4-.6-1.4-1.4 0-.7.1-1.3.2-1.3.2 0 .8.6 1.4 1.3zM251.1 493.6c.5.6.6 1.4.2 1.8-.4.4.1.4 1.1 0 1.4-.5 1.7-.4 1.2.5-.6 1-.3.9 1.3 0 1.2-.8 1.6-1.6.9-2-.7-.4-.6-.8.3-1.1.8-.3-.3-.4-2.3-.4-2.5.1-3.4.4-2.7 1.2zM128 421.1c0 .3 1.3 1.8 2.8 3.3 2.7 2.5 3 2.6 4.2.9 1.2-1.5 1.2-1.6 0-.6-1.1 1.1-1.9.8-4.2-1.4-1.5-1.5-2.8-2.4-2.8-2.2zM133.6 429.8c-.3.5.1 1.7.8 2.7 1.2 1.7 1.3 1.7 1.1-.3-.2-2.6-1.1-3.7-1.9-2.4zM137.2 434.4c-3.1 1.8-4.1 2.9-1.7 2 1.7-.7 1.8-.6.7.8-1 1.3-1 1.8-.1 2.4.8.4.9.3.5-.5-.4-.6 0-1.4.8-1.7.9-.3 1.4-1 1.1-1.4-.3-.5.3-1.3 1.2-1.9 2.6-1.5.3-1.2-2.5.3zM356.5 429c-.3.6.1.7.9.4 1.8-.7 2.1-1.4.7-1.4-.6 0-1.3.4-1.6 1zM348 434c-.9.6-1 1-.3 1 .6 0 1.5-.5 1.8-1 .8-1.2.4-1.2-1.5 0zM345.6 437.8c-.3.5.1.9.9.9s1.2-.4.9-.9c-.3-.4-.7-.8-.9-.8-.2 0-.6.4-.9.8zM338.5 440.9c-.3.5-.2 1.2.3 1.5.5.3.9-.1.9-.9 0-1.7-.3-1.9-1.2-.6zM332.2 445.1c-1.2 1.1-2.2 1.7-2.2 1.3 0-.4-.8 0-1.8.9-1 1-2.2 1.4-2.6 1-.4-.5-.6-.3-.4.3.2.6-.7 2-2 3-1.6 1.3-2.1 2.5-1.6 3.7.5 1.4.9 1.5 2 .6.8-.6 1.2-1.5.9-1.9-.6-1 2.5-5.1 3.5-4.5.5.3 1.1.1 1.5-.5.4-.6 1.2-.7 1.8-.4.7.4.9.4.5-.1-1-1 1.1-3.7 2.2-3 .5.3 1.1.1 1.4-.4 1.2-2-1.2-2-3.2 0zm-8.5 8.4c0 .8-.4 1.5-.9 1.5-1 0-1.1-1.4-.1-2.3.9-1 1-.9 1 .8zM314.2 456.8l-2.3 1.8h2.5c1.7 0 2.4-.5 2.3-1.8-.1-1-.1-1.8-.2-1.8 0 0-1 .8-2.3 1.8zM308 460.5c-.7.8-1.6 1.3-2 1-1-.6-3.5 2.3-2.7 3.2.4.3 1.3.1 2-.5.8-.7 1.6-1.1 1.8-.9.2.1.3 0 .1-.2-.1-.2.5-1.3 1.5-2.3.9-1 1.4-1.8 1.1-1.8-.3 0-1.1.7-1.8 1.5zM337.6 447.8c-.2.4-.1 1.4.3 2.1.6 1 1 .9 1.4-.3.6-1.6-.8-3.2-1.7-1.8zM144.5 443c-.4.6-1.1.7-1.7.4-.7-.4-.8-.2-.4.4 1 1.6 2.3 1.5 3-.3.6-1.7 0-2-.9-.5zM316.2 463.5c-1.1 2.3-1 2.5.7 1.6 1-.6 2.2-.7 2.6-.3.4.4.2-.3-.4-1.6-1.5-2.8-1.5-2.8-2.9.3zM287.5 474.3c-1.6 1.2-3.1 2.1-3.3 1.9-.4-.4-4.7 3.1-5.7 4.7-1.2 2.1 1.6.2 3.3-2.1.7-1 1.7-1.6 2.2-1.3.5.3 1.1.1 1.5-.4.3-.6 1.3-.8 2.3-.5 1.4.5 1.5.4.2-.5-1.1-.8-1.1-1.1-.2-1.2.6-.1 1.7-.2 2.2-.3 1-.1 1.5-1.4.8-2.1-.2-.2-1.6.6-3.3 1.8zM266.8 486.9c-.7 1-1.6 1.9-2 2-1.4.2-.9 1.5.8 1.7.9.1 1.3 0 1-.3-.3-.4.1-1.7.9-3 1.8-2.7 1.2-3.1-.7-.4zM274.5 485.9c-.3.5-.1 1.2.5 1.6.6.4.7 1.2.3 1.8-.4.7-.1.7.9-.1.9-.8 1.4-2 1.1-2.8-.6-1.6-1.9-1.8-2.8-.5zM190.3 469.6c.9 1.1 1.5 2.4 1.2 2.7-.3.4-.2.5.2.2.3-.3 1.2 0 1.9.6.9.7 1.4.6 2-.3.4-.7.3-1-.1-.5-.5.4-2.2-.5-3.9-2-1.7-1.6-2.3-1.9-1.3-.7zM289 479.4c0 .2.8 1 1.8 1.7 1.5 1.3 1.6 1.2.3-.4s-2.1-2.1-2.1-1.3zM234.9 498.2c-.4 1.9-.9 5.1-.6 4.7.1-.2.8-1.1 1.5-2.1.9-1.1 1-1.8.2-2.3-.5-.3-1-.5-1.1-.3zM70.7 298.1c.7.7 1.5 1 1.8.7.3-.3-.2-.9-1.2-1.2-1.4-.6-1.5-.5-.6.5zM83.5 394.9c-.3.5-.2 1.2.3 1.5.5.3.9-.1.9-.9 0-1.7-.3-1.9-1.2-.6zM93.7 400.5c-.4.8-.3 1.6.1 1.9.4.3.9-.4.9-1.5.2-2.3-.3-2.5-1-.4zM101.6 407.3c.3 1 .9 1.5 1.2 1.2.3-.3 0-1.1-.7-1.8-1-.9-1.1-.8-.5.6zM105.8 407.8c-.5 1.9-.4 2 1.3 1.1 1-.5 1.9-1.2 1.9-1.5 0-.3-.4-.3-.9 0-.5.4-1.1.1-1.3-.6-.3-.7-.7-.3-1 1zM396.6 407.8c-.3.5.1.9.9.9s1.2-.4.9-.9c-.3-.4-.7-.8-.9-.8-.2 0-.6.4-.9.8zM111 408.5c0 .5.5 1.7 1 2.5s1 1 1 .5c0-.6-.5-1.7-1-2.5s-1-1.1-1-.5zM386.9 409.7c-1.3 1.6-1.2 1.7.4.4 1.6-1.3 2.1-2.1 1.3-2.1-.2 0-1 .8-1.7 1.7zM391.6 411.3c.3 1 .9 1.5 1.2 1.2.3-.3 0-1.1-.7-1.8-1-.9-1.1-.8-.5.6zM108.5 412c-.3.6.1.7.9.4 1.8-.7 2.1-1.4.7-1.4-.6 0-1.3.4-1.6 1zM103.3 413.5c0 .8.4 1.5.9 1.5.4 0 .8-.4.8-.9 0-.6-.4-1.2-.8-1.5-.5-.3-.9.1-.9.9zM99.5 414c-.3.5-.1 1 .4 1 .6 0 1.1-.5 1.1-1 0-.6-.2-1-.4-1-.3 0-.8.4-1.1 1zM111 413.9c.8.5 1.8.7 2.2.5.4-.3.8.4.8 1.6 0 1.2-.4 1.9-.8 1.6-.4-.2-1.4 0-2.2.5-1.1.7-.8.8 1 .6 1.8-.3 2.5-1 2.5-2.7 0-1.7-.7-2.4-2.5-2.7-1.8-.2-2.1-.1-1 .6z"/><path d="M108.6 415.8c-.3.5.1.9.9.9s1.5-.4 1.5-.9c0-.4-.4-.8-.9-.8-.6 0-1.2.4-1.5.8zM381.4 416.2c-.5.7-.2.8.6.3 1-.6 1.2-.4.6 1-.5 1.5-.4 1.6.9.5 1.9-1.5 1.9-1.6 0-2.3-.8-.4-1.7-.1-2.1.5zM387 416.2c0 .4.4.8.9.8.6 0 1.2-.4 1.5-.8.3-.5-.1-.9-.9-.9s-1.5.4-1.5.9zM106.7 418.1c.7.7 1.5 1 1.8.7.3-.3-.2-.9-1.2-1.2-1.4-.6-1.5-.5-.6.5zM115.7 418.3c-.3.8-.2 2 .3 2.6.5.9.8.4.8-1.3 0-2.9-.3-3.2-1.1-1.3zM377.4 418.5c-.4.8-1 1.2-1.5.9-.5-.3-.9 0-.9.5 0 1.6 2 1.3 2.6-.3.3-.8 1.2-1.2 2-.9.8.3 1.4.3 1.4 0 0-1.3-3.1-1.5-3.6-.2zM387.3 419.5c0 .8.4 1.2.9.9.5-.3.6-1 .3-1.5-.9-1.3-1.2-1.1-1.2.6zM111.5 420.9c-.9 1.5 1.5 2.5 2.8 1.2.9-.9.7-1-.7-.5-1.3.5-1.7.4-1.2-.4.4-.7.5-1.2.2-1.2s-.7.4-1.1.9zM97.6 421.8c-.2.4-.1 1.4.4 2.2.7 1.1.9.9.7-.8-.1-2.4-.3-2.6-1.1-1.4zM108.2 422.2c-1.5 1.5-1.5 2.8 0 2.8.6 0 .8-.3.5-.7-.4-.3-.2-1.2.4-2 1.4-1.6.7-1.7-.9-.1zM377.6 421.8c-.2.4-.1 1.4.3 2 .6 1 1.1.9 2.1-.3 1.1-1.3 1-1.4-.5-.9-1.3.5-1.6.4-1.1-.4.4-.7.5-1.2.2-1.2s-.7.4-1 .8zM399.6 423.3c.3 1 .9 1.5 1.2 1.2.3-.3 0-1.1-.7-1.8-1-.9-1.1-.8-.5.6zM114 424c-.9.6-1 1-.3 1 .6 0 1.5-.5 1.8-1 .8-1.2.4-1.2-1.5 0zM371.5 425.1c-.4.6-.5 1.2-.2 1.5.2.3.7-.2 1-1.1.7-1.7.1-2-.8-.4zM373 427c-.6 1.2-.5 1.7.5 1.7.8 0 1.1-.7.7-1.6-.5-1.4-.4-1.4 1.2-.2 1.3 1.1 1.9 1.2 2.9.2.9-1 .8-1.1-.7-.5-1.2.5-1.7.4-1.3-.3.3-.5-.1-1-.9-1s-1.9.8-2.4 1.7zM99.5 427.1c-.4.6-.5 1.2-.2 1.5.2.3.7-.2 1-1.1.7-1.7.1-2-.8-.4zM114.6 427.6c-.5 1.4-.4 1.5.9.4 1.7-1.4 1.9-2 .6-2-.5 0-1.2.7-1.5 1.6zM391 426.4c0 .2.8 1 1.8 1.7 1.5 1.3 1.6 1.2.3-.4s-2.1-2.1-2.1-1.3zM379.9 427.2c-.7 2.3-.4 3.5.7 3.5.9 0 1.1-.4.4-1.2-.5-.7-.7-1.5-.3-1.8.3-.4.3-.7 0-.7-.4 0-.7.1-.8.2zM119 430c0 .5.8.7 1.8.3 1.4-.5 1.5-.3.5.8-.7.7-1.3 1.7-1.3 2.3 0 .5.7.1 1.5-1 1.4-1.9 1.4-1.9 1.5.1.1 1.1.4 1.4.7.7.3-.7-.1-1.9-.7-2.7-1.4-1.7-4-2-4-.5zM114 431c0 .5-.8.7-1.7.3-1.9-.6-1.8-.5.7 1.4 1.3 1 1.6.8 1.7-.8.1-1 0-1.9-.3-1.9-.2 0-.4.4-.4 1zM125.8 430.7c1 .4 1 .8.1 1.9-.7.8-.7 1.4-.1 1.4 1.2 0 2.3-2.6 1.5-3.4-.4-.3-1.1-.6-1.7-.5-.6 0-.5.3.2.6zM370.6 431.5c-1.1.8-1.6 1.5-1 1.5.5 0 1.8-.7 2.8-1.5 1.1-.8 1.6-1.5 1-1.5-.5 0-1.8.7-2.8 1.5zM375 431.9c0 1 1.9 2.5 2.5 2 .1-.2-.3-1-1.1-1.7s-1.4-.8-1.4-.3zM385.3 432.9c0 1.1.5 1.8.9 1.5.4-.3.5-1.1.1-1.9-.7-2.1-1.2-1.9-1 .4zM105.5 434c-.3.5-.1 1 .4 1 .6 0 1.1-.5 1.1-1 0-.6-.2-1-.4-1-.3 0-.8.4-1.1 1zM365.7 433.7c-.4.3-.7 1.1-.7 1.7 0 .6.5.5 1.2-.2.6-.6.9-1.4.7-1.7-.3-.3-.9-.2-1.2.2zM367.5 436c-.4 1.1-1.1 1.7-1.7 1.4-.7-.5-.8-.2-.3.6.6 1 1.1 1 2-.3.7-.9 1.5-1.4 1.9-1 .4.4.4 0 0-1-.8-2.2-1.1-2.1-1.9.3zM371 435.1c0 .5.5.7 1 .4.6-.3 1-.8 1-1.1 0-.2-.4-.4-1-.4-.5 0-1 .5-1 1.1zM379 434.3c0 .2.6 1 1.4 1.6 1.1.9 1.6.9 2.2-.1.4-.7.4-1-.1-.6-.4.4-1.4.3-2.2-.3-.7-.6-1.3-.9-1.3-.6zM115.1 437.3c-.8 1-.7 1.4.2 1.4.8 0 1.4-.6 1.4-1.4 0-.7-.1-1.3-.2-1.3-.2 0-.8.6-1.4 1.3zM119.5 437c.3.6.1 1-.6 1s-1 .3-.6.6c.3.3 1.3.2 2.2-.4 1.6-.8 1.6-.9.1-1.5-1-.4-1.5-.3-1.1.3zM123.6 438.1c.3.5 1 .7 1.5.4.5-.4.9-.2.9.4 0 .5-.5 1.2-1 1.4-.6.3-.5.4.2.3 1.9-.4 1.6-2.9-.5-3.2-.9-.1-1.5.2-1.1.7zM371.5 438.7c.1 1-.1 2.3-.6 2.9-.5.6-.4 1.1.4 1.1.7 0 1.3-1.3 1.4-2.9 0-1.5-.3-2.8-.7-2.8-.5 0-.7.8-.5 1.7zM103.5 440c-.3.5-.1 1 .4 1 .6 0 1.1-.5 1.1-1 0-.6-.2-1-.4-1-.3 0-.8.4-1.1 1zM363.4 439.9c.3.5-.1 1.2-1 1.5-.8.3-1.3 1-1 1.5.4.5.1 1.2-.4 1.4-.7.4-.6.5 0 .3.7-.1 1.1-.5 1-1-.1-.5.5-1.3 1.4-1.8 1.8-1 2.1-2.8.5-2.8-.5 0-.8.4-.5.9zM385.5 440c.3.5.8 1 1.1 1 .2 0 .4-.5.4-1 0-.6-.5-1-1.1-1-.5 0-.7.4-.4 1zM127.3 441.7c.4.3.2 1.2-.5 2-.6.7-.8 1.6-.4 2 .3.3.6.1.6-.6s.4-1 .8-.7c.4.2.9-.4.9-1.5.1-1-.3-1.9-.9-1.9-.6 0-.8.3-.5.7zM367 442c1.4.9.7 1.4-1.3 1.1-.5-.1-.6.3-.2.9.5.8 1.1.8 2.1-.1 1.5-1.2 1-2.9-.9-2.9-.7 0-.6.4.3 1zM375.6 443.3c.3 1 .9 1.5 1.2 1.2.3-.3 0-1.1-.7-1.8-1-.9-1.1-.8-.5.6zM357 444c0 .5.5 1 1 1 .6 0 1-.5 1-1 0-.6-.4-1-1-1-.5 0-1 .4-1 1zM353.7 445.8c-2 2.1-2.2 3.2-.6 3.2.5 0 .7-.5.4-1-.3-.6-.2-1 .3-1 .6 0 1.2-.7 1.6-1.5.7-2 .3-1.9-1.7.3zM109.6 445.8c-.2.4-.1 1.4.4 2.2.7 1.1.9.9.7-.8-.1-2.4-.3-2.6-1.1-1.4zM122 445.5c0 .2.6.8 1.3 1.4 1 .8 1.4.7 1.4-.2 0-.8-.6-1.4-1.4-1.4-.7 0-1.3.1-1.3.2zM131 446c0 .5.8.7 1.8.3 1.4-.5 1.5-.3.5.8-.7.7-1.3 1.7-1.3 2.3 0 .5.6.1 1.4-.9.8-1.1 1.2-2.3 1-2.7-.7-1.1-3.4-1-3.4.2zM359 446.6c0 .6.7 1.9 1.6 3 1.4 1.8 1.4 1.8.3-.6-1.4-3.1-1.9-3.6-1.9-2.4zM126.7 448.1c.7.9 1 1.9.6 2.2-.3.4-.1.7.5.7 1.7 0 1.5-1.6-.5-3.1-1.6-1.2-1.7-1.2-.6.2zM151 448c0 .5.5 1 1 1 .6 0 1-.5 1-1 0-.6-.4-1-1-1-.5 0-1 .4-1 1zM363 448.2c0 .6.3.8.7.5.3-.4 1.3-.1 2.2.6 1.4 1.1 1.4 1 .2-.6-1.5-2-3.1-2.2-3.1-.5zM355 450c0 .5.5 1 1 1 .6 0 1-.5 1-1 0-.6-.4-1-1-1-.5 0-1 .4-1 1zM373 450.1c0 .5.5.7 1 .4.6-.3 1-.8 1-1.1 0-.2-.4-.4-1-.4-.5 0-1 .5-1 1.1zM115.5 451.1c-.4.6-.5 1.2-.2 1.5.2.3.7-.2 1-1.1.7-1.7.1-2-.8-.4zM137.6 451.5c-.3.8-.1 1.5.4 1.5.6 0 1-.7 1-1.5s-.2-1.5-.4-1.5-.6.7-1 1.5z"/><path d="M140.9 452.2c1.2 1.6 1.1 1.8-1 1.9-1.9.1-2 .2-.5.6 2.7.7 4-1.1 1.9-2.8-1.6-1.3-1.7-1.2-.4.3zM358.4 452.9c0 1.1.5 1.7 1.3 1.4 1-.4 1.1-.9.2-1.9-1.5-1.8-1.5-1.8-1.5.5zM364.6 451.8c-.3.5.1.9.9.9s1.2-.4.9-.9c-.3-.4-.7-.8-.9-.8-.2 0-.6.4-.9.8zM351.5 453c.3.5.8 1 1.1 1 .2 0 .4-.5.4-1 0-.6-.5-1-1.1-1-.5 0-.7.4-.4 1zM130 454c-.8.5-1 1-.5 1 .6 0 1.7-.5 2.5-1s1.1-1 .5-1c-.5 0-1.7.5-2.5 1zM134.8 453.7c.6.2.9 1 .6 1.5-.4.7-.2.8.5.4 1.3-.9.5-2.6-1.2-2.5-.9 0-.8.2.1.6zM362.7 454.1c.7.7 1.5 1 1.8.7.3-.3-.2-.9-1.2-1.2-1.4-.6-1.5-.5-.6.5zM143.3 455.6c.4.4-.1 1.3-1.1 2.1-1.5 1.2-1.4 1.3.8.2 3.3-1.6 3.3-1.6 1.3-2.3-.9-.4-1.4-.4-1 0zM334.6 456.5c-.3.9.1 2.6.9 3.8.8 1.2 1.5 1.7 1.5 1.1 0-.5-.5-1.5-1.2-2.2-.6-.6-.9-1.5-.5-1.8.7-.8 3.7 2 3.7 3.5 0 .6.9.2 2-.9 2.3-2.3 2.7-3.8.5-2-1.3 1.1-2 .9-3.9-.9-2.1-1.9-2.4-2-3-.6zM351 458.1c0 1.5 1.8 1.9 2.3.6.3-.8-.1-1.4-.9-1.4s-1.4.4-1.4.8zM355.5 457.8c.3.3-.1 1.2-.7 2.1-.8 1-.4.9 1-.3 2.6-2.3 2.6-2.3.7-2.3-.8 0-1.3.3-1 .5zM364.6 457.8c-.3.5.1.9.9.9s1.2-.4.9-.9c-.3-.4-.7-.8-.9-.8-.2 0-.6.4-.9.8zM133.6 459.8c-.3.4.4.9 1.5.9 2.3.2 2.5-.3.4-1-.8-.4-1.6-.3-1.9.1zM143.8 459.7c.7.3 1.6.2 1.9-.1.4-.3-.2-.6-1.3-.5-1.1 0-1.4.3-.6.6zM154.1 460.4c-.8 1-.9 1.6-.1 2.1 1.3.8 3-.3 3-2.1s-1.4-1.8-2.9 0zm1.9.6c0 .5-.5 1-1.1 1-.5 0-.7-.5-.4-1 .3-.6.8-1 1.1-1 .2 0 .4.4.4 1zM343.4 460.5c-.4.8-1.1 1.2-1.7.8-.6-.3-.7-.1-.3.5.4.6 1.3.9 2.1.6.8-.4 1.2-1.1.8-1.7-.4-.6 0-.8 1.1-.4 1 .4 1.5.3 1.1-.3-.9-1.5-2.5-1.2-3.1.5zM349 459.9c0 .6.4 1.3 1 1.6.6.3.7-.1.4-.9-.7-1.8-1.4-2.1-1.4-.7zM123.6 461.8c-.3.5.1.9.9.9s1.2-.4.9-.9c-.3-.4-.7-.8-.9-.8-.2 0-.6.4-.9.8zM158.6 462.6c-1.1.7-1.7 1.7-1.3 2 .3.4 1.4-.1 2.3-1 2.1-2.2 1.5-2.8-1-1zM137.4 463.1c-.3.6-.2 1.5.3 2s.9.1.9-1.1c0-2.3-.2-2.4-1.2-.9zM133.6 464.2c.3.5 1 .6 1.5.3 1.3-.9 1.1-1.2-.6-1.2-.8 0-1.2.4-.9.9zM149 463.7c0 .5 1.4.9 3.1.9 3.5.2 3.3-.5-.5-1.2-1.4-.2-2.6-.1-2.6.3zM338 464c1.8 1.2 3 1.3 3 .2 0-.4-1-.9-2.2-.9-1.8-.2-2 0-.8.7zM335 465c.8.5 2 1 2.5 1 .6 0 .3-.5-.5-1s-1.9-1-2.5-1c-.5 0-.3.5.5 1zM131 466.1c0 .5.5.7 1 .4.6-.3 1-.8 1-1.1 0-.2-.4-.4-1-.4-.5 0-1 .5-1 1.1zM143 466.2c0 .4.4.8.9.8.6 0 1.2-.4 1.5-.8.3-.5-.1-.9-.9-.9s-1.5.4-1.5.9zM147.3 465.7c.4.3.1 1.3-.6 2.2-1.1 1.4-1 1.4.5.2 1.6-1.2 1.6-3.1.1-3.1-.4 0-.3.3 0 .7zM326 465.8c0 .6.9 1.2 2 1.5 1.1.3 2 .3 2 .1 0-.2-.9-.8-2-1.4-1.1-.6-2-.7-2-.2zM331 466c0 .5.5 1 1 1 .6 0 1-.5 1-1 0-.6-.4-1-1-1-.5 0-1 .4-1 1zM343 466.4c.7.7 1.3.7 2 0 .6-.6.3-1-1-1s-1.6.4-1 1zM347.3 467.1c-.1 1 .3 2.2.9 2.5.7.4.8.2.4-.5-.4-.6-.3-1.8.3-2.5.8-.9.7-1.3-.2-1.3-.7 0-1.4.8-1.4 1.8zM363 465.9c0 .6.4 1.3 1 1.6.6.3.7-.1.4-.9-.7-1.8-1.4-2.1-1.4-.7zM155.6 467.5c.4.8.8 1.5 1 1.5.2 0 .4-.7.4-1.5s-.4-1.5-1-1.5c-.5 0-.7.7-.4 1.5zM161 468c0 .5.5 1 1 1 .6 0 1-.5 1-1 0-.6-.4-1-1-1-.5 0-1 .4-1 1zM334.8 467.7c.7.3 1.6.2 1.9-.1.4-.3-.2-.6-1.3-.5-1.1 0-1.4.3-.6.6zM143.5 469c-.4.6-1.1.7-1.7.4-.7-.4-.8-.2-.4.5.6.9 1.1.9 2.2 0 1.4-1.1 1.8-1.9 1-1.9-.3 0-.8.5-1.1 1zM151 468.4c0 .2.9.6 2 .9 1.1.3 1.8.1 1.4-.4-.5-.9-3.4-1.3-3.4-.5zM137.5 470c.3.5.8 1 1.1 1 .2 0 .4-.5.4-1 0-.6-.5-1-1.1-1-.5 0-.7.4-.4 1zM157.5 470c-.3.6.2 1.3 1.2 1.7 1 .3 2.1.8 2.5 1 .4.2.5-.3.2-1.1-.3-.9-1.2-1.2-2.1-.9-1.1.4-1.4.2-.9-.5.4-.7.5-1.2.2-1.2s-.8.5-1.1 1zM163.9 469.2c-.3.6-.6 4.8-.4 4.8.1 0 .9-.8 1.6-1.7 1.2-1.4 1.2-1.6 0-.8-1.1.6-1.3.4-.8-.8.5-1.3.1-2.5-.4-1.5zM330.2 470.3c1 .8 1.5 1.7 1.1 2-.3.4-.1.7.5.7 2 0 1.3-1.9-1-3-2.1-1-2.1-1-.6.3zM341.6 471.3c.3 1 .9 1.5 1.2 1.2.3-.3 0-1.1-.7-1.8-1-.9-1.1-.8-.5.6zM153.9 472.7c-1.2 1.6-1.2 1.7.2.6.9-.7 2-.9 2.4-.5.5.4.5.1.1-.6-.9-1.6-1.1-1.5-2.7.5zM327.1 472.8c-.7 1.4-.6 1.9.4 1.9.7 0 1.1-.7.7-1.5-.4-1.1-.1-1.3.8-.7.9.5 1.1.4.6-.3-1-1.6-1.4-1.5-2.5.6zM349.4 472.4c.1.8.5 1.8.8 2.2.4.3.5-.1.4-1-.1-.8-.5-1.8-.8-2.2-.4-.3-.5.1-.4 1zM173 472.9c0 .7-.4.9-1 .6-.5-.3-1-.1-1 .4 0 .6.4 1.1.9 1.1 1.3 0 2.5-2 1.7-2.7-.3-.4-.6-.1-.6.6zM145.5 474c.3.5.8 1 1.1 1 .2 0 .4-.5.4-1 0-.6-.5-1-1.1-1-.5 0-.7.4-.4 1zM165.9 473.2c-.6 2.2-.5 3.9.3 4.5.6.3.8.1.4-.5-.3-.6.3-1.2 1.6-1.5l2.3-.4-2.3-.2c-1.3 0-2-.6-1.7-1.1.3-.6.4-1 .1-1-.3 0-.6.1-.7.2zM312.2 475.6c-.7 1.4-.8 2.3-.2 1.9.5-.3 1-.1 1 .4 0 .6.5 1.1 1.1 1.1.8 0 .8-.5-.1-1.5-1-1.2-1-1.8 0-3 .7-.8.8-1.5.3-1.5s-1.5 1.2-2.1 2.6zM339.3 475.5c0 .8.4 1.2.9.9.5-.3.6-1 .3-1.5-.9-1.3-1.2-1.1-1.2.6zM162 476c-.9.6-1 1-.3 1 .6 0 1.5-.5 1.8-1 .8-1.2.4-1.2-1.5 0zM320.6 476.3c.3 1 .9 1.5 1.2 1.2.3-.3 0-1.1-.7-1.8-1-.9-1.1-.8-.5.6zM172.1 476.7c-.1 1.7 1.6 2.5 2.5 1.2.4-.7.3-.9-.4-.5-.5.3-1.3 0-1.5-.6-.4-.9-.6-1-.6-.1zM317.3 479.4c-.9 1.1-.9 1.5 0 1.9.7.3 1.4-.3 1.4-1.4.2-2.2.2-2.2-1.4-.5zM144.5 480c-.3.6.1.7.9.4 1.8-.7 2.1-1.4.7-1.4-.6 0-1.3.4-1.6 1zM171 480c0 .5.5 1 1.1 1 .5 0 .7-.5.4-1-.3-.6-.8-1-1.1-1-.2 0-.4.4-.4 1zM174.7 479.7c-.3.5.6.9 2 1 1.9.1 2.2-.1 1.2-.8-1.7-1.1-2.6-1.1-3.2-.2zM310 480c0 .5.5 1 1 1 .6 0 1-.5 1-1 0-.6-.4-1-1-1-.5 0-1 .4-1 1zM332 480c-.9.6-1 1-.3 1 .6 0 1.5-.5 1.8-1 .8-1.2.4-1.2-1.5 0zM307.1 483.3c-1.3 2.1-1.2 2.1.5.5 1-1 1.6-2 1.3-2.2-.3-.3-1.1.5-1.8 1.7zM322.1 481.9c-1 .7-.7.9 1.2.8 1.4-.1 2.3-.5 2-1-.6-.9-1.5-.9-3.2.2zM183 483c0 .5.5 1 1 1 .6 0 1-.5 1-1 0-.6-.4-1-1-1-.5 0-1 .4-1 1zM190.1 483c-.8.4-1.1 1.5-.8 2.5.4.9 1.2 1.3 1.8.9.8-.4.9.1.4 1.7-.4 1.3-.4 2.1 0 1.7 1.1-1 1.6-6.6.7-7.2-.4-.3-1.4-.1-2.1.4zm1.1 2.2c-.7.7-1.2.8-1.2.2 0-1.4 1.2-2.6 1.9-1.9.2.3-.1 1.1-.7 1.7zM311.1 484.9c-.9 1.7-.8 1.8 1.1 1.3 1.3-.3 1.7-.7 1-1-.7-.2-1-.8-.6-1.3.3-.5.3-.9 0-.9s-1 .9-1.5 1.9zM316 483.5c0 .2.6.8 1.3 1.4 1 .8 1.4.7 1.4-.2 0-.8-.6-1.4-1.4-1.4-.7 0-1.3.1-1.3.2zM331 483.4c0 .2.7.7 1.6 1 .8.3 1.2.2.9-.4-.6-1-2.5-1.4-2.5-.6zM335.5 484c-.3.5-.1 1 .4 1 .6 0 1.1-.5 1.1-1 0-.6-.2-1-.4-1-.3 0-.8.4-1.1 1zM175 484.4c0 .2.9.6 2 .9 1.1.3 1.8.1 1.4-.4-.5-.9-3.4-1.3-3.4-.5zM157.3 487.1c-.2 2.3.3 2.5 1 .4.4-.8.3-1.6-.1-1.9-.4-.3-.9.4-.9 1.5zM185.7 486.4c.4 1.3.3 1.7-.5 1.2s-1-.1-.5 1c.4 1.1.8 1.3 1.1.6.2-.7.8-1 1.2-.7.5.3 1.2 0 1.6-.7.4-.7.4-1-.1-.6-.4.4-1.4 0-2.2-1-1.2-1.6-1.3-1.6-.6.2zM194 486.1c0 .5.5.7 1 .4.6-.3 1-.8 1-1.1 0-.2-.4-.4-1-.4-.5 0-1 .5-1 1.1zM174.4 487.8c2.3 2.6 2.3 2.6 2.3.7 0-.8-.3-1.3-.5-1-.3.3-1.2-.1-2.1-.7-1-.8-.9-.4.3 1zM296.6 487.5c-.3.8-.1 1.5.4 1.5.6 0 1-.7 1-1.5s-.2-1.5-.4-1.5-.6.7-1 1.5zM307.5 487.1c-.4.6-.5 1.2-.2 1.5.2.3.7-.2 1-1.1.7-1.7.1-2-.8-.4zM170.6 487.8c-.3.5.1.9.9.9s1.2-.4.9-.9c-.3-.4-.7-.8-.9-.8-.2 0-.6.4-.9.8zM195.6 487.8c-.2.4 0 1.4.6 2.2.8 1.2.9 1.2.4-.3-.3-.9-.2-1.7.3-1.7 1.3 0 3.3 2.7 2.4 3.2-.4.3-.3.3.4.2.7-.2 1.5.6 1.8 1.7.7 2.2 2.7 2.1 3.3-.2.3-1.2.2-1.2-.6 0-.8 1.1-1.2.9-2.3-1-2-3.8-5.2-5.9-6.3-4.1zM290.7 490c-1 1.6-1.5 3-1 3 .4 0 .1.5-.7 1.1-1.2.8-1.2 1-.1.7.8-.2 1.5-1.2 1.7-2.2.1-1 1-2.6 2-3.7.9-1 1.3-1.9.8-1.9s-1.8 1.3-2.7 3zM178.9 489.7c-1.3 1.6-1.2 1.7.4.4.9-.7 1.7-1.5 1.7-1.7 0-.8-.8-.3-2.1 1.3zM163.4 489.8c.4.3 1.4.7 2.2.8.9.1 1.3 0 1-.4-.4-.3-1.4-.7-2.2-.8-.9-.1-1.3 0-1 .4zM193.6 490.3c.3 1 .9 1.5 1.2 1.2.3-.3 0-1.1-.7-1.8-1-.9-1.1-.8-.5.6zM293.1 490.8c-.7 1.4-.6 1.9.4 1.9.7 0 1.1-.7.7-1.5-.4-1.1-.1-1.3.8-.7.9.5 1.1.4.6-.3-1-1.6-1.4-1.5-2.5.6zM299 489.9c0 .6.4 1.2.8 1.5.5.3.9-.1.9-.9s-.4-1.5-.9-1.5c-.4 0-.8.4-.8.9zM309.4 492c0 1.3.4 1.6 1 1 .7-.7.7-1.3 0-2-.6-.6-1-.3-1 1zM180.6 491.8c-.3.5.1.9.9.9s1.2-.4.9-.9c-.3-.4-.7-.8-.9-.8-.2 0-.6.4-.9.8zM296.1 492.8c-.7 1.4-.6 1.9.4 1.9.7 0 1.1-.7.7-1.5-.4-1.1-.1-1.3.8-.7.9.5 1.1.4.6-.3-1-1.6-1.4-1.5-2.5.6zM196.1 492.7c-.1 1.7 1.6 2.5 2.5 1.2.4-.7.3-.9-.4-.5-.5.3-1.3 0-1.5-.6-.4-.9-.6-1-.6-.1zM188 494.5c-.7.9-1.1 1.7-.9 2 .3.2 1-.5 1.7-1.5 1.4-2.4 1-2.6-.8-.5zM315.5 494.1c-.3.4.2.6 1 .5 2.1-.3 2.8-1.3 1-1.3-.9 0-1.8.4-2 .8zM199.7 494.7c-1 .9-.9 2.3.1 2.3.5 0 .9-.7.9-1.5 0-1.7-.1-1.8-1-.8zM291.7 494.7c-1 1-.8 2.3.4 2.3.5 0 .8-.4.5-.9-.4-.5 0-1.2.6-1.4.7-.3.8-.6.2-.6-.6-.1-1.4.2-1.7.6zM205 496c0 .5.5 1 1 1 .6 0 1-.5 1-1 0-.6-.4-1-1-1-.5 0-1 .4-1 1zM209 495.7c.5.2 1 .9 1 1.4 0 .6-.4.8-.9.4-1.5-.9-2.5 1.5-1.2 2.8.9.9 1.1.8.5-.6-.4-1.2-.2-1.7.7-1.5.8.2 1.4-.3 1.4-1.1s-.6-1.5-1.3-1.7c-.7-.1-.8 0-.2.3zM282 495.4c0 .2.7.9 1.5 1.6 1.3 1.1 1.4 1 .9-.4-.5-1.4-2.4-2.3-2.4-1.2zM303 495.9c0 .6.4 1.3 1 1.6.6.3.7-.1.4-.9-.7-1.8-1.4-2.1-1.4-.7zM195.3 499c-.1 1.1.2 2 .7 2 .4 0 .7-.7.6-1.5-.3-2.3-1.2-2.6-1.3-.5zM211.1 499.3c-1.3 2.1-1.2 2.1.5.5 1-1 1.6-2 1.3-2.2-.3-.3-1.1.5-1.8 1.7zM281.3 497.5c.4.5-.5 1.5-2 2.2-2.6 1.2-2.6 1.2-.3.7 3.3-.8 4.5-2 2.8-2.9-.7-.5-1-.4-.5 0zM294.9 498.3c.6.8.9 1.6.6 1.9-.3.2.2.5 1 .5 1.3 0 1.3-.3-.2-1.9-1.9-2.1-3.1-2.5-1.4-.5zM309.5 498c.3.5.8 1 1.1 1 .2 0 .4-.5.4-1 0-.6-.5-1-1.1-1-.5 0-.7.4-.4 1zM203.3 500.2c.1 1.6.5 2.8.9 2.8 1 0 .9-.9-.2-3.5-.8-1.7-.8-1.6-.7.7zM213.5 500c-.3.5-.2 1 .4 1 .5 0 1.3-.5 1.6-1 .3-.6.2-1-.4-1-.5 0-1.3.4-1.6 1zM283.7 500.4c-.3.8 0 1.7.7 1.9 1 .4 1.2-.1.9-1.4-.6-2.3-.9-2.4-1.6-.5zM305 500c0 .5.5 1 1.1 1 .5 0 .7-.5.4-1-.3-.6-.8-1-1.1-1-.2 0-.4.4-.4 1zM191.4 501.4c.1.8.5 1.8.8 2.2.4.3.5-.1.4-1-.1-.8-.5-1.8-.8-2.2-.4-.3-.5.1-.4 1zM199 501.8c0 .5.7.9 1.5.9s1.2-.4.9-.9c-.7-1-2.4-1-2.4 0zM221.3 502.2c.7 2-.9 2.5-1.6.5-.4-.9-.6-.9-.6 0-.1 1.8 1.9 2.7 3.2 1.4.8-.8.7-1.4-.2-2.4-1.1-1-1.3-.9-.8.5zM274.4 502.2c-.4.7-.4 1 .1.6.4-.4 1.4 0 2.2 1 1.3 1.5 1.3 1.5.3-.6-1.2-2.5-1.6-2.7-2.6-1zM187 502.4c0 .2.8 1 1.8 1.7 1.5 1.3 1.6 1.2.3-.4s-2.1-2.1-2.1-1.3zM195.5 503.1c-.4.6-.5 1.2-.2 1.5.2.3.7-.2 1-1.1.7-1.7.1-2-.8-.4zM211.8 502.7c.7.3 1.6.2 1.9-.1.4-.3-.2-.6-1.3-.5-1.1 0-1.4.3-.6.6zM215.3 503.5c0 .8.4 1.2.9.9.4-.3.8-.9.8-1.5 0-.5-.4-.9-.8-.9-.5 0-.9.7-.9 1.5zM263.7 502.7c-.4.3-.7 1.1-.7 1.7 0 .6.5.5 1.2-.2.6-.6.9-1.4.7-1.7-.3-.3-.9-.2-1.2.2zM279.2 502.5c.4.4.3 1.7-.3 2.9-.9 1.8-.8 1.9.3.5.7-.9 2.1-1.5 3.1-1.3 1.1.1 1.6-.1 1.2-.4-.4-.4-1-.7-1.3-.7-.4 0-1.4-.4-2.2-.9-.8-.5-1.2-.6-.8-.1zM288.4 504.2c-1.2 1.4-1.3 1.8-.3 1 .9-.6 1.8-1 2.1-.7.2.3.5-.2.5-1 0-1.9 0-1.9-2.3.7zM243 504.5c0 .8.4 1.5.8 1.5.5 0 .9-.7.9-1.5s-.4-1.5-.9-1.5c-.4 0-.8.7-.8 1.5zM268 503.4c0 .2.7.7 1.6 1 .8.3 1.2.2.9-.4-.6-1-2.5-1.4-2.5-.6zM255.3 506.4c0 1.8.3 2.4.9 1.8.7-.7.7-1.6 0-2.8-.8-1.4-.9-1.3-.9 1zM265.7 504.6c-.4.4-.4 1.1-.1 1.5.7 1.2 3.4 1.1 3.4-.1 0-.5-.7-.6-1.7-.3-1.1.4-1.4.3-.9-.5.8-1.3.3-1.6-.7-.6zM199.6 505.9c-.3.5.2 1.5 1.2 2.2 1.5 1.2 1.6 1.2.5-.2-.7-.9-1-1.9-.6-2.2.3-.4.4-.7 0-.7-.3 0-.8.4-1.1.9zM210.8 505.7c.9.3 1 .9.3 1.7-.8.9-.7 1.3.4 1.3.7 0 1.3-.5 1.2-1.1-.1-.6.5-1 1.3-.8.8.2 1.2 0 .7-.4-.4-.4-1.8-.9-3-1-1.2-.2-1.6 0-.9.3zM223 506c0 .5.5 1 1 1 .6 0 1-.5 1-1 0-.6-.4-1-1-1-.5 0-1 .4-1 1zM235.3 506.5c-.8 2.2.5 3.1 2 1.5.9-1 .9-1.1 0-.6-.7.4-1.3.3-1.3-.3 0-.5.6-1.2 1.3-1.4.9-.4.9-.6-.1-.6-.7-.1-1.5.6-1.9 1.4zM273.9 505.2c0 .2-.2 1.3-.3 2.6-.3 2.1-.2 2.1 1.6.5 2.2-2 2.3-2.4.1-1.6-1.1.4-1.4.3-.9-.5.4-.7.5-1.2.2-1.2s-.6.1-.7.2zM297.5 506c.3.5.8 1 1.1 1 .2 0 .4-.5.4-1 0-.6-.5-1-1.1-1-.5 0-.7.4-.4 1zM239 506.9c0 .6.5 1.3 1.2 1.7.6.4.8.3.4-.4-.3-.5 0-1.3.6-1.5.8-.3.6-.6-.4-.6-1-.1-1.8.3-1.8.8zM270 506.9c0 .6.4 1.3 1 1.6.6.3.7-.1.4-.9-.7-1.8-1.4-2.1-1.4-.7zM281 506.4c0 .2.8 1 1.8 1.7 1.5 1.3 1.6 1.2.3-.4s-2.1-2.1-2.1-1.3zM290.9 507.7c-1.3 1.6-1.2 1.7.4.4 1.6-1.3 2.1-2.1 1.3-2.1-.2 0-1 .8-1.7 1.7zM205.6 508.2c.3.4 1.1.5 1.9.1 2.1-.7 1.9-1.2-.4-1-1.1 0-1.8.5-1.5.9zM217 508c0 .5.5 1 1 1 .6 0 1-.5 1-1 0-.6-.4-1-1-1-.5 0-1 .4-1 1zM220.6 507.9c-.3.5.1 1.1.9 1.4.9.4 1.2.1.8-.9-.6-1.6-1-1.7-1.7-.5zM243.8 507.7c.7.3 1.6.2 1.9-.1.4-.3-.2-.6-1.3-.5-1.1 0-1.4.3-.6.6zM259.1 508.7c.7 1.2 1.5 2 1.8 1.7.3-.2-.3-1.2-1.3-2.2-1.7-1.6-1.8-1.6-.5.5zM223.6 510.7c-.6 1.4-.5 1.5.5.6.7-.7 1-1.5.7-1.8-.3-.3-.9.2-1.2 1.2zM228 509.4c0 .2.7.7 1.6 1 .8.3 1.2.2.9-.4-.6-1-2.5-1.4-2.5-.6zM232.4 510.1c-.4.7-.3.9.4.5.5-.3 1.3 0 1.5.6.4.9.6 1 .6.1.1-1.7-1.6-2.5-2.5-1.2zM237.5 510.1c-.4.6-.4 1.3-.1 1.6.3.4.6.1.6-.6s.5-.9 1.2-.5.8.3.4-.4c-.9-1.5-1.3-1.5-2.1-.1zM241.5 509.9c-.3.5 0 1.3.6 1.7.8.5.9.3.5-.5-1-1.5 2.5-1.1 3.7.4.5.6.7.4.5-.4-.5-1.6-4.4-2.5-5.3-1.2zM257.4 509.8c.3.5 0 1.3-.6 1.5-.9.4-1 .6-.1.6 1.7.1 2.5-1.6 1.2-2.5-.7-.4-.9-.3-.5.4zM275.9 510.7c-1.3 1.6-1.2 1.7.4.4 1.6-1.3 2.1-2.1 1.3-2.1-.2 0-1 .8-1.7 1.7z"/></svg>