<?xml version="1.0" encoding="utf-8"?>
<!-- Generator: Adobe Illustrator 21.1.0, SVG Export Plug-In . SVG Version: 6.00 Build 0)  -->
<svg version="1.1" id="Слой_1" xmlns="http://www.w3.org/2000/svg" xmlns:xlink="http://www.w3.org/1999/xlink" x="0px" y="0px"
	 viewBox="0 0 173.4 106.1" style="enable-background:new 0 0 173.4 106.1;" xml:space="preserve">
<style type="text/css">
	.st0{fill:none;stroke:#262424;stroke-width:0.266;stroke-linecap:round;stroke-linejoin:round;stroke-miterlimit:10;}
	.st1{fill:none;stroke:#CB2628;stroke-width:0.15;stroke-linecap:round;stroke-linejoin:round;stroke-miterlimit:10;}
	.st2{fill:#43539F;}
	.st3{fill:#CB2628;}
	.st4{fill:none;stroke:#CB2628;stroke-width:0.15;stroke-miterlimit:10;}
	.st5{fill:none;stroke:#CB2628;stroke-width:0.15;stroke-linecap:round;stroke-miterlimit:10;}
	.st6{fill:none;stroke:#5677B7;stroke-width:0.152;stroke-linecap:round;stroke-linejoin:round;stroke-miterlimit:10;}
	.st7{fill:none;stroke:#262424;stroke-width:0.224;stroke-linecap:round;stroke-linejoin:round;stroke-miterlimit:10;}
	.st8{fill:none;stroke:#262424;stroke-width:0.143;stroke-miterlimit:10;}
</style>
<line class="st0" x1="13.8" y1="40.6" x2="13.8" y2="39.4"/>
<line class="st0" x1="13.8" y1="39" x2="13.8" y2="37.9"/>
<line class="st0" x1="13.8" y1="53.9" x2="13.8" y2="52.8"/>
<line class="st0" x1="13.8" y1="52.4" x2="13.8" y2="51.3"/>
<line class="st0" x1="13.8" y1="37.9" x2="14.1" y2="37.7"/>
<line class="st0" x1="14.1" y1="37.5" x2="14.5" y2="37.2"/>
<line class="st0" x1="14.6" y1="37.2" x2="14.8" y2="36.9"/>
<line class="st0" x1="13.8" y1="40.6" x2="14.1" y2="40.8"/>
<line class="st0" x1="14.1" y1="40.9" x2="14.5" y2="41.2"/>
<line class="st0" x1="14.6" y1="41.3" x2="14.8" y2="41.6"/>
<line class="st0" x1="13" y1="37.9" x2="13.2" y2="37.9"/>
<line class="st0" x1="13.3" y1="37.9" x2="13.5" y2="37.9"/>
<line class="st0" x1="13.6" y1="37.9" x2="13.8" y2="37.9"/>
<line class="st0" x1="13" y1="40.6" x2="13.2" y2="40.6"/>
<line class="st0" x1="13.3" y1="40.6" x2="13.5" y2="40.6"/>
<line class="st0" x1="13.6" y1="40.6" x2="13.8" y2="40.6"/>
<line class="st0" x1="13.8" y1="51.3" x2="14.1" y2="51"/>
<line class="st0" x1="14.1" y1="50.9" x2="14.5" y2="50.6"/>
<line class="st0" x1="14.6" y1="50.6" x2="14.8" y2="50.3"/>
<line class="st0" x1="13.8" y1="53.9" x2="14.1" y2="54.2"/>
<line class="st0" x1="14.1" y1="54.3" x2="14.5" y2="54.6"/>
<line class="st0" x1="14.6" y1="54.7" x2="14.8" y2="55"/>
<line class="st0" x1="13" y1="51.3" x2="13.2" y2="51.3"/>
<line class="st0" x1="13.3" y1="51.3" x2="13.5" y2="51.3"/>
<line class="st0" x1="13.6" y1="51.3" x2="13.8" y2="51.3"/>
<line class="st0" x1="13" y1="53.9" x2="13.2" y2="53.9"/>
<line class="st0" x1="13.3" y1="53.9" x2="13.5" y2="53.9"/>
<line class="st0" x1="13.6" y1="53.9" x2="13.8" y2="53.9"/>
<polyline class="st0" points="13,34.5 13.1,34.8 13.3,35.2 "/>
<polyline class="st0" points="14.6,35.2 14.7,34.8 14.8,34.5 14.8,33.9 13,33.9 13,34.5 "/>
<line class="st0" x1="14.8" y1="63.3" x2="14.8" y2="34.5"/>
<line class="st0" x1="13" y1="34.5" x2="13" y2="63.3"/>
<line class="st0" x1="75.3" y1="65.9" x2="72.5" y2="66.9"/>
<path class="st0" d="M13,63.3C13,78.1,24,90.6,38.6,92.5c14.6,1.9,28.5-7.3,32.3-21.5"/>
<path class="st0" d="M73.1,68.6c-1.1,0.4-1.9,1.3-2.2,2.4"/>
<line class="st0" x1="73.1" y1="68.6" x2="75.9" y2="67.5"/>
<path class="st0" d="M72.5,66.9c-1.6,0.6-2.9,1.9-3.3,3.6"/>
<path class="st0" d="M14.8,63.3c0,13.9,10.3,25.6,24,27.4c13.8,1.8,26.7-6.8,30.3-20.2"/>
<polyline class="st0" points="74.7,66.3 75,66.1 75.3,65.9 75.9,65.7 76.5,67.4 75.9,67.5 75.6,67.6 75.1,67.6 "/>
<line class="st0" x1="15.1" y1="67.4" x2="14.6" y2="67.4"/>
<line class="st0" x1="14.5" y1="67.4" x2="13.9" y2="67.4"/>
<line class="st0" x1="13.8" y1="67.4" x2="13.3" y2="67.4"/>
<line class="st0" x1="14.9" y1="64.7" x2="14.4" y2="64.7"/>
<line class="st0" x1="14.2" y1="64.7" x2="13.7" y2="64.7"/>
<line class="st0" x1="13.5" y1="64.7" x2="13" y2="64.7"/>
<line class="st1" x1="42.5" y1="63.3" x2="34.2" y2="71.8"/>
<line class="st1" x1="24.7" y1="81.6" x2="29.5" y2="76.7"/>
<g>
	<path class="st2" d="M27.1,71.6h1.8c0.5,0,0.9,0.2,1.2,0.4c0.2,0.2,0.3,0.5,0.3,0.8c0,0.7-0.5,1.1-1.1,1.2l1.3,1.7H30l-1.2-1.6
		h-1.2v1.6h-0.5V71.6z M28.9,73.7c0.6,0,1.1-0.3,1.1-0.9c0-0.5-0.4-0.8-1.1-0.8h-1.3v1.7H28.9z"/>
	<path class="st2" d="M31.2,73.8c0-1.3,0.6-2.3,1.7-2.3c0.5,0,0.9,0.2,1.2,0.5l-0.3,0.4c-0.3-0.3-0.6-0.4-1-0.4
		c-0.8,0-1.2,0.8-1.2,1.8v0c0.2-0.3,0.6-0.6,1.2-0.6c0.8,0,1.5,0.5,1.5,1.3c0,0.8-0.7,1.4-1.5,1.4C31.9,75.9,31.2,75.3,31.2,73.8z
		 M33.9,74.5c0-0.5-0.4-0.9-1-0.9c-0.6,0-1,0.5-1,0.9c0,0.5,0.4,0.9,1.1,0.9C33.5,75.4,33.9,75,33.9,74.5z"/>
	<path class="st2" d="M35,75.4l1.5-1.3c0.6-0.6,0.9-0.9,0.9-1.3c0-0.5-0.4-0.8-0.8-0.8c-0.5,0-0.8,0.3-1.1,0.7l-0.3-0.3
		c0.4-0.6,0.8-0.9,1.5-0.9c0.8,0,1.3,0.5,1.3,1.2c0,0.6-0.3,1-1.1,1.6l-1.1,1H38v0.4H35V75.4z"/>
</g>
<polygon class="st3" points="24.5,81.3 25,81.8 23.2,83.2 "/>
<polygon class="st4" points="24.5,81.3 25,81.8 23.2,83.2 "/>
<line class="st1" x1="41.6" y1="92.8" x2="3.2" y2="92.8"/>
<line class="st1" x1="12.1" y1="33.9" x2="3.2" y2="33.9"/>
<line class="st1" x1="6" y1="90.6" x2="6" y2="36.1"/>
<polygon class="st3" points="5.6,90.6 6.4,90.6 6,92.8 "/>
<polygon class="st5" points="5.6,90.6 6.4,90.6 6,92.8 "/>
<polygon class="st3" points="5.6,36.1 6.4,36.1 6,33.9 "/>
<polygon class="st5" points="5.6,36.1 6.4,36.1 6,33.9 "/>
<g>
	<path class="st2" d="M1.4,65.2L1.6,66l-0.4,0.1l-0.4-1v-0.3h4.2v0.5H1.4z"/>
	<path class="st2" d="M4.4,63.8l-0.3-0.3c0.4-0.3,0.6-0.7,0.6-1.2c0-0.5-0.3-0.9-0.8-0.9c-0.5,0-0.8,0.5-0.8,1.2v0.3l-0.3,0.1
		l-1.5-1.3v2.1H0.9v-2.7h0.3l1.5,1.3c0.1-0.7,0.4-1.4,1.2-1.4c0.8,0,1.3,0.6,1.3,1.4C5.2,63,4.9,63.5,4.4,63.8z"/>
	<path class="st2" d="M4.7,60.2l-1.3-1.5c-0.6-0.6-0.9-0.9-1.3-0.9c-0.5,0-0.8,0.4-0.8,0.8c0,0.5,0.3,0.8,0.7,1.1l-0.3,0.3
		c-0.6-0.4-0.9-0.8-0.9-1.5c0-0.8,0.5-1.3,1.2-1.3c0.6,0,1,0.3,1.6,1.1l1,1.1v-2.2h0.4v2.9H4.7z"/>
</g>
<line class="st6" x1="68.1" y1="63.3" x2="63.4" y2="63.3"/>
<line class="st6" x1="62.8" y1="63.3" x2="61.5" y2="63.3"/>
<line class="st6" x1="60.9" y1="63.3" x2="55.9" y2="63.3"/>
<line class="st6" x1="55.2" y1="63.3" x2="54" y2="63.3"/>
<line class="st6" x1="53.3" y1="63.3" x2="48.3" y2="63.3"/>
<line class="st6" x1="47.6" y1="63.3" x2="46.4" y2="63.3"/>
<line class="st6" x1="45.7" y1="63.3" x2="40.7" y2="63.3"/>
<line class="st6" x1="40.1" y1="63.3" x2="38.8" y2="63.3"/>
<line class="st6" x1="38.2" y1="63.3" x2="33.1" y2="63.3"/>
<line class="st6" x1="32.5" y1="63.3" x2="31.2" y2="63.3"/>
<line class="st6" x1="30.6" y1="63.3" x2="25.5" y2="63.3"/>
<line class="st6" x1="24.9" y1="63.3" x2="23.6" y2="63.3"/>
<line class="st6" x1="23" y1="63.3" x2="17.9" y2="63.3"/>
<line class="st6" x1="17.3" y1="63.3" x2="16" y2="63.3"/>
<line class="st6" x1="15.4" y1="63.3" x2="10.8" y2="63.3"/>
<line class="st6" x1="42.5" y1="61.1" x2="42.5" y2="64.7"/>
<line class="st6" x1="42.5" y1="65.4" x2="42.5" y2="66.6"/>
<line class="st6" x1="42.5" y1="67.3" x2="42.5" y2="72.3"/>
<line class="st6" x1="42.5" y1="72.9" x2="42.5" y2="74.2"/>
<line class="st6" x1="42.5" y1="74.8" x2="42.5" y2="79.9"/>
<line class="st6" x1="42.5" y1="80.5" x2="42.5" y2="81.8"/>
<line class="st6" x1="42.5" y1="82.4" x2="42.5" y2="87.5"/>
<line class="st6" x1="42.5" y1="88.1" x2="42.5" y2="89.4"/>
<line class="st6" x1="42.5" y1="90" x2="42.5" y2="93.6"/>
<line class="st1" x1="13" y1="33.6" x2="13" y2="28"/>
<line class="st1" x1="14.8" y1="33.6" x2="14.8" y2="28"/>
<line class="st1" x1="10.8" y1="30.8" x2="8.6" y2="30.8"/>
<line class="st1" x1="17" y1="30.8" x2="19.3" y2="30.8"/>
<line class="st1" x1="13" y1="30.8" x2="14.8" y2="30.8"/>
<polygon class="st3" points="10.8,30.5 10.8,31.2 13,30.8 "/>
<polygon class="st5" points="10.8,30.5 10.8,31.2 13,30.8 "/>
<polygon class="st3" points="17,30.5 17,31.2 14.8,30.8 "/>
<polygon class="st5" points="17,30.5 17,31.2 14.8,30.8 "/>
<g>
	<path class="st2" d="M14.6,24.9h-2.2l-0.1-0.3l2.4-2.9h0.4v2.8h0.7v0.4h-0.7v1h-0.5V24.9z M14.6,24.5v-2.2l-1.8,2.2H14.6z"/>
</g>
<line class="st1" x1="75.6" y1="64.8" x2="72.6" y2="56.7"/>
<line class="st1" x1="72.2" y1="66.1" x2="69.2" y2="57.9"/>
<line class="st1" x1="75.7" y1="58.6" x2="77.8" y2="57.8"/>
<line class="st1" x1="68.1" y1="61.4" x2="66" y2="62.1"/>
<line class="st1" x1="73.6" y1="59.4" x2="70.2" y2="60.6"/>
<polygon class="st3" points="75.6,58.2 75.8,59 73.6,59.4 "/>
<polygon class="st5" points="75.6,58.2 75.8,59 73.6,59.4 "/>
<polygon class="st3" points="68,61 68.3,61.7 70.2,60.6 "/>
<polygon class="st5" points="68,61 68.3,61.7 70.2,60.6 "/>
<g>
	<path class="st2" d="M69,58.9c-0.2-0.5,0-0.9,0.5-1.3c-0.4,0-0.8-0.2-1-0.7c-0.2-0.6,0.2-1.3,1-1.5c0.7-0.3,1.5-0.1,1.7,0.6
		c0.2,0.5,0,0.9-0.3,1.2c0.5,0,1,0.2,1.2,0.7c0.2,0.7-0.2,1.4-1.1,1.7S69.2,59.6,69,58.9z M70.7,56.2c-0.1-0.4-0.6-0.5-1.2-0.3
		c-0.5,0.2-0.8,0.6-0.6,1c0.2,0.4,0.7,0.6,1.2,0.4C70.5,57,70.8,56.6,70.7,56.2z M71.5,58c-0.2-0.4-0.7-0.6-1.3-0.4
		c-0.6,0.2-0.9,0.7-0.7,1.1c0.1,0.4,0.7,0.6,1.3,0.4C71.4,58.8,71.6,58.4,71.5,58z"/>
</g>
<line class="st1" x1="43.4" y1="92.8" x2="92.2" y2="92.8"/>
<line class="st1" x1="77.4" y1="67.4" x2="92.2" y2="67.4"/>
<line class="st1" x1="89.3" y1="90.6" x2="89.3" y2="69.6"/>
<polygon class="st3" points="89,90.6 89.7,90.6 89.3,92.8 "/>
<polygon class="st5" points="89,90.6 89.7,90.6 89.3,92.8 "/>
<polygon class="st3" points="89,69.6 89.7,69.6 89.3,67.4 "/>
<polygon class="st5" points="89,69.6 89.7,69.6 89.3,67.4 "/>
<g>
	<path class="st2" d="M87.9,83.8l-0.3-0.3c0.4-0.4,0.6-0.8,0.6-1.2c0-0.6-0.4-1-0.9-1c-0.5,0-0.9,0.4-0.9,1c0,0.4,0.1,0.6,0.2,0.9
		l-0.2,0.3l-2-0.1V81h0.4v2l1.3,0.1c-0.1-0.2-0.2-0.5-0.2-0.8c0-0.8,0.5-1.5,1.3-1.5c0.8,0,1.4,0.6,1.4,1.5
		C88.5,82.9,88.3,83.4,87.9,83.8z"/>
	<path class="st2" d="M84.7,77.8v2.3h-0.4v-2.8h0.4l3.8,1.9v0.5L84.7,77.8z"/>
</g>
<polyline class="st1" points="84.9,72.7 75.1,72.7 73.5,70.9 "/>
<g>
	<path class="st2" d="M78.3,67.6h1.8c0.5,0,0.9,0.2,1.2,0.4c0.2,0.2,0.3,0.5,0.3,0.8c0,0.7-0.5,1.1-1.1,1.2l1.3,1.7h-0.6L80,70.2
		h-1.2v1.6h-0.5V67.6z M80.1,69.8c0.6,0,1.1-0.3,1.1-0.9c0-0.5-0.4-0.8-1.1-0.8h-1.3v1.7H80.1z"/>
	<path class="st2" d="M82.4,70.7c0-0.5,0.4-0.9,0.9-1c-0.4-0.2-0.7-0.5-0.7-1c0-0.6,0.7-1.1,1.4-1.1s1.4,0.5,1.4,1.1
		c0,0.5-0.3,0.8-0.7,1c0.5,0.2,0.9,0.5,0.9,1c0,0.7-0.7,1.2-1.6,1.2S82.4,71.4,82.4,70.7z M85.1,70.7c0-0.5-0.5-0.8-1.1-0.8
		c-0.6,0-1.1,0.3-1.1,0.8c0,0.4,0.4,0.8,1.1,0.8S85.1,71.1,85.1,70.7z M84.9,68.7c0-0.4-0.4-0.7-1-0.7c-0.5,0-1,0.3-1,0.7
		c0,0.5,0.4,0.8,1,0.8C84.5,69.5,84.9,69.2,84.9,68.7z"/>
</g>
<polygon class="st3" points="73.7,70.7 73.2,71.2 71.9,69.3 "/>
<polygon class="st5" points="73.7,70.7 73.2,71.2 71.9,69.3 "/>
<line class="st1" x1="76.5" y1="68.2" x2="76.5" y2="106"/>
<line class="st1" x1="13" y1="64.2" x2="13" y2="106"/>
<line class="st1" x1="74.3" y1="103.1" x2="15.2" y2="103.1"/>
<polygon class="st3" points="74.3,102.8 74.3,103.5 76.5,103.1 "/>
<polygon class="st5" points="74.3,102.8 74.3,103.5 76.5,103.1 "/>
<polygon class="st3" points="15.2,102.8 15.2,103.5 13,103.1 "/>
<polygon class="st5" points="15.2,102.8 15.2,103.5 13,103.1 "/>
<g>
	<path class="st2" d="M40.8,98.5L40,98.8l-0.1-0.4l1-0.4h0.3v4.2h-0.5V98.5z"/>
	<path class="st2" d="M44.5,101.3h-2.2l-0.1-0.3l2.4-2.9h0.4v2.8h0.7v0.4h-0.7v1h-0.5V101.3z M44.5,100.9v-2.2l-1.8,2.2H44.5z"/>
	<path class="st2" d="M46.2,101.9l1.5-1.3c0.6-0.6,0.9-0.9,0.9-1.3c0-0.5-0.4-0.8-0.8-0.8c-0.5,0-0.8,0.3-1.1,0.7l-0.3-0.3
		c0.4-0.6,0.8-0.9,1.5-0.9c0.8,0,1.3,0.5,1.3,1.2c0,0.6-0.3,1-1.1,1.6l-1.1,1h2.2v0.4h-2.9V101.9z"/>
</g>
<line class="st1" x1="74.5" y1="66.2" x2="51.1" y2="74.7"/>
<path class="st1" d="M52.1,65.5c0.1,2,0.5,4.1,1.1,6"/>
<polygon class="st3" points="51.7,65.6 52.4,65.5 52,63.3 "/>
<polygon class="st5" points="51.7,65.6 52.4,65.5 52,63.3 "/>
<polygon class="st3" points="53.4,71.5 52.8,71.7 53.8,73.7 "/>
<polygon class="st5" points="53.4,71.5 52.8,71.7 53.8,73.7 "/>
<g>
	<path class="st2" d="M50.6,58.8l-0.8-1.9c-0.3-0.8-0.6-1.1-1-1.2c-0.5-0.2-0.9,0.1-1,0.6c-0.1,0.5,0,0.8,0.3,1.3l-0.3,0.3
		c-0.4-0.5-0.6-1-0.4-1.7c0.2-0.7,0.9-1.1,1.5-0.9c0.6,0.2,0.8,0.6,1.2,1.5l0.6,1.4l0.7-2.1l0.4,0.1L51,58.9L50.6,58.8z"/>
	<path class="st2" d="M50.1,54.8c-1.1-0.4-1.8-1.3-1.5-2.4c0.3-1,1.5-1.4,2.6-1c1.1,0.4,1.8,1.3,1.5,2.4
		C52.4,54.8,51.2,55.1,50.1,54.8z M51.1,51.9c-0.9-0.3-1.8-0.1-2.1,0.7c-0.2,0.7,0.4,1.5,1.3,1.8c0.9,0.3,1.8,0.1,2.1-0.7
		C52.6,52.9,51.9,52.2,51.1,51.9z"/>
	<path class="st2" d="M50.3,50.3c-0.5-0.2-0.7-0.7-0.6-1.2c0.2-0.5,0.7-0.8,1.2-0.6c0.5,0.2,0.7,0.7,0.6,1.2
		C51.3,50.1,50.8,50.4,50.3,50.3z M50.8,48.8c-0.3-0.1-0.6,0.1-0.8,0.4c-0.1,0.3,0.1,0.7,0.4,0.8c0.3,0.1,0.6-0.1,0.8-0.4
		C51.3,49.2,51.1,48.9,50.8,48.8z"/>
</g>
<path class="st1" d="M52.2,60.2c-0.1,1-0.2,2.1-0.2,3.1"/>
<path class="st0" d="M56.9,46.9C53.7,51.8,52,57.5,52,63.3"/>
<line class="st6" x1="10.8" y1="39.3" x2="12.1" y2="39.3"/>
<line class="st6" x1="12.2" y1="39.3" x2="12.5" y2="39.3"/>
<line class="st6" x1="12.7" y1="39.3" x2="14.1" y2="39.3"/>
<line class="st6" x1="14.3" y1="39.3" x2="14.6" y2="39.3"/>
<line class="st6" x1="14.8" y1="39.3" x2="16" y2="39.3"/>
<line class="st6" x1="10.8" y1="52.6" x2="12.1" y2="52.6"/>
<line class="st6" x1="12.2" y1="52.6" x2="12.5" y2="52.6"/>
<line class="st6" x1="12.7" y1="52.6" x2="14.1" y2="52.6"/>
<line class="st6" x1="14.3" y1="52.6" x2="14.6" y2="52.6"/>
<line class="st6" x1="14.8" y1="52.6" x2="16" y2="52.6"/>
<line class="st6" x1="17.2" y1="66" x2="15.7" y2="66"/>
<line class="st6" x1="15.5" y1="66" x2="15.1" y2="66"/>
<line class="st6" x1="14.9" y1="66" x2="13.3" y2="66"/>
<line class="st6" x1="13" y1="66" x2="12.7" y2="66"/>
<line class="st6" x1="12.4" y1="66" x2="10.9" y2="66"/>
<line class="st0" x1="110.2" y1="19.8" x2="110.2" y2="18.7"/>
<line class="st0" x1="110.2" y1="18.3" x2="110.2" y2="17.2"/>
<line class="st0" x1="110.2" y1="17.2" x2="110.4" y2="16.9"/>
<line class="st0" x1="110.5" y1="16.8" x2="110.9" y2="16.5"/>
<line class="st0" x1="110.9" y1="16.4" x2="111.2" y2="16.1"/>
<line class="st0" x1="110.2" y1="19.8" x2="110.4" y2="20.1"/>
<line class="st0" x1="110.5" y1="20.2" x2="110.9" y2="20.5"/>
<line class="st0" x1="110.9" y1="20.5" x2="111.2" y2="20.8"/>
<line class="st0" x1="109.4" y1="17.2" x2="109.6" y2="17.2"/>
<line class="st0" x1="109.7" y1="17.2" x2="109.9" y2="17.2"/>
<line class="st0" x1="110" y1="17.2" x2="110.2" y2="17.2"/>
<line class="st0" x1="109.4" y1="19.8" x2="109.6" y2="19.8"/>
<line class="st0" x1="109.7" y1="19.8" x2="109.9" y2="19.8"/>
<line class="st0" x1="110" y1="19.8" x2="110.2" y2="19.8"/>
<polyline class="st0" points="109.4,13.7 109.5,14.1 109.6,14.5 "/>
<polyline class="st0" points="111,14.5 111.1,14.1 111.2,13.7 111.2,13.1 109.4,13.1 109.4,13.7 "/>
<line class="st0" x1="111.2" y1="31.1" x2="111.2" y2="13.7"/>
<line class="st0" x1="111.2" y1="53.3" x2="111.2" y2="32.4"/>
<line class="st0" x1="111.2" y1="63.3" x2="111.2" y2="61.5"/>
<line class="st0" x1="171.7" y1="65.9" x2="168.9" y2="66.9"/>
<path class="st0" d="M109.4,63.3c0,14.8,10.9,27.3,25.6,29.2c14.6,1.9,28.5-7.3,32.3-21.5"/>
<path class="st0" d="M169.5,68.6c-1.1,0.4-1.9,1.3-2.2,2.4"/>
<line class="st0" x1="169.5" y1="68.6" x2="172.3" y2="67.5"/>
<path class="st0" d="M168.9,66.9c-1.6,0.6-2.9,1.9-3.3,3.6"/>
<path class="st0" d="M111.2,63.3c0,13.9,10.3,25.6,24,27.4c13.8,1.8,26.7-6.8,30.3-20.2"/>
<polyline class="st0" points="171.1,66.3 171.4,66.1 171.7,65.9 172.3,65.7 172.9,67.4 172.3,67.5 171.9,67.6 171.5,67.6 "/>
<line class="st0" x1="111.5" y1="67.4" x2="111" y2="67.4"/>
<line class="st0" x1="110.9" y1="67.4" x2="110.3" y2="67.4"/>
<line class="st0" x1="110.1" y1="67.4" x2="109.7" y2="67.4"/>
<line class="st0" x1="111.2" y1="64.7" x2="110.7" y2="64.7"/>
<line class="st0" x1="110.6" y1="64.7" x2="110.1" y2="64.7"/>
<line class="st0" x1="109.9" y1="64.7" x2="109.4" y2="64.7"/>
<line class="st1" x1="138.9" y1="63.3" x2="130.6" y2="71.8"/>
<line class="st1" x1="121.1" y1="81.6" x2="125.9" y2="76.7"/>
<g>
	<path class="st2" d="M123.5,71.6h1.8c0.5,0,0.9,0.2,1.2,0.4c0.2,0.2,0.3,0.5,0.3,0.8c0,0.7-0.5,1.1-1.1,1.2l1.3,1.7h-0.6l-1.2-1.6
		H124v1.6h-0.5V71.6z M125.3,73.7c0.6,0,1.1-0.3,1.1-0.9c0-0.5-0.4-0.8-1.1-0.8H124v1.7H125.3z"/>
	<path class="st2" d="M127.6,73.8c0-1.3,0.6-2.3,1.7-2.3c0.5,0,0.9,0.2,1.2,0.5l-0.3,0.4c-0.3-0.3-0.6-0.4-1-0.4
		c-0.8,0-1.2,0.8-1.2,1.8v0c0.2-0.3,0.6-0.6,1.2-0.6c0.8,0,1.5,0.5,1.5,1.3c0,0.8-0.7,1.4-1.5,1.4C128.3,75.9,127.6,75.3,127.6,73.8
		z M130.3,74.5c0-0.5-0.4-0.9-1-0.9c-0.6,0-1,0.5-1,0.9c0,0.5,0.4,0.9,1.1,0.9C129.9,75.4,130.3,75,130.3,74.5z"/>
	<path class="st2" d="M131.4,75.4l1.5-1.3c0.6-0.6,0.9-0.9,0.9-1.3c0-0.5-0.4-0.8-0.8-0.8c-0.5,0-0.8,0.3-1.1,0.7l-0.3-0.3
		c0.4-0.6,0.8-0.9,1.5-0.9c0.8,0,1.3,0.5,1.3,1.2c0,0.6-0.3,1-1.1,1.6l-1.1,1h2.2v0.4h-2.9V75.4z"/>
</g>
<polygon class="st3" points="120.8,81.3 121.4,81.8 119.6,83.2 "/>
<polygon class="st4" points="120.8,81.3 121.4,81.8 119.6,83.2 "/>
<line class="st1" x1="138" y1="92.8" x2="99.5" y2="92.8"/>
<line class="st1" x1="108.5" y1="13.1" x2="99.5" y2="13.1"/>
<line class="st1" x1="102.4" y1="90.6" x2="102.4" y2="15.4"/>
<polygon class="st3" points="102,90.6 102.7,90.6 102.4,92.8 "/>
<polygon class="st5" points="102,90.6 102.7,90.6 102.4,92.8 "/>
<polygon class="st3" points="102,15.4 102.7,15.4 102.4,13.1 "/>
<polygon class="st5" points="102,15.4 102.7,15.4 102.4,13.1 "/>
<g>
	<path class="st2" d="M100.8,55.9l-0.3-0.3c0.4-0.3,0.6-0.7,0.6-1.2c0-0.5-0.3-0.9-0.8-0.9c-0.5,0-0.8,0.5-0.8,1.2v0.3L99.2,55
		l-1.5-1.3v2.1h-0.4V53h0.3l1.5,1.3c0.1-0.7,0.4-1.4,1.2-1.4c0.8,0,1.3,0.6,1.3,1.4C101.5,55,101.2,55.6,100.8,55.9z"/>
	<path class="st2" d="M101.1,52.2l-1.3-1.5c-0.6-0.6-0.9-0.9-1.3-0.9c-0.5,0-0.8,0.4-0.8,0.8c0,0.5,0.3,0.8,0.7,1.1l-0.3,0.3
		c-0.6-0.4-0.9-0.8-0.9-1.5c0-0.8,0.5-1.3,1.2-1.3c0.6,0,1,0.3,1.6,1.1l1,1.1v-2.2h0.4v2.9H101.1z"/>
	<path class="st2" d="M101.1,48.6l-1.3-1.5c-0.6-0.6-0.9-0.9-1.3-0.9c-0.5,0-0.8,0.4-0.8,0.8c0,0.5,0.3,0.8,0.7,1.1l-0.3,0.3
		c-0.6-0.4-0.9-0.8-0.9-1.5c0-0.8,0.5-1.3,1.2-1.3c0.6,0,1,0.3,1.6,1.1l1,1.1v-2.2h0.4v2.9H101.1z"/>
</g>
<line class="st6" x1="164.4" y1="63.3" x2="159.8" y2="63.3"/>
<line class="st6" x1="159.2" y1="63.3" x2="157.9" y2="63.3"/>
<line class="st6" x1="157.3" y1="63.3" x2="152.3" y2="63.3"/>
<line class="st6" x1="151.6" y1="63.3" x2="150.4" y2="63.3"/>
<line class="st6" x1="149.7" y1="63.3" x2="144.7" y2="63.3"/>
<line class="st6" x1="144" y1="63.3" x2="142.8" y2="63.3"/>
<line class="st6" x1="142.1" y1="63.3" x2="137.1" y2="63.3"/>
<line class="st6" x1="136.5" y1="63.3" x2="135.2" y2="63.3"/>
<line class="st6" x1="134.6" y1="63.3" x2="129.5" y2="63.3"/>
<line class="st6" x1="128.9" y1="63.3" x2="127.6" y2="63.3"/>
<line class="st6" x1="127" y1="63.3" x2="121.9" y2="63.3"/>
<line class="st6" x1="121.3" y1="63.3" x2="120" y2="63.3"/>
<line class="st6" x1="119.4" y1="63.3" x2="114.3" y2="63.3"/>
<line class="st6" x1="113.7" y1="63.3" x2="112.4" y2="63.3"/>
<line class="st6" x1="111.8" y1="63.3" x2="107.2" y2="63.3"/>
<line class="st6" x1="138.9" y1="61.1" x2="138.9" y2="64.7"/>
<line class="st6" x1="138.9" y1="65.4" x2="138.9" y2="66.6"/>
<line class="st6" x1="138.9" y1="67.3" x2="138.9" y2="72.3"/>
<line class="st6" x1="138.9" y1="72.9" x2="138.9" y2="74.2"/>
<line class="st6" x1="138.9" y1="74.8" x2="138.9" y2="79.9"/>
<line class="st6" x1="138.9" y1="80.5" x2="138.9" y2="81.8"/>
<line class="st6" x1="138.9" y1="82.4" x2="138.9" y2="87.5"/>
<line class="st6" x1="138.9" y1="88.1" x2="138.9" y2="89.4"/>
<line class="st6" x1="138.9" y1="90" x2="138.9" y2="93.6"/>
<line class="st1" x1="109.4" y1="12.8" x2="109.4" y2="7.2"/>
<line class="st1" x1="111.2" y1="12.8" x2="111.2" y2="7.2"/>
<line class="st1" x1="107.2" y1="10.1" x2="104.9" y2="10.1"/>
<line class="st1" x1="113.4" y1="10.1" x2="115.6" y2="10.1"/>
<line class="st1" x1="109.4" y1="10.1" x2="111.2" y2="10.1"/>
<polygon class="st3" points="107.2,9.7 107.2,10.4 109.4,10.1 "/>
<polygon class="st5" points="107.2,9.7 107.2,10.4 109.4,10.1 "/>
<polygon class="st3" points="113.4,9.7 113.4,10.4 111.2,10.1 "/>
<polygon class="st5" points="113.4,9.7 113.4,10.4 111.2,10.1 "/>
<g>
	<path class="st2" d="M111,4.1h-2.2l-0.1-0.3l2.4-2.9h0.4v2.8h0.7v0.4h-0.7v1H111V4.1z M111,3.7V1.5l-1.8,2.2H111z"/>
</g>
<polygon class="st3" points="170.1,70.7 169.5,71.2 168.3,69.3 "/>
<line class="st1" x1="172.9" y1="68.2" x2="172.9" y2="106"/>
<line class="st1" x1="109.4" y1="64.2" x2="109.4" y2="106"/>
<line class="st1" x1="170.6" y1="103.1" x2="111.6" y2="103.1"/>
<polygon class="st3" points="170.6,102.8 170.6,103.5 172.9,103.1 "/>
<polygon class="st5" points="170.6,102.8 170.6,103.5 172.9,103.1 "/>
<polygon class="st3" points="111.6,102.8 111.6,103.5 109.4,103.1 "/>
<polygon class="st5" points="111.6,102.8 111.6,103.5 109.4,103.1 "/>
<g>
	<path class="st2" d="M137.2,98.5l-0.8,0.2l-0.1-0.4l1-0.4h0.3v4.2h-0.5V98.5z"/>
	<path class="st2" d="M140.9,101.3h-2.2l-0.1-0.3l2.4-2.9h0.4v2.8h0.7v0.4h-0.7v1h-0.5V101.3z M140.9,100.9v-2.2l-1.8,2.2H140.9z"/>
	<path class="st2" d="M142.6,101.9l1.5-1.3c0.6-0.6,0.9-0.9,0.9-1.3c0-0.5-0.4-0.8-0.8-0.8c-0.5,0-0.8,0.3-1.1,0.7l-0.3-0.3
		c0.4-0.6,0.8-0.9,1.5-0.9c0.8,0,1.3,0.5,1.3,1.2c0,0.6-0.3,1-1.1,1.6l-1.1,1h2.2v0.4h-2.9V101.9z"/>
</g>
<line class="st6" x1="107.2" y1="18.5" x2="108.4" y2="18.5"/>
<line class="st6" x1="108.6" y1="18.5" x2="108.9" y2="18.5"/>
<line class="st6" x1="109.1" y1="18.5" x2="110.5" y2="18.5"/>
<line class="st6" x1="110.7" y1="18.5" x2="111" y2="18.5"/>
<line class="st6" x1="111.2" y1="18.5" x2="112.4" y2="18.5"/>
<line class="st6" x1="113.6" y1="66" x2="112.1" y2="66"/>
<line class="st6" x1="111.9" y1="66" x2="111.5" y2="66"/>
<line class="st6" x1="111.3" y1="66" x2="109.6" y2="66"/>
<line class="st6" x1="109.4" y1="66" x2="109" y2="66"/>
<line class="st6" x1="108.8" y1="66" x2="107.3" y2="66"/>
<path class="st0" d="M111.2,53.1c0,1.6,5.1,1.2,5.1,4.2c0,3-5.1,2.6-5.1,4.2"/>
<path class="st7" d="M109.4,32.4v21c0,2.8,5.2,2.4,5.2,3.9c0,1.8-5.2,1-5.2,3.5v2.5"/>
<line class="st7" x1="109.4" y1="13.7" x2="109.4" y2="31.3"/>
<path class="st8" d="M107.3,31.8c0,0,0.9-0.2,2.1-0.4c1.4-0.2,3.2-0.5,4.3-0.3"/>
<path class="st8" d="M107.3,32.9c0,0,2.8-0.9,3.9-0.5c1.1,0.4,2.8,0.5,2.8,0.5"/>
</svg>
