<?xml version="1.0" encoding="utf-8"?>
<!-- Generator: Adobe Illustrator 21.1.0, SVG Export Plug-In . SVG Version: 6.00 Build 0)  -->
<svg version="1.1" id="Слой_1" xmlns="http://www.w3.org/2000/svg" xmlns:xlink="http://www.w3.org/1999/xlink" x="0px" y="0px"
	 viewBox="0 0 133.8 133.4" style="enable-background:new 0 0 133.8 133.4;" xml:space="preserve">
<style type="text/css">
	.st0{fill:none;stroke:#262324;stroke-width:0.221;stroke-linecap:round;stroke-linejoin:round;stroke-miterlimit:10;}
	.st1{fill:none;stroke:#CA2628;stroke-width:0.15;stroke-linecap:round;stroke-linejoin:round;stroke-miterlimit:10;}
	.st2{fill:#CA2628;}
	.st3{fill:none;stroke:#CA2628;stroke-width:0.15;stroke-linecap:round;stroke-miterlimit:10;}
	.st4{fill:#43549E;}
</style>
<polyline class="st0" points="72.4,133.3 72.4,73.5 71.3,73.5 71.3,133.3 "/>
<line class="st0" x1="94.3" y1="73.5" x2="113.8" y2="34.4"/>
<line class="st0" x1="72.4" y1="73.5" x2="94.3" y2="73.5"/>
<line class="st0" x1="116.6" y1="28.8" x2="117.1" y2="27.7"/>
<line class="st0" x1="71.3" y1="73.5" x2="65.1" y2="73.5"/>
<polyline class="st0" points="64.1,70.6 64,70.4 64,70.3 64.1,70.2 64.1,70.1 "/>
<path class="st0" d="M71.3,73.5c0-6.1-5-11.1-11.1-11.1"/>
<line class="st0" x1="60.2" y1="62.4" x2="60.2" y2="68.6"/>
<polyline class="st0" points="64.1,70.1 66.1,68.1 66.2,67.9 66.3,67.8 66.2,67.7 66.2,67.5 66,67.5 65.9,67.4 65.8,67.5 65.6,67.6 
	63.6,69.6 63.5,69.7 63.4,69.7 63.2,69.7 63.1,69.6 "/>
<path class="st0" d="M94.3,73.5c0-18.8-15.3-34.1-34.1-34.1"/>
<line class="st0" x1="60.2" y1="39.4" x2="60.2" y2="61.3"/>
<path class="st0" d="M72.4,73.5c0-6.7-5.5-12.2-12.2-12.2"/>
<line class="st0" x1="60.2" y1="62.4" x2="60.2" y2="61.3"/>
<line class="st0" x1="106" y1="16.6" x2="104.9" y2="17.1"/>
<line class="st0" x1="0.4" y1="61.3" x2="60.2" y2="61.3"/>
<line class="st0" x1="99.3" y1="19.9" x2="60.2" y2="39.4"/>
<line class="st0" x1="0.4" y1="61.3" x2="0.4" y2="19.9"/>
<line class="st0" x1="0.4" y1="62.4" x2="60.2" y2="62.4"/>
<polyline class="st0" points="0.4,68.6 0.4,62.4 0.4,61.3 "/>
<path class="st0" d="M117.1,27.7c0-6.1-5-11.1-11.1-11.1"/>
<line class="st0" x1="117.3" y1="133.3" x2="117.3" y2="27.7"/>
<line class="st0" x1="116" y1="133.3" x2="116" y2="29.5"/>
<line class="st0" x1="116" y1="29.5" x2="117.3" y2="27.7"/>
<polyline class="st0" points="116,133.3 113.8,133.3 113.8,34.1 116,29.5 "/>
<polyline class="st0" points="66.1,68.1 66.2,68 66.3,67.8 66.2,67.7 66.1,67.6 66,67.5 65.9,67.4 65.7,67.5 65.6,67.6 "/>
<line class="st0" x1="0.4" y1="17.7" x2="104.2" y2="17.7"/>
<polyline class="st0" points="0.4,17.7 0.4,19.9 99.6,19.9 104.2,17.7 "/>
<polyline class="st0" points="0.4,17.7 0.4,16.4 106,16.4 104.2,17.7 "/>
<path class="st0" d="M117.3,27.7c0-6.3-5.1-11.4-11.4-11.4"/>
<line class="st0" x1="117.3" y1="27.7" x2="117.1" y2="27.7"/>
<line class="st0" x1="106" y1="16.4" x2="106" y2="16.6"/>
<line class="st0" x1="65.1" y1="133.3" x2="65.1" y2="73.5"/>
<path class="st0" d="M63.1,69.6c-0.8-0.6-1.9-1-2.9-1"/>
<path class="st0" d="M65.1,73.5c0-1.1-0.3-2.1-1-2.9"/>
<line class="st0" x1="60.2" y1="68.6" x2="0.4" y2="68.6"/>
<polyline class="st0" points="106,16.4 107,16.5 108.1,16.6 109.2,16.9 110.3,17.3 111.3,17.7 112.2,18.3 113.2,19 114,19.7 
	114.7,20.5 115.4,21.5 116,22.4 116.4,23.4 116.8,24.5 117.1,25.6 117.2,26.7 117.3,27.7 "/>
<polyline class="st0" points="72.4,133.3 72.4,73.5 71.3,73.5 71.3,133.3 "/>
<line class="st0" x1="94.3" y1="73.5" x2="113.8" y2="34.4"/>
<line class="st0" x1="72.4" y1="73.5" x2="94.3" y2="73.5"/>
<line class="st0" x1="116.6" y1="28.8" x2="117.1" y2="27.7"/>
<line class="st0" x1="71.3" y1="73.5" x2="65.1" y2="73.5"/>
<polyline class="st0" points="64.1,70.6 64,70.4 64,70.3 64.1,70.2 64.1,70.1 "/>
<path class="st0" d="M71.3,73.5c0-6.1-5-11.1-11.1-11.1"/>
<line class="st0" x1="60.2" y1="62.4" x2="60.2" y2="68.6"/>
<polyline class="st0" points="64.1,70.1 66.1,68.1 66.2,67.9 66.3,67.8 66.2,67.7 66.2,67.5 66,67.5 65.9,67.4 65.8,67.5 65.6,67.6 
	63.6,69.6 63.5,69.7 63.4,69.7 63.2,69.7 63.1,69.6 "/>
<path class="st0" d="M94.3,73.5c0-18.8-15.3-34.1-34.1-34.1"/>
<line class="st0" x1="60.2" y1="39.4" x2="60.2" y2="61.3"/>
<path class="st0" d="M72.4,73.5c0-6.7-5.5-12.2-12.2-12.2"/>
<line class="st0" x1="60.2" y1="62.4" x2="60.2" y2="61.3"/>
<line class="st0" x1="106" y1="16.6" x2="104.9" y2="17.1"/>
<line class="st0" x1="0.4" y1="61.3" x2="60.2" y2="61.3"/>
<line class="st0" x1="99.3" y1="19.9" x2="60.2" y2="39.4"/>
<line class="st0" x1="0.4" y1="61.3" x2="0.4" y2="19.9"/>
<line class="st0" x1="0.4" y1="62.4" x2="60.2" y2="62.4"/>
<polyline class="st0" points="0.4,68.6 0.4,62.4 0.4,61.3 "/>
<path class="st0" d="M117.1,27.7c0-6.1-5-11.1-11.1-11.1"/>
<line class="st0" x1="65.1" y1="133.3" x2="65.1" y2="73.5"/>
<path class="st0" d="M63.1,69.6c-0.8-0.6-1.9-1-2.9-1"/>
<path class="st0" d="M65.1,73.5c0-1.1-0.3-2.1-1-2.9"/>
<line class="st0" x1="60.2" y1="68.6" x2="0.4" y2="68.6"/>
<line class="st1" x1="0.4" y1="15.6" x2="0.4" y2="5.2"/>
<line class="st1" x1="117.3" y1="27" x2="117.3" y2="5.2"/>
<line class="st1" x1="2.3" y1="7.6" x2="115.4" y2="7.6"/>
<polygon class="st2" points="2.3,7.2 2.3,7.9 0.4,7.6 "/>
<polygon class="st3" points="2.3,7.2 2.3,7.9 0.4,7.6 "/>
<polygon class="st2" points="115.4,7.2 115.4,7.9 117.3,7.6 "/>
<polygon class="st3" points="115.4,7.2 115.4,7.9 117.3,7.6 "/>
<g>
	<path class="st4" d="M55.1,4.4l0.3-0.3c0.3,0.4,0.7,0.6,1.2,0.6c0.5,0,0.9-0.3,0.9-0.8c0-0.5-0.5-0.8-1.2-0.8h-0.3l-0.1-0.3
		l1.3-1.5h-2.1V0.9H58v0.3l-1.3,1.5c0.7,0.1,1.4,0.4,1.4,1.2c0,0.7-0.6,1.3-1.4,1.3C56,5.2,55.5,4.9,55.1,4.4z"/>
	<path class="st4" d="M59.6,1.4l-0.8,0.2l-0.1-0.4l1-0.4H60v4.2h-0.5V1.4z"/>
	<path class="st4" d="M61,4.5l0.3-0.3c0.4,0.4,0.8,0.6,1.2,0.6c0.6,0,1-0.4,1-0.9c0-0.5-0.4-0.9-1-0.9c-0.4,0-0.6,0.1-0.9,0.2
		l-0.3-0.2l0.1-2h2.4v0.4h-2l-0.1,1.3c0.2-0.1,0.5-0.2,0.8-0.2C63.3,2.5,64,3,64,3.8c0,0.8-0.6,1.4-1.5,1.4
		C61.9,5.2,61.3,4.9,61,4.5z"/>
</g>
<line class="st1" x1="106.7" y1="16.4" x2="133.8" y2="16.4"/>
<line class="st1" x1="131.4" y1="18.3" x2="131.4" y2="131.4"/>
<polygon class="st2" points="131.1,18.3 131.7,18.3 131.4,16.4 "/>
<polygon class="st3" points="131.1,18.3 131.7,18.3 131.4,16.4 "/>
<g>
	<path class="st4" d="M127.7,79.4l-0.3-0.3c0.4-0.3,0.6-0.7,0.6-1.2c0-0.5-0.3-0.9-0.8-0.9c-0.5,0-0.8,0.5-0.8,1.2v0.3l-0.3,0.1
		l-1.5-1.3v2.1h-0.4v-2.7h0.3l1.5,1.3c0.1-0.7,0.4-1.4,1.2-1.4c0.8,0,1.3,0.6,1.3,1.4C128.5,78.6,128.2,79.1,127.7,79.4z"/>
	<path class="st4" d="M124.7,75l0.2,0.8l-0.4,0.1l-0.4-1v-0.3h4.2V75H124.7z"/>
	<path class="st4" d="M127.8,73.6l-0.3-0.3c0.4-0.4,0.6-0.8,0.6-1.2c0-0.6-0.4-1-0.9-1c-0.5,0-0.9,0.4-0.9,1c0,0.4,0.1,0.6,0.2,0.9
		l-0.2,0.3l-2-0.1v-2.4h0.4v2l1.3,0.1c-0.1-0.2-0.2-0.5-0.2-0.8c0-0.8,0.5-1.5,1.3-1.5c0.8,0,1.4,0.6,1.4,1.5
		C128.5,72.7,128.2,73.2,127.8,73.6z"/>
</g>
</svg>
