<?xml version="1.0" encoding="utf-8"?>
<!-- Generator: Adobe Illustrator 21.1.0, SVG Export Plug-In . SVG Version: 6.00 Build 0)  -->
<svg version="1.1" id="Слой_1" xmlns="http://www.w3.org/2000/svg" xmlns:xlink="http://www.w3.org/1999/xlink" x="0px" y="0px"
	 viewBox="0 0 103.6 121.3" style="enable-background:new 0 0 103.6 121.3;" xml:space="preserve">
<style type="text/css">
	.st0{fill:none;stroke:#262424;stroke-width:0.245;stroke-linecap:round;stroke-linejoin:round;stroke-miterlimit:10;}
	.st1{fill:none;stroke:#CB2628;stroke-width:0.15;stroke-linecap:round;stroke-linejoin:round;stroke-miterlimit:10;}
	.st2{fill:#CB2628;}
	.st3{fill:none;stroke:#CB2628;stroke-width:0.15;stroke-linecap:round;stroke-miterlimit:10;}
	.st4{fill:#43539F;}
</style>
<line class="st0" x1="34.5" y1="106.4" x2="33.6" y2="104.8"/>
<line class="st0" x1="33.4" y1="104.4" x2="32.5" y2="102.8"/>
<line class="st0" x1="32.3" y1="102.4" x2="31.3" y2="100.9"/>
<line class="st0" x1="31.1" y1="100.5" x2="30.2" y2="98.9"/>
<line class="st0" x1="30" y1="98.5" x2="29.1" y2="97"/>
<line class="st0" x1="28.9" y1="96.6" x2="28" y2="95"/>
<line class="st0" x1="27.7" y1="94.6" x2="26.8" y2="93"/>
<line class="st0" x1="26.6" y1="92.7" x2="25.7" y2="91.1"/>
<line class="st0" x1="25.5" y1="90.7" x2="24.6" y2="89.2"/>
<line class="st0" x1="24.4" y1="88.7" x2="23.5" y2="87.2"/>
<line class="st0" x1="23.2" y1="86.8" x2="22.3" y2="85.2"/>
<line class="st0" x1="22.1" y1="84.8" x2="21.2" y2="83.3"/>
<line class="st0" x1="21" y1="82.9" x2="20.1" y2="81.3"/>
<line class="st0" x1="19.8" y1="80.9" x2="18.9" y2="79.3"/>
<line class="st0" x1="18.7" y1="79" x2="17.8" y2="77.4"/>
<line class="st0" x1="17.6" y1="77" x2="16.7" y2="75.4"/>
<line class="st0" x1="16.4" y1="75.1" x2="15.5" y2="73.5"/>
<line class="st0" x1="15.3" y1="73.1" x2="14.4" y2="71.5"/>
<line class="st0" x1="34.5" y1="106.4" x2="36.3" y2="105.4"/>
<line class="st0" x1="36.7" y1="105.2" x2="38.2" y2="104.3"/>
<line class="st0" x1="38.6" y1="104.1" x2="40.2" y2="103.2"/>
<line class="st0" x1="40.6" y1="102.9" x2="42.1" y2="102.1"/>
<line class="st0" x1="42.5" y1="101.8" x2="44.1" y2="100.9"/>
<polyline class="st0" points="44.5,100.7 44.6,100.6 45.9,99.9 46,99.8 "/>
<polyline class="st0" points="46.4,99.6 47.1,99.2 48,98.7 "/>
<polyline class="st0" points="48.3,98.5 48.6,98.4 49.9,97.6 "/>
<line class="st0" x1="50.3" y1="97.4" x2="51.8" y2="96.5"/>
<polyline class="st0" points="52.2,96.3 53.1,95.7 53.8,95.4 "/>
<polyline class="st0" points="54.2,95.1 54.7,94.8 55.7,94.2 "/>
<polyline class="st0" points="56.1,93.9 56.2,93.9 57.6,92.9 "/>
<polyline class="st0" points="57.9,92.7 59.2,91.7 59.4,91.6 "/>
<polyline class="st0" points="59.7,91.4 60.8,90.6 61.1,90.3 "/>
<polyline class="st0" points="61.5,90 62.3,89.3 62.9,88.8 "/>
<polyline class="st0" points="63.2,88.6 63.8,88 64.6,87.4 "/>
<polyline class="st0" points="64.9,87.1 65.3,86.7 66.2,85.8 "/>
<polyline class="st0" points="66.5,85.5 66.8,85.3 67.8,84.2 "/>
<polyline class="st0" points="68.1,83.9 68.2,83.8 69.3,82.6 "/>
<line class="st0" x1="69.6" y1="82.3" x2="70.8" y2="81"/>
<line class="st0" x1="71.1" y1="80.6" x2="72.2" y2="79.2"/>
<polyline class="st0" points="72.5,78.8 73.5,77.6 73.6,77.4 "/>
<polyline class="st0" points="73.9,77.1 74.7,75.9 74.9,75.6 "/>
<polyline class="st0" points="75.2,75.3 75.9,74.2 76.2,73.8 "/>
<polyline class="st0" points="76.4,73.4 77,72.5 77.4,71.9 "/>
<polyline class="st0" points="77.6,71.5 78,70.8 78.5,69.9 "/>
<polyline class="st0" points="78.7,69.6 79,69 79.6,68 "/>
<polyline class="st0" points="79.8,67.6 80,67.1 80.6,66 "/>
<polyline class="st0" points="80.8,65.6 80.9,65.3 81.5,64 "/>
<polyline class="st0" points="81.7,63.5 81.7,63.4 82.4,61.9 "/>
<line class="st0" x1="82.6" y1="61.5" x2="83.2" y2="59.8"/>
<line class="st0" x1="83.4" y1="59.4" x2="84" y2="57.7"/>
<polyline class="st0" points="84.1,57.3 84.6,55.7 84.6,55.5 "/>
<polyline class="st0" points="84.8,55.1 85.1,53.8 85.2,53.4 "/>
<polyline class="st0" points="85.3,52.9 85.6,51.8 85.8,51.2 "/>
<polyline class="st0" points="85.8,50.8 86.1,49.8 86.2,49 "/>
<polyline class="st0" points="86.3,48.6 86.4,47.9 86.6,46.8 "/>
<polyline class="st0" points="86.7,46.4 86.8,45.9 86.9,44.6 "/>
<polyline class="st0" points="87,44.1 87,44 87.2,42.4 "/>
<polyline class="st0" points="87.2,41.9 87.4,40.3 87.4,40.2 "/>
<polyline class="st0" points="87.4,39.7 87.5,38.5 87.5,37.9 "/>
<polyline class="st0" points="87.5,37.5 87.5,36.7 87.5,35.7 "/>
<line class="st0" x1="87.5" y1="35.2" x2="87.5" y2="33.4"/>
<polyline class="st0" points="87.5,33 87.6,31.4 87.6,31.2 "/>
<polyline class="st0" points="87.6,30.7 87.6,29.8 87.6,28.9 "/>
<polyline class="st0" points="87.6,28.5 87.6,28.3 87.6,26.9 87.6,26.7 "/>
<line class="st0" x1="87.6" y1="26.2" x2="87.6" y2="24.4"/>
<line class="st0" x1="87.6" y1="24" x2="87.6" y2="22.2"/>
<line class="st0" x1="87.6" y1="21.7" x2="87.6" y2="20"/>
<line class="st0" x1="87.6" y1="19.5" x2="87.6" y2="17.7"/>
<line class="st0" x1="87.6" y1="17.3" x2="87.6" y2="15.3"/>
<line class="st0" x1="87.6" y1="15.3" x2="86.2" y2="15.3"/>
<line class="st0" x1="85.8" y1="15.3" x2="84" y2="15.3"/>
<line class="st0" x1="83.6" y1="15.3" x2="81.8" y2="15.3"/>
<line class="st0" x1="81.3" y1="15.3" x2="79.5" y2="15.3"/>
<line class="st0" x1="79.1" y1="15.3" x2="77.3" y2="15.3"/>
<line class="st0" x1="76.8" y1="15.3" x2="75.1" y2="15.3"/>
<line class="st0" x1="74.6" y1="15.3" x2="72.8" y2="15.3"/>
<line class="st0" x1="72.4" y1="15.3" x2="70.6" y2="15.3"/>
<line class="st0" x1="70.1" y1="15.3" x2="68.4" y2="15.3"/>
<line class="st0" x1="67.9" y1="15.3" x2="66.1" y2="15.3"/>
<line class="st0" x1="65.7" y1="15.3" x2="63.9" y2="15.3"/>
<line class="st0" x1="63.4" y1="15.3" x2="61.6" y2="15.3"/>
<line class="st0" x1="61.2" y1="15.3" x2="59.4" y2="15.3"/>
<line class="st0" x1="59" y1="15.3" x2="57.1" y2="15.3"/>
<line class="st0" x1="56.7" y1="15.3" x2="54.9" y2="15.3"/>
<line class="st0" x1="54.5" y1="15.3" x2="52.7" y2="15.3"/>
<line class="st0" x1="52.2" y1="15.3" x2="50.4" y2="15.3"/>
<line class="st0" x1="50" y1="15.3" x2="48.2" y2="15.3"/>
<line class="st0" x1="47.7" y1="15.3" x2="46.3" y2="15.3"/>
<line class="st0" x1="34.6" y1="106.6" x2="34.5" y2="106.4"/>
<line class="st0" x1="14.4" y1="71.5" x2="16.1" y2="70.5"/>
<line class="st0" x1="16.5" y1="70.3" x2="18.1" y2="69.4"/>
<line class="st0" x1="18.4" y1="69.1" x2="20" y2="68.2"/>
<line class="st0" x1="20.4" y1="68" x2="21.9" y2="67.1"/>
<line class="st0" x1="22.3" y1="66.9" x2="23.8" y2="66"/>
<line class="st0" x1="24.2" y1="65.7" x2="25.8" y2="64.8"/>
<line class="st0" x1="26.2" y1="64.6" x2="27.7" y2="63.7"/>
<line class="st0" x1="28.1" y1="63.5" x2="29.7" y2="62.6"/>
<line class="st0" x1="30" y1="62.4" x2="31.6" y2="61.5"/>
<line class="st0" x1="32" y1="61.3" x2="33.5" y2="60.3"/>
<polyline class="st0" points="33.9,60 34.6,59.5 35.3,59 "/>
<polyline class="st0" points="35.7,58.7 36.3,58.1 37,57.5 "/>
<polyline class="st0" points="37.3,57.2 38,56.6 38.6,56 "/>
<polyline class="st0" points="38.9,55.6 39.5,55 40.1,54.3 "/>
<polyline class="st0" points="40.3,53.9 40.9,53.2 41.4,52.5 "/>
<polyline class="st0" points="41.6,52.1 42.1,51.4 42.6,50.6 "/>
<polyline class="st0" points="42.8,50.2 43.2,49.4 43.6,48.6 "/>
<polyline class="st0" points="43.8,48.2 44.2,47.4 44.5,46.6 "/>
<polyline class="st0" points="44.7,46.1 45,45.3 45.2,44.4 "/>
<polyline class="st0" points="45.4,44 45.6,43.1 45.8,42.3 "/>
<polyline class="st0" points="45.9,41.8 46.1,40.9 46.2,40.1 "/>
<polyline class="st0" points="46.2,39.6 46.3,38.7 46.4,37.8 "/>
<line class="st0" x1="46.4" y1="37.4" x2="46.5" y2="35.6"/>
<line class="st0" x1="46.5" y1="35.2" x2="46.5" y2="33.4"/>
<line class="st0" x1="46.5" y1="32.9" x2="46.5" y2="31.1"/>
<line class="st0" x1="46.4" y1="30.7" x2="46.4" y2="28.9"/>
<line class="st0" x1="46.4" y1="28.4" x2="46.4" y2="26.7"/>
<line class="st0" x1="46.4" y1="26.2" x2="46.4" y2="24.4"/>
<line class="st0" x1="46.4" y1="24" x2="46.4" y2="22.2"/>
<line class="st0" x1="46.4" y1="21.7" x2="46.4" y2="20"/>
<line class="st0" x1="46.4" y1="19.5" x2="46.4" y2="17.7"/>
<line class="st0" x1="46.3" y1="17.3" x2="46.3" y2="15.3"/>
<line class="st0" x1="87.6" y1="15.3" x2="87.6" y2="17.3"/>
<line class="st0" x1="87.6" y1="17.7" x2="87.6" y2="19.5"/>
<line class="st0" x1="87.6" y1="20" x2="87.6" y2="21.7"/>
<line class="st0" x1="87.6" y1="22.2" x2="87.6" y2="24"/>
<line class="st0" x1="87.6" y1="24.4" x2="87.6" y2="26.2"/>
<line class="st0" x1="87.6" y1="26.7" x2="87.6" y2="28.5"/>
<polyline class="st0" points="87.6,28.9 87.6,29.5 87.6,30.7 "/>
<line class="st0" x1="87.6" y1="31.2" x2="87.5" y2="33"/>
<line class="st0" x1="87.5" y1="33.4" x2="87.5" y2="35.2"/>
<polyline class="st0" points="87.5,35.7 87.5,36.7 87.5,37.5 "/>
<line class="st0" x1="87.4" y1="37.9" x2="87.4" y2="39.7"/>
<polyline class="st0" points="87.3,40.1 87.3,40.3 87.2,41.9 "/>
<polyline class="st0" points="87.1,42.4 87,43.8 87,44.1 "/>
<polyline class="st0" points="86.9,44.6 86.8,45.6 86.7,46.4 "/>
<polyline class="st0" points="86.6,46.8 86.5,47.3 86.3,48.6 "/>
<polyline class="st0" points="86.2,49 86.2,49.1 85.9,50.8 "/>
<polyline class="st0" points="85.8,51.2 85.4,52.6 85.4,52.9 "/>
<polyline class="st0" points="85.2,53.4 85,54.3 84.8,55.1 "/>
<polyline class="st0" points="84.6,55.5 84.5,56 84.1,57.3 "/>
<polyline class="st0" points="84,57.7 83.9,57.7 83.4,59.4 "/>
<polyline class="st0" points="83.2,59.8 82.7,61.1 82.6,61.5 "/>
<polyline class="st0" points="82.4,61.9 82,62.8 81.7,63.5 "/>
<polyline class="st0" points="81.5,64 81.3,64.4 80.8,65.6 "/>
<polyline class="st0" points="80.6,66 80.6,66 79.8,67.6 "/>
<polyline class="st0" points="79.6,68 78.9,69.2 78.7,69.6 "/>
<polyline class="st0" points="78.5,69.9 78.1,70.7 77.6,71.5 "/>
<polyline class="st0" points="77.4,71.9 77.1,72.3 76.4,73.4 "/>
<line class="st0" x1="76.2" y1="73.8" x2="75.2" y2="75.3"/>
<polyline class="st0" points="74.9,75.6 74.1,76.7 73.9,77.1 "/>
<polyline class="st0" points="73.6,77.4 73.1,78.1 72.5,78.8 "/>
<polyline class="st0" points="72.2,79.2 72,79.6 71.1,80.6 "/>
<polyline class="st0" points="70.8,81 69.7,82.3 69.6,82.3 "/>
<polyline class="st0" points="69.3,82.6 68.4,83.6 68.1,83.9 "/>
<polyline class="st0" points="67.8,84.2 67.2,84.9 66.5,85.5 "/>
<polyline class="st0" points="66.2,85.8 65.9,86.1 64.9,87.1 "/>
<polyline class="st0" points="64.6,87.4 63.3,88.5 63.2,88.6 "/>
<polyline class="st0" points="62.9,88.8 61.9,89.6 61.5,90 "/>
<polyline class="st0" points="61.1,90.3 60.5,90.8 59.7,91.4 "/>
<polyline class="st0" points="59.3,91.6 59.1,91.8 57.9,92.7 "/>
<polyline class="st0" points="57.5,92.9 56.1,93.9 56,93.9 "/>
<line class="st0" x1="55.7" y1="94.1" x2="54.1" y2="95.1"/>
<polyline class="st0" points="53.7,95.3 53.1,95.7 52.2,96.2 "/>
<line class="st0" x1="51.8" y1="96.5" x2="50.3" y2="97.4"/>
<line class="st0" x1="49.9" y1="97.6" x2="48.3" y2="98.5"/>
<polyline class="st0" points="48,98.7 46.9,99.3 46.4,99.6 "/>
<line class="st0" x1="46" y1="99.8" x2="44.5" y2="100.7"/>
<line class="st0" x1="44.1" y1="100.9" x2="42.5" y2="101.8"/>
<line class="st0" x1="42.1" y1="102.1" x2="40.6" y2="102.9"/>
<line class="st0" x1="40.2" y1="103.2" x2="38.6" y2="104.1"/>
<line class="st0" x1="38.2" y1="104.3" x2="36.7" y2="105.2"/>
<line class="st0" x1="36.3" y1="105.4" x2="34.5" y2="106.4"/>
<line class="st0" x1="87.6" y1="15.3" x2="87.6" y2="15.3"/>
<line class="st0" x1="14.3" y1="71.3" x2="34.6" y2="106.6"/>
<line class="st0" x1="46.1" y1="15.3" x2="87.9" y2="15.3"/>
<line class="st0" x1="87.9" y1="15.3" x2="87.6" y2="15.3"/>
<polyline class="st0" points="34.6,106.6 43.6,101.5 45.8,100.2 47,99.6 48.2,98.9 49.5,98.1 50.8,97.4 53.5,95.8 55.2,94.8 
	56.9,93.6 58.6,92.5 60.4,91.2 62.1,89.8 63.8,88.4 65.4,86.9 67.1,85.3 68.7,83.7 70.2,82 71.7,80.3 73.1,78.5 74.5,76.6 
	75.8,74.7 77,72.9 78.2,70.9 79.4,68.9 80.4,66.9 81.4,64.8 82.3,62.7 83.2,60.6 84,58.4 84.7,56.2 85.3,54 85.8,51.8 86.3,49.6 
	86.8,47.4 87.1,45.3 87.4,43.2 87.6,41.1 87.7,39 87.7,37 87.8,33.9 87.8,32.3 87.8,30.8 87.8,29.4 87.8,28.1 87.8,25.6 87.9,15.3 
	"/>
<polyline class="st0" points="14.3,71.3 29.7,62.3 31.6,61.2 33.4,60 34.4,59.4 35.3,58.7 36.1,58 36.9,57.3 37.8,56.5 38.5,55.7 
	39.3,54.8 40,54 40.7,53.1 41.3,52.2 41.9,51.2 42.5,50.3 43,49.3 43.5,48.3 44,47.3 44.4,46.3 44.7,45.2 45.1,44.1 45.4,43 
	45.6,41.9 45.8,40.9 46,39.7 46.1,38.6 46.2,37.5 46.3,35.3 46.3,33.1 46.2,28.6 46.2,24.2 46.1,15.3 "/>
<polyline class="st0" points="87.9,15.3 87.8,29.6 87.8,33.1 87.7,36.7 87.6,40.3 87.4,42.1 87.2,43.9 87,45.7 86.8,47.4 86.4,49.2 
	86.1,50.9 85.7,52.7 85.2,54.4 84.7,56.1 84.2,57.8 83.6,59.5 82.9,61.2 82.3,62.9 81.5,64.5 80.8,66.1 80,67.7 79.2,69.3 
	78.3,70.9 77.3,72.4 76.4,73.9 75.4,75.4 74.4,76.9 73.3,78.3 72.2,79.7 71,81.1 69.9,82.4 68.6,83.7 67.4,85 66.1,86.3 64.8,87.5 
	63.4,88.7 62.1,89.8 60.7,90.9 59.2,92 57.8,93 56.3,94 53.2,95.9 50.2,97.7 47.1,99.5 34.6,106.6 "/>
<line class="st0" x1="34.5" y1="106.4" x2="33.6" y2="104.8"/>
<line class="st0" x1="33.4" y1="104.4" x2="32.5" y2="102.8"/>
<line class="st0" x1="32.3" y1="102.4" x2="31.3" y2="100.9"/>
<line class="st0" x1="31.1" y1="100.5" x2="30.2" y2="98.9"/>
<line class="st0" x1="30" y1="98.5" x2="29.1" y2="97"/>
<line class="st0" x1="28.9" y1="96.6" x2="28" y2="95"/>
<line class="st0" x1="27.7" y1="94.6" x2="26.8" y2="93"/>
<line class="st0" x1="26.6" y1="92.7" x2="25.7" y2="91.1"/>
<line class="st0" x1="25.5" y1="90.7" x2="24.6" y2="89.2"/>
<line class="st0" x1="24.4" y1="88.7" x2="23.5" y2="87.2"/>
<line class="st0" x1="23.2" y1="86.8" x2="22.3" y2="85.2"/>
<line class="st0" x1="22.1" y1="84.8" x2="21.2" y2="83.3"/>
<line class="st0" x1="21" y1="82.9" x2="20.1" y2="81.3"/>
<line class="st0" x1="19.8" y1="80.9" x2="18.9" y2="79.3"/>
<line class="st0" x1="18.7" y1="79" x2="17.8" y2="77.4"/>
<line class="st0" x1="17.6" y1="77" x2="16.7" y2="75.4"/>
<line class="st0" x1="16.4" y1="75.1" x2="15.5" y2="73.5"/>
<line class="st0" x1="15.3" y1="73.1" x2="14.4" y2="71.5"/>
<line class="st0" x1="34.5" y1="106.4" x2="36.3" y2="105.4"/>
<line class="st0" x1="36.7" y1="105.2" x2="38.2" y2="104.3"/>
<line class="st0" x1="38.6" y1="104.1" x2="40.2" y2="103.2"/>
<line class="st0" x1="40.6" y1="102.9" x2="42.1" y2="102.1"/>
<line class="st0" x1="42.5" y1="101.8" x2="44.1" y2="100.9"/>
<polyline class="st0" points="44.5,100.7 44.6,100.6 45.9,99.9 46,99.8 "/>
<polyline class="st0" points="46.4,99.6 47.2,99.2 48,98.7 "/>
<polyline class="st0" points="48.3,98.5 48.6,98.4 49.9,97.6 "/>
<line class="st0" x1="50.3" y1="97.4" x2="51.8" y2="96.5"/>
<polyline class="st0" points="52.2,96.3 53.1,95.7 53.8,95.4 "/>
<polyline class="st0" points="54.2,95.1 54.7,94.8 55.7,94.2 "/>
<polyline class="st0" points="56.1,93.9 56.2,93.9 57.6,92.9 "/>
<polyline class="st0" points="57.9,92.7 59.2,91.7 59.4,91.6 "/>
<polyline class="st0" points="59.7,91.4 60.8,90.6 61.1,90.3 "/>
<polyline class="st0" points="61.5,90 62.3,89.3 62.9,88.8 "/>
<polyline class="st0" points="63.2,88.6 63.8,88 64.6,87.4 "/>
<polyline class="st0" points="64.9,87.1 65.3,86.7 66.2,85.8 "/>
<polyline class="st0" points="66.5,85.5 66.8,85.3 67.8,84.2 "/>
<polyline class="st0" points="68.1,83.9 68.2,83.8 69.3,82.6 "/>
<line class="st0" x1="69.6" y1="82.3" x2="70.8" y2="81"/>
<line class="st0" x1="71.1" y1="80.6" x2="72.2" y2="79.2"/>
<polyline class="st0" points="72.5,78.8 73.5,77.6 73.6,77.4 "/>
<polyline class="st0" points="73.9,77.1 74.7,75.9 74.9,75.6 "/>
<polyline class="st0" points="75.2,75.3 75.9,74.2 76.2,73.8 "/>
<polyline class="st0" points="76.4,73.4 77,72.5 77.4,71.9 "/>
<polyline class="st0" points="77.6,71.5 78,70.8 78.5,69.9 "/>
<polyline class="st0" points="78.7,69.6 79,69 79.6,68 "/>
<polyline class="st0" points="79.8,67.6 80,67.1 80.6,66 "/>
<polyline class="st0" points="80.8,65.6 80.9,65.3 81.5,64 "/>
<polyline class="st0" points="81.7,63.5 81.7,63.4 82.4,61.9 "/>
<line class="st0" x1="82.6" y1="61.5" x2="83.2" y2="59.8"/>
<line class="st0" x1="83.4" y1="59.4" x2="84" y2="57.7"/>
<polyline class="st0" points="84.1,57.3 84.6,55.7 84.6,55.5 "/>
<polyline class="st0" points="84.8,55.1 85.1,53.8 85.2,53.4 "/>
<polyline class="st0" points="85.3,52.9 85.6,51.8 85.8,51.2 "/>
<polyline class="st0" points="85.8,50.8 86.1,49.8 86.2,49 "/>
<polyline class="st0" points="86.3,48.6 86.4,47.9 86.6,46.8 "/>
<polyline class="st0" points="86.7,46.4 86.8,45.9 86.9,44.6 "/>
<polyline class="st0" points="87,44.1 87,44 87.2,42.4 "/>
<polyline class="st0" points="87.2,41.9 87.4,40.3 87.4,40.1 "/>
<polyline class="st0" points="87.4,39.7 87.5,38.5 87.5,37.9 "/>
<polyline class="st0" points="87.5,37.5 87.5,36.7 87.5,35.7 "/>
<line class="st0" x1="87.5" y1="35.2" x2="87.5" y2="33.4"/>
<polyline class="st0" points="87.5,33 87.6,31.4 87.6,31.2 "/>
<polyline class="st0" points="87.6,30.7 87.6,29.8 87.6,28.9 "/>
<polyline class="st0" points="87.6,28.5 87.6,28.3 87.6,26.9 87.6,26.7 "/>
<line class="st0" x1="87.6" y1="26.2" x2="87.6" y2="24.4"/>
<line class="st0" x1="87.6" y1="24" x2="87.6" y2="22.2"/>
<line class="st0" x1="87.6" y1="21.7" x2="87.6" y2="20"/>
<line class="st0" x1="87.6" y1="19.5" x2="87.6" y2="17.7"/>
<line class="st0" x1="87.6" y1="17.3" x2="87.6" y2="15.3"/>
<line class="st0" x1="87.6" y1="15.3" x2="86.2" y2="15.3"/>
<line class="st0" x1="85.8" y1="15.3" x2="84" y2="15.3"/>
<line class="st0" x1="83.6" y1="15.3" x2="81.8" y2="15.3"/>
<line class="st0" x1="81.3" y1="15.3" x2="79.5" y2="15.3"/>
<line class="st0" x1="79.1" y1="15.3" x2="77.3" y2="15.3"/>
<line class="st0" x1="76.8" y1="15.3" x2="75.1" y2="15.3"/>
<line class="st0" x1="74.6" y1="15.3" x2="72.8" y2="15.3"/>
<line class="st0" x1="72.4" y1="15.3" x2="70.6" y2="15.3"/>
<line class="st0" x1="70.1" y1="15.3" x2="68.4" y2="15.3"/>
<line class="st0" x1="67.9" y1="15.3" x2="66.1" y2="15.3"/>
<line class="st0" x1="65.7" y1="15.3" x2="63.9" y2="15.3"/>
<line class="st0" x1="63.4" y1="15.3" x2="61.6" y2="15.3"/>
<line class="st0" x1="61.2" y1="15.3" x2="59.4" y2="15.3"/>
<line class="st0" x1="59" y1="15.3" x2="57.1" y2="15.3"/>
<line class="st0" x1="56.7" y1="15.3" x2="54.9" y2="15.3"/>
<line class="st0" x1="54.5" y1="15.3" x2="52.7" y2="15.3"/>
<line class="st0" x1="52.2" y1="15.3" x2="50.4" y2="15.3"/>
<line class="st0" x1="50" y1="15.3" x2="48.2" y2="15.3"/>
<line class="st0" x1="47.7" y1="15.3" x2="46.3" y2="15.3"/>
<line class="st0" x1="14.4" y1="71.5" x2="16.1" y2="70.5"/>
<line class="st0" x1="16.5" y1="70.3" x2="18.1" y2="69.4"/>
<line class="st0" x1="18.4" y1="69.1" x2="20" y2="68.2"/>
<line class="st0" x1="20.4" y1="68" x2="21.9" y2="67.1"/>
<line class="st0" x1="22.3" y1="66.9" x2="23.8" y2="66"/>
<line class="st0" x1="24.2" y1="65.7" x2="25.8" y2="64.8"/>
<line class="st0" x1="26.2" y1="64.6" x2="27.7" y2="63.7"/>
<line class="st0" x1="28.1" y1="63.5" x2="29.7" y2="62.6"/>
<line class="st0" x1="30" y1="62.4" x2="31.6" y2="61.5"/>
<line class="st0" x1="32" y1="61.3" x2="33.5" y2="60.3"/>
<polyline class="st0" points="33.9,60 34.6,59.5 35.3,59 "/>
<polyline class="st0" points="35.7,58.7 36.3,58.1 37,57.5 "/>
<polyline class="st0" points="37.3,57.2 38,56.6 38.6,56 "/>
<polyline class="st0" points="38.9,55.6 39.5,55 40.1,54.3 "/>
<polyline class="st0" points="40.3,53.9 40.9,53.2 41.4,52.5 "/>
<polyline class="st0" points="41.6,52.1 42.1,51.4 42.6,50.6 "/>
<polyline class="st0" points="42.8,50.2 43.2,49.4 43.6,48.6 "/>
<polyline class="st0" points="43.8,48.2 44.2,47.4 44.5,46.6 "/>
<polyline class="st0" points="44.7,46.1 45,45.3 45.2,44.4 "/>
<polyline class="st0" points="45.4,44 45.6,43.1 45.8,42.3 "/>
<polyline class="st0" points="45.9,41.8 46.1,40.9 46.2,40.1 "/>
<polyline class="st0" points="46.2,39.6 46.3,38.7 46.4,37.8 "/>
<line class="st0" x1="46.4" y1="37.4" x2="46.5" y2="35.6"/>
<line class="st0" x1="46.5" y1="35.2" x2="46.5" y2="33.4"/>
<line class="st0" x1="46.5" y1="32.9" x2="46.5" y2="31.1"/>
<line class="st0" x1="46.4" y1="30.7" x2="46.4" y2="28.9"/>
<line class="st0" x1="46.4" y1="28.4" x2="46.4" y2="26.7"/>
<line class="st0" x1="46.4" y1="26.2" x2="46.4" y2="24.4"/>
<line class="st0" x1="46.4" y1="24" x2="46.4" y2="22.2"/>
<line class="st0" x1="46.4" y1="21.7" x2="46.4" y2="20"/>
<line class="st0" x1="46.4" y1="19.5" x2="46.4" y2="17.7"/>
<line class="st0" x1="46.3" y1="17.3" x2="46.3" y2="15.3"/>
<line class="st0" x1="87.6" y1="15.3" x2="87.6" y2="17.3"/>
<line class="st0" x1="87.6" y1="17.7" x2="87.6" y2="19.5"/>
<line class="st0" x1="87.6" y1="20" x2="87.6" y2="21.7"/>
<line class="st0" x1="87.6" y1="22.2" x2="87.6" y2="24"/>
<line class="st0" x1="87.6" y1="24.4" x2="87.6" y2="26.2"/>
<line class="st0" x1="87.6" y1="26.7" x2="87.6" y2="28.5"/>
<polyline class="st0" points="87.6,28.9 87.6,29.5 87.6,30.7 "/>
<line class="st0" x1="87.6" y1="31.2" x2="87.5" y2="33"/>
<line class="st0" x1="87.5" y1="33.4" x2="87.5" y2="35.2"/>
<polyline class="st0" points="87.5,35.7 87.5,36.7 87.5,37.5 "/>
<line class="st0" x1="87.4" y1="37.9" x2="87.4" y2="39.7"/>
<polyline class="st0" points="87.3,40.1 87.3,40.3 87.2,41.9 "/>
<polyline class="st0" points="87.1,42.4 87,43.8 87,44.1 "/>
<polyline class="st0" points="86.9,44.6 86.8,45.6 86.7,46.4 "/>
<polyline class="st0" points="86.6,46.8 86.5,47.3 86.3,48.6 "/>
<polyline class="st0" points="86.2,49 86.2,49.1 85.9,50.8 "/>
<polyline class="st0" points="85.8,51.2 85.4,52.6 85.4,52.9 "/>
<polyline class="st0" points="85.2,53.4 85,54.3 84.8,55.1 "/>
<polyline class="st0" points="84.6,55.5 84.5,56 84.1,57.3 "/>
<polyline class="st0" points="84,57.7 83.9,57.7 83.4,59.4 "/>
<polyline class="st0" points="83.2,59.8 82.7,61.1 82.6,61.5 "/>
<polyline class="st0" points="82.4,61.9 82,62.8 81.7,63.5 "/>
<polyline class="st0" points="81.5,64 81.3,64.4 80.8,65.6 "/>
<polyline class="st0" points="80.6,66 80.6,66 79.8,67.6 "/>
<polyline class="st0" points="79.6,68 78.9,69.2 78.7,69.6 "/>
<polyline class="st0" points="78.5,69.9 78.1,70.7 77.6,71.5 "/>
<polyline class="st0" points="77.4,71.9 77.1,72.3 76.4,73.4 "/>
<line class="st0" x1="76.2" y1="73.8" x2="75.2" y2="75.3"/>
<polyline class="st0" points="74.9,75.6 74.1,76.7 73.9,77.1 "/>
<polyline class="st0" points="73.6,77.4 73.1,78.1 72.5,78.8 "/>
<polyline class="st0" points="72.2,79.2 72,79.6 71.1,80.6 "/>
<polyline class="st0" points="70.8,81 69.7,82.3 69.6,82.3 "/>
<polyline class="st0" points="69.3,82.6 68.4,83.6 68.1,83.9 "/>
<polyline class="st0" points="67.8,84.2 67.2,84.9 66.5,85.5 "/>
<polyline class="st0" points="66.2,85.8 65.9,86.1 64.9,87.1 "/>
<polyline class="st0" points="64.6,87.4 63.3,88.5 63.2,88.6 "/>
<polyline class="st0" points="62.9,88.8 61.9,89.6 61.5,90 "/>
<polyline class="st0" points="61.1,90.3 60.5,90.8 59.7,91.4 "/>
<polyline class="st0" points="59.3,91.6 59.1,91.8 57.9,92.7 "/>
<polyline class="st0" points="57.5,92.9 56.1,93.9 56,93.9 "/>
<line class="st0" x1="55.7" y1="94.1" x2="54.1" y2="95.1"/>
<polyline class="st0" points="53.7,95.3 53.1,95.7 52.2,96.2 "/>
<line class="st0" x1="51.8" y1="96.5" x2="50.3" y2="97.4"/>
<line class="st0" x1="49.9" y1="97.6" x2="48.3" y2="98.5"/>
<polyline class="st0" points="48,98.7 46.9,99.3 46.4,99.6 "/>
<line class="st0" x1="46" y1="99.8" x2="44.5" y2="100.7"/>
<line class="st0" x1="44.1" y1="100.9" x2="42.5" y2="101.8"/>
<line class="st0" x1="42.1" y1="102.1" x2="40.6" y2="102.9"/>
<line class="st0" x1="40.2" y1="103.2" x2="38.6" y2="104.1"/>
<line class="st0" x1="38.2" y1="104.3" x2="36.7" y2="105.2"/>
<line class="st0" x1="36.3" y1="105.4" x2="34.5" y2="106.4"/>
<line class="st1" x1="33.9" y1="107" x2="20.5" y2="114.8"/>
<line class="st1" x1="13.6" y1="71.7" x2="0.1" y2="79.5"/>
<line class="st1" x1="21.7" y1="111.7" x2="3.4" y2="80"/>
<polygon class="st2" points="22,111.5 21.4,111.9 22.7,113.5 "/>
<polygon class="st3" points="22,111.5 21.4,111.9 22.7,113.5 "/>
<polygon class="st2" points="3.7,79.8 3.1,80.1 2.4,78.2 "/>
<polygon class="st3" points="3.7,79.8 3.1,80.1 2.4,78.2 "/>
<path class="st4" d="M7.1,81.2c-0.4-0.1-0.7-0.3-0.9-0.7c-0.1-0.2-0.2-0.4-0.2-0.6l-0.9,0l0-0.3l0.9,0c0-0.2,0.1-0.4,0.2-0.6
	c0.1-0.2,0.3-0.4,0.5-0.5c0.4-0.2,0.7-0.3,1.1-0.2c0.4,0.1,0.7,0.3,0.9,0.7C8.9,79.2,9,79.4,9,79.6l0.9,0l0,0.3l-0.9,0
	c0,0.2-0.1,0.4-0.2,0.6c-0.1,0.2-0.3,0.4-0.5,0.5C7.9,81.3,7.5,81.3,7.1,81.2 M8.1,80.8c0.3-0.2,0.5-0.5,0.6-0.8l-2.3,0
	c0,0.1,0.1,0.3,0.1,0.4c0.2,0.3,0.4,0.5,0.7,0.5C7.5,81,7.8,80.9,8.1,80.8 M8.7,79.6c0-0.1-0.1-0.3-0.1-0.4
	c-0.2-0.3-0.4-0.5-0.7-0.5c-0.3-0.1-0.6,0-0.9,0.1c-0.3,0.2-0.5,0.5-0.6,0.8L8.7,79.6z"/>
<g>
	<path class="st4" d="M7.7,82.1l0.5,0.1c-0.1,0.4-0.1,0.8,0.1,1.1c0.4,0.6,1.3,0.7,2.2,0.2l0,0c-0.4,0-0.9-0.2-1.2-0.7
		c-0.4-0.7-0.3-1.5,0.4-1.9c0.7-0.4,1.5-0.2,2,0.6c0.5,0.8,0.3,1.7-1,2.4c-1.2,0.7-2.3,0.5-2.8-0.4C7.6,83,7.6,82.6,7.7,82.1z
		 M11.1,83c0.5-0.3,0.6-0.9,0.3-1.4c-0.3-0.5-0.9-0.6-1.4-0.4c-0.5,0.3-0.6,0.8-0.3,1.4C10,83.2,10.6,83.3,11.1,83z"/>
	<path class="st4" d="M9.7,85.5l0.5,0.1c-0.1,0.4-0.1,0.8,0.1,1.1c0.4,0.6,1.3,0.7,2.2,0.2l0,0c-0.4,0-0.9-0.2-1.2-0.7
		c-0.4-0.7-0.3-1.5,0.4-1.9c0.7-0.4,1.5-0.2,2,0.6c0.5,0.8,0.3,1.7-1,2.4c-1.2,0.7-2.3,0.5-2.8-0.4C9.6,86.4,9.6,85.9,9.7,85.5z
		 M13,86.4c0.5-0.3,0.6-0.9,0.3-1.4s-0.9-0.6-1.4-0.4c-0.5,0.3-0.6,0.8-0.3,1.4C12,86.5,12.6,86.6,13,86.4z"/>
	<path class="st4" d="M13.6,89.7c1-0.6,2-0.5,3.1,0.2l-0.2,0.3c-1-0.5-1.8-0.6-2.7-0.1c-0.8,0.5-1.2,1.3-1.3,2.3l-0.4,0
		C12.2,91.2,12.6,90.3,13.6,89.7z"/>
	<path class="st4" d="M16.1,91.4l0.7,1.3c0.3,0.5,0.2,1-0.2,1.3c-0.4,0.2-0.7,0.1-0.9-0.1c0.1,0.4,0.1,0.8-0.3,1
		c-0.5,0.3-1,0-1.3-0.6l-0.8-1.3L16.1,91.4z M14.5,94c0.2,0.4,0.5,0.5,0.8,0.4c0.3-0.1,0.3-0.5,0-0.9l-0.5-0.8L14,93.1L14.5,94z
		 M15.7,93.3c0.2,0.3,0.5,0.5,0.7,0.3c0.2-0.1,0.3-0.4,0.1-0.8L16,92l-0.8,0.5L15.7,93.3z"/>
	<path class="st4" d="M17.9,94.4l0.2,0.4L17,95.5l0.9,1.5l1.2-0.7l0.2,0.4l-2.7,1.5l-0.2-0.4l1.2-0.7l-0.9-1.5l-1.2,0.7L15.2,96
		L17.9,94.4z"/>
	<path class="st4" d="M18.3,98.3c0.8-0.5,1.7-0.3,2.1,0.5c0.5,0.8,0.1,1.6-0.7,2.1c0,0-0.1,0-0.1,0.1l-1.2-2.1
		c-0.5,0.4-0.6,1-0.3,1.5c0.2,0.4,0.5,0.5,0.9,0.6l-0.1,0.4c-0.5-0.1-0.8-0.3-1.1-0.8C17.3,99.7,17.5,98.7,18.3,98.3z M19.7,100.3
		c0.5-0.3,0.7-0.8,0.4-1.4c-0.3-0.5-0.9-0.6-1.4-0.4L19.7,100.3z"/>
	<path class="st4" d="M21.5,100.7l0.2,0.4l-2.3,1.3l0.8,1.3l2.3-1.3l0.2,0.4l-2.3,1.3l0.8,1.3l2.3-1.3l0.2,0.4l-2.7,1.6l-2.2-3.8
		L21.5,100.7z"/>
	<path class="st4" d="M22.1,106.6l0.3,0.5l-0.5,0.3l-0.3-0.5L22.1,106.6z"/>
	<path class="st4" d="M21.7,108.4c1,0.5,1.8,0.6,2.7,0.1c0.8-0.5,1.2-1.3,1.3-2.3l0.4,0c0,1.2-0.4,2.2-1.4,2.7c-1,0.6-2,0.5-3.1-0.2
		L21.7,108.4z"/>
</g>
<line class="st1" x1="46.3" y1="14.5" x2="46.3" y2="4.4"/>
<line class="st1" x1="87.6" y1="14.5" x2="87.6" y2="4.4"/>
<line class="st1" x1="48.4" y1="7" x2="85.6" y2="7"/>
<polygon class="st2" points="48.4,6.7 48.4,7.4 46.3,7 "/>
<polygon class="st3" points="48.4,6.7 48.4,7.4 46.3,7 "/>
<polygon class="st2" points="85.6,6.7 85.6,7.4 87.6,7 "/>
<polygon class="st3" points="85.6,6.7 85.6,7.4 87.6,7 "/>
<path class="st4" d="M49.1,4.7c-0.3,0.3-0.6,0.4-1.1,0.4c-0.2,0-0.4,0-0.6-0.1L47,5.8l-0.3-0.2l0.5-0.8c-0.2-0.1-0.3-0.3-0.4-0.5
	c-0.1-0.2-0.2-0.4-0.2-0.7c0-0.4,0.1-0.8,0.4-1.1c0.3-0.3,0.6-0.4,1-0.4c0.2,0,0.4,0,0.6,0.1l0.4-0.8l0.3,0.2l-0.5,0.8
	c0.2,0.1,0.3,0.3,0.4,0.5c0.1,0.2,0.2,0.4,0.2,0.7C49.5,4.1,49.4,4.5,49.1,4.7 M48.5,2.6c-0.1-0.1-0.3-0.1-0.4-0.1
	c-0.3,0-0.6,0.1-0.8,0.3c-0.2,0.2-0.3,0.5-0.3,0.8c0,0.4,0.1,0.7,0.4,0.9L48.5,2.6z M49.2,3.7c0-0.4-0.1-0.7-0.4-0.9l-1.1,2
	c0.1,0.1,0.3,0.1,0.4,0.1c0.3,0,0.6-0.1,0.8-0.3C49.1,4.3,49.2,4,49.2,3.7"/>
<g>
	<path class="st4" d="M50.8,1.4L50,1.6l-0.1-0.4l1-0.4h0.3v4.2h-0.5V1.4z"/>
	<path class="st4" d="M52.3,3c0-1.2,0.7-2.2,1.8-2.2c1.1,0,1.8,1,1.8,2.2c0,1.2-0.7,2.2-1.8,2.2C52.9,5.2,52.3,4.2,52.3,3z M55.3,3
		c0-0.9-0.5-1.7-1.3-1.7c-0.8,0-1.3,0.8-1.3,1.7c0,0.9,0.5,1.7,1.3,1.7C54.8,4.7,55.3,3.9,55.3,3z"/>
	<path class="st4" d="M56.6,3c0-1.2,0.7-2.2,1.8-2.2c1.1,0,1.8,1,1.8,2.2c0,1.2-0.7,2.2-1.8,2.2C57.2,5.2,56.6,4.2,56.6,3z M59.6,3
		c0-0.9-0.5-1.7-1.3-1.7C57.5,1.3,57,2.1,57,3c0,0.9,0.5,1.7,1.3,1.7C59.1,4.7,59.6,3.9,59.6,3z"/>
	<path class="st4" d="M60.7,5.6c0.3-0.1,0.4-0.2,0.4-0.5V5.1h-0.2V4.5h0.6V5c0,0.5-0.2,0.7-0.7,0.8L60.7,5.6z"/>
	<path class="st4" d="M62.2,4.4l0.3-0.3c0.3,0.4,0.7,0.6,1.2,0.6c0.5,0,0.9-0.3,0.9-0.8c0-0.5-0.5-0.8-1.2-0.8h-0.3l-0.1-0.3
		l1.3-1.5h-2.1V0.9h2.7v0.3l-1.3,1.5c0.7,0.1,1.4,0.4,1.4,1.2c0,0.7-0.6,1.3-1.4,1.3C63.1,5.2,62.6,4.9,62.2,4.4z"/>
	<path class="st4" d="M67.8,3.4c0-1.1,0.6-2,1.7-2.6l0.2,0.3c-0.9,0.6-1.4,1.3-1.4,2.3s0.5,1.7,1.4,2.3l-0.2,0.3
		C68.4,5.3,67.8,4.5,67.8,3.4z"/>
	<path class="st4" d="M70.5,2H72c0.6,0,1,0.3,1,0.8c0,0.4-0.3,0.6-0.5,0.7c0.4,0.1,0.7,0.3,0.7,0.8c0,0.5-0.4,0.8-1.1,0.8h-1.6V2z
		 M72,3.3c0.4,0,0.6-0.2,0.6-0.5c0-0.3-0.2-0.4-0.6-0.4h-1v0.9H72z M72,4.7c0.4,0,0.7-0.2,0.7-0.5c0-0.3-0.3-0.5-0.8-0.5h-1v1H72z"
		/>
	<path class="st4" d="M74.1,2h0.5v1.3h1.8V2h0.5v3.1h-0.5V3.7h-1.8v1.4h-0.5V2z"/>
	<path class="st4" d="M77.6,5.9l0.2-0.4c0.1,0.1,0.3,0.1,0.5,0.1c0.3,0,0.4-0.1,0.6-0.6L77.5,2H78l1.1,2.6l1-2.6h0.5l-1.3,3.2
		c-0.3,0.6-0.6,0.9-1,0.9C78,6.1,77.8,6,77.6,5.9z"/>
	<path class="st4" d="M82.1,2.4H81V2h2.7v0.4h-1.1v2.7h-0.5V2.4z"/>
	<path class="st4" d="M84.3,2h0.5v0.6c0.3-0.4,0.6-0.7,1.2-0.7c0.7,0,1.5,0.6,1.5,1.6c0,1-0.7,1.6-1.5,1.6c-0.6,0-0.9-0.3-1.2-0.7
		v1.6h-0.5V2z M87,3.5c0-0.7-0.5-1.2-1.1-1.2c-0.6,0-1.1,0.5-1.1,1.2c0,0.7,0.5,1.2,1.1,1.2C86.5,4.8,87,4.3,87,3.5z"/>
	<path class="st4" d="M88.3,4.5h0.6v0.6h-0.6V4.5z"/>
	<path class="st4" d="M89.6,5.6C90.5,5.1,91,4.3,91,3.4s-0.5-1.7-1.4-2.3l0.2-0.3c1.1,0.6,1.7,1.5,1.7,2.6c0,1.1-0.6,2-1.7,2.6
		L89.6,5.6z"/>
</g>
<line class="st0" x1="67" y1="15.3" x2="67" y2="13.7"/>
<line class="st0" x1="67" y1="13.3" x2="67" y2="11.4"/>
<line class="st0" x1="67" y1="11" x2="67" y2="9.4"/>
<line class="st0" x1="67" y1="15.3" x2="67" y2="19"/>
<line class="st0" x1="67" y1="19.8" x2="67" y2="23.1"/>
<line class="st0" x1="67" y1="23.9" x2="67" y2="27.2"/>
<line class="st0" x1="67" y1="28" x2="67" y2="31.3"/>
<line class="st0" x1="67" y1="32.2" x2="67" y2="35.8"/>
<line class="st0" x1="24.5" y1="88.9" x2="27.7" y2="87.1"/>
<line class="st0" x1="28.4" y1="86.7" x2="31.2" y2="85"/>
<line class="st0" x1="31.9" y1="84.6" x2="34.8" y2="83"/>
<line class="st0" x1="35.5" y1="82.6" x2="38.4" y2="80.9"/>
<line class="st0" x1="39.1" y1="80.5" x2="42.3" y2="78.6"/>
<line class="st0" x1="24.5" y1="88.9" x2="23.2" y2="89.7"/>
<line class="st0" x1="22.8" y1="89.9" x2="21.3" y2="90.8"/>
<line class="st0" x1="21" y1="91" x2="19.7" y2="91.7"/>
<line class="st1" x1="67.8" y1="15.3" x2="103.5" y2="15.3"/>
<line class="st1" x1="67.8" y1="35.8" x2="103.5" y2="35.8"/>
<line class="st1" x1="100.9" y1="17.3" x2="100.9" y2="33.8"/>
<polygon class="st2" points="100.5,17.3 101.2,17.3 100.9,15.3 "/>
<polygon class="st3" points="100.5,17.3 101.2,17.3 100.9,15.3 "/>
<polygon class="st2" points="100.5,33.8 101.2,33.8 100.9,35.8 "/>
<polygon class="st3" points="100.5,33.8 101.2,33.8 100.9,35.8 "/>
<g>
	<path class="st4" d="M98.5,29.4L98.1,29c0.4-0.4,0.6-0.8,0.6-1.2c0-0.6-0.4-1-0.9-1c-0.5,0-0.9,0.4-0.9,1c0,0.4,0.1,0.6,0.2,0.9
		l-0.2,0.3l-2-0.1v-2.4h0.4v2l1.3,0.1c-0.1-0.2-0.2-0.5-0.2-0.8c0-0.8,0.5-1.5,1.3-1.5c0.8,0,1.4,0.6,1.4,1.5
		C99.1,28.5,98.8,29,98.5,29.4z"/>
	<path class="st4" d="M97,25.6c-1.2,0-2.2-0.7-2.2-1.8c0-1.1,1-1.8,2.2-1.8c1.2,0,2.2,0.7,2.2,1.8C99.1,24.9,98.2,25.6,97,25.6z
		 M97,22.6c-0.9,0-1.7,0.5-1.7,1.3c0,0.8,0.8,1.3,1.7,1.3c0.9,0,1.7-0.5,1.7-1.3C98.7,23.1,97.9,22.6,97,22.6z"/>
</g>
<line class="st1" x1="24.9" y1="89.6" x2="43.1" y2="121.2"/>
<line class="st1" x1="42.7" y1="79.4" x2="60.9" y2="110.9"/>
<line class="st1" x1="43.6" y1="117.9" x2="57.8" y2="109.7"/>
<polygon class="st2" points="57.7,109.4 58,110 59.6,108.7 "/>
<polygon class="st3" points="57.7,109.4 58,110 59.6,108.7 "/>
<g>
	<path class="st4" d="M46.2,111.8l0.1-0.5c0.5,0.1,1,0.1,1.3-0.1c0.5-0.3,0.7-0.8,0.4-1.3c-0.3-0.5-0.8-0.5-1.3-0.2
		c-0.3,0.2-0.5,0.4-0.6,0.6l-0.4,0l-0.9-1.8l2.1-1.2l0.2,0.4l-1.7,1l0.6,1.2c0.2-0.2,0.3-0.4,0.6-0.6c0.7-0.4,1.5-0.3,1.9,0.4
		c0.4,0.7,0.1,1.5-0.6,1.9C47.3,111.9,46.7,111.9,46.2,111.8z"/>
	<path class="st4" d="M48.7,108.6c-0.6-1-0.5-2.2,0.5-2.8c0.9-0.5,2,0,2.6,1c0.6,1,0.5,2.2-0.5,2.8
		C50.3,110.2,49.3,109.7,48.7,108.6z M51.3,107.1c-0.5-0.8-1.3-1.3-2-0.9c-0.7,0.4-0.7,1.3-0.2,2.1c0.5,0.8,1.3,1.3,2,0.9
		C51.8,108.9,51.8,107.9,51.3,107.1z"/>
</g>
<path class="st1" d="M64.9,21.2c-14.7,0.7-28,8.8-35.4,21.6c-7.4,12.7-7.7,28.4-1,41.4"/>
<polygon class="st2" points="64.9,20.8 65,21.5 67,21.2 "/>
<polygon class="st3" points="64.9,20.8 65,21.5 67,21.2 "/>
<polygon class="st2" points="28.9,84 28.3,84.4 29.6,86 "/>
<polygon class="st3" points="28.9,84 28.3,84.4 29.6,86 "/>
<g>
	<path class="st4" d="M27.2,37.8l-0.3,0.8l-0.4-0.1l0.3-1l0.2-0.3l3.4,2.5L30.2,40L27.2,37.8z"/>
	<path class="st4" d="M30.7,38.7l-0.2-2c-0.1-0.9-0.2-1.2-0.5-1.5c-0.4-0.3-0.9-0.2-1.1,0.2c-0.3,0.4-0.3,0.8-0.1,1.3l-0.4,0.1
		c-0.2-0.6-0.3-1.2,0.2-1.7c0.5-0.6,1.2-0.7,1.7-0.3c0.5,0.4,0.6,0.9,0.7,1.8l0.1,1.5l1.3-1.8l0.3,0.3L31,38.9L30.7,38.7z"/>
	<path class="st4" d="M31.5,34.7c-0.9-0.7-1.3-1.9-0.7-2.7c0.6-0.9,1.8-0.8,2.8-0.1c0.9,0.7,1.3,1.9,0.7,2.7
		C33.7,35.5,32.5,35.4,31.5,34.7z M33.4,32.3c-0.7-0.5-1.7-0.6-2.2,0c-0.5,0.6-0.1,1.5,0.6,2.1c0.7,0.5,1.7,0.6,2.2,0
		S34.1,32.8,33.4,32.3z"/>
	<path class="st4" d="M33.1,30.5c-0.4-0.3-0.5-0.9-0.2-1.3c0.3-0.4,0.9-0.5,1.3-0.2c0.4,0.3,0.5,0.9,0.2,1.3
		C34.2,30.7,33.5,30.8,33.1,30.5z M34.1,29.3c-0.3-0.2-0.6-0.2-0.8,0.1s-0.1,0.6,0.1,0.8c0.3,0.2,0.6,0.2,0.8-0.1
		C34.4,29.9,34.3,29.5,34.1,29.3z"/>
</g>
</svg>
