<?xml version="1.0" encoding="utf-8"?>
<!-- Generator: Adobe Illustrator 21.1.0, SVG Export Plug-In . SVG Version: 6.00 Build 0)  -->
<svg version="1.1" id="Слой_1" xmlns="http://www.w3.org/2000/svg" xmlns:xlink="http://www.w3.org/1999/xlink" x="0px" y="0px"
	 viewBox="0 0 132.2 130.4" style="enable-background:new 0 0 132.2 130.4;" xml:space="preserve">
<style type="text/css">
	.st0{fill:none;stroke:#262324;stroke-width:0.206;stroke-linecap:round;stroke-linejoin:round;stroke-miterlimit:10;}
	.st1{fill:none;stroke:#CA2628;stroke-width:0.15;stroke-linecap:round;stroke-linejoin:round;stroke-miterlimit:10;}
	.st2{fill:#CA2628;}
	.st3{fill:none;stroke:#CA2628;stroke-width:0.15;stroke-linecap:round;stroke-miterlimit:10;}
	.st4{fill:#43549E;}
</style>
<polyline class="st0" points="64.3,72.9 64.2,72.9 64.2,72.9 64.1,73 64,73 64,73.1 "/>
<polyline class="st0" points="74.9,62.1 74.9,62.1 74.8,62.2 74.8,62.3 74.8,62.4 74.8,62.4 "/>
<line class="st0" x1="21.8" y1="129.9" x2="21.8" y2="30.3"/>
<line class="st0" x1="16" y1="14.6" x2="18.9" y2="17.6"/>
<line class="st0" x1="21.8" y1="129.9" x2="16" y2="129.9"/>
<polyline class="st0" points="22.8,129.9 22.8,30.3 21.8,30.3 "/>
<line class="st0" x1="21.8" y1="129.9" x2="22.8" y2="129.9"/>
<line class="st0" x1="131.8" y1="19.9" x2="32.2" y2="19.9"/>
<line class="st0" x1="131.8" y1="19.9" x2="131.8" y2="14.1"/>
<line class="st0" x1="19.4" y1="17.1" x2="16.5" y2="14.1"/>
<line class="st0" x1="19.7" y1="18.3" x2="18.9" y2="17.6"/>
<line class="st0" x1="19.4" y1="17.1" x2="20.2" y2="17.8"/>
<path class="st0" d="M19.7,18.3c0.1,0.1,0.3,0.1,0.5,0c0.1-0.1,0.1-0.3,0-0.5"/>
<path class="st0" d="M74.8,62.6c-5.7,0-10.4,4.6-10.4,10.4"/>
<path class="st0" d="M32.2,19.9c-5.7,0-10.4,4.6-10.4,10.4"/>
<line class="st0" x1="131.8" y1="20.9" x2="131.8" y2="59.5"/>
<line class="st0" x1="131.8" y1="20.9" x2="32.2" y2="20.9"/>
<line class="st0" x1="131.8" y1="19.9" x2="131.8" y2="20.9"/>
<line class="st0" x1="32.2" y1="20.9" x2="32.2" y2="19.9"/>
<line class="st0" x1="22.8" y1="129.9" x2="61.4" y2="129.9"/>
<path class="st0" d="M32.2,20.9c-5.2,0-9.4,4.2-9.4,9.4"/>
<line class="st0" x1="63.5" y1="129.9" x2="63.5" y2="73.4"/>
<polyline class="st0" points="63.5,73.4 61.4,76.4 61.4,129.9 63.5,129.9 "/>
<polyline class="st0" points="63.5,129.9 64.6,129.9 64.6,72.9 64.4,72.9 64.3,72.9 64.3,73 64.1,73 64,73 63.9,73.1 63.8,73.2 
	63.7,73.2 63.5,73.3 63.5,73.4 "/>
<line class="st0" x1="75.3" y1="61.6" x2="78.3" y2="59.5"/>
<line class="st0" x1="131.8" y1="61.6" x2="75.3" y2="61.6"/>
<polyline class="st0" points="131.8,61.6 131.8,59.5 78.3,59.5 "/>
<polyline class="st0" points="75.3,61.6 75.2,61.7 75.1,61.8 75,61.9 75,62 74.9,62.1 74.9,62.3 74.8,62.4 74.8,62.5 74.8,62.6 
	74.8,62.8 131.8,62.8 131.8,61.6 "/>
<line class="st0" x1="16.2" y1="14.6" x2="18.9" y2="17.6"/>
<line class="st0" x1="19.4" y1="17.1" x2="16.5" y2="14.3"/>
<path class="st0" d="M74.8,62.8c-5.6,0-10.2,4.6-10.2,10.2"/>
<line class="st0" x1="64.4" y1="72.9" x2="64.3" y2="72.9"/>
<line class="st0" x1="74.8" y1="62.6" x2="74.8" y2="62.4"/>
<line class="st0" x1="16" y1="14.6" x2="16" y2="129.9"/>
<line class="st0" x1="131.8" y1="14.1" x2="16.5" y2="14.1"/>
<line class="st0" x1="16" y1="14.6" x2="16.2" y2="14.6"/>
<line class="st0" x1="16.5" y1="14.3" x2="16.5" y2="14.1"/>
<polyline class="st0" points="64.3,72.9 64.2,72.9 64.2,72.9 64.1,73 64,73 64,73.1 "/>
<polyline class="st0" points="74.9,62.1 74.9,62.1 74.8,62.2 74.8,62.3 74.8,62.4 74.8,62.4 "/>
<line class="st0" x1="21.8" y1="129.9" x2="21.8" y2="30.3"/>
<line class="st0" x1="16" y1="14.6" x2="18.9" y2="17.6"/>
<line class="st0" x1="21.8" y1="129.9" x2="16" y2="129.9"/>
<polyline class="st0" points="22.8,129.9 22.8,30.3 21.8,30.3 "/>
<line class="st0" x1="21.8" y1="129.9" x2="22.8" y2="129.9"/>
<line class="st0" x1="131.8" y1="19.9" x2="32.2" y2="19.9"/>
<line class="st0" x1="131.8" y1="19.9" x2="131.8" y2="14.1"/>
<line class="st0" x1="19.4" y1="17.1" x2="16.5" y2="14.1"/>
<line class="st0" x1="19.7" y1="18.3" x2="18.9" y2="17.6"/>
<line class="st0" x1="19.4" y1="17.1" x2="20.2" y2="17.8"/>
<path class="st0" d="M19.7,18.3c0.1,0.1,0.3,0.1,0.5,0c0.1-0.1,0.1-0.3,0-0.5"/>
<path class="st0" d="M74.8,62.6c-5.7,0-10.4,4.6-10.4,10.4"/>
<path class="st0" d="M32.2,19.9c-5.7,0-10.4,4.6-10.4,10.4"/>
<line class="st0" x1="131.8" y1="20.9" x2="131.8" y2="59.5"/>
<line class="st0" x1="131.8" y1="20.9" x2="32.2" y2="20.9"/>
<line class="st0" x1="131.8" y1="19.9" x2="131.8" y2="20.9"/>
<line class="st0" x1="32.2" y1="20.9" x2="32.2" y2="19.9"/>
<line class="st0" x1="22.8" y1="129.9" x2="61.4" y2="129.9"/>
<path class="st0" d="M32.2,20.9c-5.2,0-9.4,4.2-9.4,9.4"/>
<line class="st0" x1="16" y1="14.6" x2="16" y2="129.9"/>
<line class="st0" x1="131.8" y1="14.1" x2="16.5" y2="14.1"/>
<line class="st1" x1="16" y1="13.9" x2="16" y2="5"/>
<line class="st1" x1="131.8" y1="13.4" x2="131.8" y2="5"/>
<line class="st1" x1="17.7" y1="7.2" x2="130" y2="7.2"/>
<polygon class="st2" points="17.7,6.9 17.7,7.5 16,7.2 "/>
<polygon class="st3" points="17.7,6.9 17.7,7.5 16,7.2 "/>
<polygon class="st2" points="130,6.9 130,7.5 131.8,7.2 "/>
<polygon class="st3" points="130,6.9 130,7.5 131.8,7.2 "/>
<g>
	<path class="st4" d="M73,4.4l0.3-0.3c0.3,0.4,0.7,0.6,1.2,0.6c0.5,0,0.9-0.3,0.9-0.8c0-0.5-0.5-0.8-1.2-0.8h-0.3L74,2.8l1.3-1.5
		h-2.1V0.9h2.7v0.3l-1.3,1.5C75.3,2.8,76,3.1,76,3.9c0,0.7-0.6,1.3-1.4,1.3C73.9,5.2,73.4,4.9,73,4.4z"/>
	<path class="st4" d="M76.7,4.4l0.3-0.3c0.3,0.4,0.7,0.6,1.2,0.6c0.5,0,0.9-0.3,0.9-0.8c0-0.5-0.5-0.8-1.2-0.8h-0.3l-0.1-0.3L79,1.3
		h-2.1V0.9h2.7v0.3l-1.3,1.5c0.7,0.1,1.4,0.4,1.4,1.2c0,0.7-0.6,1.3-1.4,1.3C77.6,5.2,77.1,4.9,76.7,4.4z"/>
	<path class="st4" d="M80.4,4.5l0.3-0.3c0.4,0.4,0.8,0.6,1.2,0.6c0.6,0,1-0.4,1-0.9c0-0.5-0.4-0.9-1-0.9c-0.4,0-0.6,0.1-0.9,0.2
		l-0.3-0.2l0.1-2h2.4v0.4h-2l-0.1,1.3c0.2-0.1,0.5-0.2,0.8-0.2c0.8,0,1.5,0.5,1.5,1.3c0,0.8-0.6,1.4-1.5,1.4
		C81.3,5.2,80.8,4.9,80.4,4.5z"/>
</g>
<line class="st1" x1="15.8" y1="14.1" x2="6.2" y2="14.1"/>
<line class="st1" x1="15.3" y1="129.9" x2="6.2" y2="129.9"/>
<line class="st1" x1="8.4" y1="15.8" x2="8.4" y2="128.2"/>
<polygon class="st2" points="8.1,15.8 8.6,15.8 8.4,14.1 "/>
<polygon class="st3" points="8.1,15.8 8.6,15.8 8.4,14.1 "/>
<polygon class="st2" points="8.1,128.2 8.6,128.2 8.4,129.9 "/>
<polygon class="st3" points="8.1,128.2 8.6,128.2 8.4,129.9 "/>
<g>
	<path class="st4" d="M4.4,76.9l-0.3-0.3c0.4-0.3,0.6-0.7,0.6-1.2c0-0.5-0.3-0.9-0.8-0.9c-0.5,0-0.8,0.5-0.8,1.2v0.3l-0.3,0.1
		l-1.5-1.3v2.1H0.9V74h0.3l1.5,1.3c0.1-0.7,0.4-1.4,1.2-1.4c0.8,0,1.3,0.6,1.3,1.4C5.2,76,4.9,76.5,4.4,76.9z"/>
	<path class="st4" d="M4.4,73.2l-0.3-0.3c0.4-0.3,0.6-0.7,0.6-1.2c0-0.5-0.3-0.9-0.8-0.9c-0.5,0-0.8,0.5-0.8,1.2v0.3l-0.3,0.1
		l-1.5-1.3V73H0.9v-2.7h0.3l1.5,1.3c0.1-0.7,0.4-1.4,1.2-1.4c0.8,0,1.3,0.6,1.3,1.4C5.2,72.3,4.9,72.8,4.4,73.2z"/>
	<path class="st4" d="M4.5,69.5l-0.3-0.3c0.4-0.4,0.6-0.8,0.6-1.2c0-0.6-0.4-1-0.9-1c-0.5,0-0.9,0.4-0.9,1c0,0.4,0.1,0.6,0.2,0.9
		l-0.2,0.3l-2-0.1v-2.4h0.4v2l1.3,0.1c-0.1-0.2-0.2-0.5-0.2-0.8c0-0.8,0.5-1.5,1.3-1.5c0.8,0,1.4,0.6,1.4,1.5
		C5.2,68.6,4.9,69.1,4.5,69.5z"/>
</g>
</svg>
