<?xml version="1.0" encoding="utf-8"?>
<!-- Generator: Adobe Illustrator 21.1.0, SVG Export Plug-In . SVG Version: 6.00 Build 0)  -->
<svg version="1.1" id="Слой_1" xmlns="http://www.w3.org/2000/svg" xmlns:xlink="http://www.w3.org/1999/xlink" x="0px" y="0px"
	 viewBox="0 0 118.3 123.8" style="enable-background:new 0 0 118.3 123.8;" xml:space="preserve">
<style type="text/css">
	.st0{fill:none;stroke:#262424;stroke-width:0.244;stroke-linecap:round;stroke-linejoin:round;stroke-miterlimit:10;}
	.st1{fill:none;stroke:#CB2628;stroke-width:0.15;stroke-linecap:round;stroke-linejoin:round;stroke-miterlimit:10;}
	.st2{fill:#CB2628;}
	.st3{fill:none;stroke:#CB2628;stroke-width:0.15;stroke-linecap:round;stroke-miterlimit:10;}
	.st4{fill:#43539F;}
	.st5{fill:none;stroke:#262424;stroke-width:0.197;stroke-linecap:round;stroke-linejoin:round;stroke-miterlimit:10;}
	.st6{fill:none;stroke:#487FBB;stroke-width:5.600000e-02;stroke-linecap:round;stroke-linejoin:round;stroke-miterlimit:10;}
	.st7{fill:#262424;}
</style>
<line class="st0" x1="0.6" y1="71" x2="1.6" y2="72.6"/>
<line class="st0" x1="1.8" y1="73" x2="2.7" y2="74.5"/>
<line class="st0" x1="2.9" y1="74.9" x2="3.8" y2="76.5"/>
<line class="st0" x1="4" y1="76.9" x2="4.9" y2="78.4"/>
<line class="st0" x1="5.2" y1="78.8" x2="6.1" y2="80.4"/>
<line class="st0" x1="6.3" y1="80.8" x2="7.2" y2="82.3"/>
<line class="st0" x1="7.4" y1="82.7" x2="8.3" y2="84.3"/>
<line class="st0" x1="8.5" y1="84.7" x2="9.4" y2="86.2"/>
<line class="st0" x1="9.7" y1="86.6" x2="10.6" y2="88.2"/>
<line class="st0" x1="10.8" y1="88.6" x2="11.7" y2="90.1"/>
<line class="st0" x1="11.9" y1="90.5" x2="12.8" y2="92.1"/>
<line class="st0" x1="13" y1="92.5" x2="14" y2="94"/>
<line class="st0" x1="14.2" y1="94.4" x2="15.1" y2="96"/>
<line class="st0" x1="15.3" y1="96.4" x2="16.2" y2="97.9"/>
<line class="st0" x1="16.4" y1="98.3" x2="17.3" y2="99.9"/>
<line class="st0" x1="17.5" y1="100.3" x2="18.5" y2="101.8"/>
<line class="st0" x1="18.7" y1="102.2" x2="19.6" y2="103.8"/>
<line class="st0" x1="19.8" y1="104.2" x2="20.7" y2="105.7"/>
<line class="st0" x1="0.6" y1="71" x2="1.5" y2="72.6"/>
<line class="st0" x1="1.7" y1="73" x2="2.6" y2="74.6"/>
<line class="st0" x1="2.8" y1="74.9" x2="3.8" y2="76.5"/>
<line class="st0" x1="4" y1="76.9" x2="4.9" y2="78.5"/>
<line class="st0" x1="5.1" y1="78.9" x2="6" y2="80.4"/>
<line class="st0" x1="6.2" y1="80.8" x2="7.1" y2="82.3"/>
<line class="st0" x1="7.4" y1="82.8" x2="8.3" y2="84.3"/>
<line class="st0" x1="8.5" y1="84.7" x2="9.4" y2="86.3"/>
<line class="st0" x1="9.6" y1="86.6" x2="10.5" y2="88.2"/>
<line class="st0" x1="10.7" y1="88.6" x2="11.6" y2="90.2"/>
<line class="st0" x1="11.9" y1="90.6" x2="12.8" y2="92.1"/>
<line class="st0" x1="13" y1="92.5" x2="13.9" y2="94"/>
<line class="st0" x1="14.1" y1="94.5" x2="15" y2="96"/>
<line class="st0" x1="15.2" y1="96.4" x2="16.2" y2="98"/>
<line class="st0" x1="16.4" y1="98.3" x2="17.3" y2="99.9"/>
<line class="st0" x1="17.5" y1="100.3" x2="18.4" y2="101.9"/>
<line class="st0" x1="18.6" y1="102.3" x2="19.5" y2="103.8"/>
<line class="st0" x1="19.7" y1="104.2" x2="20.7" y2="105.8"/>
<line class="st0" x1="22.4" y1="104.8" x2="22.3" y2="104.8"/>
<line class="st0" x1="22.3" y1="104.9" x2="22.1" y2="104.9"/>
<line class="st0" x1="22.1" y1="105" x2="21.9" y2="105"/>
<line class="st0" x1="1.9" y1="70.3" x2="2" y2="70.2"/>
<line class="st0" x1="2" y1="70.2" x2="2.2" y2="70.1"/>
<line class="st0" x1="2.2" y1="70.1" x2="2.4" y2="70"/>
<line class="st0" x1="1.5" y1="70.3" x2="1.6" y2="70.3"/>
<polyline class="st0" points="1.7,70.3 1.7,70.3 1.8,70.3 "/>
<line class="st0" x1="1.8" y1="70.3" x2="1.9" y2="70.3"/>
<line class="st0" x1="21.9" y1="105" x2="21.9" y2="105.1"/>
<polyline class="st0" points="21.8,105.1 21.8,105.2 21.8,105.2 21.8,105.3 21.7,105.3 21.7,105.4 "/>
<line class="st0" x1="21.7" y1="105.4" x2="21.7" y2="105.5"/>
<line class="st0" x1="21.7" y1="105.5" x2="21.6" y2="105.6"/>
<line class="st0" x1="1.2" y1="70.3" x2="1.3" y2="70.3"/>
<line class="st0" x1="1.3" y1="70.3" x2="1.4" y2="70.3"/>
<line class="st0" x1="1.4" y1="70.3" x2="1.5" y2="70.3"/>
<polyline class="st0" points="1.2,70.3 1.2,70.3 1.1,70.3 "/>
<polyline class="st0" points="1.1,70.3 1,70.3 1,70.3 1,70.3 "/>
<polyline class="st0" points="1,70.3 1,70.4 0.9,70.4 "/>
<polyline class="st0" points="21.4,105.8 21.4,105.8 21.4,105.8 "/>
<polyline class="st0" points="21.5,105.8 21.5,105.8 21.5,105.7 21.6,105.7 21.6,105.7 "/>
<polyline class="st0" points="21.6,105.7 21.6,105.6 21.6,105.6 "/>
<polyline class="st0" points="21.4,105.8 21.3,105.7 21.1,105.7 "/>
<line class="st0" x1="21.1" y1="105.7" x2="21" y2="105.7"/>
<line class="st0" x1="0.9" y1="70.7" x2="0.9" y2="70.6"/>
<line class="st0" x1="0.9" y1="70.6" x2="0.9" y2="70.5"/>
<line class="st0" x1="0.9" y1="70.5" x2="0.9" y2="70.4"/>
<line class="st0" x1="0.6" y1="71" x2="0.7" y2="70.9"/>
<polyline class="st0" points="0.8,70.9 0.8,70.9 0.8,70.8 "/>
<line class="st0" x1="0.8" y1="70.8" x2="0.9" y2="70.7"/>
<line class="st0" x1="21" y1="105.7" x2="21" y2="105.7"/>
<polyline class="st0" points="20.9,105.7 20.9,105.7 20.8,105.7 "/>
<polyline class="st0" points="20.8,105.7 20.7,105.7 20.7,105.8 "/>
<line class="st0" x1="0.6" y1="71" x2="0.6" y2="71"/>
<path class="st0" d="M0.5,70.8c0.1,0,0.1-0.1,0.1-0.2"/>
<path class="st0" d="M21,105.9c-0.1,0-0.1,0-0.2,0"/>
<line class="st0" x1="0.6" y1="70.6" x2="0.7" y2="70.4"/>
<line class="st0" x1="21.3" y1="106" x2="21" y2="106"/>
<path class="st0" d="M1.3,70c-0.3-0.1-0.5,0.1-0.6,0.4"/>
<path class="st0" d="M21.3,106c0.3,0.1,0.5-0.1,0.6-0.3"/>
<line class="st0" x1="1.3" y1="70" x2="1.6" y2="70.1"/>
<line class="st0" x1="21.9" y1="105.4" x2="21.9" y2="105.7"/>
<path class="st0" d="M1.6,70.1c0.1,0,0.1,0,0.2,0"/>
<path class="st0" d="M22.1,105.2c-0.1,0-0.1,0.1-0.1,0.2"/>
<line class="st0" x1="1.8" y1="70.1" x2="2.3" y2="69.8"/>
<line class="st0" x1="22.5" y1="105" x2="22.1" y2="105.3"/>
<line class="st0" x1="0.5" y1="70.8" x2="0.5" y2="70.8"/>
<line class="st0" x1="20.8" y1="106" x2="20.8" y2="106"/>
<line class="st0" x1="31.8" y1="15.2" x2="73.5" y2="15.2"/>
<line class="st0" x1="0.1" y1="71" x2="20.4" y2="106.2"/>
<line class="st0" x1="73.2" y1="15.2" x2="71.8" y2="15.2"/>
<line class="st0" x1="71.4" y1="15.2" x2="69.6" y2="15.2"/>
<line class="st0" x1="69.1" y1="15.2" x2="67.3" y2="15.2"/>
<line class="st0" x1="66.9" y1="15.2" x2="65.1" y2="15.2"/>
<line class="st0" x1="64.7" y1="15.2" x2="62.9" y2="15.2"/>
<line class="st0" x1="62.5" y1="15.2" x2="60.7" y2="15.2"/>
<line class="st0" x1="60.2" y1="15.2" x2="58.4" y2="15.2"/>
<line class="st0" x1="58" y1="15.2" x2="56.2" y2="15.2"/>
<line class="st0" x1="55.8" y1="15.2" x2="54" y2="15.2"/>
<line class="st0" x1="53.5" y1="15.2" x2="51.7" y2="15.2"/>
<line class="st0" x1="51.3" y1="15.2" x2="49.5" y2="15.2"/>
<line class="st0" x1="49.1" y1="15.2" x2="47.3" y2="15.2"/>
<line class="st0" x1="46.8" y1="15.2" x2="45.1" y2="15.2"/>
<line class="st0" x1="44.6" y1="15.2" x2="42.8" y2="15.2"/>
<line class="st0" x1="42.4" y1="15.2" x2="40.6" y2="15.2"/>
<line class="st0" x1="40.2" y1="15.2" x2="38.4" y2="15.2"/>
<line class="st0" x1="37.9" y1="15.2" x2="36.2" y2="15.2"/>
<line class="st0" x1="35.7" y1="15.2" x2="33.9" y2="15.2"/>
<line class="st0" x1="33.5" y1="15.2" x2="32.1" y2="15.2"/>
<line class="st0" x1="20.3" y1="106" x2="19.4" y2="104.4"/>
<line class="st0" x1="19.2" y1="104" x2="18.2" y2="102.5"/>
<line class="st0" x1="18" y1="102.1" x2="17.1" y2="100.5"/>
<line class="st0" x1="16.9" y1="100.1" x2="16" y2="98.6"/>
<line class="st0" x1="15.8" y1="98.2" x2="14.9" y2="96.6"/>
<line class="st0" x1="14.6" y1="96.2" x2="13.7" y2="94.6"/>
<line class="st0" x1="13.5" y1="94.3" x2="12.6" y2="92.7"/>
<line class="st0" x1="12.4" y1="92.3" x2="11.5" y2="90.8"/>
<line class="st0" x1="11.3" y1="90.4" x2="10.4" y2="88.8"/>
<line class="st0" x1="10.1" y1="88.4" x2="9.2" y2="86.9"/>
<line class="st0" x1="9" y1="86.5" x2="8.1" y2="84.9"/>
<line class="st0" x1="7.9" y1="84.5" x2="7" y2="82.9"/>
<line class="st0" x1="6.8" y1="82.6" x2="5.9" y2="81"/>
<line class="st0" x1="5.6" y1="80.6" x2="4.7" y2="79.1"/>
<line class="st0" x1="4.5" y1="78.7" x2="3.6" y2="77.1"/>
<line class="st0" x1="3.4" y1="76.7" x2="2.5" y2="75.2"/>
<line class="st0" x1="2.3" y1="74.8" x2="1.4" y2="73.2"/>
<line class="st0" x1="1.1" y1="72.8" x2="0.2" y2="71.2"/>
<line class="st0" x1="2.4" y1="70" x2="4.1" y2="69"/>
<line class="st0" x1="4.5" y1="68.8" x2="6" y2="67.9"/>
<line class="st0" x1="6.4" y1="67.6" x2="7.9" y2="66.7"/>
<line class="st0" x1="8.3" y1="66.5" x2="9.8" y2="65.6"/>
<line class="st0" x1="10.2" y1="65.4" x2="11.8" y2="64.5"/>
<line class="st0" x1="12.1" y1="64.3" x2="13.7" y2="63.4"/>
<line class="st0" x1="14.1" y1="63.2" x2="15.6" y2="62.3"/>
<polyline class="st0" points="16,62 17.2,61.3 17.5,61.2 "/>
<polyline class="st0" points="17.9,60.9 19,60.2 19.4,59.9 "/>
<polyline class="st0" points="19.7,59.7 20.8,59 21.2,58.6 "/>
<polyline class="st0" points="21.5,58.4 21.6,58.3 22.5,57.6 22.9,57.2 "/>
<polyline class="st0" points="23.2,56.9 23.2,56.9 24,56.1 24.4,55.6 "/>
<polyline class="st0" points="24.7,55.3 25.4,54.5 25.9,54 "/>
<polyline class="st0" points="26.2,53.6 26.8,52.8 27.2,52.2 "/>
<polyline class="st0" points="27.5,51.8 28,51 28.4,50.3 "/>
<polyline class="st0" points="28.6,49.9 29,49.1 29.4,48.3 "/>
<polyline class="st0" points="29.6,47.9 29.9,47.2 30.3,46.3 "/>
<polyline class="st0" points="30.4,45.9 30.7,45.2 31,44.2 "/>
<polyline class="st0" points="31.1,43.8 31.3,43.1 31.6,42 31.6,42 "/>
<polyline class="st0" points="31.6,41.6 31.8,41 31.9,39.9 31.9,39.8 "/>
<polyline class="st0" points="32,39.4 32,38.8 32.1,37.8 32.1,37.6 "/>
<polyline class="st0" points="32.2,37.2 32.2,36.7 32.2,35.4 "/>
<polyline class="st0" points="32.2,35 32.2,34.5 32.2,33.2 "/>
<polyline class="st0" points="32.2,32.8 32.2,32.4 32.2,31 "/>
<line class="st0" x1="32.2" y1="30.5" x2="32.2" y2="28.7"/>
<line class="st0" x1="32.2" y1="28.3" x2="32.1" y2="26.5"/>
<line class="st0" x1="32.1" y1="26.1" x2="32.1" y2="24.3"/>
<polyline class="st0" points="32.1,23.9 32.1,23.8 32.1,22.1 "/>
<line class="st0" x1="32.1" y1="21.7" x2="32.1" y2="19.9"/>
<line class="st0" x1="32.1" y1="19.4" x2="32.1" y2="17.6"/>
<line class="st0" x1="32.1" y1="17.2" x2="32.1" y2="15.2"/>
<line class="st0" x1="73.2" y1="15.2" x2="73.2" y2="17.2"/>
<line class="st0" x1="73.2" y1="17.7" x2="73.2" y2="19.5"/>
<line class="st0" x1="73.2" y1="19.9" x2="73.2" y2="21.7"/>
<line class="st0" x1="73.2" y1="22.1" x2="73.2" y2="23.9"/>
<line class="st0" x1="73.2" y1="24.3" x2="73.1" y2="26.1"/>
<line class="st0" x1="73.1" y1="26.6" x2="73.1" y2="28.4"/>
<polyline class="st0" points="73.1,28.8 73.1,29.1 73.1,30.6 "/>
<polyline class="st0" points="73.1,31 73.1,32.6 73.1,32.8 "/>
<line class="st0" x1="73.1" y1="33.2" x2="73.1" y2="35"/>
<polyline class="st0" points="73.1,35.5 73.1,36.1 73,37.3 "/>
<line class="st0" x1="73" y1="37.7" x2="72.9" y2="39.5"/>
<polyline class="st0" points="72.9,39.9 72.8,41.3 72.8,41.7 "/>
<polyline class="st0" points="72.7,42.2 72.7,43 72.5,43.9 "/>
<polyline class="st0" points="72.5,44.4 72.4,44.7 72.3,46.1 "/>
<polyline class="st0" points="72.2,46.6 71.9,48.2 71.9,48.3 "/>
<polyline class="st0" points="71.8,48.8 71.6,49.9 71.5,50.5 "/>
<polyline class="st0" points="71.4,51 71.2,51.6 70.9,52.7 "/>
<polyline class="st0" points="70.8,53.1 70.8,53.3 70.3,54.8 "/>
<polyline class="st0" points="70.2,55.2 69.8,56.6 69.7,57 "/>
<polyline class="st0" points="69.5,57.4 69.3,58.3 69,59.1 "/>
<polyline class="st0" points="68.8,59.5 68.7,59.9 68.2,61.2 "/>
<polyline class="st0" points="68,61.6 67.3,63.2 67.3,63.2 "/>
<polyline class="st0" points="67.1,63.6 66.6,64.7 66.4,65.2 "/>
<polyline class="st0" points="66.2,65.6 65.9,66.3 65.4,67.2 "/>
<polyline class="st0" points="65.2,67.6 65.1,67.9 64.4,69.2 "/>
<polyline class="st0" points="64.2,69.6 63.4,70.9 63.3,71.1 "/>
<polyline class="st0" points="63,71.5 62.5,72.4 62.1,73 "/>
<polyline class="st0" points="61.9,73.4 61.5,73.9 60.9,74.9 "/>
<polyline class="st0" points="60.6,75.3 60.6,75.3 59.6,76.7 "/>
<polyline class="st0" points="59.3,77 58.5,78.1 58.2,78.5 "/>
<polyline class="st0" points="58,78.8 57.4,79.5 56.8,80.2 "/>
<polyline class="st0" points="56.5,80.5 56.3,80.8 55.4,81.9 "/>
<polyline class="st0" points="55.1,82.2 54,83.4 53.8,83.5 "/>
<polyline class="st0" points="53.5,83.8 52.7,84.6 52.3,85.1 "/>
<polyline class="st0" points="51.9,85.4 51.5,85.8 50.7,86.6 "/>
<polyline class="st0" points="50.3,86.9 50.2,87 49,88.1 "/>
<polyline class="st0" points="48.7,88.4 47.6,89.3 47.3,89.5 "/>
<polyline class="st0" points="47,89.8 46.2,90.4 45.5,90.9 "/>
<polyline class="st0" points="45.2,91.2 44.8,91.4 43.7,92.2 "/>
<line class="st0" x1="43.4" y1="92.4" x2="41.9" y2="93.4"/>
<polyline class="st0" points="41.5,93.7 40.5,94.3 40,94.6 "/>
<line class="st0" x1="39.6" y1="94.8" x2="38.1" y2="95.8"/>
<polyline class="st0" points="37.7,96 37.5,96.1 36.2,96.9 "/>
<polyline class="st0" points="35.8,97.2 34.5,97.9 34.2,98 "/>
<line class="st0" x1="33.9" y1="98.3" x2="32.3" y2="99.1"/>
<line class="st0" x1="31.9" y1="99.4" x2="30.4" y2="100.2"/>
<line class="st0" x1="30" y1="100.5" x2="28.4" y2="101.3"/>
<line class="st0" x1="28.1" y1="101.6" x2="26.5" y2="102.5"/>
<line class="st0" x1="26.1" y1="102.7" x2="24.6" y2="103.5"/>
<line class="st0" x1="24.2" y1="103.8" x2="22.4" y2="104.8"/>
<line class="st0" x1="20.7" y1="105.8" x2="20.6" y2="105.8"/>
<line class="st0" x1="20.5" y1="105.8" x2="20.4" y2="105.9"/>
<line class="st0" x1="20.4" y1="105.9" x2="20.3" y2="106"/>
<line class="st0" x1="0.2" y1="71.2" x2="0.3" y2="71.2"/>
<line class="st0" x1="0.4" y1="71.2" x2="0.5" y2="71.1"/>
<line class="st0" x1="0.5" y1="71.1" x2="0.6" y2="71"/>
<polyline class="st0" points="2.3,69.8 17,61.2 18.8,60 20.6,58.8 21.5,58.1 22.3,57.4 23.1,56.7 23.8,55.9 24.5,55.2 25.3,54.4 
	25.9,53.5 26.6,52.7 27.2,51.8 27.7,50.9 28.3,49.9 28.8,49 29.3,48 29.7,47 30.1,46.1 30.5,45.1 30.8,44 31.1,43 31.3,41.9 
	31.5,40.9 31.7,39.8 31.8,38.8 31.9,37.7 32,36.6 32,34.5 32,32.3 31.9,23.8 31.8,15.2 "/>
<polyline class="st0" points="73.5,15.2 73.4,29.2 73.4,32.6 73.3,36.1 73.2,39.6 73,41.3 72.9,43.1 72.7,44.8 72.4,46.6 72.2,48.3 
	71.8,50 71.4,51.7 71,53.4 70.6,55 70,56.7 69.5,58.4 68.9,60 68.3,61.7 67.6,63.3 66.9,64.9 66.1,66.4 65.3,68 64.5,69.5 63.6,71 
	62.7,72.5 61.8,74 60.8,75.4 59.8,76.9 58.7,78.3 57.6,79.6 56.5,81 55.3,82.3 54.1,83.5 52.9,84.8 51.7,86 50.4,87.2 49.1,88.4 
	47.8,89.5 46.4,90.6 45,91.6 43.6,92.6 40.7,94.5 37.7,96.3 34.7,98.1 22.5,105 "/>
<line class="st0" x1="20.8" y1="106" x2="20.4" y2="106.2"/>
<line class="st0" x1="0.1" y1="71" x2="0.5" y2="70.8"/>
<line class="st0" x1="52.6" y1="15.2" x2="52.6" y2="14"/>
<line class="st0" x1="52.6" y1="13.6" x2="52.6" y2="12.1"/>
<line class="st0" x1="52.6" y1="11.7" x2="52.6" y2="10.5"/>
<line class="st0" x1="52.6" y1="15.2" x2="52.6" y2="18.9"/>
<line class="st0" x1="52.6" y1="19.7" x2="52.6" y2="23"/>
<line class="st0" x1="52.6" y1="23.8" x2="52.6" y2="27.1"/>
<line class="st0" x1="52.6" y1="27.9" x2="52.6" y2="31.2"/>
<line class="st0" x1="52.6" y1="32" x2="52.6" y2="35.7"/>
<line class="st0" x1="10.2" y1="88.6" x2="9.1" y2="89.3"/>
<line class="st0" x1="8.7" y1="89.5" x2="7.4" y2="90.3"/>
<line class="st0" x1="7" y1="90.5" x2="5.8" y2="91.1"/>
<line class="st0" x1="10.2" y1="88.6" x2="13.5" y2="86.8"/>
<line class="st0" x1="14.2" y1="86.4" x2="17" y2="84.7"/>
<line class="st0" x1="17.7" y1="84.3" x2="20.6" y2="82.7"/>
<line class="st0" x1="21.3" y1="82.2" x2="24.1" y2="80.6"/>
<line class="st0" x1="24.8" y1="80.2" x2="28" y2="78.4"/>
<path class="st1" d="M50.6,23.1C36.7,23.8,24,31.5,17.1,43.6c-7,12.1-7.3,26.9-1,39.3"/>
<polygon class="st2" points="50.6,22.7 50.6,23.4 52.6,23 "/>
<polygon class="st3" points="50.6,22.7 50.6,23.4 52.6,23 "/>
<polygon class="st2" points="16.4,82.7 15.7,83.1 17,84.7 "/>
<polygon class="st3" points="16.4,82.7 15.7,83.1 17,84.7 "/>
<g>
	<path class="st4" d="M11.8,43.5l-0.2,0.8l-0.4-0.1l0.2-1.1l0.2-0.3l3.7,2.1L15,45.3L11.8,43.5z"/>
	<path class="st4" d="M15.4,44L15,42c-0.2-0.8-0.3-1.2-0.7-1.4c-0.4-0.2-0.9-0.1-1.1,0.3c-0.2,0.4-0.2,0.8,0.1,1.3l-0.4,0.2
		c-0.3-0.6-0.4-1.1,0-1.8c0.4-0.7,1.1-0.9,1.7-0.5c0.5,0.3,0.7,0.8,0.9,1.7l0.3,1.5l1.1-1.9l0.4,0.2l-1.5,2.5L15.4,44z"/>
	<path class="st4" d="M15.8,39.9c-1-0.6-1.5-1.7-1-2.6c0.5-0.9,1.7-1,2.8-0.4c1,0.6,1.5,1.7,1,2.6C18,40.4,16.8,40.5,15.8,39.9z
		 M17.3,37.3c-0.8-0.5-1.8-0.4-2.1,0.2c-0.4,0.7,0.1,1.5,0.9,2c0.8,0.5,1.8,0.4,2.2-0.2C18.5,38.6,18.1,37.7,17.3,37.3z"/>
	<path class="st4" d="M16.9,35.5c-0.4-0.2-0.6-0.8-0.3-1.3c0.2-0.4,0.8-0.6,1.3-0.4c0.4,0.2,0.6,0.8,0.3,1.3
		C17.9,35.6,17.3,35.8,16.9,35.5z M17.6,34.2c-0.3-0.2-0.6-0.1-0.8,0.2c-0.2,0.3,0,0.7,0.2,0.8c0.3,0.2,0.6,0.1,0.8-0.2
		C18,34.7,17.9,34.4,17.6,34.2z"/>
</g>
<line class="st1" x1="53.4" y1="15.2" x2="93" y2="15.2"/>
<line class="st1" x1="53.4" y1="35.7" x2="93" y2="35.7"/>
<line class="st1" x1="90.4" y1="17.3" x2="90.4" y2="33.7"/>
<polygon class="st2" points="90,17.3 90.7,17.3 90.4,15.2 "/>
<polygon class="st3" points="90,17.3 90.7,17.3 90.4,15.2 "/>
<polygon class="st2" points="90,33.7 90.7,33.7 90.4,35.7 "/>
<polygon class="st3" points="90,33.7 90.7,33.7 90.4,35.7 "/>
<g>
	<path class="st4" d="M87.9,28l-0.3-0.3c0.4-0.4,0.6-0.8,0.6-1.2c0-0.6-0.4-1-0.9-1c-0.5,0-0.9,0.4-0.9,1c0,0.4,0.1,0.6,0.2,0.9
		l-0.2,0.3l-2-0.1v-2.4h0.4v2l1.3,0.1c-0.1-0.2-0.2-0.5-0.2-0.8c0-0.8,0.5-1.5,1.3-1.5c0.8,0,1.4,0.6,1.4,1.5
		C88.6,27.1,88.3,27.7,87.9,28z"/>
	<path class="st4" d="M86.4,24.3c-1.2,0-2.2-0.7-2.2-1.8c0-1.1,1-1.8,2.2-1.8c1.2,0,2.2,0.7,2.2,1.8C88.6,23.6,87.6,24.3,86.4,24.3z
		 M86.4,21.3c-0.9,0-1.7,0.5-1.7,1.3c0,0.8,0.8,1.3,1.7,1.3c0.9,0,1.7-0.5,1.7-1.3C88.2,21.7,87.4,21.3,86.4,21.3z"/>
</g>
<line class="st1" x1="10.7" y1="89.3" x2="30.5" y2="123.7"/>
<line class="st1" x1="28.4" y1="79.1" x2="48.3" y2="113.5"/>
<line class="st1" x1="31" y1="120.4" x2="45.2" y2="112.2"/>
<polygon class="st2" points="30.9,120.1 31.2,120.7 29.2,121.5 "/>
<polygon class="st3" points="30.9,120.1 31.2,120.7 29.2,121.5 "/>
<polygon class="st2" points="45,111.9 45.4,112.5 47,111.2 "/>
<polygon class="st3" points="45,111.9 45.4,112.5 47,111.2 "/>
<g>
	<path class="st4" d="M33.3,115.7l0.1-0.5c0.5,0.1,1,0.1,1.3-0.1c0.5-0.3,0.7-0.8,0.4-1.3c-0.3-0.5-0.8-0.5-1.3-0.2
		c-0.3,0.2-0.5,0.4-0.6,0.6l-0.4,0l-0.9-1.8l2.1-1.2l0.2,0.4l-1.7,1l0.6,1.2c0.2-0.2,0.3-0.4,0.6-0.6c0.7-0.4,1.5-0.3,1.9,0.4
		c0.4,0.7,0.2,1.5-0.6,1.9C34.5,115.8,33.9,115.8,33.3,115.7z"/>
	<path class="st4" d="M35.8,112.5c-0.6-1-0.5-2.2,0.5-2.8c0.9-0.5,2,0,2.6,1c0.6,1,0.5,2.2-0.5,2.8C37.5,114,36.4,113.5,35.8,112.5z
		 M38.5,111c-0.5-0.8-1.3-1.3-2-0.9c-0.7,0.4-0.7,1.3-0.2,2.1c0.5,0.8,1.3,1.3,2,0.9C38.9,112.7,38.9,111.8,38.5,111z"/>
</g>
<line class="st1" x1="32.1" y1="14.4" x2="32.1" y2="4.4"/>
<line class="st1" x1="73.2" y1="14.4" x2="73.2" y2="4.4"/>
<line class="st1" x1="34.1" y1="7" x2="71.2" y2="7"/>
<polygon class="st2" points="34.1,6.7 34.1,7.3 32.1,7 "/>
<polygon class="st3" points="34.1,6.7 34.1,7.3 32.1,7 "/>
<polygon class="st2" points="71.2,6.7 71.2,7.3 73.2,7 "/>
<polygon class="st3" points="71.2,6.7 71.2,7.3 73.2,7 "/>
<path class="st4" d="M34.8,4.7c-0.3,0.3-0.6,0.4-1,0.4c-0.2,0-0.4,0-0.6-0.1l-0.4,0.8l-0.3-0.2l0.5-0.8c-0.2-0.1-0.3-0.3-0.4-0.5
	c-0.1-0.2-0.2-0.4-0.2-0.7c0-0.4,0.1-0.8,0.4-1.1c0.3-0.3,0.6-0.4,1-0.4c0.2,0,0.4,0,0.6,0.1l0.4-0.8l0.3,0.2l-0.5,0.8
	C34.8,2.6,35,2.8,35.1,3c0.1,0.2,0.2,0.4,0.2,0.7C35.3,4.1,35.1,4.5,34.8,4.7 M34.2,2.6c-0.1-0.1-0.3-0.1-0.4-0.1
	c-0.3,0-0.6,0.1-0.8,0.3c-0.2,0.2-0.3,0.5-0.3,0.8c0,0.4,0.1,0.7,0.4,0.9L34.2,2.6z M34.9,3.7c0-0.4-0.1-0.7-0.4-0.9l-1.1,2
	c0.1,0.1,0.3,0.1,0.4,0.1c0.3,0,0.6-0.1,0.8-0.3C34.8,4.3,34.9,4,34.9,3.7"/>
<g>
	<path class="st4" d="M36.5,1.4l-0.8,0.2l-0.1-0.4l1-0.4H37v4.2h-0.5V1.4z"/>
	<path class="st4" d="M38,3c0-1.2,0.7-2.2,1.8-2.2c1.1,0,1.8,1,1.8,2.2c0,1.2-0.7,2.2-1.8,2.2C38.7,5.2,38,4.2,38,3z M41,3
		c0-0.9-0.5-1.7-1.3-1.7c-0.8,0-1.3,0.8-1.3,1.7c0,0.9,0.5,1.7,1.3,1.7C40.5,4.7,41,3.9,41,3z"/>
	<path class="st4" d="M42.3,3c0-1.2,0.7-2.2,1.8-2.2c1.1,0,1.8,1,1.8,2.2c0,1.2-0.7,2.2-1.8,2.2C43,5.2,42.3,4.2,42.3,3z M45.3,3
		c0-0.9-0.5-1.7-1.3-1.7c-0.8,0-1.3,0.8-1.3,1.7c0,0.9,0.5,1.7,1.3,1.7C44.8,4.7,45.3,3.9,45.3,3z"/>
	<path class="st4" d="M46.5,5.6c0.3-0.1,0.4-0.2,0.4-0.5V5.1h-0.2V4.5h0.6V5c0,0.5-0.2,0.7-0.7,0.8L46.5,5.6z"/>
	<path class="st4" d="M48,4.4l0.3-0.3c0.3,0.4,0.7,0.6,1.2,0.6c0.5,0,0.9-0.3,0.9-0.8c0-0.5-0.5-0.8-1.2-0.8H49l-0.1-0.3l1.3-1.5
		h-2.1V0.9h2.7v0.3l-1.3,1.5c0.7,0.1,1.4,0.4,1.4,1.2c0,0.7-0.6,1.3-1.4,1.3C48.8,5.2,48.3,4.9,48,4.4z"/>
	<path class="st4" d="M53.5,3.4c0-1.1,0.6-2,1.7-2.6l0.2,0.3C54.5,1.7,54,2.4,54,3.4s0.5,1.7,1.4,2.3l-0.2,0.3
		C54.1,5.3,53.5,4.5,53.5,3.4z"/>
	<path class="st4" d="M56.3,2h1.5c0.6,0,1,0.3,1,0.8c0,0.4-0.3,0.6-0.5,0.7c0.4,0.1,0.7,0.3,0.7,0.8c0,0.5-0.4,0.8-1.1,0.8h-1.6V2z
		 M57.7,3.3c0.4,0,0.6-0.2,0.6-0.5c0-0.3-0.2-0.4-0.6-0.4h-1v0.9H57.7z M57.7,4.7c0.4,0,0.7-0.2,0.7-0.5c0-0.3-0.3-0.5-0.8-0.5h-1v1
		H57.7z"/>
	<path class="st4" d="M59.8,2h0.5v1.3H62V2h0.5v3.1H62V3.7h-1.8v1.4h-0.5V2z"/>
	<path class="st4" d="M63.3,5.9l0.2-0.4c0.1,0.1,0.3,0.1,0.5,0.1c0.3,0,0.4-0.1,0.6-0.6L63.2,2h0.5l1.1,2.6l1-2.6h0.5L65,5.2
		c-0.3,0.6-0.6,0.9-1,0.9C63.7,6.1,63.5,6,63.3,5.9z"/>
	<path class="st4" d="M67.8,2.4h-1.1V2h2.7v0.4h-1.1v2.7h-0.5V2.4z"/>
	<path class="st4" d="M70.1,2h0.5v0.6c0.3-0.4,0.6-0.7,1.2-0.7c0.7,0,1.5,0.6,1.5,1.6c0,1-0.7,1.6-1.5,1.6c-0.6,0-0.9-0.3-1.2-0.7
		v1.6h-0.5V2z M72.7,3.5c0-0.7-0.5-1.2-1.1-1.2c-0.6,0-1.1,0.5-1.1,1.2c0,0.7,0.5,1.2,1.1,1.2C72.2,4.8,72.7,4.3,72.7,3.5z"/>
	<path class="st4" d="M74,4.5h0.6v0.6H74V4.5z"/>
	<path class="st4" d="M75.3,5.6c0.9-0.6,1.4-1.3,1.4-2.3s-0.5-1.7-1.4-2.3l0.2-0.3c1.1,0.6,1.7,1.5,1.7,2.6c0,1.1-0.6,2-1.7,2.6
		L75.3,5.6z"/>
</g>
<rect x="16" y="99.2" class="st0" width="12.1" height="11.3"/>
<rect x="81.5" y="74.5" class="st5" width="36.7" height="34.5"/>
<polyline class="st5" points="118.2,74.6 118.2,81.2 118.2,83 "/>
<polyline class="st5" points="81.5,76.1 81.5,76.1 81.5,74.6 "/>
<line class="st5" x1="99" y1="74.6" x2="118.2" y2="74.6"/>
<polyline class="st5" points="81.5,74.6 83.7,74.6 84.3,74.6 86.5,74.6 88.1,74.6 89.5,74.6 90.1,74.6 90.4,74.6 90.7,74.6 
	92.3,74.6 94.9,74.6 99,74.6 "/>
<line class="st5" x1="95.6" y1="94.1" x2="84.3" y2="74.6"/>
<line class="st5" x1="95.1" y1="94.4" x2="83.7" y2="74.6"/>
<polyline class="st5" points="92.8,95.7 81.5,76.1 93.6,97.1 "/>
<polyline class="st5" points="118.2,81.2 106.6,87.8 103.5,89.6 103.3,89.8 103,89.9 102.8,90.1 102.6,90.4 102.4,90.6 102.3,90.9 
	102.1,91.2 102,91.4 101.5,93.3 101.4,93.6 101.2,93.8 101,94 100.8,94.2 100.5,94.3 100.2,94.4 99.9,94.4 99.6,94.4 97.7,93.9 
	97.2,93.8 96.6,93.8 96.1,93.9 95.6,94.1 95.1,94.4 92.8,95.7 93.6,97 95.9,95.8 96.1,95.6 96.4,95.5 96.7,95.4 97,95.4 97.3,95.4 
	99.2,95.9 99.5,96 99.8,96 100.1,96 100.4,96 100.7,95.9 101,95.8 101.3,95.7 101.5,95.6 101.8,95.4 102,95.2 102.3,95 102.5,94.8 
	102.6,94.6 102.8,94.3 102.9,94 103,93.8 103.6,91.9 103.7,91.6 103.8,91.4 104.1,91.1 104.3,91 107.4,89.2 118.2,83 "/>
<line class="st6" x1="117.8" y1="81.5" x2="118.2" y2="81.9"/>
<line class="st6" x1="116.8" y1="82" x2="118" y2="83.2"/>
<line class="st6" x1="115.9" y1="82.5" x2="117.1" y2="83.7"/>
<line class="st6" x1="114.9" y1="83.1" x2="116.1" y2="84.3"/>
<line class="st6" x1="114" y1="83.6" x2="115.2" y2="84.8"/>
<line class="st6" x1="113.1" y1="84.2" x2="114.2" y2="85.3"/>
<line class="st6" x1="112.1" y1="84.7" x2="113.3" y2="85.9"/>
<line class="st6" x1="111.1" y1="85.2" x2="112.3" y2="86.4"/>
<line class="st6" x1="110.2" y1="85.8" x2="111.4" y2="86.9"/>
<line class="st6" x1="109.3" y1="86.3" x2="110.4" y2="87.5"/>
<line class="st6" x1="108.3" y1="86.8" x2="109.5" y2="88"/>
<line class="st6" x1="107.4" y1="87.4" x2="108.5" y2="88.6"/>
<line class="st6" x1="106.4" y1="87.9" x2="107.6" y2="89.1"/>
<line class="st6" x1="105.5" y1="88.5" x2="106.6" y2="89.6"/>
<line class="st6" x1="104.5" y1="89" x2="105.7" y2="90.2"/>
<line class="st6" x1="103.6" y1="89.6" x2="104.7" y2="90.7"/>
<line class="st6" x1="102.7" y1="90.2" x2="103.9" y2="91.3"/>
<line class="st6" x1="102.1" y1="91.1" x2="103.4" y2="92.4"/>
<line class="st6" x1="101.8" y1="92.3" x2="103.1" y2="93.5"/>
<line class="st6" x1="101.4" y1="93.4" x2="102.6" y2="94.6"/>
<line class="st6" x1="100.8" y1="94.2" x2="101.9" y2="95.3"/>
<line class="st6" x1="99.4" y1="94.3" x2="101" y2="95.9"/>
<line class="st6" x1="97.5" y1="93.9" x2="99.6" y2="96"/>
<line class="st6" x1="96.1" y1="94" x2="97.7" y2="95.5"/>
<line class="st6" x1="95" y1="94.4" x2="96.2" y2="95.6"/>
<line class="st6" x1="94.1" y1="95" x2="95.3" y2="96.1"/>
<line class="st6" x1="93.2" y1="95.5" x2="94.3" y2="96.7"/>
<g>
	<path class="st7" d="M11.7,103.2h0.4l1.9,4.2h-0.5l-0.5-1.1h-2.3l-0.5,1.1H9.8L11.7,103.2z M12.9,105.9l-1-2.1l-1,2.1H12.9z"/>
</g>
<g>
	<path class="st7" d="M76.3,88.6h0.4l1.9,4.2h-0.5l-0.5-1.1h-2.3l-0.5,1.1h-0.5L76.3,88.6z M77.4,91.3l-1-2.1l-1,2.1H77.4z"/>
</g>
</svg>
