<?xml version="1.0" encoding="utf-8"?>
<!-- Generator: Adobe Illustrator 21.1.0, SVG Export Plug-In . SVG Version: 6.00 Build 0)  -->
<svg version="1.1" id="Слой_1" xmlns="http://www.w3.org/2000/svg" xmlns:xlink="http://www.w3.org/1999/xlink" x="0px" y="0px"
	 viewBox="0 0 148.3 70.5" style="enable-background:new 0 0 148.3 70.5;" xml:space="preserve">
<style type="text/css">
	.st0{fill:none;stroke:#262324;stroke-width:0.308;stroke-linecap:round;stroke-linejoin:round;stroke-miterlimit:10;}
	.st1{fill:none;stroke:#6D1A1B;stroke-width:0.264;stroke-linecap:round;stroke-linejoin:round;stroke-miterlimit:10;}
	.st2{fill:none;stroke:#6D1A1B;stroke-width:0.528;stroke-linecap:round;stroke-linejoin:round;stroke-miterlimit:10;}
	.st3{fill:#6D1A1B;}
	.st4{fill:none;stroke:#6D1A1B;stroke-width:0;stroke-linecap:round;stroke-miterlimit:10;}
	.st5{fill:none;stroke:#CA2628;stroke-width:0.15;stroke-linecap:round;stroke-linejoin:round;stroke-miterlimit:10;}
	.st6{fill:#CA2628;}
	.st7{fill:none;stroke:#CA2628;stroke-width:0.15;stroke-linecap:round;stroke-miterlimit:10;}
	.st8{fill:#44549E;}
	.st9{fill:none;stroke:#5676B6;stroke-width:0.176;stroke-linecap:round;stroke-linejoin:round;stroke-miterlimit:10;}
</style>
<polyline class="st0" points="13,39.3 13,39.3 12.8,39.5 "/>
<polyline class="st0" points="11.2,20.2 11.5,20.2 11.5,19.8 11.2,19.8 10.7,19.8 "/>
<polyline class="st0" points="4.6,28.9 4.3,28.4 4.5,28.3 4.8,28.7 "/>
<path class="st0" d="M10.1,19.6c0.2,0.2,0.4,0.2,0.7,0.2"/>
<path class="st0" d="M10.1,19.6c-1.9-1.6-4.6-1.5-6.5,0.1c-1.8,1.6-2.2,4.4-0.8,6.4"/>
<line class="st0" x1="4.3" y1="28.4" x2="2.8" y2="26.2"/>
<line class="st0" x1="3" y1="26" x2="4.5" y2="28.3"/>
<path class="st0" d="M9.9,19.9c-1.8-1.5-4.4-1.4-6.1,0.1c-1.7,1.5-2,4.1-0.8,6"/>
<path class="st0" d="M9.9,19.9c0.2,0.2,0.5,0.3,0.9,0.3"/>
<line class="st0" x1="11.2" y1="20.2" x2="10.7" y2="20.2"/>
<path class="st0" d="M14.5,38.3c0.1-0.1,0.1-0.2,0.1-0.3"/>
<path class="st0" d="M10.8,29.9c0.9,2.9,2.2,5.6,3.9,8.1"/>
<line class="st0" x1="5.4" y1="29" x2="9.8" y2="29.1"/>
<path class="st0" d="M10.8,29.9c-0.1-0.4-0.5-0.7-0.9-0.7"/>
<line class="st0" x1="14.6" y1="38.3" x2="12.5" y2="39.7"/>
<line class="st0" x1="13.5" y1="40.4" x2="14.3" y2="39.8"/>
<line class="st0" x1="14.1" y1="39.6" x2="13.3" y2="40.1"/>
<polyline class="st0" points="4.6,28.9 4.8,28.7 5,28.9 5.4,29 4.8,29 4.7,29 4.6,28.9 11.9,40.1 12.5,39.7 "/>
<path class="st0" d="M14.3,39.8c0.2-0.2,0.4-0.4,0.5-0.7c0.1-0.3,0-0.6-0.2-0.8"/>
<path class="st0" d="M12.2,39.8c0.2,0.4,0.7,0.5,1.1,0.2"/>
<path class="st0" d="M12,40c0.3,0.5,1,0.6,1.5,0.3"/>
<polyline class="st0" points="10.3,28.1 10.3,28.1 10.2,28 10.2,28 10.2,28 10.1,28 10.1,28 9.9,28.1 9.9,28.1 9.9,28.1 10,28.1 
	10,28.1 10,28.1 10.1,28.2 "/>
<polyline class="st0" points="77.1,23.6 77.2,23.5 77.3,23.5 77.1,23.4 77,23.5 76.9,23.6 "/>
<polyline class="st0" points="12.7,32.3 11,29.7 10.1,28.2 "/>
<polyline class="st0" points="10.3,28.1 11.2,29.6 12.9,32.2 12.7,32.3 "/>
<polyline class="st0" points="9.9,28.1 9.7,28.1 10.1,29.2 "/>
<path class="st0" d="M13,32.2c5.7,12.6,18.6,20.4,32.4,19.5c13.8-0.9,25.6-10.3,29.5-23.6"/>
<line class="st0" x1="77.4" y1="23.5" x2="77.3" y2="23.5"/>
<path class="st0" d="M12.8,32.3C18.5,45,31.5,52.8,45.4,51.9c13.9-0.9,25.7-10.4,29.7-23.8"/>
<path class="st0" d="M14.6,38.3c8.1,11.8,22.6,17.4,36.5,14.1C65,49.1,75.5,37.6,77.5,23.5"/>
<polyline class="st0" points="77.1,23.6 76.1,25.9 75,28.1 74.8,28.1 75.9,25.8 76.9,23.6 "/>
<polyline class="st0" points="8,29.1 8,29 7.9,29.1 "/>
<polyline class="st0" points="73.4,16.1 71.2,18.3 70.1,19.4 69.8,19.1 70.9,18.1 73.1,15.8 "/>
<line class="st0" x1="75.3" y1="16.3" x2="77.3" y2="21.6"/>
<line class="st0" x1="77.2" y1="22.3" x2="76.9" y2="21.6"/>
<path class="st0" d="M77.5,23.2c0-0.2,0-0.4,0.1-0.6"/>
<path class="st0" d="M77.2,23.2c0-0.2,0-0.4,0.1-0.6"/>
<line class="st0" x1="76.9" y1="21.6" x2="75.1" y2="16.5"/>
<line class="st0" x1="77.3" y1="21.6" x2="77.5" y2="22.2"/>
<line class="st0" x1="7.4" y1="28.5" x2="6.6" y2="29"/>
<line class="st0" x1="6.5" y1="28.7" x2="7.2" y2="28.3"/>
<polyline class="st0" points="77.4,23.5 77.4,23.4 77.5,23.2 "/>
<polyline class="st0" points="77.2,23.2 77.1,23.4 77.1,23.4 "/>
<polyline class="st0" points="8.7,29.1 8.4,28.7 8.7,28.6 8.8,28.6 "/>
<path class="st0" d="M75.4,16.3c-0.2-0.4-0.5-0.8-1-0.9c-0.4-0.1-0.9,0-1.2,0.4"/>
<path class="st0" d="M75.1,16.4c-0.1-0.3-0.4-0.6-0.7-0.7c-0.3-0.1-0.7,0-1,0.3"/>
<polyline class="st0" points="77.5,22.2 77.5,22.4 77.5,22.6 "/>
<line class="st0" x1="77.2" y1="22.6" x2="77.2" y2="22.3"/>
<polyline class="st0" points="15,39.7 15.2,39.6 15.5,39.6 "/>
<polyline class="st0" points="15.9,40.1 15.8,40 15.6,39.9 15.4,39.9 15.2,40 "/>
<line class="st0" x1="9.9" y1="44" x2="12.2" y2="42.3"/>
<line class="st0" x1="12" y1="41.9" x2="9.6" y2="43.7"/>
<line class="st0" x1="15.2" y1="40" x2="12.2" y2="42.3"/>
<line class="st0" x1="12" y1="41.9" x2="15" y2="39.7"/>
<path class="st0" d="M9.7,43.7c0.1,0.1,0.2,0.2,0.2,0.3"/>
<polyline class="st0" points="8.5,28.7 8.5,28.7 8.3,28.6 "/>
<path class="st0" d="M8.4,28.6c-0.3-0.2-0.6-0.3-0.9-0.1"/>
<path class="st0" d="M8.6,28.3C8.2,28,7.7,28,7.3,28.2"/>
<polyline class="st0" points="8.5,28.3 8.7,28.5 8.7,28.6 "/>
<path class="st0" d="M6.5,28.7c-0.1,0.1-0.2,0.1-0.3,0.2"/>
<line class="st0" x1="8.8" y1="26.5" x2="8.8" y2="24.4"/>
<path class="st0" d="M8,27.5c0.5-0.1,0.8-0.6,0.8-1"/>
<path class="st0" d="M11.1,22c-0.6-2.1-2.5-3.4-4.6-3.3"/>
<path class="st0" d="M3.7,20C2.3,21.5,2,23.7,3,25.5c1,1.8,3.1,2.6,5,2.1"/>
<line class="st0" x1="12.5" y1="27.2" x2="11.1" y2="22.1"/>
<path class="st0" d="M12.6,27.2c4.3,15.3,19.2,25.1,34.9,22.9c15.7-2.2,27.4-15.6,27.4-31.5"/>
<line class="st0" x1="8.8" y1="24.4" x2="8.5" y2="24.4"/>
<path class="st0" d="M12.3,27.3c4.3,15.4,19.4,25.3,35.2,23.1c15.9-2.2,27.7-15.7,27.7-31.8"/>
<line class="st0" x1="10.8" y1="22.1" x2="12.2" y2="27.3"/>
<path class="st0" d="M10.8,22.1c-0.6-2.2-2.9-3.5-5.1-2.9c-2.2,0.6-3.5,2.9-2.9,5.1c0.6,2.2,2.9,3.5,5.1,2.9"/>
<path class="st0" d="M7.9,27.2c0.3-0.1,0.6-0.4,0.6-0.7"/>
<line class="st0" x1="8.5" y1="24.4" x2="8.5" y2="26.5"/>
<line class="st0" x1="73.4" y1="16.2" x2="70.5" y2="19.1"/>
<path class="st0" d="M75.2,16.9c0-0.1,0-0.1,0-0.2"/>
<path class="st0" d="M75.1,16.4c-0.2-0.3-0.4-0.5-0.8-0.5c-0.3,0-0.6,0.1-0.9,0.3"/>
<line class="st0" x1="70.5" y1="19.1" x2="70.7" y2="19.3"/>
<path class="st0" d="M74.9,16.9c0-0.3-0.2-0.6-0.4-0.7c-0.3-0.1-0.6,0-0.8,0.2"/>
<line class="st0" x1="70.7" y1="19.3" x2="73.6" y2="16.4"/>
<line class="st0" x1="75.2" y1="18.7" x2="75.2" y2="16.9"/>
<line class="st0" x1="74.9" y1="16.9" x2="74.9" y2="18.7"/>
<polyline class="st0" points="9.7,28.1 8.5,28.7 8.7,29.1 "/>
<line class="st0" x1="76" y1="29.6" x2="76.4" y2="29.7"/>
<line class="st0" x1="69.8" y1="19.1" x2="69.5" y2="18.9"/>
<path class="st0" d="M76.4,29.7c0.8-2.3,1.3-4.6,1.6-7"/>
<polyline class="st0" points="75.7,16.2 77.7,21.5 77.9,22.1 77.9,22.4 77.9,22.7 "/>
<path class="st0" d="M75.8,16.2c-0.2-0.6-0.7-1-1.3-1.1c-0.6-0.1-1.2,0-1.6,0.5"/>
<line class="st0" x1="69.5" y1="18.9" x2="72.9" y2="15.6"/>
<line class="st0" x1="17.3" y1="41.7" x2="16.9" y2="41.9"/>
<path class="st0" d="M17,41.9c8.3,9.4,21,13.6,33.3,11c12.3-2.5,22.2-11.4,26.2-23.3"/>
<polyline class="st0" points="9,28.5 8.9,28.4 8.8,28.2 8.6,28.1 8.4,27.9 8.1,27.9 7.8,27.8 7.6,27.8 7.3,27.9 7.1,28 7,28.1 
	6.8,28.2 6.5,28.7 "/>
<polyline class="st0" points="12.2,42.6 12.4,42.4 15.4,40.2 15.5,40.1 15.7,40.2 16.7,41.4 16.8,41.6 16.9,41.7 16.9,41.7 
	16.8,41.5 "/>
<line class="st0" x1="17.1" y1="41.8" x2="16.9" y2="41.7"/>
<line class="st0" x1="12.2" y1="42.6" x2="11.4" y2="42.8"/>
<path class="st0" d="M13,39.3c0.2,0.3,0.7,0.4,1.1,0.2c0.3-0.2,0.4-0.7,0.2-1.1"/>
<path class="st0" d="M7.5,29c-0.3-0.2-0.6-0.2-0.9,0"/>
<line class="st0" x1="13" y1="39.3" x2="13" y2="39.3"/>
<line class="st1" x1="43.1" y1="0.3" x2="43.1" y2="4.3"/>
<line class="st1" x1="43.1" y1="4.8" x2="43.1" y2="5.9"/>
<line class="st1" x1="43.1" y1="6.4" x2="43.1" y2="10.5"/>
<line class="st1" x1="43.1" y1="11" x2="43.1" y2="12"/>
<line class="st1" x1="43.1" y1="12.5" x2="43.1" y2="16.6"/>
<line class="st1" x1="43.1" y1="17.1" x2="43.1" y2="18.1"/>
<line class="st1" x1="43.1" y1="18.6" x2="43.1" y2="22.7"/>
<line class="st1" x1="43.1" y1="23.2" x2="43.1" y2="24.3"/>
<line class="st1" x1="43.1" y1="24.7" x2="43.1" y2="28.8"/>
<line class="st1" x1="43.1" y1="29.4" x2="43.1" y2="30.4"/>
<line class="st1" x1="43.1" y1="30.9" x2="43.1" y2="34.9"/>
<line class="st1" x1="43.1" y1="35.5" x2="43.1" y2="36.5"/>
<line class="st1" x1="43.1" y1="37" x2="43.1" y2="41.1"/>
<line class="st1" x1="43.1" y1="41.6" x2="43.1" y2="42.6"/>
<line class="st1" x1="43.1" y1="43.1" x2="43.1" y2="47.2"/>
<line class="st1" x1="43.1" y1="47.7" x2="43.1" y2="48.7"/>
<line class="st1" x1="43.1" y1="49.2" x2="43.1" y2="53.3"/>
<line class="st1" x1="43.1" y1="53.8" x2="43.1" y2="54.8"/>
<line class="st1" x1="43.1" y1="55.4" x2="43.1" y2="59.4"/>
<line class="st2" x1="43.1" y1="0.3" x2="43.1" y2="4.3"/>
<line class="st2" x1="43.1" y1="55.4" x2="43.1" y2="59.4"/>
<line class="st1" x1="40.5" y1="2.3" x2="43.1" y2="2.3"/>
<polyline class="st1" points="40.5,2.8 43.1,2.3 40.5,1.8 40.5,2.8 "/>
<path class="st3" d="M40.5,1.8l2.6,0.5l-2.6,0.5V1.8z M40.5,2.8V1.8l2.6,0.5L40.5,2.8z"/>
<path class="st4" d="M40.5,1.8l2.6,0.5l-2.6,0.5V1.8z M40.5,2.8V1.8l2.6,0.5L40.5,2.8z"/>
<polyline class="st1" points="40.5,2.8 43.1,2.3 40.5,1.8 40.5,2.8 "/>
<line class="st1" x1="37.6" y1="2.3" x2="40.5" y2="2.3"/>
<line class="st1" x1="40.5" y1="57.4" x2="43.1" y2="57.4"/>
<polyline class="st1" points="40.5,57.9 43.1,57.4 40.5,56.9 40.5,57.9 "/>
<path class="st3" d="M40.5,56.9l2.6,0.5l-2.6,0.5V56.9z M40.5,57.9v-1.1l2.6,0.5L40.5,57.9z"/>
<path class="st4" d="M40.5,56.9l2.6,0.5l-2.6,0.5V56.9z M40.5,57.9v-1.1l2.6,0.5L40.5,57.9z"/>
<polyline class="st1" points="40.5,57.9 43.1,57.4 40.5,56.9 40.5,57.9 "/>
<line class="st1" x1="37.6" y1="57.4" x2="40.5" y2="57.4"/>
<line class="st0" x1="124.5" y1="53" x2="113.2" y2="53"/>
<polyline class="st0" points="113,52.9 111.8,51.7 111.6,51.9 "/>
<path class="st0" d="M113,52.9c0,0,0.1,0.1,0.2,0.1"/>
<line class="st0" x1="113.2" y1="53.3" x2="124.5" y2="53.3"/>
<line class="st0" x1="111.6" y1="51.9" x2="112.8" y2="53.1"/>
<path class="st0" d="M112.8,53.1c0.1,0.1,0.2,0.2,0.4,0.2"/>
<line class="st0" x1="124.5" y1="53.3" x2="124.5" y2="53"/>
<rect x="126.6" y="53" class="st0" width="6.2" height="0.3"/>
<line class="st0" x1="134.9" y1="53" x2="134.9" y2="53.3"/>
<path class="st0" d="M146.3,52.9c0.1,0,0.1,0,0.2-0.1"/>
<line class="st0" x1="146.3" y1="53" x2="134.9" y2="53"/>
<line class="st0" x1="134.9" y1="53.3" x2="146.3" y2="53.3"/>
<path class="st0" d="M146.3,53.3c0.1,0,0.3-0.1,0.4-0.2"/>
<polyline class="st0" points="146.7,53.1 147.8,51.9 147.6,51.7 146.4,52.9 "/>
<polyline class="st0" points="124.5,22.3 124.5,21.6 124.5,19.4 124.5,19.1 124.5,15.8 "/>
<line class="st0" x1="124.5" y1="53" x2="124.5" y2="22.6"/>
<line class="st0" x1="126.6" y1="22.6" x2="126.6" y2="53"/>
<line class="st0" x1="132.8" y1="53" x2="132.8" y2="22.6"/>
<line class="st0" x1="132.8" y1="19.4" x2="132.8" y2="19.1"/>
<line class="st0" x1="126.6" y1="21.6" x2="126.6" y2="22.3"/>
<line class="st0" x1="132.8" y1="22.3" x2="132.8" y2="21.6"/>
<line class="st0" x1="126.6" y1="19.4" x2="126.6" y2="21.6"/>
<line class="st0" x1="132.8" y1="21.6" x2="132.8" y2="19.4"/>
<line class="st0" x1="126.6" y1="19.1" x2="126.6" y2="19.4"/>
<line class="st0" x1="132.8" y1="19.1" x2="132.8" y2="15.8"/>
<line class="st0" x1="126.6" y1="15.8" x2="126.6" y2="19.1"/>
<polyline class="st0" points="134.9,15.8 134.9,19.1 134.9,19.4 "/>
<line class="st0" x1="134.9" y1="22.6" x2="134.9" y2="53"/>
<polyline class="st0" points="134.9,19.4 134.9,21.6 134.9,22.3 "/>
<polyline class="st0" points="119.9,15.8 119.9,19.1 119.9,19.4 "/>
<polyline class="st0" points="117.8,19.4 117.8,19.1 117.8,15.8 "/>
<polyline class="st0" points="119.9,22.6 119.9,29.5 119.8,29.8 119.6,30.1 119.2,30.4 118.8,30.5 118.4,30.4 118.1,30.1 
	117.9,29.8 117.8,29.5 117.8,22.6 "/>
<line class="st0" x1="119.9" y1="19.4" x2="119.9" y2="21.6"/>
<polyline class="st0" points="117.8,22.3 117.8,21.6 117.8,19.4 "/>
<line class="st0" x1="119.9" y1="21.6" x2="119.9" y2="22.3"/>
<polyline class="st0" points="139.5,19.4 139.5,19.1 139.5,15.8 "/>
<polyline class="st0" points="141.6,15.8 141.6,19.1 141.6,19.4 "/>
<polyline class="st0" points="141.6,22.6 141.6,29.5 141.5,29.8 141.3,30.1 141,30.4 140.6,30.5 140.2,30.4 139.8,30.1 139.6,29.8 
	139.5,29.5 139.5,22.6 "/>
<polyline class="st0" points="139.5,22.3 139.5,21.6 139.5,19.4 "/>
<polyline class="st0" points="141.6,19.4 141.6,21.6 141.6,22.3 "/>
<polyline class="st0" points="123,17.7 123,17.6 122.9,17.5 122.8,17.4 122.8,17.3 122.7,17.3 122.5,17.2 122.4,17.2 122.2,17.2 
	122.1,17.2 122,17.2 121.8,17.2 121.7,17.3 121.6,17.4 121.5,17.5 121.5,17.6 121.4,17.6 121.4,17.7 121.5,17.9 121.5,18 121.6,18 
	121.7,18.1 121.8,18.2 122,18.2 122.1,18.3 122.2,18.3 122.4,18.2 122.5,18.2 122.7,18.1 122.8,18.1 122.8,18 122.9,17.9 123,17.8 
	123,17.7 "/>
<polyline class="st0" points="123,17.8 122.9,17.7 122.8,17.6 122.8,17.5 122.6,17.5 122.5,17.4 122.4,17.4 122.2,17.4 122,17.4 
	121.9,17.4 121.8,17.5 121.7,17.5 121.6,17.6 121.5,17.7 121.4,17.8 "/>
<polyline class="st0" points="138,17.7 137.9,17.6 137.9,17.5 137.8,17.4 137.8,17.3 137.6,17.3 137.5,17.2 137.4,17.2 137.2,17.2 
	137.1,17.2 136.9,17.2 136.8,17.2 136.7,17.3 136.6,17.4 136.5,17.5 136.4,17.6 136.4,17.6 136.4,17.7 136.4,17.9 136.5,18 
	136.6,18 136.7,18.1 136.8,18.2 136.9,18.2 137.1,18.3 137.2,18.3 137.4,18.2 137.5,18.2 137.6,18.1 137.8,18.1 137.8,18 
	137.9,17.9 137.9,17.8 138,17.7 "/>
<polyline class="st0" points="137.9,17.8 137.9,17.7 137.8,17.6 137.8,17.5 137.6,17.5 137.5,17.4 137.4,17.4 137.2,17.4 
	137.1,17.4 136.9,17.4 136.7,17.5 136.7,17.5 136.6,17.6 136.5,17.7 136.4,17.8 "/>
<line class="st0" x1="124.5" y1="19.1" x2="119.9" y2="19.1"/>
<line class="st0" x1="124.5" y1="19.4" x2="119.9" y2="19.4"/>
<line class="st0" x1="117.8" y1="19.1" x2="115.6" y2="19.1"/>
<line class="st0" x1="117.8" y1="19.4" x2="115.6" y2="19.4"/>
<line class="st0" x1="132.8" y1="19.4" x2="130.6" y2="19.4"/>
<line class="st0" x1="132.8" y1="19.1" x2="130.6" y2="19.1"/>
<line class="st0" x1="128.8" y1="19.4" x2="126.6" y2="19.4"/>
<line class="st0" x1="128.8" y1="19.1" x2="126.6" y2="19.1"/>
<line class="st0" x1="139.5" y1="19.1" x2="134.9" y2="19.1"/>
<line class="st0" x1="139.5" y1="19.4" x2="134.9" y2="19.4"/>
<line class="st0" x1="143.8" y1="19.1" x2="141.6" y2="19.1"/>
<line class="st0" x1="143.8" y1="19.4" x2="141.6" y2="19.4"/>
<polyline class="st0" points="115.6,19.4 115.3,19.4 115,19.3 114.7,19.2 114.5,19.1 114.3,18.9 114.2,18.7 114.1,18.5 114,18.3 
	114,18.1 114.1,18.3 114.2,18.4 114.3,18.6 114.4,18.8 114.6,18.9 114.8,19 115.1,19.1 115.4,19.1 115.6,19.1 "/>
<polyline class="st0" points="143.8,19.1 144.1,19.1 144.4,19.1 144.7,19 144.9,18.8 145.1,18.7 145.2,18.5 145.3,18.3 145.3,18.1 
	"/>
<polyline class="st0" points="143.8,19.4 144.1,19.4 144.4,19.3 144.7,19.2 144.9,19.1 145.1,18.9 145.2,18.7 145.3,18.5 
	145.3,18.3 145.3,18.1 "/>
<line class="st0" x1="114" y1="15.8" x2="114" y2="18.1"/>
<line class="st0" x1="113.8" y1="23.4" x2="113.2" y2="23.4"/>
<line class="st0" x1="114" y1="22.6" x2="114" y2="23.2"/>
<polyline class="st0" points="114,18.3 114,21.6 114,22.3 "/>
<line class="st0" x1="145.3" y1="18.1" x2="145.3" y2="15.8"/>
<line class="st0" x1="145.3" y1="23.2" x2="145.3" y2="22.6"/>
<polyline class="st0" points="145.3,22.3 145.3,21.6 145.3,18.3 "/>
<line class="st0" x1="146.3" y1="23.4" x2="145.6" y2="23.4"/>
<polyline class="st0" points="113,23.4 113.1,23.4 113.1,23.4 113.2,23.4 "/>
<line class="st0" x1="111.8" y1="51.7" x2="111.8" y2="28.1"/>
<line class="st0" x1="111.6" y1="51.9" x2="111.6" y2="28.1"/>
<polyline class="st0" points="113.8,23.4 114,23.4 114,23.2 "/>
<polyline class="st0" points="145.3,23.2 145.4,23.4 145.6,23.4 "/>
<line class="st0" x1="114" y1="22.3" x2="114" y2="22.6"/>
<line class="st0" x1="117.8" y1="22.6" x2="117.8" y2="22.3"/>
<line class="st0" x1="124.5" y1="22.6" x2="124.5" y2="22.3"/>
<line class="st0" x1="119.9" y1="22.3" x2="119.9" y2="22.6"/>
<line class="st0" x1="126.6" y1="22.3" x2="126.6" y2="22.6"/>
<line class="st0" x1="132.8" y1="22.6" x2="132.8" y2="22.3"/>
<line class="st0" x1="134.9" y1="22.3" x2="134.9" y2="22.6"/>
<line class="st0" x1="139.5" y1="22.6" x2="139.5" y2="22.3"/>
<line class="st0" x1="141.6" y1="22.3" x2="141.6" y2="22.6"/>
<line class="st0" x1="145.3" y1="22.6" x2="145.3" y2="22.3"/>
<line class="st0" x1="117.8" y1="15.4" x2="117.8" y2="15.8"/>
<line class="st0" x1="114" y1="15.8" x2="114" y2="15.4"/>
<line class="st0" x1="124.5" y1="15.4" x2="124.5" y2="15.8"/>
<line class="st0" x1="119.9" y1="15.8" x2="119.9" y2="15.4"/>
<line class="st0" x1="132.8" y1="15.4" x2="132.8" y2="15.8"/>
<line class="st0" x1="126.6" y1="15.8" x2="126.6" y2="15.4"/>
<line class="st0" x1="134.9" y1="15.8" x2="134.9" y2="15.4"/>
<line class="st0" x1="139.5" y1="15.4" x2="139.5" y2="15.8"/>
<line class="st0" x1="141.6" y1="15.8" x2="141.6" y2="15.4"/>
<line class="st0" x1="145.3" y1="15.4" x2="145.3" y2="15.8"/>
<line class="st0" x1="114" y1="15.4" x2="117.8" y2="15.4"/>
<line class="st0" x1="119.9" y1="15.4" x2="124.5" y2="15.4"/>
<line class="st0" x1="126.6" y1="15.4" x2="132.8" y2="15.4"/>
<line class="st0" x1="134.9" y1="15.4" x2="139.5" y2="15.4"/>
<line class="st0" x1="141.6" y1="15.4" x2="145.3" y2="15.4"/>
<polyline class="st0" points="113,23.4 113,23.5 112.9,23.5 112.8,23.6 112.3,25.8 111.8,28.1 111.6,28.1 112.1,25.9 112.6,23.6 "/>
<polyline class="st0" points="112.6,23.6 112.7,23.5 112.8,23.5 "/>
<line class="st0" x1="146.3" y1="23.4" x2="146.4" y2="23.5"/>
<line class="st0" x1="146.7" y1="23.5" x2="146.6" y2="23.5"/>
<polyline class="st0" points="146.4,23.5 146.5,23.5 146.5,23.6 "/>
<polyline class="st0" points="146.7,23.6 146.7,23.5 146.7,23.5 "/>
<line class="st0" x1="112.8" y1="23.5" x2="113" y2="23.4"/>
<line class="st0" x1="146.4" y1="23.4" x2="146.6" y2="23.5"/>
<polyline class="st0" points="129.8,18.5 129.7,18.5 129.7,18.5 129.7,18.5 129.6,18.5 "/>
<polyline class="st0" points="129.8,18.3 129.7,18.3 129.7,18.3 129.7,18.3 129.6,18.3 "/>
<line class="st0" x1="130.4" y1="19.3" x2="129.8" y2="18.5"/>
<line class="st0" x1="129.8" y1="18.3" x2="130.4" y2="19.1"/>
<line class="st0" x1="129.6" y1="18.5" x2="129" y2="19.3"/>
<line class="st0" x1="129" y1="19.1" x2="129.6" y2="18.3"/>
<polyline class="st0" points="130.4,19.3 130.4,19.3 130.5,19.3 130.5,19.4 130.5,19.4 130.6,19.4 130.6,19.4 "/>
<polyline class="st0" points="130.4,19.1 130.4,19.1 130.5,19.1 130.5,19.1 130.5,19.1 130.6,19.1 130.6,19.1 "/>
<polyline class="st0" points="128.8,19.4 128.8,19.4 128.9,19.4 128.9,19.4 129,19.3 129,19.3 "/>
<polyline class="st0" points="128.8,19.1 128.8,19.1 128.9,19.1 128.9,19.1 129,19.1 129,19.1 "/>
<polyline class="st0" points="146.5,23.6 147.1,25.8 147.6,28.1 147.8,28.1 147.3,25.9 146.7,23.6 "/>
<polyline class="st0" points="146.3,23.4 146.3,23.4 146.3,23.4 "/>
<line class="st0" x1="147.8" y1="51.9" x2="147.8" y2="28.1"/>
<line class="st0" x1="147.6" y1="51.7" x2="147.6" y2="28.1"/>
<polyline class="st0" points="139.5,29.6 139.7,29.6 140,29.7 140.3,29.7 140.6,29.7 140.8,29.7 141.1,29.7 141.4,29.6 141.6,29.6 
	"/>
<line class="st0" x1="139.5" y1="15.4" x2="139.5" y2="15.8"/>
<line class="st0" x1="141.6" y1="15.4" x2="141.6" y2="15.8"/>
<polyline class="st0" points="141.6,15.8 141.6,19.1 141.4,19.1 141.1,19 140.8,18.9 140.6,18.9 140.3,18.9 140,19 139.7,19.1 
	139.5,19.1 139.5,15.8 "/>
<path class="st0" d="M141.6,15.4c-0.6-0.5-1.5-0.5-2.1,0"/>
<path class="st0" d="M132.8,53.3c0.6,0.5,1.5,0.5,2.1,0"/>
<line class="st0" x1="132.8" y1="15.4" x2="132.8" y2="15.8"/>
<line class="st0" x1="134.9" y1="15.4" x2="134.9" y2="15.8"/>
<polyline class="st0" points="134.9,15.8 134.9,19.1 134.6,19.1 134.4,19 134.1,18.9 133.8,18.9 133.5,18.9 133.3,19 133,19.1 
	132.8,19.1 132.8,15.8 "/>
<path class="st0" d="M134.9,15.4c-0.6-0.5-1.5-0.5-2.1,0"/>
<polyline class="st0" points="117.8,29.6 118,29.6 118.3,29.7 118.6,29.7 118.8,29.7 119.1,29.7 119.4,29.7 119.6,29.6 119.9,29.6 
	"/>
<line class="st0" x1="117.8" y1="15.4" x2="117.8" y2="15.8"/>
<line class="st0" x1="119.9" y1="15.4" x2="119.9" y2="15.8"/>
<polyline class="st0" points="119.9,15.8 119.9,19.1 119.6,19.1 119.4,19 119.1,18.9 118.8,18.9 118.6,18.9 118.3,19 118,19.1 
	117.8,19.1 117.8,15.8 "/>
<path class="st0" d="M119.9,15.4c-0.6-0.5-1.5-0.5-2.1,0"/>
<path class="st0" d="M124.5,53.3c0.6,0.5,1.5,0.5,2.1,0"/>
<line class="st0" x1="124.5" y1="15.4" x2="124.5" y2="15.8"/>
<line class="st0" x1="126.6" y1="15.4" x2="126.6" y2="15.8"/>
<polyline class="st0" points="126.6,15.8 126.6,19.1 126.4,19.1 126.1,19 125.8,18.9 125.6,18.9 125.3,18.9 125,19 124.8,19.1 
	124.5,19.1 124.5,15.8 "/>
<path class="st0" d="M126.6,15.4c-0.6-0.5-1.5-0.5-2.1,0"/>
<line class="st5" x1="113.2" y1="54" x2="113.2" y2="70.4"/>
<line class="st5" x1="146.3" y1="54" x2="146.3" y2="70.4"/>
<line class="st5" x1="117.5" y1="67.1" x2="145.4" y2="67.1"/>
<polygon class="st6" points="115.8,66.7 115.8,67.5 113.2,67.1 "/>
<polygon class="st7" points="115.8,66.7 115.8,67.5 113.2,67.1 "/>
<polygon class="st6" points="143.7,66.7 143.7,67.5 146.3,67.1 "/>
<polygon class="st7" points="143.7,66.7 143.7,67.5 146.3,67.1 "/>
<g>
	<path class="st8" d="M126.6,62.8c0-1.3,0.6-2.3,1.7-2.3c0.5,0,0.9,0.2,1.2,0.5l-0.3,0.4c-0.3-0.3-0.6-0.4-1-0.4
		c-0.8,0-1.2,0.8-1.2,1.8v0c0.2-0.3,0.6-0.6,1.2-0.6c0.8,0,1.5,0.5,1.5,1.3c0,0.8-0.7,1.4-1.5,1.4C127.3,64.9,126.6,64.3,126.6,62.8
		z M129.3,63.5c0-0.5-0.4-0.9-1-0.9c-0.6,0-1,0.5-1,0.9c0,0.5,0.4,0.9,1.1,0.9C128.9,64.4,129.3,64,129.3,63.5z"/>
	<path class="st8" d="M132.7,63.8h-2.2l-0.1-0.3l2.4-2.9h0.4v2.8h0.7v0.4h-0.7v1h-0.5V63.8z M132.7,63.4v-2.2l-1.8,2.2H132.7z"/>
</g>
<line class="st5" x1="110.8" y1="51.7" x2="102.4" y2="51.7"/>
<line class="st5" x1="112.1" y1="53.3" x2="102.4" y2="53.3"/>
<line class="st5" x1="105.7" y1="49.2" x2="105.7" y2="46.6"/>
<polyline class="st5" points="105.7,55.9 105.7,58.4 105.7,61.6 91.6,61.6 "/>
<g>
	<path class="st8" d="M99,59.3l0.3-0.3c0.3,0.4,0.7,0.6,1.2,0.6c0.5,0,0.9-0.3,0.9-0.8c0-0.5-0.5-0.8-1.2-0.8H100l-0.1-0.3l1.3-1.5
		h-2.1v-0.4h2.7v0.3l-1.3,1.5c0.7,0.1,1.4,0.4,1.4,1.2c0,0.8-0.6,1.3-1.4,1.3C99.8,60.1,99.3,59.8,99,59.3z"/>
</g>
<line class="st5" x1="105.7" y1="51.7" x2="105.7" y2="53.3"/>
<polygon class="st6" points="105.3,49.2 106.2,49.2 105.7,51.7 "/>
<polygon class="st7" points="105.3,49.2 106.2,49.2 105.7,51.7 "/>
<polygon class="st6" points="105.3,55.9 106.2,55.9 105.7,53.3 "/>
<polygon class="st7" points="105.3,55.9 106.2,55.9 105.7,53.3 "/>
<line class="st5" x1="111.9" y1="51.8" x2="98.4" y2="38.3"/>
<line class="st5" x1="111.3" y1="53.3" x2="92.2" y2="53.3"/>
<path class="st5" d="M104.9,37.5c-0.8,0.4-1.5,0.9-2.2,1.4"/>
<path class="st5" d="M95.7,55.9c0.1,0.9,0.3,1.7,0.6,2.5"/>
<path class="st5" d="M100.7,40.6c-3.4,3.4-5.2,7.9-5.2,12.7"/>
<polygon class="st6" points="102.9,39.3 102.4,38.6 100.7,40.6 "/>
<polygon class="st7" points="102.9,39.3 102.4,38.6 100.7,40.6 "/>
<polygon class="st6" points="95.2,55.9 96.1,55.9 95.5,53.3 "/>
<polygon class="st7" points="95.2,55.9 96.1,55.9 95.5,53.3 "/>
<g>
	<path class="st8" d="M92.7,49.8c-0.4-0.3-0.5-0.5-0.4-0.8c0.1-0.2,0.5-0.5,0.5-0.6c0.1-0.1,0-0.2-0.2-0.4l0.2-0.2
		c0.4,0.3,0.5,0.5,0.4,0.8c-0.1,0.3-0.5,0.5-0.5,0.6c-0.1,0.1,0,0.2,0.2,0.4L92.7,49.8z"/>
	<path class="st8" d="M95.1,45.3l-0.8,2l-0.4,0l-1.8-3.3l0.2-0.4l2.6,1.1l0.2-0.6l0.4,0.2l-0.3,0.6l0.9,0.4L96,45.7L95.1,45.3z
		 M94.8,45.2l-2-0.8l1.3,2.5L94.8,45.2z"/>
	<path class="st8" d="M96.2,43.9L96,43.5c0.5-0.2,0.8-0.5,1-0.9c0.2-0.6,0-1.1-0.5-1.3c-0.5-0.2-1,0.1-1.2,0.6
		c-0.1,0.3-0.1,0.6-0.1,0.9L94.8,43L93,42.1l0.9-2.2l0.4,0.2l-0.8,1.9l1.2,0.6c0-0.3,0-0.5,0.1-0.8c0.3-0.8,1-1.2,1.8-0.8
		c0.8,0.3,1,1.1,0.7,1.9C97.1,43.3,96.7,43.7,96.2,43.9z"/>
	<path class="st8" d="M95.1,39.3c-0.5-0.2-0.7-0.8-0.5-1.2c0.2-0.5,0.7-0.7,1.2-0.5c0.5,0.2,0.7,0.8,0.5,1.2
		C96.1,39.3,95.5,39.5,95.1,39.3z M95.7,37.9c-0.3-0.1-0.7,0-0.8,0.3c-0.1,0.3,0,0.7,0.3,0.8c0.3,0.1,0.7,0,0.8-0.3
		C96.1,38.4,96,38,95.7,37.9z"/>
</g>
<line class="st5" x1="111.6" y1="27.1" x2="111.6" y2="7.2"/>
<line class="st5" x1="147.8" y1="27.1" x2="147.8" y2="7.2"/>
<line class="st5" x1="114.2" y1="10.5" x2="145.2" y2="10.5"/>
<polygon class="st6" points="114.2,10.1 114.2,10.9 111.6,10.5 "/>
<polygon class="st7" points="114.2,10.1 114.2,10.9 111.6,10.5 "/>
<polygon class="st6" points="145.2,10.1 145.2,10.9 147.8,10.5 "/>
<polygon class="st7" points="145.2,10.1 145.2,10.9 147.8,10.5 "/>
<g>
	<path class="st8" d="M128,5.7h-2.3V5.3h2.8v0.4l-1.9,3.8h-0.5L128,5.7z"/>
	<path class="st8" d="M129.2,7.4c0-1.2,0.7-2.2,1.8-2.2c1.1,0,1.8,1,1.8,2.2c0,1.2-0.7,2.2-1.8,2.2C129.9,9.5,129.2,8.6,129.2,7.4z
		 M132.3,7.4c0-0.9-0.5-1.7-1.3-1.7c-0.8,0-1.3,0.8-1.3,1.7c0,0.9,0.5,1.7,1.3,1.7C131.8,9.1,132.3,8.3,132.3,7.4z"/>
</g>
<line class="st9" x1="12" y1="23.2" x2="9.2" y2="23.2"/>
<line class="st9" x1="8.8" y1="23.2" x2="8" y2="23.2"/>
<line class="st9" x1="7.6" y1="23.2" x2="4.5" y2="23.2"/>
<line class="st9" x1="4.1" y1="23.2" x2="3.3" y2="23.2"/>
<line class="st9" x1="2.9" y1="23.2" x2="0.1" y2="23.2"/>
<line class="st9" x1="6.8" y1="16.5" x2="6.8" y2="21.8"/>
<line class="st9" x1="6.8" y1="22.5" x2="6.8" y2="24"/>
<line class="st9" x1="6.8" y1="24.7" x2="6.8" y2="30"/>
<line class="st5" x1="72.7" y1="16.9" x2="58.2" y2="31.4"/>
<line class="st5" x1="75.2" y1="19.7" x2="75.2" y2="38.4"/>
<path class="st5" d="M57.4,25c0.4,0.7,0.9,1.5,1.5,2.1"/>
<path class="st5" d="M77.8,35c0.9-0.1,1.7-0.3,2.5-0.5"/>
<path class="st5" d="M60.5,29c3.9,3.9,9.2,6.1,14.7,6.1"/>
<polygon class="st6" points="59.1,26.8 58.5,27.4 60.5,29 "/>
<polygon class="st7" points="59.1,26.8 58.5,27.4 60.5,29 "/>
<polygon class="st6" points="77.8,35.4 77.7,34.5 75.2,35.1 "/>
<polygon class="st7" points="77.8,35.4 77.7,34.5 75.2,35.1 "/>
<g>
	<path class="st8" d="M56.9,14.5c0.5,0,0.7,0.1,0.8,0.3c0.1,0.2,0,0.6,0,0.8c0.1,0.1,0.1,0.2,0.4,0.2l0,0.3c-0.5,0-0.7-0.1-0.8-0.3
		c-0.1-0.3,0-0.6,0-0.8c-0.1-0.1-0.1-0.2-0.4-0.2L56.9,14.5z"/>
	<path class="st8" d="M58.1,19.3l-0.7-2.1l0.3-0.2l3.5,1.3l0.1,0.4l-2.7,0.9l0.2,0.6l-0.4,0.1l-0.2-0.6l-0.9,0.3l-0.1-0.4L58.1,19.3
		z M58.4,19.2l2-0.7l-2.6-1L58.4,19.2z"/>
	<path class="st8" d="M58.2,21.1l0.4,0.2c-0.2,0.5-0.3,0.9-0.2,1.3c0.2,0.6,0.7,0.8,1.2,0.6c0.5-0.2,0.7-0.7,0.5-1.3
		c-0.1-0.3-0.3-0.6-0.5-0.8l0.1-0.4l2-0.6l0.8,2.3l-0.4,0.1l-0.7-1.9l-1.3,0.4c0.2,0.2,0.3,0.4,0.4,0.7c0.3,0.8,0,1.5-0.7,1.8
		c-0.8,0.3-1.5-0.1-1.8-1C57.9,22.2,58,21.6,58.2,21.1z"/>
	<path class="st8" d="M62.1,23.8c0.5-0.2,1,0.1,1.2,0.6c0.2,0.5-0.1,1-0.6,1.2c-0.5,0.2-1-0.1-1.2-0.6C61.3,24.5,61.6,24,62.1,23.8z
		 M62.6,25.2c0.3-0.1,0.5-0.4,0.4-0.8c-0.1-0.3-0.5-0.5-0.8-0.4c-0.3,0.1-0.5,0.4-0.4,0.8C61.9,25.2,62.3,25.4,62.6,25.2z"/>
</g>
<path class="st0" d="M54.5,15.2c0.2,5.2,2.4,10.2,6.1,13.9"/>
</svg>
