<?xml version="1.0" encoding="utf-8"?>
<!-- Generator: Adobe Illustrator 21.1.0, SVG Export Plug-In . SVG Version: 6.00 Build 0)  -->
<svg version="1.1" id="Слой_1" xmlns="http://www.w3.org/2000/svg" xmlns:xlink="http://www.w3.org/1999/xlink" x="0px" y="0px"
	 viewBox="0 0 141 156.7" style="enable-background:new 0 0 141 156.7;" xml:space="preserve">
<style type="text/css">
	.st0{fill:#43539F;}
	.st1{fill:none;stroke:#262424;stroke-width:0.284;stroke-linecap:round;stroke-linejoin:round;stroke-miterlimit:10;}
	.st2{fill:none;stroke:#262424;stroke-width:8.100000e-02;stroke-linecap:round;stroke-linejoin:round;stroke-miterlimit:10;}
	.st3{fill:#040706;}
	.st4{fill:none;stroke:#262424;stroke-width:0;stroke-linecap:round;stroke-miterlimit:10;}
	.st5{fill:none;stroke:#262424;stroke-width:0.162;stroke-linecap:round;stroke-linejoin:round;stroke-miterlimit:10;}
</style>
<path class="st0" d="M18.2,4.7c-0.3,0.2-0.7,0.3-1.1,0.2c-0.2-0.1-0.4-0.1-0.5-0.3l-0.6,0.7L15.7,5l0.6-0.7
	c-0.1-0.2-0.2-0.4-0.3-0.6c0-0.2,0-0.5,0-0.7c0.1-0.4,0.3-0.7,0.7-0.9c0.3-0.2,0.7-0.3,1.1-0.2c0.2,0.1,0.4,0.1,0.5,0.3L19,1.6
	l0.2,0.2l-0.6,0.7c0.1,0.2,0.2,0.4,0.3,0.6c0,0.2,0,0.5,0,0.7C18.8,4.2,18.6,4.5,18.2,4.7 M18.6,3.7c0.1-0.4,0-0.7-0.2-1l-1.6,1.6
	c0.1,0.1,0.2,0.2,0.4,0.2c0.3,0.1,0.6,0,0.9-0.1C18.3,4.3,18.5,4,18.6,3.7 M18.2,2.5c-0.1-0.1-0.2-0.2-0.4-0.2
	c-0.3-0.1-0.6,0-0.9,0.1c-0.3,0.2-0.4,0.4-0.5,0.7c-0.1,0.4,0,0.7,0.2,1L18.2,2.5z"/>
<g>
	<path class="st0" d="M21.9,1.4l-0.8,0.2L21,1.2l1-0.4h0.3v4.2h-0.5V1.4z"/>
	<path class="st0" d="M23.3,3c0-1.2,0.7-2.2,1.8-2.2c1.1,0,1.8,1,1.8,2.2c0,1.2-0.7,2.2-1.8,2.2C24,5.2,23.3,4.2,23.3,3z M26.4,3
		c0-0.9-0.5-1.7-1.3-1.7c-0.8,0-1.3,0.8-1.3,1.7c0,0.9,0.5,1.7,1.3,1.7C25.9,4.7,26.4,3.9,26.4,3z"/>
	<path class="st0" d="M28.3,1.4l-0.8,0.2l-0.1-0.4l1-0.4h0.3v4.2h-0.5V1.4z"/>
</g>
<path class="st0" d="M18.2,13.2c-0.3,0.2-0.7,0.3-1.1,0.2c-0.2-0.1-0.4-0.1-0.5-0.3l-0.6,0.7l-0.2-0.2l0.6-0.7
	c-0.1-0.2-0.2-0.4-0.3-0.6c0-0.2,0-0.5,0-0.7c0.1-0.4,0.3-0.7,0.7-0.9c0.3-0.2,0.7-0.3,1.1-0.2c0.2,0.1,0.4,0.1,0.5,0.3L19,10
	l0.2,0.2l-0.6,0.7c0.1,0.2,0.2,0.4,0.3,0.6c0,0.2,0,0.5,0,0.7C18.8,12.6,18.6,12.9,18.2,13.2 M18.6,12.1c0.1-0.4,0-0.7-0.2-1
	l-1.6,1.6c0.1,0.1,0.2,0.2,0.4,0.2c0.3,0.1,0.6,0,0.9-0.1C18.3,12.7,18.5,12.5,18.6,12.1 M18.2,10.9c-0.1-0.1-0.2-0.2-0.4-0.2
	c-0.3-0.1-0.6,0-0.9,0.1c-0.3,0.2-0.4,0.4-0.5,0.7c-0.1,0.4,0,0.7,0.2,1L18.2,10.9z"/>
<g>
	<path class="st0" d="M21.9,9.8L21.1,10L21,9.6l1-0.4h0.3v4.2h-0.5V9.8z"/>
	<path class="st0" d="M23.3,11.4c0-1.2,0.7-2.2,1.8-2.2c1.1,0,1.8,1,1.8,2.2c0,1.2-0.7,2.2-1.8,2.2C24,13.6,23.3,12.6,23.3,11.4z
		 M26.4,11.4c0-0.9-0.5-1.7-1.3-1.7c-0.8,0-1.3,0.8-1.3,1.7c0,0.9,0.5,1.7,1.3,1.7C25.9,13.2,26.4,12.3,26.4,11.4z"/>
	<path class="st0" d="M27.6,11.4c0-1.2,0.7-2.2,1.8-2.2c1.1,0,1.8,1,1.8,2.2c0,1.2-0.7,2.2-1.8,2.2C28.3,13.6,27.6,12.6,27.6,11.4z
		 M30.7,11.4c0-0.9-0.5-1.7-1.3-1.7c-0.8,0-1.3,0.8-1.3,1.7c0,0.9,0.5,1.7,1.3,1.7C30.2,13.2,30.7,12.3,30.7,11.4z"/>
</g>
<g>
	<path class="st0" d="M60.9,133.3l-0.3-0.3c0.4-0.4,0.6-0.8,0.6-1.2c0-0.6-0.4-1-0.9-1c-0.5,0-0.9,0.4-0.9,1c0,0.4,0.1,0.6,0.2,0.9
		l-0.2,0.3l-2-0.1v-2.4h0.4v2l1.3,0.1c-0.1-0.2-0.2-0.5-0.2-0.8c0-0.8,0.5-1.5,1.3-1.5c0.8,0,1.4,0.6,1.4,1.5
		C61.6,132.4,61.3,132.9,60.9,133.3z"/>
	<path class="st0" d="M60.9,129.6l-0.3-0.3c0.4-0.4,0.6-0.8,0.6-1.2c0-0.6-0.4-1-0.9-1c-0.5,0-0.9,0.4-0.9,1c0,0.4,0.1,0.6,0.2,0.9
		l-0.2,0.3l-2-0.1v-2.4h0.4v2l1.3,0.1c-0.1-0.2-0.2-0.5-0.2-0.8c0-0.8,0.5-1.5,1.3-1.5c0.8,0,1.4,0.6,1.4,1.5
		C61.6,128.7,61.3,129.2,60.9,129.6z"/>
</g>
<g>
	<path class="st0" d="M78.1,107l-0.8,2.1l-0.4,0l-1.8-3.3l0.2-0.4l2.6,1.1l0.2-0.6l0.4,0.1l-0.2,0.6l0.9,0.4l-0.2,0.4L78.1,107z
		 M77.8,106.9l-2-0.8l1.3,2.4L77.8,106.9z"/>
	<path class="st0" d="M79.2,105.5l-0.2-0.4c0.5-0.2,0.8-0.5,1-0.9c0.2-0.6,0-1.1-0.5-1.3c-0.5-0.2-1,0.1-1.2,0.6
		c-0.1,0.3-0.1,0.6-0.1,0.9l-0.3,0.2l-1.9-0.9l0.9-2.2l0.4,0.2l-0.7,1.9l1.2,0.6c0-0.3,0-0.5,0.1-0.8c0.3-0.8,1-1.2,1.7-0.9
		c0.8,0.3,1,1.1,0.7,1.9C80.1,104.9,79.6,105.3,79.2,105.5z"/>
	<path class="st0" d="M77.4,100.3c-0.3-0.1-0.4-0.5-0.3-0.8c0.1-0.3,0.5-0.5,0.8-0.4c0.3,0.1,0.4,0.5,0.3,0.8
		C78.1,100.2,77.7,100.4,77.4,100.3z M77.8,99.4c-0.2-0.1-0.4,0-0.5,0.2c-0.1,0.2,0,0.4,0.2,0.5c0.2,0.1,0.4,0,0.5-0.2
		C78.1,99.7,78,99.4,77.8,99.4z"/>
</g>
<g>
	<path class="st0" d="M95.9,86.6l-2.1,0.7l-0.2-0.3l1.3-3.5l0.4-0.1l0.9,2.7l0.6-0.2l0.1,0.4l-0.6,0.2l0.3,0.9l-0.4,0.2L95.9,86.6z
		 M95.8,86.3l-0.7-2l-0.9,2.6L95.8,86.3z"/>
	<path class="st0" d="M97.7,86.4l0.2-0.4c0.5,0.2,0.9,0.3,1.3,0.1c0.6-0.2,0.8-0.7,0.6-1.2c-0.2-0.5-0.7-0.7-1.3-0.5
		c-0.3,0.1-0.6,0.3-0.8,0.5l-0.4-0.1l-0.6-2l2.3-0.8l0.1,0.4l-1.9,0.7l0.4,1.3c0.2-0.2,0.4-0.3,0.7-0.4c0.8-0.3,1.5,0,1.8,0.7
		c0.3,0.8-0.1,1.5-1,1.8C98.8,86.8,98.2,86.7,97.7,86.4z"/>
	<path class="st0" d="M100.5,81.7c-0.1-0.3,0.1-0.7,0.4-0.8s0.7,0,0.8,0.4c0.1,0.3-0.1,0.7-0.4,0.8S100.6,82,100.5,81.7z
		 M101.4,81.3c-0.1-0.2-0.3-0.3-0.5-0.2c-0.2,0.1-0.3,0.3-0.2,0.5c0.1,0.2,0.3,0.3,0.5,0.2C101.4,81.7,101.5,81.5,101.4,81.3z"/>
</g>
<path class="st1" d="M110.9,96.3c-12.9,0.8-22.8,11.6-22.4,24.5c0.4,12.9,10.9,23.1,23.8,23.2c12.9,0,23.5-10.2,23.9-23.1
	c0.4-12.9-9.4-23.8-22.3-24.6"/>
<path class="st1" d="M110.9,96c-13,0.8-23.1,11.8-22.7,24.8c0.4,13,11,23.4,24.1,23.4c13,0,23.8-10.3,24.2-23.3
	c0.4-13-9.6-24.1-22.6-24.9"/>
<line class="st1" x1="110.9" y1="96.3" x2="113" y2="96.3"/>
<line class="st1" x1="110.9" y1="96" x2="113" y2="96"/>
<line class="st1" x1="111.3" y1="95.7" x2="113" y2="95.7"/>
<line class="st1" x1="111.3" y1="95.4" x2="113" y2="95.4"/>
<path class="st1" d="M113.1,96c0.1,0,0.1-0.1,0.1-0.1c0-0.1-0.1-0.1-0.1-0.1"/>
<line class="st1" x1="111.3" y1="95.1" x2="113" y2="95.1"/>
<path class="st1" d="M111.3,95.4c-0.1,0-0.1,0.1-0.1,0.1c0,0.1,0.1,0.1,0.1,0.1"/>
<path class="st1" d="M111.3,95.1c-0.2,0-0.4,0.2-0.4,0.4c0,0.2,0.2,0.4,0.4,0.4"/>
<line class="st1" x1="111.5" y1="95.4" x2="111.5" y2="95.7"/>
<line class="st1" x1="112.8" y1="95.7" x2="112.8" y2="96"/>
<path class="st1" d="M113.8,95.9c0-0.2-0.1-0.4-0.2-0.5c-0.1-0.1-0.3-0.2-0.5-0.2"/>
<path class="st1" d="M113.8,95.9c0,0.1,0.1,0.1,0.1,0.1"/>
<path class="st1" d="M113.5,95.9c0,0.2,0.2,0.4,0.4,0.4"/>
<path class="st1" d="M113.1,96.3c0.2,0,0.4-0.2,0.4-0.4c0-0.2-0.2-0.4-0.4-0.4"/>
<line class="st1" x1="110.9" y1="96.3" x2="110.9" y2="96.3"/>
<path class="st1" d="M110.9,96C110.9,96,110.9,96,110.9,96"/>
<polyline class="st2" points="111.5,95.6 113,95.6 113.1,95.6 113.1,95.6 113.2,95.6 113.2,95.7 113.2,95.7 113.3,95.8 113.3,95.8 
	113.3,95.8 113.3,95.9 113.3,96 113.3,96 113.2,96 113.2,96.1 113.2,96.1 113.1,96.1 113.1,96.2 113,96.2 110.9,96.2 110.8,96.2 
	108.9,96.4 108.4,96.4 "/>
<polyline class="st2" points="107.3,96.6 107,96.7 106.9,96.7 "/>
<polyline class="st2" points="105.8,97 105.1,97.2 103.5,97.8 "/>
<line class="st2" x1="102.4" y1="98.3" x2="102.2" y2="98.4"/>
<polyline class="st2" points="101.1,98.9 99.8,99.6 99,100.1 "/>
<line class="st2" x1="98" y1="100.8" x2="97.8" y2="101"/>
<polyline class="st2" points="96.8,101.8 96.7,101.9 95.2,103.2 95.1,103.4 "/>
<line class="st2" x1="94.3" y1="104.3" x2="94.1" y2="104.5"/>
<polyline class="st2" points="93.3,105.5 92.8,106.2 92,107.4 "/>
<line class="st2" x1="91.3" y1="108.4" x2="91.2" y2="108.7"/>
<polyline class="st2" points="90.7,109.8 90,111.3 89.7,112 "/>
<line class="st2" x1="89.4" y1="113.1" x2="89.3" y2="113.4"/>
<polyline class="st2" points="89,114.6 88.9,115 88.5,117 "/>
<line class="st2" x1="88.4" y1="118.1" x2="88.4" y2="118.5"/>
<polyline class="st2" points="88.3,119.6 88.3,120.8 88.4,122 "/>
<line class="st2" x1="88.5" y1="123.2" x2="88.6" y2="123.5"/>
<polyline class="st2" points="88.7,124.7 89.2,126.6 89.4,127 "/>
<polyline class="st2" points="89.7,128.2 89.8,128.5 89.8,128.5 "/>
<polyline class="st2" points="90.3,129.6 90.5,130.2 91.3,131.7 "/>
<line class="st2" x1="91.9" y1="132.8" x2="92.1" y2="133"/>
<polyline class="st2" points="92.8,134 93.6,135.2 94.3,135.9 "/>
<line class="st2" x1="95" y1="136.8" x2="95.3" y2="137"/>
<polyline class="st2" points="96.1,137.8 96.3,138 97.8,139.3 98,139.4 "/>
<line class="st2" x1="99" y1="140" x2="99.2" y2="140.2"/>
<polyline class="st2" points="100.3,140.8 101.1,141.3 102.4,141.9 "/>
<line class="st2" x1="103.5" y1="142.4" x2="103.8" y2="142.5"/>
<line class="st2" x1="120.8" y1="142.5" x2="121.1" y2="142.4"/>
<polyline class="st2" points="122.2,142 123.5,141.3 124.3,140.9 "/>
<line class="st2" x1="125.3" y1="140.3" x2="125.6" y2="140.1"/>
<polyline class="st2" points="126.6,139.4 126.8,139.3 128.3,138 128.4,137.9 "/>
<line class="st2" x1="129.3" y1="137" x2="129.5" y2="136.8"/>
<polyline class="st2" points="130.3,135.9 130.9,135.2 131.8,134.1 "/>
<line class="st2" x1="132.5" y1="133.1" x2="132.7" y2="132.8"/>
<polyline class="st2" points="133.3,131.8 134,130.3 134.3,129.6 "/>
<polyline class="st2" points="134.8,128.5 134.8,128.5 134.9,128.2 "/>
<polyline class="st2" points="135.3,127.1 135.4,126.6 135.9,124.8 "/>
<line class="st2" x1="136" y1="123.6" x2="136.1" y2="123.3"/>
<polyline class="st2" points="136.2,122.1 136.3,120.9 136.3,119.7 "/>
<line class="st2" x1="136.2" y1="118.5" x2="136.2" y2="118.2"/>
<polyline class="st2" points="136.1,117 135.8,115.1 135.7,114.6 "/>
<polyline class="st2" points="135.4,113.5 135.3,113.2 135.3,113.1 "/>
<polyline class="st2" points="134.9,112 134.6,111.4 134,109.8 "/>
<line class="st2" x1="133.4" y1="108.8" x2="133.3" y2="108.5"/>
<polyline class="st2" points="132.7,107.5 131.9,106.3 131.3,105.5 "/>
<line class="st2" x1="130.6" y1="104.6" x2="130.3" y2="104.3"/>
<polyline class="st2" points="129.5,103.4 129.4,103.3 128,102 127.8,101.8 "/>
<line class="st2" x1="126.9" y1="101" x2="126.6" y2="100.8"/>
<polyline class="st2" points="125.6,100.2 124.9,99.7 123.6,98.9 "/>
<line class="st2" x1="122.5" y1="98.4" x2="122.2" y2="98.3"/>
<polyline class="st2" points="121.1,97.8 119.6,97.3 118.8,97.1 "/>
<line class="st2" x1="117.7" y1="96.7" x2="117.4" y2="96.6"/>
<polyline class="st2" points="116.2,96.4 115.8,96.4 113.8,96.2 113.8,96.2 113.8,96.1 113.7,96.1 113.7,96.1 113.6,96 113.6,96 
	113.6,95.9 113.6,95.9 113.6,95.8 113.6,95.7 113.5,95.6 113.5,95.5 113.4,95.4 113.3,95.4 113.2,95.3 113.1,95.3 113,95.3 
	111.3,95.3 111.2,95.3 111.2,95.3 111.2,95.3 111.1,95.4 111.1,95.4 111,95.5 111,95.5 111,95.6 111,95.6 111,95.7 111,95.7 
	111.1,95.8 111.1,95.8 111.2,95.8 111.2,95.8 111.2,95.9 111.3,95.9 112.8,95.9 "/>
<line class="st2" x1="48.4" y1="21.3" x2="48.4" y2="6.1"/>
<line class="st2" x1="0.1" y1="21.3" x2="0.1" y2="6.1"/>
<line class="st2" x1="45.6" y1="7.1" x2="3" y2="7.1"/>
<polygon class="st3" points="45.6,6.6 45.6,7.5 48.4,7.1 "/>
<polygon class="st4" points="45.6,6.6 45.6,7.5 48.4,7.1 "/>
<polygon class="st3" points="3,6.6 3,7.5 0.1,7.1 "/>
<polygon class="st4" points="3,6.6 3,7.5 0.1,7.1 "/>
<line class="st2" x1="48.4" y1="116.7" x2="64.2" y2="116.7"/>
<line class="st2" x1="63.2" y1="119.6" x2="63.2" y2="140.1"/>
<polygon class="st3" points="62.7,119.6 63.7,119.6 63.2,116.7 "/>
<polygon class="st4" points="62.7,119.6 63.7,119.6 63.2,116.7 "/>
<polygon class="st3" points="62.7,140.1 63.7,140.1 63.2,143 "/>
<polygon class="st4" points="62.7,140.1 63.7,140.1 63.2,143 "/>
<line class="st5" x1="1" y1="117.7" x2="1" y2="118.5"/>
<line class="st5" x1="1" y1="119.3" x2="1" y2="120.8"/>
<line class="st5" x1="1" y1="121.5" x2="1" y2="123.1"/>
<line class="st5" x1="1" y1="123.8" x2="1" y2="125.3"/>
<line class="st5" x1="1" y1="126.1" x2="1" y2="127.6"/>
<line class="st5" x1="1" y1="128.4" x2="1" y2="129.9"/>
<line class="st5" x1="1" y1="130.6" x2="1" y2="132.1"/>
<line class="st5" x1="1" y1="132.9" x2="1" y2="134.4"/>
<line class="st5" x1="1" y1="135.2" x2="1" y2="136.7"/>
<line class="st5" x1="1" y1="137.5" x2="1" y2="139"/>
<line class="st5" x1="1" y1="139.7" x2="1" y2="140.6"/>
<line class="st5" x1="47.6" y1="117.7" x2="47.6" y2="118.5"/>
<line class="st5" x1="47.6" y1="119.3" x2="47.6" y2="120.8"/>
<line class="st5" x1="47.6" y1="121.5" x2="47.6" y2="123.1"/>
<line class="st5" x1="47.6" y1="123.8" x2="47.6" y2="125.3"/>
<line class="st5" x1="47.6" y1="126.1" x2="47.6" y2="127.6"/>
<line class="st5" x1="47.6" y1="128.4" x2="47.6" y2="129.9"/>
<line class="st5" x1="47.6" y1="130.6" x2="47.6" y2="132.1"/>
<line class="st5" x1="47.6" y1="132.9" x2="47.6" y2="134.4"/>
<line class="st5" x1="47.6" y1="135.2" x2="47.6" y2="136.7"/>
<line class="st5" x1="47.6" y1="137.5" x2="47.6" y2="139"/>
<line class="st5" x1="47.6" y1="139.7" x2="47.6" y2="140.6"/>
<line class="st1" x1="0.7" y1="117.8" x2="0.7" y2="140.6"/>
<line class="st1" x1="47.9" y1="117.8" x2="47.9" y2="140.6"/>
<line class="st1" x1="22.8" y1="21.3" x2="22.8" y2="143"/>
<line class="st1" x1="25.7" y1="21.3" x2="25.7" y2="143"/>
<line class="st2" x1="24.3" y1="18.9" x2="24.3" y2="25.3"/>
<line class="st2" x1="24.3" y1="26.8" x2="24.3" y2="28.3"/>
<line class="st2" x1="24.3" y1="29.8" x2="24.3" y2="38.9"/>
<line class="st2" x1="24.3" y1="40.4" x2="24.3" y2="42"/>
<line class="st2" x1="24.3" y1="43.5" x2="24.3" y2="52.6"/>
<line class="st2" x1="24.3" y1="54.1" x2="24.3" y2="55.6"/>
<line class="st2" x1="24.3" y1="57.1" x2="24.3" y2="66.2"/>
<line class="st2" x1="24.3" y1="67.7" x2="24.3" y2="69.2"/>
<line class="st2" x1="24.3" y1="70.7" x2="24.3" y2="79.8"/>
<line class="st2" x1="24.3" y1="81.3" x2="24.3" y2="82.9"/>
<line class="st2" x1="24.3" y1="84.4" x2="24.3" y2="93.5"/>
<line class="st2" x1="24.3" y1="95" x2="24.3" y2="96.5"/>
<line class="st2" x1="24.3" y1="98" x2="24.3" y2="107.1"/>
<line class="st2" x1="24.3" y1="108.6" x2="24.3" y2="110.1"/>
<line class="st2" x1="24.3" y1="111.6" x2="24.3" y2="120.7"/>
<line class="st2" x1="24.3" y1="122.2" x2="24.3" y2="123.8"/>
<line class="st2" x1="24.3" y1="125.3" x2="24.3" y2="134.4"/>
<line class="st2" x1="24.3" y1="135.9" x2="24.3" y2="137.4"/>
<line class="st2" x1="24.3" y1="138.9" x2="24.3" y2="145.3"/>
<line class="st2" x1="0.7" y1="140.6" x2="0.7" y2="156.6"/>
<line class="st2" x1="47.9" y1="140.6" x2="47.9" y2="156.6"/>
<line class="st5" x1="0.4" y1="21.3" x2="0.4" y2="23.1"/>
<line class="st5" x1="0.4" y1="23.9" x2="0.4" y2="25.4"/>
<line class="st5" x1="0.4" y1="26.1" x2="0.4" y2="27.7"/>
<line class="st5" x1="0.4" y1="28.4" x2="0.4" y2="30"/>
<line class="st5" x1="0.4" y1="30.7" x2="0.4" y2="32.2"/>
<line class="st5" x1="0.4" y1="33" x2="0.4" y2="34.5"/>
<line class="st5" x1="0.4" y1="35.2" x2="0.4" y2="36.7"/>
<line class="st5" x1="0.4" y1="37.5" x2="0.4" y2="39"/>
<line class="st5" x1="0.4" y1="39.8" x2="0.4" y2="41.3"/>
<line class="st5" x1="0.4" y1="42.1" x2="0.4" y2="43.6"/>
<line class="st5" x1="0.4" y1="44.3" x2="0.4" y2="45.8"/>
<line class="st5" x1="0.4" y1="46.6" x2="0.4" y2="48.1"/>
<line class="st5" x1="0.4" y1="48.9" x2="0.4" y2="50.4"/>
<line class="st5" x1="0.4" y1="51.2" x2="0.4" y2="52.7"/>
<line class="st5" x1="0.4" y1="53.4" x2="0.4" y2="54.9"/>
<line class="st5" x1="0.4" y1="55.7" x2="0.4" y2="57.2"/>
<line class="st5" x1="0.4" y1="58" x2="0.4" y2="59.5"/>
<line class="st5" x1="0.4" y1="60.3" x2="0.4" y2="61.8"/>
<line class="st5" x1="0.4" y1="62.5" x2="0.4" y2="64"/>
<line class="st5" x1="0.4" y1="64.8" x2="0.4" y2="66.3"/>
<line class="st5" x1="0.4" y1="67" x2="0.4" y2="68.6"/>
<line class="st5" x1="0.4" y1="69.3" x2="0.4" y2="70.9"/>
<line class="st5" x1="0.4" y1="71.6" x2="0.4" y2="73.1"/>
<line class="st5" x1="0.4" y1="73.9" x2="0.4" y2="75.4"/>
<line class="st5" x1="0.4" y1="76.1" x2="0.4" y2="77.7"/>
<line class="st5" x1="0.4" y1="78.4" x2="0.4" y2="79.9"/>
<line class="st5" x1="0.4" y1="80.7" x2="0.4" y2="82.2"/>
<line class="st5" x1="0.4" y1="83" x2="0.4" y2="84.5"/>
<line class="st5" x1="0.4" y1="85.2" x2="0.4" y2="86.7"/>
<line class="st5" x1="0.4" y1="87.5" x2="0.4" y2="89"/>
<line class="st5" x1="0.4" y1="89.8" x2="0.4" y2="91.3"/>
<line class="st5" x1="0.4" y1="92.1" x2="0.4" y2="93.6"/>
<line class="st5" x1="0.4" y1="94.3" x2="0.4" y2="95.8"/>
<line class="st5" x1="0.4" y1="96.6" x2="0.4" y2="98.1"/>
<line class="st5" x1="0.4" y1="98.9" x2="0.4" y2="100.4"/>
<line class="st5" x1="0.4" y1="101.2" x2="0.4" y2="102.7"/>
<line class="st5" x1="0.4" y1="103.4" x2="0.4" y2="104.9"/>
<line class="st5" x1="0.4" y1="105.7" x2="0.4" y2="107.2"/>
<line class="st5" x1="0.4" y1="108" x2="0.4" y2="109.5"/>
<line class="st5" x1="0.4" y1="110.2" x2="0.4" y2="111.8"/>
<line class="st5" x1="0.4" y1="112.5" x2="0.4" y2="114"/>
<line class="st5" x1="0.4" y1="114.8" x2="0.4" y2="116.6"/>
<line class="st5" x1="48.1" y1="21.3" x2="48.1" y2="23.1"/>
<line class="st5" x1="48.1" y1="23.9" x2="48.1" y2="25.4"/>
<line class="st5" x1="48.1" y1="26.1" x2="48.1" y2="27.7"/>
<line class="st5" x1="48.1" y1="28.4" x2="48.1" y2="30"/>
<line class="st5" x1="48.1" y1="30.7" x2="48.1" y2="32.2"/>
<line class="st5" x1="48.1" y1="33" x2="48.1" y2="34.5"/>
<line class="st5" x1="48.1" y1="35.2" x2="48.1" y2="36.7"/>
<line class="st5" x1="48.1" y1="37.5" x2="48.1" y2="39"/>
<line class="st5" x1="48.1" y1="39.8" x2="48.1" y2="41.3"/>
<line class="st5" x1="48.1" y1="42.1" x2="48.1" y2="43.6"/>
<line class="st5" x1="48.1" y1="44.3" x2="48.1" y2="45.8"/>
<line class="st5" x1="48.1" y1="46.6" x2="48.1" y2="48.1"/>
<line class="st5" x1="48.1" y1="48.9" x2="48.1" y2="50.4"/>
<line class="st5" x1="48.1" y1="51.2" x2="48.1" y2="52.7"/>
<line class="st5" x1="48.1" y1="53.4" x2="48.1" y2="54.9"/>
<line class="st5" x1="48.1" y1="55.7" x2="48.1" y2="57.2"/>
<line class="st5" x1="48.1" y1="58" x2="48.1" y2="59.5"/>
<line class="st5" x1="48.1" y1="60.3" x2="48.1" y2="61.8"/>
<line class="st5" x1="48.1" y1="62.5" x2="48.1" y2="64"/>
<line class="st5" x1="48.1" y1="64.8" x2="48.1" y2="66.3"/>
<line class="st5" x1="48.1" y1="67" x2="48.1" y2="68.6"/>
<line class="st5" x1="48.1" y1="69.3" x2="48.1" y2="70.9"/>
<line class="st5" x1="48.1" y1="71.6" x2="48.1" y2="73.1"/>
<line class="st5" x1="48.1" y1="73.9" x2="48.1" y2="75.4"/>
<line class="st5" x1="48.1" y1="76.1" x2="48.1" y2="77.7"/>
<line class="st5" x1="48.1" y1="78.4" x2="48.1" y2="79.9"/>
<line class="st5" x1="48.1" y1="80.7" x2="48.1" y2="82.2"/>
<line class="st5" x1="48.1" y1="83" x2="48.1" y2="84.5"/>
<line class="st5" x1="48.1" y1="85.2" x2="48.1" y2="86.7"/>
<line class="st5" x1="48.1" y1="87.5" x2="48.1" y2="89"/>
<line class="st5" x1="48.1" y1="89.8" x2="48.1" y2="91.3"/>
<line class="st5" x1="48.1" y1="92.1" x2="48.1" y2="93.6"/>
<line class="st5" x1="48.1" y1="94.3" x2="48.1" y2="95.8"/>
<line class="st5" x1="48.1" y1="96.6" x2="48.1" y2="98.1"/>
<line class="st5" x1="48.1" y1="98.9" x2="48.1" y2="100.4"/>
<line class="st5" x1="48.1" y1="101.2" x2="48.1" y2="102.7"/>
<line class="st5" x1="48.1" y1="103.4" x2="48.1" y2="104.9"/>
<line class="st5" x1="48.1" y1="105.7" x2="48.1" y2="107.2"/>
<line class="st5" x1="48.1" y1="108" x2="48.1" y2="109.5"/>
<line class="st5" x1="48.1" y1="110.2" x2="48.1" y2="111.8"/>
<line class="st5" x1="48.1" y1="112.5" x2="48.1" y2="114"/>
<line class="st5" x1="48.1" y1="114.8" x2="48.1" y2="116.6"/>
<line class="st1" x1="0.1" y1="21.3" x2="0.1" y2="116.7"/>
<line class="st1" x1="48.4" y1="21.3" x2="48.4" y2="116.7"/>
<line class="st1" x1="47.9" y1="117.8" x2="0.7" y2="117.8"/>
<polyline class="st1" points="0.7,117.8 0.1,116.7 48.4,116.7 "/>
<line class="st5" x1="0.4" y1="116.6" x2="1" y2="117.7"/>
<line class="st5" x1="48.1" y1="116.6" x2="47.5" y2="117.8"/>
<line class="st5" x1="47.2" y1="118.5" x2="46.6" y2="119.6"/>
<line class="st1" x1="48.4" y1="116.7" x2="47.9" y2="117.8"/>
<line class="st2" x1="0.4" y1="21.3" x2="0.4" y2="14"/>
<line class="st2" x1="48.1" y1="21.3" x2="48.1" y2="14"/>
<line class="st2" x1="3.3" y1="14.9" x2="45.3" y2="14.9"/>
<polygon class="st3" points="3.3,14.5 3.3,15.4 0.4,14.9 "/>
<polygon class="st4" points="3.3,14.5 3.3,15.4 0.4,14.9 "/>
<polygon class="st3" points="45.3,14.5 45.3,15.4 48.1,14.9 "/>
<polygon class="st4" points="45.3,14.5 45.3,15.4 48.1,14.9 "/>
<line class="st1" x1="0.1" y1="21.3" x2="48.4" y2="21.3"/>
<line class="st2" x1="112.3" y1="141.3" x2="112.3" y2="139.8"/>
<line class="st2" x1="112.3" y1="138.3" x2="112.3" y2="129.2"/>
<line class="st2" x1="112.3" y1="127.7" x2="112.3" y2="126.2"/>
<line class="st2" x1="112.3" y1="124.7" x2="112.3" y2="115.6"/>
<line class="st2" x1="112.3" y1="114" x2="112.3" y2="112.5"/>
<line class="st2" x1="112.3" y1="111" x2="112.3" y2="101.9"/>
<line class="st2" x1="112.3" y1="100.4" x2="112.3" y2="98.9"/>
<line class="st2" x1="112.3" y1="97.4" x2="112.3" y2="91.5"/>
<line class="st2" x1="83.7" y1="120.1" x2="89.6" y2="120.1"/>
<line class="st2" x1="91.1" y1="120.1" x2="92.6" y2="120.1"/>
<line class="st2" x1="94.1" y1="120.1" x2="103.2" y2="120.1"/>
<line class="st2" x1="104.8" y1="120.1" x2="106.3" y2="120.1"/>
<line class="st2" x1="107.8" y1="120.1" x2="116.9" y2="120.1"/>
<line class="st2" x1="118.4" y1="120.1" x2="119.9" y2="120.1"/>
<line class="st2" x1="121.4" y1="120.1" x2="130.5" y2="120.1"/>
<line class="st2" x1="132" y1="120.1" x2="133.5" y2="120.1"/>
<line class="st2" x1="135.1" y1="120.1" x2="140.9" y2="120.1"/>
<line class="st1" x1="26.2" y1="117.8" x2="26.2" y2="143"/>
<line class="st1" x1="22.4" y1="117.8" x2="22.4" y2="143"/>
<line class="st1" x1="27.2" y1="117.8" x2="27.2" y2="143"/>
<line class="st1" x1="21.4" y1="117.8" x2="21.4" y2="143"/>
<line class="st1" x1="0.7" y1="140.6" x2="47.9" y2="140.6"/>
<line class="st2" x1="47.9" y1="140.6" x2="56.7" y2="140.6"/>
<line class="st2" x1="55.7" y1="137.7" x2="55.7" y2="134.8"/>
<line class="st2" x1="55.7" y1="140.6" x2="55.7" y2="143"/>
<polygon class="st3" points="55.3,137.7 56.2,137.7 55.7,140.6 "/>
<polygon class="st4" points="55.3,137.7 56.2,137.7 55.7,140.6 "/>
<line class="st1" x1="47.9" y1="140.6" x2="47.3" y2="143"/>
<line class="st5" x1="47.6" y1="140.5" x2="47.3" y2="141.4"/>
<line class="st5" x1="47.2" y1="141.9" x2="47" y2="142.9"/>
<line class="st5" x1="0.9" y1="140.5" x2="1.2" y2="141.4"/>
<line class="st5" x1="1.3" y1="141.9" x2="1.6" y2="142.9"/>
<line class="st1" x1="0.7" y1="140.6" x2="1.3" y2="143"/>
<line class="st2" x1="0.7" y1="142.5" x2="0.7" y2="151"/>
<line class="st2" x1="132.5" y1="140.4" x2="128.4" y2="136.2"/>
<line class="st2" x1="127.3" y1="135.1" x2="126.2" y2="134.1"/>
<line class="st2" x1="125.2" y1="133" x2="118.7" y2="126.5"/>
<line class="st2" x1="117.7" y1="125.5" x2="116.6" y2="124.4"/>
<line class="st2" x1="115.5" y1="123.3" x2="109.1" y2="116.9"/>
<line class="st2" x1="108" y1="115.8" x2="106.9" y2="114.8"/>
<line class="st2" x1="105.9" y1="113.7" x2="99.5" y2="107.3"/>
<line class="st2" x1="98.4" y1="106.2" x2="97.3" y2="105.1"/>
<line class="st2" x1="96.2" y1="104" x2="92.1" y2="99.9"/>
<line class="st2" x1="92.1" y1="140.4" x2="96.2" y2="136.2"/>
<line class="st2" x1="97.3" y1="135.1" x2="98.4" y2="134.1"/>
<line class="st2" x1="99.5" y1="133" x2="105.9" y2="126.5"/>
<line class="st2" x1="106.9" y1="125.5" x2="108" y2="124.4"/>
<line class="st2" x1="109.1" y1="123.3" x2="115.5" y2="116.9"/>
<line class="st2" x1="116.6" y1="115.8" x2="117.7" y2="114.8"/>
<line class="st2" x1="118.7" y1="113.7" x2="125.2" y2="107.3"/>
<line class="st2" x1="126.2" y1="106.2" x2="127.3" y2="105.1"/>
<line class="st2" x1="128.4" y1="104" x2="132.5" y2="99.9"/>
<line class="st2" x1="90.7" y1="98.5" x2="87.7" y2="95.4"/>
<line class="st2" x1="81.8" y1="120.1" x2="77.4" y2="120.1"/>
<path class="st2" d="M86.4,98.2c-4.5,5.4-7.3,12-7.9,19"/>
<polygon class="st3" points="86,97.9 86.7,98.6 88.3,96.1 "/>
<polygon class="st4" points="86,97.9 86.7,98.6 88.3,96.1 "/>
<polygon class="st3" points="79,117.3 78,117.2 78.4,120.1 "/>
<polygon class="st4" points="79,117.3 78,117.2 78.4,120.1 "/>
<line class="st2" x1="112.3" y1="89.6" x2="112.3" y2="85.2"/>
<line class="st2" x1="90.7" y1="98.5" x2="87.7" y2="95.4"/>
<path class="st2" d="M109.5,86.3c-7,0.6-13.7,3.3-19,7.9"/>
<polygon class="st3" points="109.4,85.8 109.5,86.8 112.3,86.2 "/>
<polygon class="st4" points="109.4,85.8 109.5,86.8 112.3,86.2 "/>
<polygon class="st3" points="90.7,94.5 90.1,93.8 88.3,96.1 "/>
<polygon class="st4" points="90.7,94.5 90.1,93.8 88.3,96.1 "/>
<line class="st5" x1="46.6" y1="119.6" x2="46.6" y2="120.7"/>
<line class="st5" x1="46.6" y1="121.4" x2="46.6" y2="122.9"/>
<line class="st5" x1="46.6" y1="123.7" x2="46.6" y2="125.2"/>
<line class="st5" x1="46.6" y1="126" x2="46.6" y2="127.5"/>
<line class="st5" x1="46.6" y1="128.2" x2="46.6" y2="129.8"/>
<line class="st5" x1="46.6" y1="130.5" x2="46.6" y2="132"/>
<line class="st5" x1="46.6" y1="132.8" x2="46.6" y2="134.3"/>
<line class="st5" x1="46.6" y1="135.1" x2="46.6" y2="136.6"/>
<line class="st5" x1="46.6" y1="137.3" x2="46.6" y2="138.9"/>
<line class="st5" x1="46.6" y1="139.6" x2="46.6" y2="141.1"/>
<line class="st5" x1="46.6" y1="141.9" x2="46.6" y2="143"/>
<line class="st5" x1="46.9" y1="119.6" x2="46.9" y2="120.7"/>
<line class="st5" x1="46.9" y1="121.5" x2="46.9" y2="123"/>
<line class="st5" x1="46.9" y1="123.7" x2="46.9" y2="125.2"/>
<line class="st5" x1="46.9" y1="126" x2="46.9" y2="127.5"/>
<line class="st5" x1="46.9" y1="128.3" x2="46.9" y2="129.8"/>
<line class="st5" x1="46.9" y1="130.5" x2="46.9" y2="132.1"/>
<line class="st5" x1="46.9" y1="132.8" x2="46.9" y2="134.3"/>
<line class="st5" x1="46.9" y1="135.1" x2="46.9" y2="136.6"/>
<line class="st5" x1="46.9" y1="137.3" x2="46.9" y2="138.9"/>
<line class="st5" x1="46.9" y1="139.6" x2="46.9" y2="141.2"/>
<line class="st5" x1="46.9" y1="141.9" x2="46.9" y2="143"/>
<line class="st5" x1="47.9" y1="117.8" x2="46.9" y2="119.6"/>
<line class="st5" x1="1.6" y1="119.6" x2="1.6" y2="120.7"/>
<line class="st5" x1="1.6" y1="121.5" x2="1.6" y2="123"/>
<line class="st5" x1="1.6" y1="123.7" x2="1.6" y2="125.2"/>
<line class="st5" x1="1.6" y1="126" x2="1.6" y2="127.5"/>
<line class="st5" x1="1.6" y1="128.3" x2="1.6" y2="129.8"/>
<line class="st5" x1="1.6" y1="130.5" x2="1.6" y2="132.1"/>
<line class="st5" x1="1.6" y1="132.8" x2="1.6" y2="134.3"/>
<line class="st5" x1="1.6" y1="135.1" x2="1.6" y2="136.6"/>
<line class="st5" x1="1.6" y1="137.3" x2="1.6" y2="138.9"/>
<line class="st5" x1="1.6" y1="139.6" x2="1.6" y2="141.2"/>
<line class="st5" x1="1.6" y1="141.9" x2="1.6" y2="143"/>
<line class="st5" x1="1.9" y1="119.6" x2="1.9" y2="120.7"/>
<line class="st5" x1="1.9" y1="121.4" x2="1.9" y2="122.9"/>
<line class="st5" x1="1.9" y1="123.7" x2="1.9" y2="125.2"/>
<line class="st5" x1="1.9" y1="126" x2="1.9" y2="127.5"/>
<line class="st5" x1="1.9" y1="128.2" x2="1.9" y2="129.8"/>
<line class="st5" x1="1.9" y1="130.5" x2="1.9" y2="132"/>
<line class="st5" x1="1.9" y1="132.8" x2="1.9" y2="134.3"/>
<line class="st5" x1="1.9" y1="135.1" x2="1.9" y2="136.6"/>
<line class="st5" x1="1.9" y1="137.3" x2="1.9" y2="138.9"/>
<line class="st5" x1="1.9" y1="139.6" x2="1.9" y2="141.1"/>
<line class="st5" x1="1.9" y1="141.9" x2="1.9" y2="143"/>
<line class="st5" x1="0.4" y1="116.6" x2="1" y2="117.8"/>
<line class="st5" x1="1.3" y1="118.5" x2="1.9" y2="119.6"/>
<line class="st5" x1="0.7" y1="117.8" x2="1.6" y2="119.6"/>
<path class="st2" d="M115.7,96.2c0-1.9-1.5-3.4-3.4-3.4s-3.4,1.5-3.4,3.4c0,1.9,1.5,3.4,3.4,3.4S115.7,98.1,115.7,96.2"/>
<line class="st1" x1="5.8" y1="117.8" x2="5.8" y2="143"/>
<line class="st1" x1="6.8" y1="117.8" x2="6.8" y2="143"/>
<line class="st1" x1="9.6" y1="117.8" x2="9.6" y2="143"/>
<line class="st1" x1="42.7" y1="117.8" x2="42.7" y2="143"/>
<line class="st1" x1="41.7" y1="117.8" x2="41.7" y2="143"/>
<line class="st1" x1="38.9" y1="117.8" x2="38.9" y2="143"/>
<path class="st1" d="M109.3,96.7c-4.2,0.5-8.1,2.2-11.5,4.8"/>
<path class="st1" d="M109.4,97c-4.1,0.5-8,2.1-11.3,4.7"/>
<line class="st1" x1="114.3" y1="97.4" x2="115.1" y2="96.7"/>
<path class="st1" d="M114.2,97.5c0.1,0,0.1,0,0.2-0.1"/>
<line class="st1" x1="110.3" y1="97.4" x2="109.5" y2="96.7"/>
<path class="st1" d="M110.3,97.4c0.1,0.1,0.2,0.1,0.2,0.1"/>
<path class="st1" d="M109.6,96.7c-0.1-0.1-0.1-0.1-0.2-0.1"/>
<path class="st1" d="M115.3,96.7c-0.1,0-0.2,0-0.2,0.1"/>
<line class="st1" x1="114.5" y1="97.6" x2="115.3" y2="97"/>
<path class="st1" d="M114.2,97.7c0.1,0,0.3,0,0.4-0.1"/>
<path class="st1" d="M110.2,97.6c0.1,0.1,0.3,0.1,0.4,0.1"/>
<line class="st1" x1="110.2" y1="97.6" x2="109.3" y2="97"/>
<line class="st1" x1="97.9" y1="102.7" x2="98" y2="101.6"/>
<line class="st1" x1="97.6" y1="102.6" x2="97.7" y2="101.6"/>
<line class="st1" x1="94.8" y1="105.7" x2="93.9" y2="105.8"/>
<path class="st1" d="M94.9,105.7c0.1,0,0.3-0.1,0.4-0.2"/>
<polyline class="st1" points="97.8,103 96.5,104.3 95.2,105.6 "/>
<path class="st1" d="M97.8,103c0.1-0.1,0.2-0.2,0.2-0.4"/>
<line class="st1" x1="94.8" y1="105.5" x2="93.8" y2="105.5"/>
<path class="st1" d="M93.9,105.5c-0.1,0-0.2,0.1-0.2,0.1"/>
<path class="st1" d="M94.9,105.5c0.1,0,0.1,0,0.2-0.1"/>
<polyline class="st1" points="97.6,102.8 96.3,104.1 95,105.4 "/>
<path class="st1" d="M97.6,102.8c0,0,0.1-0.1,0.1-0.2"/>
<path class="st1" d="M97.8,101.4c-0.1,0.1-0.1,0.1-0.1,0.2"/>
<line class="st1" x1="89.8" y1="117.9" x2="89.2" y2="117.2"/>
<line class="st1" x1="89.6" y1="118.1" x2="89" y2="117.4"/>
<line class="st1" x1="89.8" y1="122.3" x2="89.2" y2="123.1"/>
<path class="st1" d="M89.8,122.3c0.1-0.1,0.1-0.2,0.1-0.4"/>
<polyline class="st1" points="89.9,118.3 89.9,120.1 89.9,121.9 "/>
<path class="st1" d="M90,118.3c0-0.1,0-0.3-0.1-0.4"/>
<line class="st1" x1="89.6" y1="122.1" x2="89" y2="122.9"/>
<path class="st1" d="M88.9,122.8c-0.1,0.1-0.1,0.1-0.1,0.2"/>
<path class="st1" d="M89.6,122.1c0-0.1,0.1-0.1,0.1-0.2"/>
<polyline class="st1" points="89.6,118.3 89.6,120.1 89.6,121.9 "/>
<path class="st1" d="M89.7,118.3c0-0.1,0-0.1-0.1-0.2"/>
<path class="st1" d="M88.9,117.1c0,0.1,0,0.2,0.1,0.2"/>
<line class="st1" x1="94.8" y1="134.5" x2="93.9" y2="134.4"/>
<line class="st1" x1="94.8" y1="134.8" x2="93.8" y2="134.7"/>
<line class="st1" x1="97.9" y1="137.6" x2="98" y2="138.6"/>
<path class="st1" d="M98,137.6c0-0.1-0.1-0.3-0.2-0.4"/>
<polyline class="st1" points="95.2,134.7 96.5,135.9 97.8,137.2 "/>
<path class="st1" d="M95.2,134.6c-0.1-0.1-0.2-0.2-0.4-0.2"/>
<line class="st1" x1="97.6" y1="137.6" x2="97.7" y2="138.6"/>
<path class="st1" d="M97.7,138.6c0,0.1,0.1,0.2,0.1,0.2"/>
<path class="st1" d="M97.7,137.6c0-0.1,0-0.1-0.1-0.2"/>
<polyline class="st1" points="95,134.9 96.3,136.1 97.6,137.4 "/>
<path class="st1" d="M95,134.8c-0.1-0.1-0.1-0.1-0.2-0.1"/>
<path class="st1" d="M93.6,134.5c0.1,0.1,0.1,0.1,0.2,0.1"/>
<path class="st1" d="M114.5,142.6c-0.1-0.1-0.2-0.1-0.4-0.1"/>
<polyline class="st1" points="110.5,142.5 112.3,142.5 114.1,142.5 "/>
<path class="st1" d="M110.5,142.5c-0.1,0-0.3,0-0.4,0.1"/>
<line class="st1" x1="126.7" y1="137.6" x2="126.6" y2="138.6"/>
<line class="st1" x1="127" y1="137.6" x2="126.9" y2="138.6"/>
<line class="st1" x1="129.8" y1="134.5" x2="130.7" y2="134.4"/>
<path class="st1" d="M129.8,134.5c-0.1,0-0.3,0.1-0.4,0.2"/>
<polyline class="st1" points="126.8,137.2 128.1,135.9 129.4,134.7 "/>
<path class="st1" d="M126.9,137.2c-0.1,0.1-0.2,0.2-0.2,0.4"/>
<line class="st1" x1="129.8" y1="134.8" x2="130.8" y2="134.7"/>
<path class="st1" d="M130.8,134.7c0.1,0,0.2-0.1,0.2-0.1"/>
<path class="st1" d="M129.8,134.7c-0.1,0-0.1,0-0.2,0.1"/>
<polyline class="st1" points="127,137.4 128.3,136.1 129.6,134.9 "/>
<path class="st1" d="M127.1,137.4c-0.1,0-0.1,0.1-0.1,0.2"/>
<path class="st1" d="M126.8,138.8c0.1-0.1,0.1-0.1,0.1-0.2"/>
<line class="st1" x1="134.8" y1="122.3" x2="135.5" y2="123.1"/>
<line class="st1" x1="135.1" y1="122.1" x2="135.7" y2="122.9"/>
<line class="st1" x1="134.8" y1="117.9" x2="135.5" y2="117.2"/>
<path class="st1" d="M134.8,117.9c-0.1,0.1-0.1,0.2-0.1,0.4"/>
<polyline class="st1" points="134.7,121.9 134.7,120.1 134.7,118.3 "/>
<path class="st1" d="M134.7,121.9c0,0.1,0,0.3,0.1,0.4"/>
<line class="st1" x1="135.1" y1="118.1" x2="135.7" y2="117.4"/>
<path class="st1" d="M135.7,117.3c0.1-0.1,0.1-0.1,0.1-0.2"/>
<path class="st1" d="M135,118.1c0,0.1-0.1,0.1-0.1,0.2"/>
<polyline class="st1" points="135,121.9 135,120.1 135,118.3 "/>
<path class="st1" d="M135,121.9c0,0.1,0,0.1,0.1,0.2"/>
<path class="st1" d="M135.8,123.1c0-0.1,0-0.2-0.1-0.2"/>
<line class="st1" x1="129.8" y1="105.7" x2="130.7" y2="105.8"/>
<line class="st1" x1="129.8" y1="105.5" x2="130.8" y2="105.5"/>
<line class="st1" x1="126.7" y1="102.7" x2="126.6" y2="101.6"/>
<path class="st1" d="M126.7,102.7c0,0.1,0.1,0.3,0.2,0.4"/>
<polyline class="st1" points="129.4,105.6 128.1,104.3 126.8,103 "/>
<path class="st1" d="M129.4,105.6c0.1,0.1,0.2,0.2,0.4,0.2"/>
<line class="st1" x1="127" y1="102.6" x2="126.9" y2="101.6"/>
<path class="st1" d="M126.9,101.6c0-0.1-0.1-0.2-0.1-0.2"/>
<path class="st1" d="M127,102.6c0,0.1,0,0.1,0.1,0.2"/>
<polyline class="st1" points="129.6,105.4 128.3,104.1 127,102.8 "/>
<path class="st1" d="M129.6,105.4c0,0.1,0.1,0.1,0.2,0.1"/>
<path class="st1" d="M131,105.6c-0.1-0.1-0.1-0.1-0.2-0.1"/>
<path class="st1" d="M126.8,101.4c-3.3-2.6-7.3-4.2-11.5-4.8"/>
<path class="st1" d="M126.6,101.7c-3.3-2.5-7.2-4.2-11.3-4.7"/>
<path class="st1" d="M135.8,117.1c-0.5-4.2-2.2-8.1-4.8-11.5"/>
<path class="st1" d="M135.5,117.2c-0.5-4.1-2.1-8-4.7-11.3"/>
<path class="st1" d="M130.8,134.4c2.5-3.3,4.2-7.2,4.7-11.3"/>
<path class="st1" d="M131,134.6c2.6-3.3,4.2-7.3,4.8-11.5"/>
<path class="st1" d="M115.3,143.3c4.1-0.5,8-2.1,11.3-4.7"/>
<path class="st1" d="M115.3,143.5c4.2-0.5,8.1-2.2,11.5-4.8"/>
<path class="st1" d="M98,138.6c3.3,2.5,7.2,4.2,11.3,4.7"/>
<path class="st1" d="M97.9,138.8c3.3,2.6,7.3,4.2,11.5,4.8"/>
<path class="st1" d="M89.2,123.1c0.5,4.1,2.1,8,4.7,11.3"/>
<path class="st1" d="M88.9,123.1c0.5,4.2,2.2,8.1,4.8,11.5"/>
<path class="st1" d="M93.9,105.8c-2.5,3.3-4.2,7.2-4.7,11.3"/>
<path class="st1" d="M93.6,105.7c-2.6,3.3-4.2,7.3-4.8,11.5"/>
<path class="st1" d="M113.8,97.3c0,0.1,0.1,0.1,0.1,0.1"/>
<path class="st1" d="M113.5,97.3c0,0.2,0.2,0.4,0.4,0.4"/>
<line class="st1" x1="113.9" y1="97.5" x2="114.1" y2="97.5"/>
<line class="st1" x1="113.8" y1="97.7" x2="114.1" y2="97.7"/>
<line class="st1" x1="110.6" y1="97.7" x2="113" y2="97.7"/>
<line class="st1" x1="110.6" y1="97.5" x2="113" y2="97.5"/>
<line class="st1" x1="111.3" y1="97.1" x2="113" y2="97.1"/>
<line class="st1" x1="111.3" y1="96.9" x2="113" y2="96.9"/>
<path class="st1" d="M113.1,97.4c0.1,0,0.1-0.1,0.1-0.1c0-0.1-0.1-0.1-0.1-0.1"/>
<line class="st1" x1="111.3" y1="96.6" x2="113" y2="96.6"/>
<path class="st1" d="M111.3,96.9c-0.1,0-0.1,0.1-0.1,0.1c0,0.1,0.1,0.1,0.1,0.1"/>
<path class="st1" d="M111.3,96.6c-0.2,0-0.4,0.2-0.4,0.4c0,0.2,0.2,0.4,0.4,0.4"/>
<line class="st1" x1="111.5" y1="96.9" x2="111.5" y2="97.1"/>
<line class="st1" x1="112.8" y1="97.1" x2="112.8" y2="97.5"/>
<path class="st1" d="M113.8,97.3c0-0.2-0.1-0.4-0.2-0.5c-0.1-0.1-0.3-0.2-0.5-0.2"/>
<path class="st1" d="M113.1,97.7c0.2,0,0.4-0.2,0.4-0.4c0-0.2-0.2-0.4-0.4-0.4"/>
<line class="st1" x1="110.9" y1="95.6" x2="110.9" y2="97"/>
<line class="st1" x1="113.7" y1="95.9" x2="113.7" y2="97.3"/>
<line class="st5" x1="105" y1="63.1" x2="102.5" y2="63.2"/>
<line class="st5" x1="101.3" y1="63.3" x2="99" y2="63.5"/>
<line class="st5" x1="97.8" y1="63.7" x2="95.4" y2="64"/>
<line class="st5" x1="125.5" y1="63.6" x2="123.2" y2="63.3"/>
<line class="st5" x1="122" y1="63.3" x2="119.9" y2="63.1"/>
<path class="st1" d="M104.9,61.6c-3.2,0.2-6.4,0.5-9.5,1"/>
<path class="st1" d="M129,62.5c-3-0.4-6-0.7-9-0.9"/>
<line class="st5" x1="105" y1="63.1" x2="108" y2="63.1"/>
<line class="st5" x1="109.1" y1="63.1" x2="111.5" y2="63.1"/>
<line class="st5" x1="112.8" y1="63.1" x2="115.7" y2="63.1"/>
<line class="st5" x1="105" y1="61.6" x2="108" y2="61.6"/>
<line class="st5" x1="109.1" y1="61.6" x2="111.5" y2="61.6"/>
<line class="st5" x1="112.8" y1="61.6" x2="115.7" y2="61.6"/>
<line class="st5" x1="107.1" y1="60.2" x2="109" y2="60.2"/>
<line class="st5" x1="110.2" y1="60.2" x2="112.6" y2="60.2"/>
<line class="st5" x1="113.8" y1="60.2" x2="115.7" y2="60.2"/>
<line class="st5" x1="107.1" y1="58.8" x2="109" y2="58.8"/>
<line class="st5" x1="110.2" y1="58.8" x2="112.6" y2="58.8"/>
<line class="st5" x1="113.8" y1="58.8" x2="115.7" y2="58.8"/>
<polyline class="st5" points="115.7,61.6 115.8,61.6 116,61.6 116.1,61.5 116.2,61.4 116.3,61.3 116.4,61.2 116.4,61.1 116.4,60.9 
	116.4,60.8 116.4,60.7 116.4,60.6 116.3,60.5 116.2,60.4 116.1,60.3 116,60.2 115.8,60.2 115.7,60.2 "/>
<line class="st1" x1="107.1" y1="57.3" x2="115.7" y2="57.3"/>
<polyline class="st5" points="107.1,58.8 107,58.8 106.9,58.8 106.7,58.9 106.6,58.9 106.5,59 106.5,59.2 106.4,59.3 106.4,59.4 
	106.4,59.5 106.4,59.6 106.5,59.8 106.5,59.9 106.6,60 106.7,60.1 106.9,60.1 107,60.2 107.1,60.2 "/>
<path class="st1" d="M107.1,57.3c-1.2,0-2.1,1-2.1,2.1"/>
<line class="st5" x1="108.3" y1="58.8" x2="108.3" y2="60.2"/>
<line class="st5" x1="114.5" y1="60.2" x2="114.5" y2="61.6"/>
<path class="st1" d="M119.3,60.9c0-1-0.4-1.9-1-2.6c-0.7-0.7-1.6-1.1-2.6-1.1"/>
<path class="st1" d="M119.3,60.9c0,0.4,0.3,0.7,0.7,0.7"/>
<polyline class="st5" points="117.9,60.9 117.9,61.3 118,61.7 118.2,62.1 118.4,62.4 118.7,62.7 119.1,62.9 119.5,63 119.9,63.1 "/>
<polyline class="st5" points="115.7,63.1 116.1,63 116.5,62.9 116.9,62.7 117.1,62.5 117.4,62.2 117.6,61.8 117.8,61.5 "/>
<polyline class="st5" points="117.8,60.3 117.6,59.9 117.4,59.6 117.1,59.3 116.9,59.1 116.5,58.9 116.1,58.8 115.7,58.8 "/>
<line class="st5" x1="105" y1="63.1" x2="105" y2="63.1"/>
<line class="st5" x1="105" y1="61.6" x2="104.9" y2="61.6"/>
<path class="st2" d="M129,62.8c0-9.3-7.5-16.8-16.8-16.8c-9.3,0-16.8,7.5-16.8,16.8s7.5,16.8,16.8,16.8
	C121.4,79.6,129,72.1,129,62.8"/>
<path class="st1" d="M97.4,66.4c-0.5,0.1-1.1,0.1-1.6,0.2"/>
<line class="st1" x1="122.1" y1="68.5" x2="126" y2="65.3"/>
<path class="st1" d="M121.2,68.8c0.3,0,0.7-0.1,0.9-0.3"/>
<line class="st1" x1="102.2" y1="68.5" x2="98.3" y2="65.3"/>
<path class="st1" d="M102.2,68.5c0.3,0.3,0.8,0.4,1.2,0.3"/>
<path class="st1" d="M98.3,65.3c-0.3-0.3-0.7-0.4-1.1-0.3"/>
<path class="st1" d="M127.1,64.9c-0.4,0-0.8,0.1-1.1,0.3"/>
<line class="st1" x1="123" y1="69.6" x2="126.9" y2="66.4"/>
<path class="st1" d="M121.2,70.2c0.7,0,1.3-0.2,1.8-0.6"/>
<path class="st1" d="M101.3,69.6c0.6,0.5,1.4,0.7,2.2,0.6"/>
<line class="st1" x1="101.3" y1="69.6" x2="97.4" y2="66.4"/>
<path class="st1" d="M119.3,68.1c0,0.4,0.3,0.7,0.7,0.7"/>
<path class="st1" d="M117.9,68.1c0,1.1,0.9,2.1,2,2.1"/>
<line class="st1" x1="119.9" y1="68.8" x2="121.2" y2="68.8"/>
<line class="st1" x1="119.9" y1="70.2" x2="121.2" y2="70.2"/>
<line class="st1" x1="103.5" y1="70.2" x2="115.7" y2="70.2"/>
<line class="st1" x1="103.4" y1="68.8" x2="115.7" y2="68.8"/>
<line class="st1" x1="107.1" y1="67.3" x2="115.7" y2="67.3"/>
<line class="st1" x1="107.1" y1="65.9" x2="115.7" y2="65.9"/>
<path class="st1" d="M115.7,68.7c0.4,0,0.7-0.3,0.7-0.7c0-0.4-0.3-0.7-0.7-0.7"/>
<line class="st1" x1="107.1" y1="64.5" x2="115.7" y2="64.5"/>
<path class="st1" d="M107.1,65.9c-0.4,0-0.7,0.3-0.7,0.7c0,0.4,0.3,0.7,0.7,0.7"/>
<path class="st1" d="M107.1,64.5c-1.2,0-2.1,1-2.1,2.1s1,2.1,2.1,2.1"/>
<line class="st1" x1="108.3" y1="65.9" x2="108.3" y2="67.3"/>
<line class="st1" x1="114.5" y1="67.3" x2="114.5" y2="68.8"/>
<path class="st1" d="M119.3,68.1c0-1-0.4-1.9-1-2.6c-0.7-0.7-1.6-1.1-2.6-1.1"/>
<path class="st1" d="M115.7,70.2c1.2,0,2.1-1,2.1-2.1s-1-2.1-2.1-2.1"/>
<line class="st1" x1="105" y1="59.4" x2="105" y2="66.6"/>
<line class="st1" x1="119.3" y1="60.9" x2="119.3" y2="68.1"/>
<polyline class="st5" points="105,59.4 105,59.9 105.1,60.2 105.3,60.5 105.5,60.8 105.7,61.1 106.1,61.3 106.4,61.5 106.7,61.6 
	107.1,61.6 "/>
</svg>
