<?xml version="1.0" encoding="utf-8"?>
<!-- Generator: Adobe Illustrator 21.1.0, SVG Export Plug-In . SVG Version: 6.00 Build 0)  -->
<svg version="1.1" id="Слой_1" xmlns="http://www.w3.org/2000/svg" xmlns:xlink="http://www.w3.org/1999/xlink" x="0px" y="0px"
	 viewBox="0 0 85.7 120.8" style="enable-background:new 0 0 85.7 120.8;" xml:space="preserve">
<style type="text/css">
	.st0{fill:none;stroke:#262424;stroke-width:0.255;stroke-linecap:round;stroke-linejoin:round;stroke-miterlimit:10;}
	.st1{fill:none;stroke:#CB2628;stroke-width:0.15;stroke-linecap:round;stroke-linejoin:round;stroke-miterlimit:10;}
	.st2{fill:#CB2628;}
	.st3{fill:none;stroke:#CB2628;stroke-width:0.15;stroke-linecap:round;stroke-miterlimit:10;}
	.st4{fill:#43539F;}
</style>
<line class="st0" x1="22.2" y1="102.5" x2="63.5" y2="102.5"/>
<line class="st0" x1="22.2" y1="104.3" x2="63.5" y2="104.3"/>
<line class="st0" x1="63.5" y1="104.9" x2="22.2" y2="104.9"/>
<polyline class="st0" points="76,52.1 76,52.2 76.1,52.4 76.1,52.4 76.1,52.4 76.1,52.7 "/>
<line class="st0" x1="76" y1="52.4" x2="76" y2="52.1"/>
<polyline class="st0" points="76,52.4 76,52.5 76.1,52.6 76.1,52.6 76.1,52.7 "/>
<polyline class="st0" points="9.6,52.2 9.7,52.1 9.8,52 9.9,51.7 10,51.5 10.2,51.2 10.3,50.9 10.5,50.5 10.7,50.1 11.1,49.2 
	11.6,48.2 12.1,47 12.5,45.8 13,44.5 13.4,43 13.8,41.5 14.2,39.8 14.5,38 14.8,36.2 15,34.2 15.1,32.2 15.3,26 "/>
<polyline class="st0" points="76,52.1 75.9,51.9 75.8,51.7 75.6,51.5 75.5,51.2 75.4,50.9 75.2,50.5 74.8,49.7 74.4,48.8 73.9,47.8 
	73.5,46.6 73.1,45.4 72.6,44.1 72.2,42.7 71.8,41.2 71.5,39.5 71.1,37.8 70.9,36 70.7,34.2 70.6,32.2 70.4,26 "/>
<polyline class="st0" points="30.6,80.9 30.8,81.8 30.8,82.6 29.9,82.7 29.9,81.8 29.8,80.9 30.6,80.9 "/>
<polyline class="st0" points="29.9,82.7 28.6,82.7 27.4,82.7 26.3,82.7 25.3,82.8 24.4,82.8 23.6,82.8 23,82.9 22.5,82.9 22.5,82.4 
	22.4,81.8 22.3,81.3 22.1,80.7 22.6,80.8 23.3,80.8 24.1,80.8 25,80.8 26,80.9 27.1,80.9 28.4,80.9 29.8,80.9 "/>
<polyline class="st0" points="22.5,82.9 22.3,82.9 22.1,82.9 22,83 21.9,83 "/>
<polyline class="st0" points="21.5,80.7 21.5,80.7 21.7,80.7 21.8,80.7 22.1,80.7 "/>
<polyline class="st0" points="63.8,83 63.7,82.9 63.6,82.9 63.4,82.9 63.2,82.9 63.2,82.4 63.3,81.8 63.4,81.3 63.6,80.7 63.9,80.7 
	64,80.7 64.2,80.7 64.2,80.7 "/>
<polyline class="st0" points="63.2,82.9 62.7,82.9 62.1,82.8 61.3,82.8 60.4,82.8 59.4,82.7 58.3,82.7 57.1,82.7 55.8,82.7 
	55.8,81.8 55.9,80.9 57.3,80.9 58.6,80.9 59.7,80.9 60.7,80.8 61.6,80.8 62.4,80.8 63.1,80.8 63.6,80.7 "/>
<polyline class="st0" points="55.8,82.7 54.8,82.6 54.9,81.8 55.1,80.9 55.9,80.9 "/>
<polyline class="st0" points="54.8,82.6 53.5,82.5 52.1,82.4 50.6,82.3 49.1,82.2 46,82.1 42.8,82 39.6,82.1 36.6,82.2 35.1,82.3 
	33.6,82.4 32.2,82.5 30.8,82.6 "/>
<polyline class="st0" points="30.6,80.9 32,81 33.5,81.1 35,81.2 36.5,81.3 39.6,81.4 42.8,81.4 46,81.4 49.2,81.3 50.7,81.2 
	52.2,81.1 53.7,81 55.1,80.9 "/>
<polyline class="st0" points="75.6,53 75.6,53 75.5,53 75.3,53 75,52.9 74.8,52.8 74.6,52.6 63.6,80.7 "/>
<polyline class="st0" points="74.6,52.6 74.1,52.4 73.6,52 73.1,51.6 72.6,51 72.1,50.5 71.6,49.8 71.1,49.1 70.6,48.3 70,47.4 
	69.6,46.5 69.1,45.6 68.7,44.5 68.3,43.4 68,42.2 67.7,41 67.5,39.7 55.9,80.9 "/>
<polyline class="st0" points="67.5,39.7 67.8,36.1 68,34.3 68,33.3 68,32.9 68,32.8 67.9,32.6 55.1,80.9 "/>
<polyline class="st0" points="67.9,32.6 67.8,32.6 67.6,32.5 67.2,32.4 66.4,32.3 64.9,31.9 61.8,31.3 58.7,30.7 55.5,30.2 
	52.4,29.7 49.2,29.3 46,29 44.4,28.9 42.8,28.9 "/>
<line class="st0" x1="30.6" y1="80.9" x2="17.8" y2="32.6"/>
<line class="st0" x1="29.8" y1="80.9" x2="18.2" y2="39.8"/>
<polyline class="st0" points="74.6,52.6 74.7,52.4 75,52.1 75.3,52 75.6,51.9 75.8,52.1 76,52.4 "/>
<polyline class="st0" points="67.5,39.7 68,39.5 68.6,39.3 69.2,39.2 69.8,39.1 70,40.2 70.2,41.4 70.4,42.5 70.8,43.5 71.1,44.5 
	71.5,45.4 71.9,46.3 72.3,47.2 72.8,48 73.2,48.7 73.6,49.4 74.1,50 74.5,50.6 74.9,51.1 75.2,51.5 75.6,51.9 "/>
<polyline class="st0" points="67.9,32.6 68,32.4 68.2,32.5 68.4,32.7 68.6,33.2 68.9,34 69.1,34.9 69.3,35.7 69.6,37.4 69.8,39.1 
	"/>
<polyline class="st0" points="42.8,28.9 44.4,28.9 46,29 49.2,29.3 52.4,29.6 55.5,30.1 58.7,30.6 61.8,31.1 64.9,31.7 68,32.4 "/>
<polyline class="st0" points="70.4,26 70.6,32.3 70.7,34.2 70.9,36.1 71.1,37.9 71.5,39.7 71.8,41.3 72.2,42.9 72.6,44.3 73.1,45.6 
	73.5,46.8 73.9,48 74.4,49 74.8,50 75.2,50.8 75.4,51.1 75.5,51.4 75.6,51.7 75.8,52 75.9,52.2 76,52.4 "/>
<line class="st0" x1="70.4" y1="26" x2="15.3" y2="26"/>
<polyline class="st0" points="15.3,26 15.1,32.3 15,34.3 14.8,36.2 14.5,38.1 14.2,40 13.8,41.6 13.4,43.2 13,44.7 12.5,46 
	12.1,47.3 11.6,48.4 11.1,49.4 10.7,50.4 10.5,50.8 10.3,51.1 10.2,51.4 10,51.7 9.9,52 9.8,52.2 9.7,52.4 9.6,52.5 "/>
<line class="st0" x1="70" y1="14.7" x2="70.4" y2="26"/>
<path class="st0" d="M70,14.7c0-1.1-1-2.1-2.1-2.1"/>
<line class="st0" x1="60.7" y1="12.6" x2="67.9" y2="12.6"/>
<path class="st0" d="M60.8,12.6c-1.1,0-2.1,0.9-2.1,2.1"/>
<line class="st0" x1="58.3" y1="24.4" x2="58.6" y2="14.7"/>
<path class="st0" d="M56.2,24.4c0,0.6,0.5,1,1.1,1c0.6,0,1.1-0.5,1.1-1"/>
<line class="st0" x1="55.8" y1="14.7" x2="56.1" y2="24.4"/>
<path class="st0" d="M55.8,14.7c0-1.1-1-2.1-2.1-2.1"/>
<line class="st0" x1="46.4" y1="12.6" x2="53.6" y2="12.6"/>
<path class="st0" d="M46.4,12.6c-1.1,0-2.1,0.9-2.1,2.1"/>
<line class="st0" x1="43.9" y1="24.4" x2="44.3" y2="14.7"/>
<path class="st0" d="M41.8,24.4c0,0.6,0.5,1,1.1,1s1.1-0.5,1.1-1"/>
<line class="st0" x1="41.4" y1="14.7" x2="41.8" y2="24.4"/>
<path class="st0" d="M41.5,14.7c0-1.1-1-2.1-2.1-2.1"/>
<line class="st0" x1="32" y1="12.6" x2="39.3" y2="12.6"/>
<path class="st0" d="M32.1,12.6c-1.1,0-2.1,0.9-2.1,2.1"/>
<line class="st0" x1="29.6" y1="24.4" x2="29.9" y2="14.7"/>
<path class="st0" d="M27.4,24.4c0,0.6,0.5,1,1.1,1s1.1-0.5,1.1-1"/>
<line class="st0" x1="27.1" y1="14.7" x2="27.4" y2="24.4"/>
<path class="st0" d="M27.1,14.7c0-1.1-1-2.1-2.1-2.1"/>
<line class="st0" x1="17.8" y1="12.6" x2="25" y2="12.6"/>
<path class="st0" d="M17.9,12.6c-1.1,0-2.1,0.9-2.1,2.1"/>
<line class="st0" x1="15.3" y1="26" x2="15.7" y2="14.7"/>
<line class="st0" x1="22.1" y1="80.7" x2="11.1" y2="52.6"/>
<line class="st0" x1="9.6" y1="52.5" x2="9.6" y2="52.2"/>
<line class="st0" x1="15.1" y1="32.3" x2="15.1" y2="32.3"/>
<line class="st0" x1="70.6" y1="32.3" x2="70.6" y2="32.3"/>
<line class="st0" x1="22.2" y1="104.9" x2="22.2" y2="104.3"/>
<line class="st0" x1="63.5" y1="104.9" x2="63.5" y2="104.3"/>
<path class="st0" d="M22,82.9c0-0.8-0.2-1.6-0.5-2.3"/>
<path class="st0" d="M64.2,80.7c-0.3,0.7-0.5,1.5-0.5,2.3"/>
<line class="st0" x1="75.6" y1="53" x2="64.2" y2="80.7"/>
<line class="st0" x1="22.2" y1="102.5" x2="21.9" y2="83"/>
<line class="st0" x1="63.5" y1="102.5" x2="63.8" y2="83"/>
<polyline class="st0" points="76.1,52.7 76,52.7 75.8,52.8 75.7,52.9 75.6,53 "/>
<line class="st0" x1="21.5" y1="80.7" x2="10.1" y2="53"/>
<line class="st0" x1="9.5" y1="52.7" x2="9.5" y2="52.4"/>
<line class="st0" x1="22.1" y1="102.6" x2="63.6" y2="102.6"/>
<line class="st0" x1="21.7" y1="103.1" x2="64" y2="103.1"/>
<line class="st0" x1="21.7" y1="103.7" x2="64" y2="103.7"/>
<line class="st0" x1="22.2" y1="104.1" x2="63.5" y2="104.1"/>
<path class="st0" d="M22.2,102.6c0.1-0.1,0.1-0.1,0.1-0.2"/>
<path class="st0" d="M63.5,102.4c0,0.1,0,0.1,0.1,0.2"/>
<line class="st0" x1="63.6" y1="102.6" x2="64" y2="103.1"/>
<line class="st0" x1="22.1" y1="102.6" x2="21.7" y2="103.1"/>
<line class="st0" x1="22.2" y1="104.1" x2="21.7" y2="103.7"/>
<line class="st0" x1="63.5" y1="104.1" x2="64" y2="103.7"/>
<path class="st0" d="M22.3,104.3c0-0.1,0-0.1-0.1-0.2"/>
<path class="st0" d="M63.5,104.1c-0.1,0.1-0.1,0.1-0.1,0.2"/>
<path class="st0" d="M21.7,103.1c-0.2,0.2-0.2,0.4,0,0.6"/>
<path class="st0" d="M64,103.6c0.2-0.2,0.2-0.4,0-0.6"/>
<polyline class="st0" points="9.5,52.4 9.6,52.4 9.6,52.2 "/>
<polyline class="st0" points="42.8,28.9 41.2,28.9 39.6,29 36.5,29.3 33.3,29.7 30.2,30.2 27,30.7 23.9,31.3 20.8,31.9 19.3,32.3 
	18.5,32.4 18.1,32.5 17.9,32.6 17.8,32.6 17.7,32.8 17.7,32.9 17.7,33.4 17.7,34.3 17.9,36.1 18.2,39.8 "/>
<polyline class="st0" points="18.2,39.8 17.7,39.5 17.1,39.3 16.5,39.2 15.8,39.1 16.1,37.4 16.4,35.7 16.6,34.9 16.8,34 17.1,33.2 
	17.3,32.7 17.5,32.5 17.7,32.4 17.8,32.6 "/>
<polyline class="st0" points="18.2,39.8 18,41 17.7,42.3 17.4,43.5 17,44.6 16.6,45.6 16.2,46.6 15.7,47.6 15.2,48.4 14.7,49.2 
	14.2,49.9 13.7,50.5 13.1,51.1 12.6,51.6 12.1,52.1 11.6,52.4 11.1,52.6 11,52.4 10.7,52.1 10.4,52 10.1,51.9 10.4,51.5 10.8,51.1 
	11.1,50.6 11.5,50 11.9,49.4 12.4,48.7 12.8,48 13.3,47.2 13.7,46.3 14.1,45.4 14.5,44.5 14.9,43.5 15.2,42.5 15.5,41.4 15.7,40.3 
	15.8,39.1 "/>
<polyline class="st0" points="9.5,52.7 9.5,52.6 9.6,52.5 "/>
<polyline class="st0" points="11.1,52.6 10.7,52.9 10.4,53 10.2,53 10.1,53 "/>
<polyline class="st0" points="9.6,52.5 9.7,52.4 9.8,52.2 9.9,52.1 10.1,51.9 "/>
<polyline class="st0" points="17.7,32.4 20.8,31.7 23.9,31.1 27,30.6 30.2,30.1 33.3,29.6 36.5,29.3 39.6,29 41.2,28.9 42.8,28.9 
	"/>
<polyline class="st0" points="10.1,53 10,52.9 9.9,52.8 9.7,52.7 9.5,52.7 "/>
<polyline class="st0" points="9.5,52.4 9.6,52.4 9.6,52.2 9.7,52.1 9.8,52 9.9,51.7 10,51.5 10.2,51.2 10.3,50.9 10.5,50.5 
	10.7,50.1 11.1,49.2 11.6,48.2 12.1,47 12.5,45.8 13,44.5 13.4,43 13.8,41.5 14.2,39.8 14.5,38 14.8,36.2 15,34.2 15.1,32.2 
	15.3,26 "/>
<polyline class="st0" points="76,52.1 75.9,51.9 75.8,51.7 75.6,51.5 75.5,51.2 75.4,50.9 75.2,50.5 74.8,49.7 74.4,48.8 73.9,47.8 
	73.5,46.6 73.1,45.4 72.6,44.1 72.2,42.7 71.8,41.2 71.5,39.5 71.1,37.8 70.9,36 70.7,34.2 70.6,32.2 70.4,26 "/>
<line class="st0" x1="85.6" y1="23.3" x2="85.6" y2="22.5"/>
<line class="st0" x1="85.6" y1="23.3" x2="70.3" y2="23.3"/>
<line class="st0" x1="58.3" y1="23.3" x2="56.1" y2="23.3"/>
<line class="st0" x1="43.9" y1="23.3" x2="41.8" y2="23.3"/>
<line class="st0" x1="29.6" y1="23.3" x2="27.4" y2="23.3"/>
<line class="st0" x1="15.4" y1="23.3" x2="0.1" y2="23.3"/>
<line class="st0" x1="0.1" y1="22.5" x2="0.1" y2="23.3"/>
<line class="st0" x1="85.6" y1="23.3" x2="85.6" y2="24.8"/>
<line class="st0" x1="85.6" y1="24.8" x2="70.3" y2="24.8"/>
<line class="st0" x1="58.2" y1="24.8" x2="56.2" y2="24.8"/>
<line class="st0" x1="43.8" y1="24.8" x2="41.9" y2="24.8"/>
<line class="st0" x1="29.5" y1="24.8" x2="27.5" y2="24.8"/>
<line class="st0" x1="15.4" y1="24.8" x2="0.1" y2="24.8"/>
<line class="st0" x1="0.1" y1="24.8" x2="0.1" y2="23.3"/>
<line class="st0" x1="85.6" y1="52.4" x2="85.6" y2="24.8"/>
<line class="st0" x1="0.1" y1="24.8" x2="0.1" y2="52.4"/>
<line class="st0" x1="85.6" y1="22.5" x2="70.3" y2="22.5"/>
<line class="st0" x1="58.3" y1="22.5" x2="56.1" y2="22.5"/>
<line class="st0" x1="44" y1="22.5" x2="41.7" y2="22.5"/>
<line class="st0" x1="29.6" y1="22.5" x2="27.4" y2="22.5"/>
<line class="st0" x1="15.4" y1="22.5" x2="0.1" y2="22.5"/>
<line class="st0" x1="85.6" y1="52.4" x2="76.1" y2="52.4"/>
<line class="st0" x1="9.5" y1="52.4" x2="0.1" y2="52.4"/>
<line class="st0" x1="0.1" y1="22.5" x2="0.1" y2="23.3"/>
<line class="st0" x1="85.6" y1="23.3" x2="70.3" y2="23.3"/>
<line class="st0" x1="58.3" y1="23.3" x2="56.1" y2="23.3"/>
<line class="st0" x1="43.9" y1="23.3" x2="41.8" y2="23.3"/>
<line class="st0" x1="29.6" y1="23.3" x2="27.4" y2="23.3"/>
<line class="st0" x1="15.4" y1="23.3" x2="0.1" y2="23.3"/>
<line class="st0" x1="85.6" y1="23.3" x2="85.6" y2="22.5"/>
<line class="st0" x1="0.1" y1="24.8" x2="0.1" y2="23.3"/>
<line class="st0" x1="85.6" y1="24.8" x2="70.3" y2="24.8"/>
<line class="st0" x1="58.2" y1="24.8" x2="56.2" y2="24.8"/>
<line class="st0" x1="43.8" y1="24.8" x2="41.9" y2="24.8"/>
<line class="st0" x1="29.5" y1="24.8" x2="27.5" y2="24.8"/>
<line class="st0" x1="15.4" y1="24.8" x2="0.1" y2="24.8"/>
<line class="st0" x1="85.6" y1="23.3" x2="85.6" y2="24.8"/>
<line class="st0" x1="0.1" y1="24.8" x2="0.1" y2="52.4"/>
<line class="st0" x1="85.6" y1="52.4" x2="85.6" y2="24.8"/>
<line class="st0" x1="85.6" y1="22.5" x2="70.3" y2="22.5"/>
<line class="st0" x1="58.3" y1="22.5" x2="56.1" y2="22.5"/>
<line class="st0" x1="44" y1="22.5" x2="41.7" y2="22.5"/>
<line class="st0" x1="29.6" y1="22.5" x2="27.4" y2="22.5"/>
<line class="st0" x1="15.4" y1="22.5" x2="0.1" y2="22.5"/>
<line class="st0" x1="85.6" y1="52.4" x2="76.1" y2="52.4"/>
<line class="st0" x1="9.5" y1="52.4" x2="0.1" y2="52.4"/>
<line class="st1" x1="15.3" y1="25.1" x2="15.3" y2="4"/>
<line class="st1" x1="70.4" y1="25.1" x2="70.4" y2="4"/>
<line class="st1" x1="17.4" y1="6.7" x2="68.3" y2="6.7"/>
<polygon class="st2" points="17.4,6.4 17.4,7.1 15.3,6.7 "/>
<polygon class="st3" points="17.4,6.4 17.4,7.1 15.3,6.7 "/>
<polygon class="st2" points="68.3,6.4 68.3,7.1 70.4,6.7 "/>
<polygon class="st3" points="68.3,6.4 68.3,7.1 70.4,6.7 "/>
<g>
	<path class="st4" d="M39.1,1.4l-0.8,0.2l-0.1-0.4l1-0.4h0.3v4.2h-0.5V1.4z"/>
	<path class="st4" d="M40.5,4.7L42,3.4c0.6-0.6,0.9-0.9,0.9-1.3c0-0.5-0.4-0.8-0.8-0.8c-0.5,0-0.8,0.3-1.1,0.7l-0.3-0.3
		c0.4-0.6,0.8-0.9,1.5-0.9c0.8,0,1.3,0.5,1.3,1.2c0,0.6-0.3,1-1.1,1.6l-1.1,1h2.2v0.4h-2.9V4.7z"/>
	<path class="st4" d="M44.3,4.7l0.3-0.4c0.3,0.3,0.7,0.4,1,0.4c0.7,0,1.2-0.7,1.2-1.8V2.9c-0.2,0.4-0.6,0.7-1.2,0.7
		c-0.9,0-1.5-0.5-1.5-1.3c0-0.8,0.6-1.4,1.5-1.4c0.9,0,1.6,0.6,1.6,2.1c0,1.3-0.7,2.3-1.7,2.3C45,5.2,44.6,5,44.3,4.7z M46.7,2.2
		c0-0.5-0.4-1-1.1-1s-1,0.5-1,1s0.4,0.9,1,0.9C46.3,3.2,46.7,2.7,46.7,2.2z"/>
</g>
<line class="st1" x1="21.6" y1="104.2" x2="21.6" y2="120.7"/>
<line class="st1" x1="64.1" y1="104.2" x2="64.1" y2="120.7"/>
<line class="st1" x1="23.7" y1="118" x2="62" y2="118"/>
<polygon class="st2" points="23.7,117.6 23.7,118.3 21.6,118 "/>
<polygon class="st3" points="23.7,117.6 23.7,118.3 21.6,118 "/>
<polygon class="st2" points="62,117.6 62,118.3 64.1,118 "/>
<polygon class="st3" points="62,117.6 62,118.3 64.1,118 "/>
<path class="st4" d="M38.3,115c-0.3,0.3-0.6,0.5-1.1,0.5c-0.2,0-0.4,0-0.6-0.1l-0.5,0.8l-0.3-0.2l0.5-0.8c-0.2-0.1-0.3-0.3-0.4-0.6
	s-0.2-0.5-0.2-0.7c0-0.4,0.1-0.8,0.4-1.1c0.3-0.3,0.6-0.4,1.1-0.4c0.2,0,0.4,0,0.6,0.1l0.5-0.8l0.3,0.2l-0.5,0.8
	c0.2,0.1,0.3,0.3,0.5,0.5c0.1,0.2,0.2,0.5,0.2,0.7C38.8,114.4,38.6,114.7,38.3,115 M37.7,112.8c-0.1-0.1-0.3-0.1-0.4-0.1
	c-0.3,0-0.6,0.1-0.8,0.3c-0.2,0.2-0.3,0.5-0.3,0.9c0,0.4,0.1,0.7,0.4,0.9L37.7,112.8z M38.4,113.9c0-0.4-0.1-0.7-0.4-0.9l-1.2,2.1
	c0.1,0.1,0.3,0.1,0.4,0.1c0.3,0,0.6-0.1,0.9-0.3C38.3,114.6,38.4,114.3,38.4,113.9"/>
<g>
	<path class="st4" d="M39.4,115l0.3-0.4c0.3,0.3,0.7,0.5,1,0.5c0.7,0,1.2-0.7,1.2-1.8v-0.1c-0.2,0.4-0.6,0.7-1.2,0.7
		c-0.9,0-1.5-0.5-1.5-1.3c0-0.8,0.6-1.4,1.5-1.4c0.9,0,1.6,0.6,1.6,2.1c0,1.3-0.7,2.3-1.7,2.3C40.2,115.5,39.8,115.3,39.4,115z
		 M41.9,112.5c0-0.5-0.4-1-1.1-1s-1,0.5-1,1c0,0.5,0.4,0.9,1,0.9C41.5,113.5,41.9,113,41.9,112.5z"/>
	<path class="st4" d="M43.3,115l0.3-0.4c0.3,0.3,0.7,0.5,1,0.5c0.7,0,1.2-0.7,1.2-1.8v-0.1c-0.2,0.4-0.6,0.7-1.2,0.7
		c-0.9,0-1.5-0.5-1.5-1.3c0-0.8,0.6-1.4,1.5-1.4c0.9,0,1.6,0.6,1.6,2.1c0,1.3-0.7,2.3-1.7,2.3C44.1,115.5,43.7,115.3,43.3,115z
		 M45.8,112.5c0-0.5-0.4-1-1.1-1s-1,0.5-1,1c0,0.5,0.4,0.9,1,0.9C45.4,113.5,45.8,113,45.8,112.5z"/>
	<path class="st4" d="M47,115.9c0.3-0.1,0.4-0.2,0.4-0.5v-0.1h-0.2v-0.6h0.6v0.5c0,0.5-0.2,0.7-0.7,0.8L47,115.9z"/>
	<path class="st4" d="M48.5,114.8l0.3-0.3c0.4,0.4,0.8,0.6,1.2,0.6c0.6,0,1-0.4,1-0.9c0-0.5-0.4-0.9-1-0.9c-0.4,0-0.6,0.1-0.9,0.2
		l-0.3-0.2l0.1-2h2.4v0.4h-2l-0.1,1.3c0.2-0.1,0.5-0.2,0.8-0.2c0.8,0,1.5,0.5,1.5,1.3c0,0.8-0.6,1.4-1.5,1.4
		C49.4,115.5,48.9,115.2,48.5,114.8z"/>
</g>
<line class="st1" x1="9.5" y1="53.5" x2="9.5" y2="60.6"/>
<line class="st1" x1="76.1" y1="53.5" x2="76.1" y2="60.6"/>
<line class="st1" x1="11.7" y1="57.9" x2="74" y2="57.9"/>
<polygon class="st2" points="11.7,57.6 11.7,58.3 9.5,57.9 "/>
<polygon class="st3" points="11.7,57.6 11.7,58.3 9.5,57.9 "/>
<polygon class="st2" points="74,57.6 74,58.3 76.1,57.9 "/>
<polygon class="st3" points="74,57.6 74,58.3 76.1,57.9 "/>
<g>
	<path class="st4" d="M37.6,54.5c0.1-0.5,0.3-0.6,0.6-0.6c0.3,0,0.6,0.2,0.8,0.2c0.2,0,0.2-0.1,0.3-0.3l0.3,0.1
		c-0.1,0.5-0.3,0.6-0.6,0.6c-0.3,0-0.6-0.2-0.8-0.2c-0.2,0-0.2,0.1-0.3,0.3L37.6,54.5z"/>
	<path class="st4" d="M41,52.3l-0.8,0.2l-0.1-0.4l1-0.4h0.3V56H41V52.3z"/>
	<path class="st4" d="M42.4,55.4l0.3-0.3c0.4,0.4,0.8,0.6,1.2,0.6c0.6,0,1-0.4,1-0.9c0-0.5-0.4-0.9-1-0.9c-0.4,0-0.6,0.1-0.9,0.2
		l-0.3-0.2l0.1-2h2.4v0.4h-2l-0.1,1.3c0.2-0.1,0.5-0.2,0.8-0.2c0.8,0,1.5,0.5,1.5,1.3c0,0.8-0.6,1.4-1.5,1.4
		C43.3,56.1,42.8,55.8,42.4,55.4z"/>
	<path class="st4" d="M46.1,53.9c0-1.2,0.7-2.2,1.8-2.2c1.1,0,1.8,1,1.8,2.2c0,1.2-0.7,2.2-1.8,2.2C46.8,56.1,46.1,55.1,46.1,53.9z
		 M49.2,53.9c0-0.9-0.5-1.7-1.3-1.7c-0.8,0-1.3,0.8-1.3,1.7c0,0.9,0.5,1.7,1.3,1.7C48.7,55.6,49.2,54.8,49.2,53.9z"/>
</g>
<polyline class="st1" points="61.5,94.9 42.8,94.8 24.2,94.9 "/>
<polygon class="st2" points="61.5,94.6 61.4,95.3 63.6,94.9 "/>
<polygon class="st3" points="61.5,94.6 61.4,95.3 63.6,94.9 "/>
<polygon class="st2" points="24.3,95.3 24.2,94.6 22.1,94.9 "/>
<polygon class="st3" points="24.3,95.3 24.2,94.6 22.1,94.9 "/>
<g>
	<path class="st4" d="M38.2,91.9c0.1-0.5,0.3-0.6,0.6-0.6c0.3,0,0.6,0.2,0.8,0.2c0.2,0,0.2-0.1,0.3-0.3l0.3,0.1
		c-0.1,0.5-0.3,0.6-0.6,0.6c-0.3,0-0.6-0.2-0.8-0.2c-0.2,0-0.2,0.1-0.3,0.3L38.2,91.9z"/>
	<path class="st4" d="M41.6,89.6l-0.8,0.2l-0.1-0.4l1-0.4h0.3v4.2h-0.5V89.6z"/>
	<path class="st4" d="M43,93.9c0.3-0.1,0.4-0.2,0.4-0.5v-0.1h-0.2v-0.6h0.6v0.5c0,0.5-0.2,0.7-0.7,0.8L43,93.9z"/>
	<path class="st4" d="M44.5,92.8l0.3-0.3c0.4,0.4,0.8,0.6,1.2,0.6c0.6,0,1-0.4,1-0.9c0-0.5-0.4-0.9-1-0.9c-0.4,0-0.6,0.1-0.9,0.2
		l-0.3-0.2l0.1-2h2.4v0.4h-2l-0.1,1.3c0.2-0.1,0.5-0.2,0.8-0.2c0.8,0,1.5,0.5,1.5,1.3c0,0.8-0.6,1.4-1.5,1.4
		C45.4,93.4,44.9,93.2,44.5,92.8z"/>
	<path class="st4" d="M48.3,90c0-0.5,0.5-0.9,0.9-0.9c0.5,0,0.9,0.4,0.9,0.9c0,0.5-0.4,0.9-0.9,0.9C48.7,91,48.3,90.5,48.3,90z
		 M49.8,90c0-0.3-0.3-0.6-0.6-0.6s-0.6,0.3-0.6,0.6c0,0.3,0.3,0.6,0.6,0.6S49.8,90.4,49.8,90z"/>
</g>
<line class="st1" x1="62.8" y1="83.7" x2="60.4" y2="90.2"/>
<line class="st1" x1="22.2" y1="83.7" x2="19.8" y2="90.2"/>
<line class="st1" x1="59.3" y1="87.5" x2="22.9" y2="87.5"/>
<line class="st1" x1="20.8" y1="87.5" x2="6.1" y2="87.5"/>
<polygon class="st2" points="59.3,87.1 59.3,87.9 61.4,87.5 "/>
<polygon class="st3" points="59.3,87.1 59.3,87.9 61.4,87.5 "/>
<polygon class="st2" points="22.9,87.1 22.9,87.9 20.8,87.5 "/>
<polygon class="st3" points="22.9,87.1 22.9,87.9 20.8,87.5 "/>
<path class="st4" d="M7,85.1c-0.3,0.3-0.6,0.5-1.1,0.5c-0.2,0-0.4,0-0.6-0.1l-0.5,0.8l-0.3-0.2L5,85.3c-0.2-0.1-0.3-0.3-0.4-0.6
	c-0.1-0.2-0.2-0.5-0.2-0.7c0-0.4,0.1-0.8,0.4-1.1c0.3-0.3,0.6-0.4,1.1-0.4c0.2,0,0.4,0,0.6,0.1L7,81.8L7.3,82l-0.5,0.8
	c0.2,0.1,0.3,0.3,0.5,0.5c0.1,0.2,0.2,0.5,0.2,0.7C7.5,84.5,7.3,84.8,7,85.1 M6.4,82.9c-0.1-0.1-0.3-0.1-0.4-0.1
	c-0.3,0-0.6,0.1-0.8,0.3c-0.2,0.2-0.3,0.5-0.3,0.9c0,0.4,0.1,0.7,0.4,0.9L6.4,82.9z M7.1,84c0-0.4-0.1-0.7-0.4-0.9l-1.2,2.1
	c0.1,0.1,0.3,0.1,0.4,0.1c0.3,0,0.6-0.1,0.9-0.3C7,84.7,7.1,84.4,7.1,84"/>
<g>
	<path class="st4" d="M8.1,85.1l0.3-0.4c0.3,0.3,0.7,0.5,1,0.5c0.7,0,1.2-0.7,1.2-1.8v-0.1c-0.2,0.4-0.6,0.7-1.2,0.7
		c-0.9,0-1.5-0.5-1.5-1.3c0-0.8,0.6-1.4,1.5-1.4c0.9,0,1.6,0.6,1.6,2.1c0,1.3-0.7,2.3-1.7,2.3C8.9,85.6,8.5,85.4,8.1,85.1z
		 M10.6,82.6c0-0.5-0.4-1-1.1-1s-1,0.5-1,1c0,0.5,0.4,0.9,1,0.9C10.2,83.6,10.6,83.1,10.6,82.6z"/>
	<path class="st4" d="M11.9,84.9l0.3-0.3c0.4,0.4,0.8,0.6,1.2,0.6c0.6,0,1-0.4,1-0.9c0-0.5-0.4-0.9-1-0.9c-0.4,0-0.6,0.1-0.9,0.2
		l-0.3-0.2l0.1-2h2.4v0.4h-2l-0.1,1.3c0.2-0.1,0.5-0.2,0.8-0.2c0.8,0,1.5,0.5,1.5,1.3c0,0.8-0.6,1.4-1.5,1.4
		C12.8,85.6,12.3,85.3,11.9,84.9z"/>
	<path class="st4" d="M15.5,86c0.3-0.1,0.4-0.2,0.4-0.5v-0.1h-0.2v-0.6h0.6v0.5c0,0.5-0.2,0.7-0.7,0.8L15.5,86z"/>
	<path class="st4" d="M17,85.1l1.5-1.3c0.6-0.6,0.9-0.9,0.9-1.3c0-0.5-0.4-0.8-0.8-0.8c-0.5,0-0.8,0.3-1.1,0.7l-0.3-0.3
		c0.4-0.6,0.8-0.9,1.5-0.9c0.8,0,1.3,0.5,1.3,1.2c0,0.6-0.3,1-1.1,1.6l-1.1,1h2.2v0.4H17V85.1z"/>
</g>
</svg>
