<?xml version="1.0" encoding="utf-8"?>
<!-- Generator: Adobe Illustrator 21.1.0, SVG Export Plug-In . SVG Version: 6.00 Build 0)  -->
<svg version="1.1" id="Слой_1" xmlns="http://www.w3.org/2000/svg" xmlns:xlink="http://www.w3.org/1999/xlink" x="0px" y="0px"
	 viewBox="0 0 126.5 146.5" style="enable-background:new 0 0 126.5 146.5;" xml:space="preserve">
<style type="text/css">
	.st0{fill:none;stroke:#262424;stroke-width:0.255;stroke-linecap:round;stroke-linejoin:round;stroke-miterlimit:10;}
	.st1{fill:#43539F;}
	.st2{fill:none;stroke:#CB2628;stroke-width:0.15;stroke-linecap:round;stroke-linejoin:round;stroke-miterlimit:10;}
	.st3{fill:#CB2628;}
	.st4{fill:none;stroke:#CB2628;stroke-width:0.15;stroke-linecap:round;stroke-miterlimit:10;}
	.st5{fill:#CB2128;}
</style>
<polygon class="st0" points="24.1,13.3 124.9,13.3 124.9,49.7 23.7,49.7 "/>
<rect x="22.6" y="49.7" class="st0" width="103.8" height="1.1"/>
<rect x="54.2" y="100.3" class="st0" width="40.6" height="1.1"/>
<polygon class="st0" points="93.1,100.3 56.9,100.3 25.1,50.9 124.9,50.9 "/>
<rect x="57.1" y="101.4" class="st0" width="35" height="31.5"/>
<g>
	<path class="st1" d="M68.7,4.4l0.3-0.3c0.3,0.4,0.7,0.6,1.2,0.6c0.5,0,0.9-0.3,0.9-0.8c0-0.5-0.5-0.8-1.2-0.8h-0.3l-0.1-0.3L71,1.3
		h-2.1V0.9h2.7v0.3l-1.3,1.5c0.7,0.1,1.4,0.4,1.4,1.2c0,0.7-0.6,1.3-1.4,1.3C69.6,5.2,69.1,4.9,68.7,4.4z"/>
	<path class="st1" d="M72.5,3c0-1.2,0.7-2.2,1.8-2.2c1.1,0,1.8,1,1.8,2.2c0,1.2-0.7,2.2-1.8,2.2C73.2,5.2,72.5,4.2,72.5,3z M75.5,3
		c0-0.9-0.5-1.7-1.3-1.7C73.5,1.3,73,2.1,73,3c0,0.9,0.5,1.7,1.3,1.7C75,4.7,75.5,3.9,75.5,3z"/>
	<path class="st1" d="M76.8,3c0-1.2,0.7-2.2,1.8-2.2c1.1,0,1.8,1,1.8,2.2c0,1.2-0.7,2.2-1.8,2.2C77.4,5.2,76.8,4.2,76.8,3z M79.8,3
		c0-0.9-0.5-1.7-1.3-1.7c-0.8,0-1.3,0.8-1.3,1.7c0,0.9,0.5,1.7,1.3,1.7C79.3,4.7,79.8,3.9,79.8,3z"/>
</g>
<g>
	<path class="st1" d="M4.4,84.2l-0.3-0.3c0.4-0.3,0.6-0.7,0.6-1.2c0-0.5-0.3-0.9-0.8-0.9c-0.5,0-0.8,0.5-0.8,1.2v0.3l-0.3,0.1
		L1.3,82V84H0.9v-2.7h0.3l1.5,1.3c0.1-0.7,0.4-1.4,1.2-1.4c0.8,0,1.3,0.6,1.3,1.4C5.2,83.4,4.9,83.9,4.4,84.2z"/>
	<path class="st1" d="M4,80.6c-0.5,0-0.9-0.4-1-0.9c-0.2,0.4-0.5,0.7-1,0.7c-0.6,0-1.1-0.7-1.1-1.4s0.5-1.4,1.1-1.4
		c0.5,0,0.8,0.3,1,0.7c0.2-0.5,0.5-0.9,1-0.9c0.7,0,1.2,0.7,1.2,1.6S4.7,80.6,4,80.6z M2,78c-0.4,0-0.7,0.4-0.7,1c0,0.5,0.3,1,0.7,1
		c0.5,0,0.8-0.4,0.8-1C2.8,78.4,2.4,78,2,78z M3.9,77.9c-0.5,0-0.8,0.5-0.8,1.1c0,0.6,0.3,1.1,0.8,1.1c0.4,0,0.8-0.4,0.8-1.1
		S4.4,77.9,3.9,77.9z"/>
	<path class="st1" d="M3,76.7c-1.2,0-2.2-0.7-2.2-1.8c0-1.1,1-1.8,2.2-1.8c1.2,0,2.2,0.7,2.2,1.8C5.2,76,4.2,76.7,3,76.7z M3,73.7
		c-0.9,0-1.7,0.5-1.7,1.3c0,0.8,0.8,1.3,1.7,1.3c0.9,0,1.7-0.5,1.7-1.3C4.7,74.2,3.9,73.7,3,73.7z"/>
</g>
<g>
	<path class="st1" d="M71.4,138.3l-0.8,0.2l-0.1-0.4l1-0.4h0.3v4.2h-0.5V138.3z"/>
	<path class="st1" d="M72.8,140c0-1.2,0.7-2.2,1.8-2.2c1.1,0,1.8,1,1.8,2.2c0,1.2-0.7,2.2-1.8,2.2C73.5,142.1,72.8,141.1,72.8,140z
		 M75.9,140c0-0.9-0.5-1.7-1.3-1.7c-0.8,0-1.3,0.8-1.3,1.7c0,0.9,0.5,1.7,1.3,1.7C75.4,141.7,75.9,140.9,75.9,140z"/>
	<path class="st1" d="M77.1,140c0-1.2,0.7-2.2,1.8-2.2c1.1,0,1.8,1,1.8,2.2c0,1.2-0.7,2.2-1.8,2.2C77.8,142.1,77.1,141.1,77.1,140z
		 M80.2,140c0-0.9-0.5-1.7-1.3-1.7c-0.8,0-1.3,0.8-1.3,1.7c0,0.9,0.5,1.7,1.3,1.7C79.7,141.7,80.2,140.9,80.2,140z"/>
</g>
<line class="st2" x1="56.7" y1="132.7" x2="14.6" y2="132.7"/>
<line class="st2" x1="16.2" y1="131.4" x2="16.2" y2="13.3"/>
<polygon class="st3" points="16,131.4 16.2,132.7 16.4,131.4 "/>
<polygon class="st4" points="16,131.4 16.4,131.4 16.2,132.7 "/>
<line class="st2" x1="24.1" y1="13.3" x2="12.6" y2="13.3"/>
<line class="st2" x1="57.1" y1="132.9" x2="57.1" y2="146.5"/>
<line class="st2" x1="92.1" y1="132.9" x2="92.1" y2="146.5"/>
<line class="st2" x1="57.8" y1="144.6" x2="92.1" y2="144.6"/>
<polygon class="st5" points="57.1,144.6 58.4,144.8 58.4,144.4 "/>
<polygon class="st5" points="91,144.8 92.3,144.6 91,144.4 "/>
<line class="st2" x1="124.9" y1="13.3" x2="124.9" y2="5.1"/>
<line class="st2" x1="24.3" y1="13.3" x2="24.3" y2="5.1"/>
<line class="st2" x1="124.2" y1="7" x2="24.3" y2="7"/>
<polygon class="st5" points="123.6,7.2 124.9,7 123.6,6.8 "/>
<polygon class="st5" points="24.1,7 25.4,7.2 25.4,6.8 "/>
</svg>
