<?xml version="1.0" encoding="utf-8"?>
<!-- Generator: Adobe Illustrator 21.1.0, SVG Export Plug-In . SVG Version: 6.00 Build 0)  -->
<svg version="1.1" id="Слой_1" xmlns="http://www.w3.org/2000/svg" xmlns:xlink="http://www.w3.org/1999/xlink" x="0px" y="0px"
	 viewBox="0 0 121.9 64.1" style="enable-background:new 0 0 121.9 64.1;" xml:space="preserve">
<style type="text/css">
	.st0{fill:none;stroke:#262424;stroke-width:0.168;stroke-linecap:round;stroke-linejoin:round;stroke-miterlimit:10;}
	.st1{fill:none;stroke:#6D1A1B;stroke-width:0.144;stroke-linecap:round;stroke-linejoin:round;stroke-miterlimit:10;}
	.st2{fill:none;stroke:#6D1A1B;stroke-width:0.288;stroke-linecap:round;stroke-linejoin:round;stroke-miterlimit:10;}
	.st3{fill:#6D1A1B;}
	.st4{fill:none;stroke:#6D1A1B;stroke-width:0;stroke-linecap:round;stroke-miterlimit:10;}
	.st5{fill:none;stroke:#5677B7;stroke-width:9.600000e-02;stroke-linecap:round;stroke-linejoin:round;stroke-miterlimit:10;}
	.st6{fill:none;stroke:#CB2628;stroke-width:0.15;stroke-linecap:round;stroke-linejoin:round;stroke-miterlimit:10;}
	.st7{fill:#CB2628;}
	.st8{fill:none;stroke:#CB2628;stroke-width:0.15;stroke-linecap:round;stroke-miterlimit:10;}
	.st9{fill:#43539F;}
</style>
<line class="st0" x1="21.4" y1="28.9" x2="21.3" y2="28.9"/>
<line class="st0" x1="94.6" y1="28.9" x2="94.6" y2="28.9"/>
<path class="st0" d="M94.6,28.9c-0.3,0-0.7,0.1-0.9,0.4"/>
<polyline class="st0" points="93.7,29.3 93.5,29.5 93.4,29.7 93.4,29.8 93.4,30 93.4,30.2 93.4,30.4 93.5,30.5 93.6,30.6 93.8,30.7 
	93.8,30.8 94,30.9 94.1,30.9 94.2,30.9 94.2,31 91.8,36.1 "/>
<polyline class="st0" points="22.5,29.7 22.4,29.5 22.4,29.5 22.3,29.3 "/>
<path class="st0" d="M22.3,29.3c-0.2-0.2-0.6-0.4-0.9-0.4"/>
<line class="st0" x1="21.3" y1="28.9" x2="21.4" y2="28.9"/>
<polyline class="st0" points="21.3,28.9 21.1,29 20.9,29.1 20.8,29.2 20.8,29.4 20.8,29.5 20.8,29.5 "/>
<polyline class="st0" points="21.3,28.9 17.4,28.9 17.4,29.5 "/>
<line class="st0" x1="17.4" y1="29.5" x2="20.8" y2="29.5"/>
<line class="st0" x1="94.6" y1="28.9" x2="94.6" y2="28.9"/>
<line class="st0" x1="98.6" y1="28.9" x2="94.6" y2="28.9"/>
<path class="st0" d="M98.6,28.9c2.6,0,4.8-2.1,4.8-4.8c0-2.6-2.1-4.8-4.8-4.8"/>
<line class="st0" x1="17.4" y1="19.3" x2="98.6" y2="19.3"/>
<path class="st0" d="M17.4,19.3c-2.6,0-4.8,2.1-4.8,4.8c0,2.6,2.1,4.8,4.8,4.8"/>
<polyline class="st0" points="27.6,26.5 26.5,26.5 24.5,26.5 23.6,26.5 23.4,26.5 23.2,26.6 22.9,26.7 22.7,26.9 22.5,27.1 
	22.3,27.4 22.3,27.6 22.3,27.8 22.3,28.9 22.3,29.3 "/>
<line class="st0" x1="30.6" y1="26.5" x2="27.8" y2="26.5"/>
<line class="st0" x1="42.5" y1="26.5" x2="30.6" y2="26.5"/>
<polyline class="st0" points="42.5,26.5 42.8,26.5 43,26.7 43.2,26.8 43.4,27.1 "/>
<path class="st0" d="M43.4,27.1c2.6,5.7,8.3,9.3,14.6,9.3s11.9-3.6,14.6-9.3"/>
<polyline class="st0" points="72.5,27.1 72.7,26.8 72.9,26.7 73.2,26.5 73.5,26.5 "/>
<polyline class="st0" points="88.2,26.5 87.7,26.5 73.5,26.5 "/>
<polyline class="st0" points="93.7,29.3 93.7,28.9 93.7,27.8 93.7,27.6 93.6,27.4 93.5,27.1 93.3,26.9 93,26.7 92.8,26.6 92.5,26.5 
	92.4,26.5 91.4,26.5 89.5,26.5 88.3,26.5 "/>
<line class="st0" x1="93" y1="30.4" x2="93" y2="30.4"/>
<line class="st0" x1="93.4" y1="30.6" x2="93.4" y2="30.4"/>
<line class="st0" x1="93.7" y1="27.8" x2="93" y2="30.4"/>
<polyline class="st0" points="90.6,35.5 90.8,35.1 91,34.6 91.3,34.1 91.5,33.5 91.7,33.2 91.9,32.8 92,32.4 92.2,32 92.6,31.1 
	92.8,30.7 93,30.4 93.4,30.6 "/>
<line class="st0" x1="91.8" y1="36.1" x2="90.6" y2="35.5"/>
<polyline class="st0" points="93.4,30.6 93.7,30.7 93.8,30.8 "/>
<polyline class="st0" points="90.6,35.5 89.8,35.1 89.5,35 "/>
<polyline class="st0" points="26.4,35 27.2,36.6 28.1,38.3 29.1,39.8 30.2,41.3 31.4,42.7 32.6,44.1 33.9,45.4 35.2,46.6 36.6,47.8 
	38.1,48.9 39.6,49.9 41.3,50.8 42.9,51.7 44.5,52.4 46.3,53.1 48,53.6 49.8,54.1 51.6,54.5 53.4,54.8 55.2,55 57,55.1 58.9,55.1 
	60.7,55 62.5,54.8 64.4,54.5 66.1,54.1 67.9,53.6 69.7,53.1 71.4,52.4 73.1,51.7 74.7,50.8 76.3,49.9 77.8,48.9 79.3,47.8 
	80.7,46.6 82.1,45.4 83.4,44.1 84.6,42.7 85.7,41.3 86.8,39.8 87.8,38.3 88.7,36.6 89.5,35 "/>
<polyline class="st0" points="24.1,36.1 25.3,35.5 26.1,35.1 26.4,35 "/>
<polyline class="st0" points="24.1,36.1 25,37.8 25.9,39.4 26.9,41 28,42.5 29.1,44 30.4,45.5 31.7,46.8 33,48.1 34.5,49.3 
	35.9,50.5 37.5,51.5 39.1,52.5 40.7,53.4 42.5,54.3 44.2,55 45.9,55.7 47.7,56.2 49.6,56.7 51.4,57.1 53.3,57.3 55.2,57.5 57,57.6 
	58.9,57.6 60.8,57.5 62.7,57.3 64.5,57.1 66.4,56.7 68.2,56.2 70,55.7 71.8,55 73.5,54.3 75.2,53.4 76.8,52.5 78.4,51.5 80,50.5 
	81.5,49.3 82.9,48.1 84.3,46.8 85.6,45.5 86.8,44 88,42.5 89,41 90.1,39.4 91,37.8 91.8,36.1 "/>
<polyline class="st0" points="21.7,31 21.8,30.9 21.8,30.9 21.9,30.9 22.1,30.8 "/>
<polyline class="st0" points="22.5,29.7 22.6,29.8 22.6,30 22.6,30.2 22.5,30.4 22.4,30.5 22.3,30.6 22.2,30.7 22.1,30.8 "/>
<line class="st0" x1="22.5" y1="30.4" x2="22.5" y2="30.6"/>
<line class="st0" x1="23" y1="30.4" x2="23" y2="30.4"/>
<line class="st0" x1="23" y1="30.4" x2="22.3" y2="27.8"/>
<polyline class="st0" points="23,30.4 23.1,30.7 23.3,31.1 23.7,32 23.9,32.4 24.1,32.8 24.3,33.2 24.4,33.5 24.7,34.1 24.9,34.6 
	25.1,35.1 25.3,35.5 "/>
<polyline class="st0" points="23.6,26.5 24.2,28.7 24.7,30.9 25,31.9 25.4,33 25.7,34.1 26.1,35.1 "/>
<line class="st0" x1="24.1" y1="36.1" x2="21.7" y2="31"/>
<line class="st0" x1="22.5" y1="30.6" x2="23" y2="30.4"/>
<polyline class="st0" points="22.1,30.8 22.3,30.7 22.5,30.6 "/>
<polyline class="st0" points="24.5,26.5 24.7,27.6 24.9,28.7 25.2,30.8 25.4,31.9 25.7,32.9 26,34 26.2,34.5 26.4,35 26.2,34.5 
	26.1,34 25.9,33.4 25.9,32.9 25.9,32.4 25.9,31.9 26,30.9 26.1,29.8 26.3,28.7 26.4,27.6 26.5,27.1 26.5,26.5 "/>
<line class="st0" x1="26.4" y1="35" x2="27.3" y2="34.6"/>
<polyline class="st0" points="27.8,26.5 27.9,27.6 27.9,28.7 27.9,29.9 27.9,31 27.8,31.6 27.8,32.1 27.7,32.6 27.7,33.1 27.6,33.5 
	27.6,33.9 27.5,34.3 27.5,34.4 27.4,34.5 "/>
<line class="st0" x1="27.5" y1="34.5" x2="43" y2="27.3"/>
<line class="st0" x1="42.5" y1="26.5" x2="43" y2="27.3"/>
<line class="st0" x1="43" y1="27.3" x2="43.4" y2="27.1"/>
<line class="st0" x1="72.5" y1="27.1" x2="72.9" y2="27.3"/>
<path class="st0" d="M43,27.2c2.7,5.8,8.5,9.5,14.9,9.5s12.2-3.7,14.9-9.5"/>
<polyline class="st0" points="73.5,26.5 72.9,27.3 88.4,34.5 "/>
<polyline class="st0" points="88.2,26.5 88.1,27.6 88,28.7 88,29.9 88.1,31 88.1,31.6 88.2,32.1 88.2,32.6 88.3,33.1 88.3,33.5 
	88.4,33.9 88.4,34.3 88.4,34.4 88.5,34.5 "/>
<polyline class="st0" points="88.7,34.6 89.5,35 89.7,34.5 89.9,34 90,33.5 90.1,32.9 90.1,32.4 90.1,31.9 90,30.9 89.8,29.8 
	89.6,28.7 89.5,27.6 89.5,27.1 89.5,26.5 "/>
<polyline class="st0" points="91.4,26.5 91.2,27.6 91,28.7 90.7,30.8 90.5,31.9 90.2,32.9 89.9,34 89.7,34.5 89.5,35 "/>
<polyline class="st0" points="92.4,26.5 91.8,28.7 91.2,30.9 90.9,31.9 90.6,33 90.2,34.1 89.8,35.1 "/>
<polyline class="st0" points="27.4,34.7 28.1,36.3 29,37.9 30,39.4 31,40.8 32.2,42.2 33.3,43.5 34.6,44.8 35.9,46 37.3,47.1 
	38.7,48.2 40.2,49.1 41.8,50 43.3,50.8 44.9,51.5 46.6,52.2 48.3,52.8 50,53.2 51.8,53.6 53.5,53.9 55.3,54 57.1,54.1 58.8,54.1 
	60.6,54 62.4,53.9 64.2,53.6 65.9,53.2 67.6,52.8 69.3,52.2 71,51.5 72.6,50.8 74.2,50 75.7,49.1 77.2,48.2 78.7,47.1 80,46 
	81.3,44.8 82.6,43.5 83.8,42.2 84.9,40.8 86,39.4 86.9,37.9 87.8,36.3 88.6,34.7 "/>
<line class="st0" x1="17.4" y1="18.8" x2="17.4" y2="19.3"/>
<path class="st0" d="M17.4,18.8c-3,0-5.4,2.4-5.4,5.4c0,3,2.4,5.4,5.4,5.4"/>
<polyline class="st0" points="17.4,18.8 20.3,18.8 20.7,18.8 21,18.8 21.4,18.8 21.7,18.8 "/>
<line class="st0" x1="98.6" y1="19.3" x2="98.6" y2="18.8"/>
<polyline class="st0" points="98.6,18.8 95.6,18.8 95.3,18.8 94.9,18.8 94.5,18.8 94.2,18.8 21.7,18.8 "/>
<polyline class="st0" points="94.6,28.9 94.8,29 95,29.1 95.1,29.2 95.2,29.4 95.2,29.5 95.2,29.5 98.6,29.5 "/>
<line class="st0" x1="98.6" y1="29.5" x2="98.6" y2="28.9"/>
<path class="st0" d="M98.6,29.5c3,0,5.4-2.4,5.4-5.4c0-3-2.4-5.4-5.4-5.4"/>
<line class="st0" x1="95.2" y1="29.5" x2="95.2" y2="29.4"/>
<line class="st0" x1="95.2" y1="29.3" x2="95.1" y2="29.2"/>
<line class="st1" x1="58" y1="11.5" x2="58" y2="13.7"/>
<line class="st1" x1="58" y1="14" x2="58" y2="14.5"/>
<line class="st1" x1="58" y1="14.8" x2="58" y2="17"/>
<line class="st1" x1="58" y1="17.2" x2="58" y2="17.8"/>
<line class="st1" x1="58" y1="18.1" x2="58" y2="20.2"/>
<line class="st1" x1="58" y1="20.5" x2="58" y2="21.1"/>
<line class="st1" x1="58" y1="21.3" x2="58" y2="23.5"/>
<line class="st1" x1="58" y1="23.8" x2="58" y2="24.3"/>
<line class="st1" x1="58" y1="24.6" x2="58" y2="26.8"/>
<line class="st1" x1="58" y1="27.1" x2="58" y2="27.6"/>
<line class="st1" x1="58" y1="27.9" x2="58" y2="30.1"/>
<line class="st1" x1="58" y1="30.4" x2="58" y2="30.9"/>
<line class="st1" x1="58" y1="31.2" x2="58" y2="33.4"/>
<line class="st1" x1="58" y1="33.6" x2="58" y2="34.2"/>
<line class="st1" x1="58" y1="34.4" x2="58" y2="36.6"/>
<line class="st1" x1="58" y1="36.9" x2="58" y2="37.5"/>
<line class="st1" x1="58" y1="37.7" x2="58" y2="39.9"/>
<line class="st1" x1="58" y1="40.2" x2="58" y2="40.7"/>
<line class="st1" x1="58" y1="41" x2="58" y2="43.2"/>
<line class="st1" x1="58" y1="43.5" x2="58" y2="44"/>
<line class="st1" x1="58" y1="44.3" x2="58" y2="46.5"/>
<line class="st1" x1="58" y1="46.7" x2="58" y2="47.3"/>
<line class="st1" x1="58" y1="47.6" x2="58" y2="49.8"/>
<line class="st1" x1="58" y1="50" x2="58" y2="50.6"/>
<line class="st1" x1="58" y1="50.8" x2="58" y2="53"/>
<line class="st1" x1="58" y1="53.3" x2="58" y2="53.8"/>
<line class="st1" x1="58" y1="54.1" x2="58" y2="56.3"/>
<line class="st1" x1="58" y1="56.6" x2="58" y2="57.1"/>
<line class="st1" x1="58" y1="57.4" x2="58" y2="59.6"/>
<line class="st1" x1="58" y1="59.9" x2="58" y2="60.4"/>
<line class="st1" x1="58" y1="60.7" x2="58" y2="62.8"/>
<line class="st2" x1="58" y1="11.5" x2="58" y2="13.7"/>
<line class="st2" x1="58" y1="60.7" x2="58" y2="62.8"/>
<line class="st1" x1="56.6" y1="12.6" x2="58" y2="12.6"/>
<polyline class="st1" points="56.6,12.9 58,12.6 56.6,12.3 56.6,12.9 "/>
<path class="st3" d="M56.6,12.3l1.4,0.3l-1.4,0.3V12.3z M56.6,12.9v-0.6l1.4,0.3L56.6,12.9z"/>
<path class="st4" d="M56.6,12.3l1.4,0.3l-1.4,0.3V12.3z M56.6,12.9v-0.6l1.4,0.3L56.6,12.9z"/>
<polyline class="st1" points="56.6,12.9 58,12.6 56.6,12.3 56.6,12.9 "/>
<line class="st1" x1="55" y1="12.6" x2="56.6" y2="12.6"/>
<line class="st1" x1="56.6" y1="61.8" x2="58" y2="61.8"/>
<polyline class="st1" points="56.6,62 58,61.8 56.6,61.5 56.6,62 "/>
<path class="st3" d="M56.6,61.5l1.4,0.3L56.6,62V61.5z M56.6,62v-0.6l1.4,0.3L56.6,62z"/>
<path class="st4" d="M56.6,61.5l1.4,0.3L56.6,62V61.5z M56.6,62v-0.6l1.4,0.3L56.6,62z"/>
<polyline class="st1" points="56.6,62 58,61.8 56.6,61.5 56.6,62 "/>
<line class="st1" x1="55" y1="61.8" x2="56.6" y2="61.8"/>
<g>
	<path class="st3" d="M50.6,14.1l1-3h0.5l1,3h-0.4l-0.3-0.8h-1.1L51,14.1H50.6z M52.3,12.9l-0.5-1.4l-0.5,1.4H52.3z"/>
</g>
<g>
	<path class="st3" d="M50.6,63.2l1-3h0.5l1,3h-0.4l-0.3-0.8h-1.1L51,63.2H50.6z M52.3,62.1l-0.5-1.4l-0.5,1.4H52.3z"/>
</g>
<line class="st5" x1="18.8" y1="24.1" x2="15.8" y2="24.1"/>
<line class="st5" x1="15.3" y1="24.1" x2="14.6" y2="24.1"/>
<line class="st5" x1="14.1" y1="24.1" x2="11.1" y2="24.1"/>
<line class="st5" x1="17.4" y1="17.9" x2="17.4" y2="20.9"/>
<line class="st5" x1="17.4" y1="21.4" x2="17.4" y2="22.1"/>
<line class="st5" x1="17.4" y1="22.6" x2="17.4" y2="25.7"/>
<line class="st5" x1="17.4" y1="26.1" x2="17.4" y2="26.9"/>
<line class="st5" x1="17.4" y1="27.3" x2="17.4" y2="30.4"/>
<line class="st5" x1="104.8" y1="24.1" x2="101.8" y2="24.1"/>
<line class="st5" x1="101.4" y1="24.1" x2="100.6" y2="24.1"/>
<line class="st5" x1="100.2" y1="24.1" x2="97.2" y2="24.1"/>
<line class="st5" x1="98.6" y1="17.9" x2="98.6" y2="20.9"/>
<line class="st5" x1="98.6" y1="21.4" x2="98.6" y2="22.1"/>
<line class="st5" x1="98.6" y1="22.6" x2="98.6" y2="25.7"/>
<line class="st5" x1="98.6" y1="26.1" x2="98.6" y2="26.9"/>
<line class="st5" x1="98.6" y1="27.3" x2="98.6" y2="30.4"/>
<line class="st6" x1="17.4" y1="17.4" x2="17.4" y2="5.1"/>
<line class="st6" x1="98.6" y1="17.4" x2="98.6" y2="5.1"/>
<line class="st6" x1="18.8" y1="6.9" x2="97.2" y2="6.9"/>
<polygon class="st7" points="18.8,6.6 18.8,7.1 17.4,6.9 "/>
<polygon class="st8" points="18.8,6.6 18.8,7.1 17.4,6.9 "/>
<polygon class="st7" points="97.2,6.6 97.2,7.1 98.6,6.9 "/>
<polygon class="st8" points="97.2,6.6 97.2,7.1 98.6,6.9 "/>
<g>
	<path class="st9" d="M54.6,1.4l-0.8,0.2l-0.1-0.4l1-0.4H55v4.2h-0.5V1.4z"/>
	<path class="st9" d="M58.2,4.1H56l-0.1-0.3l2.4-2.9h0.4v2.8h0.7v0.4h-0.7v1h-0.5V4.1z M58.2,3.7V1.5l-1.8,2.2H58.2z"/>
	<path class="st9" d="M62.3,4.1H60l-0.1-0.3l2.4-2.9h0.4v2.8h0.7v0.4h-0.7v1h-0.5V4.1z M62.3,3.7V1.5l-1.8,2.2H62.3z"/>
</g>
<line class="st6" x1="16.8" y1="18.8" x2="5.1" y2="18.8"/>
<line class="st6" x1="57.4" y1="57.6" x2="5.1" y2="57.6"/>
<line class="st6" x1="6.9" y1="20.2" x2="6.9" y2="56.2"/>
<polygon class="st7" points="6.7,20.2 7.1,20.2 6.9,18.8 "/>
<polygon class="st8" points="6.7,20.2 7.1,20.2 6.9,18.8 "/>
<polygon class="st7" points="6.7,56.2 7.1,56.2 6.9,57.6 "/>
<polygon class="st8" points="6.7,56.2 7.1,56.2 6.9,57.6 "/>
<g>
	<path class="st9" d="M3.1,41.1c-1.3,0-2.3-0.6-2.3-1.7c0-0.5,0.2-0.9,0.5-1.2l0.4,0.3c-0.3,0.3-0.4,0.6-0.4,1
		c0,0.8,0.8,1.2,1.8,1.2h0c-0.3-0.2-0.6-0.6-0.6-1.2C2.5,38.7,3,38,3.8,38c0.8,0,1.4,0.7,1.4,1.5C5.2,40.5,4.6,41.1,3.1,41.1z
		 M3.8,38.5c-0.5,0-0.9,0.4-0.9,1c0,0.6,0.5,1,0.9,1c0.5,0,0.9-0.4,0.9-1.1C4.8,38.9,4.3,38.5,3.8,38.5z"/>
	<path class="st9" d="M4.7,37.2l-0.4-0.3c0.3-0.3,0.5-0.7,0.5-1c0-0.7-0.7-1.2-1.8-1.2H2.9c0.4,0.2,0.7,0.6,0.7,1.2
		c0,0.9-0.5,1.5-1.3,1.5c-0.8,0-1.4-0.6-1.4-1.5c0-0.9,0.6-1.6,2.1-1.6c1.3,0,2.3,0.7,2.3,1.7C5.2,36.4,4.9,36.8,4.7,37.2z
		 M2.2,34.7c-0.5,0-1,0.4-1,1.1s0.5,1,1,1c0.5,0,0.9-0.4,0.9-1C3.2,35.1,2.7,34.7,2.2,34.7z"/>
</g>
<polyline class="st6" points="102.4,52.2 87.3,52.2 84.2,48.8 "/>
<g>
	<path class="st9" d="M90.6,46.6h1.8c0.5,0,0.9,0.2,1.2,0.4c0.2,0.2,0.3,0.5,0.3,0.8c0,0.7-0.5,1.1-1.1,1.2l1.3,1.7h-0.6l-1.2-1.6
		h-1.2v1.6h-0.5V46.6z M92.4,48.8c0.6,0,1.1-0.3,1.1-0.9c0-0.5-0.4-0.8-1.1-0.8h-1.3v1.7H92.4z"/>
	<path class="st9" d="M94.7,48.8c0-1.3,0.6-2.3,1.7-2.3c0.5,0,0.9,0.2,1.2,0.5l-0.3,0.4c-0.3-0.3-0.6-0.4-1-0.4
		c-0.8,0-1.2,0.8-1.2,1.8v0c0.2-0.3,0.6-0.6,1.2-0.6c0.8,0,1.5,0.5,1.5,1.3c0,0.8-0.7,1.4-1.5,1.4C95.4,50.9,94.7,50.3,94.7,48.8z
		 M97.4,49.5c0-0.5-0.4-0.9-1-0.9c-0.6,0-1,0.5-1,0.9c0,0.5,0.4,0.9,1.1,0.9C97,50.5,97.4,50.1,97.4,49.5z"/>
	<path class="st9" d="M98.6,48.8c0-1.3,0.6-2.3,1.7-2.3c0.5,0,0.9,0.2,1.2,0.5l-0.3,0.4c-0.3-0.3-0.6-0.4-1-0.4
		c-0.8,0-1.2,0.8-1.2,1.8v0c0.2-0.3,0.6-0.6,1.2-0.6c0.8,0,1.5,0.5,1.5,1.3c0,0.8-0.7,1.4-1.5,1.4C99.3,50.9,98.6,50.3,98.6,48.8z
		 M101.3,49.5c0-0.5-0.4-0.9-1-0.9c-0.6,0-1,0.5-1,0.9c0,0.5,0.4,0.9,1.1,0.9C100.9,50.5,101.3,50.1,101.3,49.5z"/>
	<path class="st9" d="M102.4,51.4c0.3-0.1,0.4-0.2,0.4-0.5v-0.1h-0.2v-0.6h0.6v0.5c0,0.5-0.2,0.7-0.7,0.8L102.4,51.4z"/>
	<path class="st9" d="M103.9,50.5l1.5-1.3c0.6-0.6,0.9-0.9,0.9-1.3c0-0.5-0.4-0.8-0.8-0.8c-0.5,0-0.8,0.3-1.1,0.7l-0.3-0.3
		c0.4-0.6,0.8-0.9,1.5-0.9c0.8,0,1.3,0.5,1.3,1.2c0,0.6-0.3,1-1.1,1.6l-1.1,1h2.2v0.4h-2.9V50.5z"/>
</g>
<polygon class="st7" points="84.4,48.7 84,49 83.2,47.8 "/>
<polygon class="st8" points="84.4,48.7 84,49 83.2,47.8 "/>
<polyline class="st6" points="117.5,14.8 107.9,14.8 103.4,19.4 "/>
<g>
	<path class="st9" d="M109.1,8.4h1.8c0.5,0,0.9,0.2,1.2,0.4c0.2,0.2,0.3,0.5,0.3,0.8c0,0.7-0.5,1.1-1.1,1.2l1.3,1.7H112l-1.2-1.6
		h-1.2v1.6h-0.5V8.4z M110.9,10.5c0.6,0,1.1-0.3,1.1-0.9c0-0.5-0.4-0.8-1.1-0.8h-1.3v1.7H110.9z"/>
	<path class="st9" d="M113.3,12.2l0.3-0.4c0.3,0.3,0.7,0.4,1,0.4c0.7,0,1.2-0.7,1.2-1.8v-0.1c-0.2,0.4-0.6,0.7-1.2,0.7
		c-0.9,0-1.5-0.5-1.5-1.3c0-0.8,0.6-1.4,1.5-1.4c0.9,0,1.6,0.6,1.6,2.1c0,1.3-0.7,2.3-1.7,2.3C114.1,12.7,113.7,12.5,113.3,12.2z
		 M115.8,9.7c0-0.5-0.4-1-1.1-1s-1,0.5-1,1s0.4,0.9,1,0.9C115.4,10.7,115.8,10.2,115.8,9.7z"/>
	<path class="st9" d="M117,13.1c0.3-0.1,0.4-0.2,0.4-0.5v-0.1h-0.2V12h0.6v0.5c0,0.5-0.2,0.7-0.7,0.8L117,13.1z"/>
	<path class="st9" d="M118.5,12l0.3-0.3c0.4,0.4,0.8,0.6,1.2,0.6c0.6,0,1-0.4,1-0.9c0-0.5-0.4-0.9-1-0.9c-0.4,0-0.6,0.1-0.9,0.2
		l-0.3-0.2l0.1-2h2.4v0.4h-2l-0.1,1.3c0.2-0.1,0.5-0.2,0.8-0.2c0.8,0,1.5,0.5,1.5,1.3c0,0.8-0.6,1.4-1.5,1.4
		C119.4,12.7,118.9,12.4,118.5,12z"/>
</g>
<polygon class="st7" points="103.2,19.2 103.5,19.5 102.4,20.3 "/>
<polygon class="st8" points="103.2,19.2 103.5,19.5 102.4,20.3 "/>
<line class="st0" x1="73.8" y1="20.7" x2="42.2" y2="20.7"/>
<path class="st0" d="M42.2,20.7c-1.2,0-2.2,1-2.2,2.2s1,2.2,2.2,2.2"/>
<line class="st0" x1="42.2" y1="25.2" x2="73.8" y2="25.2"/>
<path class="st0" d="M73.8,25.1c1.2,0,2.2-1,2.2-2.2s-1-2.2-2.2-2.2"/>
</svg>
