<?xml version="1.0" encoding="utf-8"?>
<!-- Generator: Adobe Illustrator 21.1.0, SVG Export Plug-In . SVG Version: 6.00 Build 0)  -->
<svg version="1.1" id="Слой_1" xmlns="http://www.w3.org/2000/svg" xmlns:xlink="http://www.w3.org/1999/xlink" x="0px" y="0px"
	 viewBox="0 0 139 98" style="enable-background:new 0 0 139 98;" xml:space="preserve">
<style type="text/css">
	.st0{fill:#43539F;}
	.st1{fill:none;stroke:#262424;stroke-width:0.246;stroke-linecap:round;stroke-linejoin:round;stroke-miterlimit:10;}
	.st2{fill:none;stroke:#262424;stroke-width:7.000000e-02;stroke-linecap:round;stroke-linejoin:round;stroke-miterlimit:10;}
	.st3{fill:#CB2128;}
	.st4{fill:none;stroke:#CB2628;stroke-width:0.15;stroke-linecap:round;stroke-linejoin:round;stroke-miterlimit:10;}
	.st5{fill:#040706;}
	.st6{fill:#CB2628;}
	.st7{fill:none;stroke:#CB2128;stroke-width:7.000000e-02;stroke-linecap:round;stroke-linejoin:round;stroke-miterlimit:10;}
	.st8{fill:#262424;}
</style>
<g>
	<path class="st0" d="M77.2,1.7L76.4,2l-0.1-0.4l1-0.4h0.3v4.2h-0.5V1.7z"/>
	<path class="st0" d="M78.6,4.8l0.3-0.3c0.3,0.4,0.7,0.6,1.2,0.6c0.5,0,0.9-0.3,0.9-0.8c0-0.5-0.5-0.8-1.2-0.8h-0.3l-0.1-0.3
		l1.3-1.5h-2.1V1.3h2.7v0.3l-1.3,1.5c0.7,0.1,1.4,0.4,1.4,1.2c0,0.7-0.6,1.3-1.4,1.3C79.5,5.5,78.9,5.2,78.6,4.8z"/>
	<path class="st0" d="M82.3,5.1l1.5-1.3c0.6-0.6,0.9-0.9,0.9-1.3c0-0.5-0.4-0.8-0.8-0.8c-0.5,0-0.8,0.3-1.1,0.7l-0.3-0.3
		c0.4-0.6,0.8-0.9,1.5-0.9c0.8,0,1.3,0.5,1.3,1.2c0,0.6-0.3,1-1.1,1.6L83,5h2.2v0.4h-2.9V5.1z"/>
</g>
<g>
	<path class="st0" d="M104.4,39.4l-1.6-1.6l0.2-0.3l3.7-0.4l0.3,0.3l-2,2l0.5,0.5l-0.3,0.3l-0.5-0.5l-0.7,0.7l-0.3-0.3L104.4,39.4z
		 M104.7,39.1l1.5-1.5l-2.8,0.3L104.7,39.1z"/>
	<path class="st0" d="M105.4,40.9l0.5,0c0,0.5,0.1,0.9,0.4,1.3c0.4,0.4,1,0.4,1.4,0c0.4-0.4,0.3-0.9-0.1-1.4
		c-0.3-0.3-0.5-0.4-0.8-0.5l-0.1-0.4l1.5-1.4l1.7,1.7l-0.3,0.3l-1.4-1.4l-1,0.9c0.3,0.1,0.5,0.2,0.7,0.5c0.6,0.6,0.7,1.4,0.1,1.9
		c-0.6,0.6-1.4,0.5-2-0.1C105.5,42,105.4,41.5,105.4,40.9z"/>
	<path class="st0" d="M110.9,41.4c0.2-0.2,0.6-0.2,0.9,0c0.2,0.2,0.2,0.6,0,0.9c-0.2,0.2-0.6,0.2-0.9,0
		C110.7,42,110.6,41.6,110.9,41.4z M111.6,42.1c0.1-0.1,0.1-0.4,0-0.5c-0.1-0.1-0.4-0.1-0.5,0c-0.1,0.1-0.1,0.4,0,0.5
		C111.2,42.3,111.4,42.3,111.6,42.1z"/>
</g>
<g>
	<path class="st0" d="M0.8,43l1.7-0.7c0.5-0.2,0.9-0.2,1.3-0.1c0.3,0.1,0.5,0.3,0.6,0.6c0.3,0.6,0,1.2-0.6,1.6l1.9,1.1l-0.5,0.2
		l-1.8-1l-1.1,0.5l0.6,1.5l-0.4,0.2L0.8,43z M3.3,44.2C3.8,44,4.1,43.5,3.9,43c-0.2-0.5-0.7-0.6-1.3-0.3l-1.2,0.5l0.7,1.6L3.3,44.2z
		"/>
	<path class="st0" d="M6.2,44.8l0.1-0.4c0.4,0.1,0.8,0.2,1.1,0c0.7-0.3,0.9-1.2,0.4-2.1l0-0.1C7.8,42.6,7.5,43,7,43.2
		c-0.8,0.3-1.6,0.1-1.9-0.6c-0.3-0.7,0-1.6,0.8-1.9c0.8-0.4,1.7-0.1,2.3,1.3c0.5,1.2,0.2,2.4-0.7,2.8C7.1,44.9,6.6,44.9,6.2,44.8z
		 M7.5,41.5c-0.2-0.5-0.8-0.7-1.4-0.5s-0.7,0.8-0.5,1.3c0.2,0.5,0.7,0.7,1.3,0.4C7.5,42.6,7.7,42,7.5,41.5z"/>
</g>
<g>
	<path class="st0" d="M114.5,77.8l1,1.5c0.3,0.4,0.4,0.9,0.3,1.2c-0.1,0.3-0.3,0.5-0.5,0.7c-0.6,0.4-1.2,0.2-1.6-0.3l-0.8,2
		l-0.3-0.5l0.7-1.9l-0.6-1l-1.4,0.9l-0.3-0.4L114.5,77.8z M113.6,80.5c0.3,0.5,0.8,0.7,1.3,0.5c0.4-0.3,0.5-0.8,0.1-1.3l-0.7-1.1
		l-1.4,0.9L113.6,80.5z"/>
	<path class="st0" d="M114.8,82.5c1.1-0.7,2.3-0.7,2.9,0.3c0.3,0.4,0.3,0.8,0.3,1.3l-0.5,0c0.1-0.4,0-0.7-0.2-1.1
		c-0.4-0.6-1.3-0.6-2.2-0.1l0,0c0.4,0,0.9,0.2,1.2,0.7c0.4,0.7,0.3,1.5-0.3,1.9c-0.7,0.4-1.5,0.2-2-0.5
		C113.4,84.2,113.5,83.3,114.8,82.5z M115.6,85.1c0.4-0.3,0.5-0.8,0.2-1.3c-0.3-0.5-0.9-0.7-1.3-0.4c-0.5,0.3-0.6,0.9-0.2,1.4
		C114.6,85.3,115.2,85.4,115.6,85.1z"/>
	<path class="st0" d="M115.4,86.6l1.9,0.6c0.8,0.2,1.2,0.3,1.6,0c0.4-0.3,0.5-0.8,0.2-1.1c-0.3-0.4-0.6-0.5-1.2-0.6l0-0.4
		c0.7,0,1.2,0.2,1.6,0.8c0.4,0.6,0.3,1.4-0.3,1.7c-0.5,0.3-1,0.2-1.9,0l-1.4-0.4l1.2,1.9l-0.4,0.2l-1.6-2.5L115.4,86.6z"/>
</g>
<g>
	<path class="st0" d="M57.7,93.1c-1.1-0.3-1.9-1.3-1.5-2.3c0.3-1,1.5-1.4,2.6-1c1.1,0.3,1.9,1.3,1.6,2.3
		C59.9,93,58.8,93.4,57.7,93.1z M58.6,90.1c-0.9-0.3-1.8,0-2,0.7c-0.2,0.8,0.4,1.5,1.3,1.7c0.9,0.3,1.8,0,2-0.7S59.4,90.4,58.6,90.1
		z"/>
	<path class="st0" d="M61.4,89.8c0-0.3-0.1-0.5-0.3-0.5l-0.1,0L61,89.5l-0.6-0.2l0.2-0.5l0.5,0.2c0.5,0.1,0.6,0.4,0.6,0.9L61.4,89.8
		z"/>
	<path class="st0" d="M59.5,87.6c-1.2-0.4-2-1.3-1.7-2.3c0.1-0.5,0.4-0.8,0.8-1l0.3,0.4c-0.3,0.2-0.6,0.5-0.7,0.8
		c-0.2,0.7,0.4,1.4,1.4,1.7l0,0c-0.3-0.3-0.4-0.7-0.3-1.3c0.2-0.7,0.9-1.2,1.7-1c0.8,0.2,1.1,1,0.9,1.8C61.6,87.5,60.9,88,59.5,87.6
		z M60.9,85.3c-0.5-0.2-1,0.1-1.2,0.7c-0.2,0.6,0.1,1.1,0.6,1.3c0.5,0.2,1-0.1,1.2-0.7C61.7,85.9,61.4,85.4,60.9,85.3z"/>
</g>
<line class="st1" x1="124" y1="33.7" x2="123.6" y2="33.3"/>
<polyline class="st1" points="24.6,41.8 25.1,41.8 25.1,45.2 "/>
<polyline class="st2" points="24.8,41.8 24.8,45.2 24.8,45.5 24.7,45.7 24.6,46 24.4,46.2 24.2,46.4 24,46.5 23.7,46.6 "/>
<polyline class="st2" points="28.5,38.2 28.2,37.2 27.7,36.4 27.2,35.6 26.5,34.9 25.7,34.3 24.8,33.8 23.9,33.4 23,33.2 22,33.1 
	21.7,33.2 "/>
<polyline class="st2" points="16.4,35.9 16.2,36.2 15.7,37 15.6,37.4 "/>
<polyline class="st2" points="15.9,43.4 16.1,43.6 16.7,44.4 17.3,45.1 18.1,45.7 18.9,46.2 19.8,46.5 20.8,46.8 21.8,46.8 
	22.8,46.8 23.7,46.6 "/>
<polyline class="st2" points="28.5,38.2 30.8,46.4 31.6,48.9 32.5,51.4 33.5,53.8 34.7,56.2 35.7,58.1 "/>
<line class="st2" x1="39.2" y1="63.3" x2="40.2" y2="64.6"/>
<polyline class="st2" points="44.4,69.2 46,70.8 48.1,72.4 50.2,74.1 52.3,75.5 54.3,76.7 "/>
<line class="st2" x1="59.8" y1="79.5" x2="61.4" y2="80.1"/>
<polyline class="st2" points="67.3,82 69.4,82.5 72,83 74.6,83.3 77.3,83.6 79.9,83.6 82.6,83.6 85.2,83.3 86.3,83.2 "/>
<polyline class="st2" points="92.4,82 93.1,81.9 94.1,81.6 "/>
<polyline class="st2" points="99.9,79.5 100.7,79.2 103.1,78.1 105.4,76.8 107.7,75.4 109.9,73.9 110.6,73.3 "/>
<polyline class="st2" points="115.3,69.3 116,68.7 116.6,68.1 "/>
<polyline class="st2" points="120.6,63.3 121.2,62.6 122.7,60.4 124,58.1 125.3,55.8 126.5,53.4 126.8,52.6 "/>
<polyline class="st2" points="128.9,46.8 129.1,45.8 129.3,45.2 "/>
<polyline class="st2" points="130.5,39.1 130.6,38 130.8,35.3 130.9,32.6 130.9,29.8 130.9,29.6 130.8,29.3 130.7,29.1 130.5,28.9 
	130.3,28.7 130.1,28.6 129.9,28.5 129.6,28.5 129.4,28.5 129.1,28.5 128.9,28.6 128.7,28.7 128.5,28.8 123.8,33.5 "/>
<line class="st1" x1="24.6" y1="41.8" x2="24.6" y2="45.2"/>
<path class="st1" d="M28.8,38.1c-1.1-3.8-5-6-8.8-4.9c-3.8,1-6,5-5,8.8c1,3.8,5,6,8.7,5"/>
<path class="st1" d="M23.8,46.9c0.8-0.2,1.3-0.9,1.3-1.7"/>
<path class="st1" d="M28.3,38.2c-1-3.5-4.6-5.5-8.1-4.6c-3.5,1-5.6,4.6-4.6,8.1c1,3.5,4.6,5.6,8.1,4.6"/>
<path class="st1" d="M23.7,46.4c0.5-0.1,0.9-0.6,0.9-1.2"/>
<line class="st1" x1="28.7" y1="38.1" x2="31.1" y2="46.3"/>
<line class="st1" x1="28.3" y1="38.2" x2="30.6" y2="46.5"/>
<path class="st1" d="M31.1,46.3c6.8,24.4,30.6,40,55.8,36.6c25.1-3.4,43.8-24.9,43.8-50.3"/>
<path class="st1" d="M30.6,46.4c6.9,24.6,30.9,40.4,56.3,36.9c25.4-3.5,44.3-25.1,44.3-50.7"/>
<line class="st1" x1="130.7" y1="32.6" x2="130.7" y2="29.8"/>
<line class="st1" x1="131.1" y1="32.6" x2="131.1" y2="29.8"/>
<path class="st1" d="M130.7,29.8c0-0.5-0.3-0.9-0.7-1.1c-0.4-0.2-0.9-0.1-1.2,0.2"/>
<path class="st1" d="M131.1,29.8c0-0.7-0.4-1.3-1-1.5c-0.6-0.3-1.3-0.1-1.8,0.4"/>
<line class="st1" x1="128.7" y1="29" x2="124" y2="33.7"/>
<line class="st1" x1="128.3" y1="28.7" x2="123.6" y2="33.3"/>
<line class="st2" x1="8" y1="32.6" x2="26.8" y2="32.6"/>
<line class="st2" x1="33" y1="32.6" x2="34.8" y2="32.6"/>
<line class="st2" x1="40.9" y1="32.6" x2="53.3" y2="32.6"/>
<line class="st2" x1="59.6" y1="32.6" x2="61.3" y2="32.6"/>
<line class="st2" x1="67.5" y1="32.6" x2="79.9" y2="32.6"/>
<line class="st2" x1="86.1" y1="32.6" x2="87.8" y2="32.6"/>
<line class="st2" x1="94" y1="32.6" x2="106.4" y2="32.6"/>
<line class="st2" x1="112.6" y1="32.6" x2="114.3" y2="32.6"/>
<line class="st2" x1="120.5" y1="32.6" x2="139.3" y2="32.6"/>
<line class="st3" x1="79.9" y1="99" x2="79.9" y2="81.2"/>
<line class="st2" x1="79.9" y1="99" x2="79.9" y2="81.2"/>
<line class="st3" x1="79.9" y1="75" x2="79.9" y2="73.3"/>
<line class="st2" x1="79.9" y1="75" x2="79.9" y2="73.3"/>
<line class="st3" x1="79.9" y1="67" x2="79.9" y2="54.7"/>
<line class="st2" x1="79.9" y1="67" x2="79.9" y2="54.7"/>
<line class="st3" x1="79.9" y1="48.5" x2="79.9" y2="46.7"/>
<line class="st2" x1="79.9" y1="48.5" x2="79.9" y2="46.7"/>
<line class="st2" x1="79.9" y1="40.5" x2="79.9" y2="22.7"/>
<line class="st4" x1="12" y1="40" x2="31.8" y2="40"/>
<line class="st4" x1="21.9" y1="49.9" x2="21.9" y2="30"/>
<line class="st2" x1="127" y1="29.8" x2="132" y2="29.8"/>
<line class="st2" x1="129.5" y1="32.3" x2="129.5" y2="27.4"/>
<line class="st4" x1="21.9" y1="30" x2="21.9" y2="7.6"/>
<line class="st4" x1="131.1" y1="29.8" x2="131.1" y2="7.6"/>
<line class="st4" x1="24" y1="8.4" x2="129.1" y2="8.4"/>
<polygon class="st5" points="24,8.1 24,8.8 21.9,8.4 "/>
<polygon class="st6" points="24,8.1 24,8.8 21.9,8.4 "/>
<polygon class="st5" points="129.1,8.1 129.1,8.8 131.1,8.4 "/>
<polygon class="st6" points="129.1,8.1 129.1,8.8 131.1,8.4 "/>
<line class="st4" x1="113.4" y1="89" x2="107.2" y2="78.5"/>
<line class="st4" x1="79.9" y1="32.6" x2="106.1" y2="76.7"/>
<polygon class="st5" points="107.4,78.3 106.8,78.6 106.1,76.7 "/>
<polygon class="st6" points="107.4,78.3 106.8,78.6 106.1,76.7 "/>
<line class="st2" x1="66.6" y1="81.6" x2="64.5" y2="81"/>
<line class="st2" x1="66.4" y1="82.1" x2="64.4" y2="81.5"/>
<line class="st4" x1="65.8" y1="79.2" x2="66.4" y2="77.3"/>
<line class="st4" x1="64.6" y1="83.7" x2="62.6" y2="90.9"/>
<line class="st2" x1="65.3" y1="81.2" x2="65.1" y2="81.7"/>
<polygon class="st5" points="65.5,79.2 66.2,79.3 65.3,81.2 "/>
<polygon class="st6" points="65.5,79.2 66.2,79.3 65.3,81.2 "/>
<polygon class="st5" points="64.3,83.6 64.9,83.8 65.1,81.7 "/>
<polygon class="st6" points="64.3,83.6 64.9,83.8 65.1,81.7 "/>
<line class="st3" x1="124" y1="33.7" x2="111.4" y2="46.3"/>
<line class="st2" x1="124" y1="33.7" x2="111.4" y2="46.3"/>
<line class="st3" x1="130.7" y1="32.6" x2="130.7" y2="54.3"/>
<line class="st2" x1="130.7" y1="32.6" x2="130.7" y2="54.3"/>
<path class="st7" d="M113.5,47.1c4.2,3.6,9.5,5.8,15.1,6.2"/>
<polygon class="st8" points="113.2,47.4 113.7,46.8 112,45.7 "/>
<polygon class="st6" points="113.2,47.4 113.7,46.8 112,45.7 "/>
<polygon class="st8" points="128.6,53 128.5,53.7 130.7,53.4 "/>
<polygon class="st6" points="128.6,53 128.5,53.7 130.7,53.4 "/>
<line class="st4" x1="2.9" y1="49.9" x2="13.8" y2="44.2"/>
<line class="st4" x1="21.9" y1="40" x2="15.6" y2="43.3"/>
<polygon class="st8" points="13.6,43.9 13.9,44.6 15.6,43.3 "/>
<polygon class="st6" points="13.6,43.9 13.9,44.6 15.6,43.3 "/>
</svg>
