<?xml version="1.0" encoding="utf-8"?>
<!-- Generator: Adobe Illustrator 21.1.0, SVG Export Plug-In . SVG Version: 6.00 Build 0)  -->
<svg version="1.1" id="Слой_1" xmlns="http://www.w3.org/2000/svg" xmlns:xlink="http://www.w3.org/1999/xlink" x="0px" y="0px"
	 viewBox="0 0 111.5 47.8" style="enable-background:new 0 0 111.5 47.8;" xml:space="preserve">
<style type="text/css">
	.st0{clip-path:url(#SVGID_2_);fill:#FFFFFF;}
	.st1{clip-path:url(#SVGID_2_);}
	.st2{fill:#FFFFFF;}
</style>
<g>
	<defs>
		<rect id="SVGID_1_" y="0" width="111.5" height="47.8"/>
	</defs>
	<clipPath id="SVGID_2_">
		<use xlink:href="#SVGID_1_"  style="overflow:visible;"/>
	</clipPath>
	<path class="st0" d="M25.7,47.7h-1.6c-0.7,0-1.4-0.4-1.9-1l-17-23.6v22.2c0,1.3-1,2.3-2.3,2.3c-1.3,0-2.3-1-2.3-2.3V18
		c0-1.3,1-2.3,2.3-2.3h1.4c0.7,0,1.4,0.4,1.9,1l17.2,23.8V18c0-1.3,1-2.3,2.3-2.3c1.3,0,2.3,1,2.3,2.3v27.4
		C28,46.7,26.9,47.7,25.7,47.7"/>
	<path class="st0" d="M42.1,47c-1.3,0-2.3-1-2.3-2.3V18c0-1.3,1-2.3,2.3-2.3c1.3,0,2.3,1,2.3,2.3v26.7C44.4,46,43.4,47,42.1,47"/>
	<path class="st0" d="M59.5,47c-1.3,0-2.3-1-2.3-2.3V18c0-1.3,1-2.3,2.3-2.3c1.3,0,2.3,1,2.3,2.3v26.7C61.8,46,60.8,47,59.5,47"/>
	<path class="st0" d="M59.5,36.1c-0.6,0-1.2-0.2-1.7-0.7c-0.9-0.9-0.8-2.4,0.1-3.3L75,15.9c0.9-0.9,2.4-0.8,3.3,0.1
		c0.9,0.9,0.8,2.4-0.1,3.3L61.1,35.4C60.6,35.8,60.1,36.1,59.5,36.1"/>
	<path class="st0" d="M77.2,47.6c-0.7,0-1.3-0.3-1.8-0.8L62.2,30.9c-0.8-1-0.7-2.4,0.3-3.2c1-0.8,2.4-0.7,3.2,0.3L79,43.8
		c0.8,1,0.7,2.4-0.3,3.2C78.2,47.4,77.7,47.6,77.2,47.6"/>
	<path class="st0" d="M88.5,47.8c-0.3,0-0.5,0-0.8-0.1c-1.2-0.4-1.9-1.8-1.4-3l9.5-27.4c0.3-0.9,1.2-1.6,2.2-1.6h1.5
		c1,0,1.9,0.6,2.2,1.6l9.6,27.4c0.4,1.2-0.2,2.5-1.4,3c-1.2,0.4-2.5-0.2-3-1.4L98.8,23l-8.1,23.2C90.4,47.2,89.5,47.8,88.5,47.8"/>
	<path class="st0" d="M105.6,39.7H91.9c-1.3,0-2.3-1-2.3-2.3c0-1.3,1-2.3,2.3-2.3h13.7c1.3,0,2.3,1,2.3,2.3
		C107.9,38.7,106.8,39.7,105.6,39.7"/>
	<g class="st1">
		<path class="st2" d="M0.6,1.1h2.2c0.6,0,1,0.2,1.3,0.4C4.4,1.7,4.5,2,4.5,2.4c0,0.6-0.3,0.9-0.7,1.1c0.6,0.2,1,0.5,1,1.2
			c0,0.9-0.7,1.4-1.8,1.4H0.6V1.1z M2.7,3.2c0.6,0,0.9-0.2,0.9-0.7c0-0.4-0.3-0.6-0.9-0.6H1.5v1.3H2.7z M3,5.3c0.6,0,1-0.2,1-0.7
			c0-0.4-0.3-0.7-1-0.7H1.5v1.4H3z"/>
		<path class="st2" d="M6.1,3.6C6.1,2.2,7.2,1,8.7,1s2.6,1.2,2.6,2.6c0,1.4-1.1,2.6-2.6,2.6C7.2,6.1,6.1,5,6.1,3.6z M10.4,3.6
			c0-1-0.7-1.8-1.7-1.8c-1,0-1.7,0.8-1.7,1.8c0,1,0.7,1.8,1.7,1.8C9.7,5.3,10.4,4.5,10.4,3.6z"/>
		<path class="st2" d="M12.3,5.3h0.5c0.4-0.8,0.6-1.8,0.6-3.5V1.1h3.5v4.2h0.6l-0.1,1.9h-0.7V6.1h-3.5L13,7.1h-0.8V5.3z M16,5.3V1.9
			h-1.8v0.6c0,1.2-0.2,2.2-0.5,2.8H16z"/>
		<path class="st2" d="M18.6,3.6c0-1.4,1.1-2.6,2.6-2.6s2.6,1.2,2.6,2.6c0,1.4-1.1,2.6-2.6,2.6C19.7,6.1,18.6,5,18.6,3.6z M22.9,3.6
			c0-1-0.7-1.8-1.7-1.8c-1,0-1.7,0.8-1.7,1.8c0,1,0.7,1.8,1.7,1.8C22.2,5.3,22.9,4.5,22.9,3.6z"/>
		<path class="st2" d="M25.2,3.6c0-1.4,1.1-2.6,2.6-2.6c0.9,0,1.5,0.3,2,0.8l-0.6,0.6c-0.4-0.4-0.8-0.6-1.4-0.6
			c-1,0-1.6,0.8-1.6,1.8c0,1,0.7,1.8,1.6,1.8c0.6,0,1-0.2,1.4-0.6l0.6,0.6c-0.5,0.5-1.1,0.9-2,0.9C26.3,6.1,25.2,5,25.2,3.6z"/>
		<path class="st2" d="M32.5,1.9h-1.6V1.1h4v0.8h-1.6v4.2h-0.9V1.9z"/>
		<path class="st2" d="M35.9,3.6C35.9,2.2,37,1,38.5,1s2.6,1.2,2.6,2.6c0,1.4-1.1,2.6-2.6,2.6C36.9,6.1,35.9,5,35.9,3.6z M40.2,3.6
			c0-1-0.7-1.8-1.7-1.8c-1,0-1.7,0.8-1.7,1.8c0,1,0.7,1.8,1.7,1.8C39.5,5.3,40.2,4.5,40.2,3.6z"/>
		<path class="st2" d="M45.7,4.1c-0.4,0.2-0.9,0.4-1.4,0.4c-1,0-1.6-0.5-1.6-1.6V1.1h0.9v1.6c0,0.6,0.3,1,0.9,1c0.5,0,1-0.2,1.3-0.4
			V1.1h0.9v5h-0.9V4.1z"/>
		<path class="st2" d="M48.4,1.1h0.9v2.1h2.4V1.1h0.9v5h-0.9V4h-2.4v2.1h-0.9V1.1z"/>
		<path class="st2" d="M56.1,1h0.8l2.2,5h-0.9l-0.5-1.2h-2.4l-0.5,1.2h-0.9L56.1,1z M57.4,4.1l-0.9-2l-0.9,2H57.4z"/>
		<path class="st2" d="M61.5,4.2c-0.7-0.2-1.2-0.7-1.2-1.5c0-1,0.7-1.6,1.9-1.6h2.2v5h-0.9V4.3h-1.1l-1.2,1.7h-1L61.5,4.2z
			 M63.5,3.6V1.9h-1.3c-0.7,0-1,0.3-1,0.9c0,0.5,0.4,0.9,1,0.9H63.5z"/>
		<path class="st2" d="M68.8,3.6c0-1.4,1.1-2.6,2.6-2.6c0.9,0,1.5,0.3,2,0.8l-0.6,0.6c-0.4-0.4-0.8-0.6-1.4-0.6
			c-1,0-1.6,0.8-1.6,1.8c0,1,0.7,1.8,1.6,1.8c0.6,0,1-0.2,1.4-0.6l0.6,0.6c-0.5,0.5-1.1,0.9-2,0.9C69.8,6.1,68.8,5,68.8,3.6z"/>
		<path class="st2" d="M74.8,1.1h0.9v3.6l2.5-3.6H79v5h-0.9V2.4l-2.5,3.6h-0.8V1.1z"/>
		<path class="st2" d="M80.6,3.6c0-1.4,1.1-2.6,2.6-2.6c0.9,0,1.5,0.3,2,0.8l-0.6,0.6c-0.4-0.4-0.8-0.6-1.4-0.6
			c-1,0-1.6,0.8-1.6,1.8c0,1,0.7,1.8,1.6,1.8c0.6,0,1-0.2,1.4-0.6l0.6,0.6c-0.5,0.5-1.1,0.9-2,0.9C81.7,6.1,80.6,5,80.6,3.6z"/>
		<path class="st2" d="M87.9,1.9h-1.6V1.1h4v0.8h-1.6v4.2h-0.9V1.9z"/>
		<path class="st2" d="M91.9,1.1h3.7v0.8h-2.8v1.3h2.5v0.8h-2.5v1.3h2.9v0.8h-3.7V1.1z"/>
		<path class="st2" d="M97.2,1.1h0.9l1.5,2.4l1.5-2.4h0.9v5h-0.9V2.5l-1.6,2.4h0l-1.6-2.3v3.6h-0.9V1.1z"/>
		<path class="st2" d="M105.7,1h0.8l2.2,5h-0.9l-0.5-1.2H105l-0.5,1.2h-0.9L105.7,1z M107,4.1l-0.9-2l-0.9,2H107z"/>
	</g>
</g>
</svg>
