<?xml version="1.0" encoding="utf-8"?>
<!-- Generator: Adobe Illustrator 21.1.0, SVG Export Plug-In . SVG Version: 6.00 Build 0)  -->
<svg version="1.1" id="Слой_1" xmlns="http://www.w3.org/2000/svg" xmlns:xlink="http://www.w3.org/1999/xlink" x="0px" y="0px"
	 viewBox="0 0 196.8 57.8" style="enable-background:new 0 0 196.8 57.8;" xml:space="preserve">
<style type="text/css">
	.st0{clip-path:url(#SVGID_2_);fill:#FFFFFF;}
</style>
<g>
	<defs>
		<rect id="SVGID_1_" y="0" width="196.8" height="57.8"/>
	</defs>
	<clipPath id="SVGID_2_">
		<use xlink:href="#SVGID_1_"  style="overflow:visible;"/>
	</clipPath>
	<path class="st0" d="M44.5,57.7h-2.8c-1.3,0-2.5-0.6-3.3-1.7L8.2,14.2v39.5c0,2.3-1.8,4.1-4.1,4.1c-2.3,0-4.1-1.8-4.1-4.1V5
		c0-2.3,1.8-4.1,4.1-4.1h2.5c1.3,0,2.5,0.6,3.3,1.7l30.5,42.3V5c0-2.3,1.8-4.1,4.1-4.1c2.3,0,4.1,1.8,4.1,4.1v48.7
		C48.5,55.9,46.7,57.7,44.5,57.7"/>
	<path class="st0" d="M73.7,56.5c-2.3,0-4.1-1.8-4.1-4.1V5c0-2.3,1.8-4.1,4.1-4.1c2.3,0,4.1,1.8,4.1,4.1v47.4
		C77.8,54.6,76,56.5,73.7,56.5"/>
	<path class="st0" d="M104.5,56.5c-2.3,0-4.1-1.8-4.1-4.1V5c0-2.3,1.8-4.1,4.1-4.1c2.3,0,4.1,1.8,4.1,4.1v47.4
		C108.6,54.6,106.8,56.5,104.5,56.5"/>
	<path class="st0" d="M104.5,37c-1.1,0-2.2-0.4-3-1.3c-1.6-1.6-1.5-4.2,0.1-5.8L132,1.1c1.6-1.6,4.2-1.5,5.8,0.1
		c1.6,1.6,1.5,4.2-0.1,5.8l-30.3,28.8C106.5,36.6,105.5,37,104.5,37"/>
	<path class="st0" d="M136,57.5c-1.2,0-2.3-0.5-3.1-1.5l-23.4-28.1c-1.4-1.7-1.2-4.3,0.5-5.7c1.7-1.4,4.3-1.2,5.7,0.5l23.4,28.1
		c1.4,1.7,1.2,4.3-0.5,5.7C137.8,57.2,136.9,57.5,136,57.5"/>
	<path class="st0" d="M156,57.8c-0.5,0-0.9-0.1-1.4-0.2c-2.2-0.8-3.3-3.1-2.6-5.3L169,3.6c0.6-1.7,2.1-2.8,3.9-2.8h2.6
		c1.8,0,3.3,1.1,3.9,2.8l17.1,48.7c0.8,2.2-0.4,4.5-2.5,5.3c-2.2,0.8-4.5-0.4-5.3-2.5l-14.5-41.3L159.9,55
		C159.3,56.7,157.7,57.8,156,57.8"/>
	<path class="st0" d="M186.3,43.4H162c-2.3,0-4.1-1.8-4.1-4.1c0-2.3,1.8-4.1,4.1-4.1h24.3c2.3,0,4.1,1.8,4.1,4.1
		C190.4,41.6,188.6,43.4,186.3,43.4"/>
</g>
</svg>
