<?xml version="1.0" encoding="utf-8"?>
<!-- Generator: Adobe Illustrator 21.1.0, SVG Export Plug-In . SVG Version: 6.00 Build 0)  -->
<svg version="1.1" id="Слой_1" xmlns="http://www.w3.org/2000/svg" xmlns:xlink="http://www.w3.org/1999/xlink" x="0px" y="0px"
	 viewBox="0 0 114.2 26.9" style="enable-background:new 0 0 114.2 26.9;" xml:space="preserve">
<style type="text/css">
	.st0{clip-path:url(#SVGID_2_);}
</style>
<g>
	<defs>
		<rect id="SVGID_1_" y="0" width="114.2" height="26.9"/>
	</defs>
	<clipPath id="SVGID_2_">
		<use xlink:href="#SVGID_1_"  style="overflow:visible;"/>
	</clipPath>
	<path class="st0" d="M26.9,13.4c0,7.4-6,13.4-13.4,13.4C6,26.9,0,20.8,0,13.4S6,0,13.4,0C20.8,0,26.9,6,26.9,13.4 M6.9,20.8H20
		v-3.5h-7.4L20,9V6H7.1v3.5h7.2l-7.4,8.4V20.8z"/>
	<polygon class="st0" points="38,15.2 41.5,11.3 38.1,11.3 38.1,9.6 44.1,9.6 44.1,11 40.6,15 44.1,15 44.1,16.6 38,16.6 	"/>
	<polygon class="st0" points="45.3,9.6 51,9.6 51,11.3 47.3,11.3 47.3,12.3 50.6,12.3 50.6,13.9 47.3,13.9 47.3,15 51,15 51,16.6 
		45.3,16.6 	"/>
	<path class="st0" d="M52.2,9.6h3.3c1.1,0,1.8,0.3,2.3,0.7c0.4,0.4,0.6,0.9,0.6,1.7c0,1.1-0.6,1.8-1.4,2.1l1.7,2.4h-2.2L55,14.5
		h-0.8v2.1h-1.9V9.6z M55.4,13c0.7,0,1-0.3,1-0.8c0-0.5-0.4-0.8-1-0.8h-1.3V13H55.4z"/>
	<polygon class="st0" points="59.6,9.6 61.4,9.6 64.2,13.3 64.2,9.6 66.2,9.6 66.2,16.6 64.5,16.6 61.5,12.8 61.5,16.6 59.6,16.6 	
		"/>
	<path class="st0" d="M70,9.6h1.9l3,7h-2.1l-0.5-1.2h-2.7l-0.5,1.2h-2L70,9.6z M71.7,13.9l-0.8-2l-0.8,2H71.7z"/>
	<path class="st0" d="M75.9,9.6h2.3c2.2,0,3.7,1.5,3.7,3.5c0,2-1.5,3.5-3.7,3.5h-2.3V9.6z M78.3,16.1c1.9,0,3.2-1.3,3.2-3
		c0-1.7-1.2-3-3.2-3h-1.8v6H78.3z"/>
	<polygon class="st0" points="83.9,9.6 88.9,9.6 88.9,10.1 84.5,10.1 84.5,12.9 88.5,12.9 88.5,13.3 84.5,13.3 84.5,16.1 89,16.1 
		89,16.6 83.9,16.6 	"/>
	<path class="st0" d="M90.4,15.6l0.3-0.4c0.8,0.7,1.5,1,2.5,1c1,0,1.8-0.6,1.8-1.4c0-0.7-0.4-1.2-2-1.5c-1.7-0.3-2.4-0.9-2.4-2
		c0-1,0.9-1.8,2.2-1.8c1,0,1.7,0.3,2.4,0.8L95,10.8c-0.7-0.6-1.3-0.8-2.1-0.8c-1,0-1.7,0.6-1.7,1.3c0,0.7,0.4,1.2,2,1.5
		c1.6,0.3,2.3,0.9,2.3,1.9c0,1.1-1,1.9-2.3,1.9C92.1,16.7,91.2,16.3,90.4,15.6"/>
	<rect x="97.5" y="9.6" class="st0" width="0.5" height="7"/>
	<path class="st0" d="M100,13.1c0-1.9,1.4-3.6,3.5-3.6c1.1,0,1.9,0.3,2.6,0.9l-0.3,0.4c-0.5-0.5-1.2-0.8-2.2-0.8
		c-1.7,0-2.9,1.4-2.9,3.1c0,1.8,1.1,3.2,3,3.2c0.9,0,1.7-0.4,2.2-0.8v-2h-2.3V13h2.8v2.7c-0.6,0.6-1.6,1-2.7,1
		C101.3,16.7,100,15.1,100,13.1"/>
	<polygon class="st0" points="108.4,9.6 108.8,9.6 113.7,15.7 113.7,9.6 114.2,9.6 114.2,16.6 113.8,16.6 108.9,10.4 108.9,16.6 
		108.4,16.6 	"/>
	<rect x="45.5" y="7.2" class="st0" width="5.4" height="1.2"/>
</g>
</svg>
